G04 (created by PCBNEW (25-Oct-2014 BZR 4029)-stable) date Sat 16 May 2015 01:40:02 JST*
%MOIN*%
G04 Gerber Fmt 3.4, Leading zero omitted, Abs format*
%FSLAX34Y34*%
G01*
G70*
G90*
G04 APERTURE LIST*
%ADD10C,0.00590551*%
%ADD11C,0.00393701*%
%ADD12R,0.06X0.06*%
%ADD13C,0.06*%
%ADD14R,0.055X0.035*%
%ADD15R,0.035X0.055*%
%ADD16R,0.0984252X0.019685*%
%ADD17R,0.0314961X0.011811*%
%ADD18R,0.0314961X0.0885827*%
%ADD19C,0.035*%
%ADD20C,0.0240157*%
%ADD21C,0.0137795*%
%ADD22C,0.0393701*%
%ADD23C,0.0080315*%
%ADD24C,0.01*%
G04 APERTURE END LIST*
G54D10*
G54D11*
X30600Y-11700D02*
X50200Y-11700D01*
X30600Y-51000D02*
X35300Y-51000D01*
X45500Y-51000D02*
X50200Y-51000D01*
X35300Y-44200D02*
X45500Y-44200D01*
X35300Y-44200D02*
X35300Y-51000D01*
X45500Y-44200D02*
X45500Y-51000D01*
X30600Y-51000D02*
X30600Y-11700D01*
X50200Y-51000D02*
X50200Y-11700D01*
G54D12*
X48400Y-31200D03*
G54D13*
X49400Y-31200D03*
X48400Y-36200D03*
X49400Y-32200D03*
X48400Y-37200D03*
X49400Y-33200D03*
X48400Y-38200D03*
X49400Y-34200D03*
X48400Y-39200D03*
X49400Y-35200D03*
X48400Y-40200D03*
X49400Y-36200D03*
X48400Y-41200D03*
X49400Y-37200D03*
X48400Y-42200D03*
X49400Y-38200D03*
X48400Y-43200D03*
X49400Y-39200D03*
X48400Y-44200D03*
X49400Y-40200D03*
X48400Y-45200D03*
X49400Y-41200D03*
X48400Y-46200D03*
X49400Y-42200D03*
X49400Y-43200D03*
X48400Y-47200D03*
X49400Y-44200D03*
X49400Y-46200D03*
X49400Y-47200D03*
X49400Y-48200D03*
X49400Y-49200D03*
X48400Y-48200D03*
X48400Y-49200D03*
X48400Y-32200D03*
X48400Y-33200D03*
X48400Y-34200D03*
X48400Y-35200D03*
X48400Y-50200D03*
X49400Y-50200D03*
X49400Y-45200D03*
G54D12*
X32400Y-50200D03*
G54D13*
X31400Y-50200D03*
X32400Y-45200D03*
X31400Y-49200D03*
X32400Y-44200D03*
X31400Y-48200D03*
X32400Y-43200D03*
X31400Y-47200D03*
X32400Y-42200D03*
X31400Y-46200D03*
X32400Y-41200D03*
X31400Y-45200D03*
X32400Y-40200D03*
X31400Y-44200D03*
X32400Y-39200D03*
X31400Y-43200D03*
X32400Y-38200D03*
X31400Y-42200D03*
X32400Y-37200D03*
X31400Y-41200D03*
X32400Y-36200D03*
X31400Y-40200D03*
X32400Y-35200D03*
X31400Y-39200D03*
X31400Y-38200D03*
X32400Y-34200D03*
X31400Y-37200D03*
X31400Y-35200D03*
X31400Y-34200D03*
X31400Y-33200D03*
X31400Y-32200D03*
X32400Y-33200D03*
X32400Y-32200D03*
X32400Y-49200D03*
X32400Y-48200D03*
X32400Y-47200D03*
X32400Y-46200D03*
X32400Y-31200D03*
X31400Y-31200D03*
X31400Y-36200D03*
G54D10*
G36*
X36182Y-38016D02*
X36043Y-37876D01*
X36711Y-37208D01*
X36850Y-37347D01*
X36182Y-38016D01*
X36182Y-38016D01*
G37*
G36*
X36405Y-38238D02*
X36265Y-38099D01*
X36934Y-37431D01*
X37073Y-37570D01*
X36405Y-38238D01*
X36405Y-38238D01*
G37*
G36*
X36627Y-38461D02*
X36488Y-38322D01*
X37156Y-37654D01*
X37295Y-37793D01*
X36627Y-38461D01*
X36627Y-38461D01*
G37*
G36*
X36850Y-38684D02*
X36711Y-38545D01*
X37379Y-37876D01*
X37518Y-38016D01*
X36850Y-38684D01*
X36850Y-38684D01*
G37*
G36*
X37073Y-38906D02*
X36934Y-38767D01*
X37602Y-38099D01*
X37741Y-38238D01*
X37073Y-38906D01*
X37073Y-38906D01*
G37*
G36*
X37295Y-39129D02*
X37156Y-38990D01*
X37824Y-38322D01*
X37964Y-38461D01*
X37295Y-39129D01*
X37295Y-39129D01*
G37*
G36*
X37518Y-39352D02*
X37379Y-39213D01*
X38047Y-38545D01*
X38186Y-38684D01*
X37518Y-39352D01*
X37518Y-39352D01*
G37*
G36*
X37741Y-39575D02*
X37602Y-39435D01*
X38270Y-38767D01*
X38409Y-38906D01*
X37741Y-39575D01*
X37741Y-39575D01*
G37*
G36*
X37964Y-39797D02*
X37824Y-39658D01*
X38493Y-38990D01*
X38632Y-39129D01*
X37964Y-39797D01*
X37964Y-39797D01*
G37*
G36*
X38186Y-40020D02*
X38047Y-39881D01*
X38715Y-39213D01*
X38854Y-39352D01*
X38186Y-40020D01*
X38186Y-40020D01*
G37*
G36*
X38409Y-40243D02*
X38270Y-40104D01*
X38938Y-39435D01*
X39077Y-39575D01*
X38409Y-40243D01*
X38409Y-40243D01*
G37*
G36*
X38632Y-40465D02*
X38493Y-40326D01*
X39161Y-39658D01*
X39300Y-39797D01*
X38632Y-40465D01*
X38632Y-40465D01*
G37*
G36*
X38854Y-40688D02*
X38715Y-40549D01*
X39383Y-39881D01*
X39523Y-40020D01*
X38854Y-40688D01*
X38854Y-40688D01*
G37*
G36*
X39077Y-40911D02*
X38938Y-40772D01*
X39606Y-40104D01*
X39745Y-40243D01*
X39077Y-40911D01*
X39077Y-40911D01*
G37*
G36*
X39300Y-41134D02*
X39161Y-40994D01*
X39829Y-40326D01*
X39968Y-40465D01*
X39300Y-41134D01*
X39300Y-41134D01*
G37*
G36*
X39523Y-41356D02*
X39383Y-41217D01*
X40052Y-40549D01*
X40191Y-40688D01*
X39523Y-41356D01*
X39523Y-41356D01*
G37*
G36*
X41276Y-41356D02*
X40608Y-40688D01*
X40747Y-40549D01*
X41416Y-41217D01*
X41276Y-41356D01*
X41276Y-41356D01*
G37*
G36*
X41499Y-41134D02*
X40831Y-40465D01*
X40970Y-40326D01*
X41638Y-40994D01*
X41499Y-41134D01*
X41499Y-41134D01*
G37*
G36*
X41722Y-40911D02*
X41054Y-40243D01*
X41193Y-40104D01*
X41861Y-40772D01*
X41722Y-40911D01*
X41722Y-40911D01*
G37*
G36*
X41945Y-40688D02*
X41276Y-40020D01*
X41416Y-39881D01*
X42084Y-40549D01*
X41945Y-40688D01*
X41945Y-40688D01*
G37*
G36*
X42167Y-40465D02*
X41499Y-39797D01*
X41638Y-39658D01*
X42306Y-40326D01*
X42167Y-40465D01*
X42167Y-40465D01*
G37*
G36*
X42390Y-40243D02*
X41722Y-39575D01*
X41861Y-39435D01*
X42529Y-40104D01*
X42390Y-40243D01*
X42390Y-40243D01*
G37*
G36*
X42613Y-40020D02*
X41945Y-39352D01*
X42084Y-39213D01*
X42752Y-39881D01*
X42613Y-40020D01*
X42613Y-40020D01*
G37*
G36*
X42835Y-39797D02*
X42167Y-39129D01*
X42306Y-38990D01*
X42975Y-39658D01*
X42835Y-39797D01*
X42835Y-39797D01*
G37*
G36*
X43058Y-39575D02*
X42390Y-38906D01*
X42529Y-38767D01*
X43197Y-39435D01*
X43058Y-39575D01*
X43058Y-39575D01*
G37*
G36*
X43281Y-39352D02*
X42613Y-38684D01*
X42752Y-38545D01*
X43420Y-39213D01*
X43281Y-39352D01*
X43281Y-39352D01*
G37*
G36*
X43504Y-39129D02*
X42835Y-38461D01*
X42975Y-38322D01*
X43643Y-38990D01*
X43504Y-39129D01*
X43504Y-39129D01*
G37*
G36*
X43726Y-38906D02*
X43058Y-38238D01*
X43197Y-38099D01*
X43865Y-38767D01*
X43726Y-38906D01*
X43726Y-38906D01*
G37*
G36*
X43949Y-38684D02*
X43281Y-38016D01*
X43420Y-37876D01*
X44088Y-38545D01*
X43949Y-38684D01*
X43949Y-38684D01*
G37*
G36*
X44172Y-38461D02*
X43504Y-37793D01*
X43643Y-37654D01*
X44311Y-38322D01*
X44172Y-38461D01*
X44172Y-38461D01*
G37*
G36*
X44394Y-38238D02*
X43726Y-37570D01*
X43865Y-37431D01*
X44534Y-38099D01*
X44394Y-38238D01*
X44394Y-38238D01*
G37*
G36*
X44617Y-38016D02*
X43949Y-37347D01*
X44088Y-37208D01*
X44756Y-37876D01*
X44617Y-38016D01*
X44617Y-38016D01*
G37*
G36*
X44088Y-36791D02*
X43949Y-36652D01*
X44617Y-35983D01*
X44756Y-36123D01*
X44088Y-36791D01*
X44088Y-36791D01*
G37*
G36*
X43865Y-36568D02*
X43726Y-36429D01*
X44394Y-35761D01*
X44534Y-35900D01*
X43865Y-36568D01*
X43865Y-36568D01*
G37*
G36*
X43643Y-36345D02*
X43504Y-36206D01*
X44172Y-35538D01*
X44311Y-35677D01*
X43643Y-36345D01*
X43643Y-36345D01*
G37*
G36*
X43420Y-36123D02*
X43281Y-35983D01*
X43949Y-35315D01*
X44088Y-35454D01*
X43420Y-36123D01*
X43420Y-36123D01*
G37*
G36*
X43197Y-35900D02*
X43058Y-35761D01*
X43726Y-35093D01*
X43865Y-35232D01*
X43197Y-35900D01*
X43197Y-35900D01*
G37*
G36*
X42975Y-35677D02*
X42835Y-35538D01*
X43504Y-34870D01*
X43643Y-35009D01*
X42975Y-35677D01*
X42975Y-35677D01*
G37*
G36*
X42752Y-35454D02*
X42613Y-35315D01*
X43281Y-34647D01*
X43420Y-34786D01*
X42752Y-35454D01*
X42752Y-35454D01*
G37*
G36*
X42529Y-35232D02*
X42390Y-35093D01*
X43058Y-34424D01*
X43197Y-34564D01*
X42529Y-35232D01*
X42529Y-35232D01*
G37*
G36*
X42306Y-35009D02*
X42167Y-34870D01*
X42835Y-34202D01*
X42975Y-34341D01*
X42306Y-35009D01*
X42306Y-35009D01*
G37*
G36*
X42084Y-34786D02*
X41945Y-34647D01*
X42613Y-33979D01*
X42752Y-34118D01*
X42084Y-34786D01*
X42084Y-34786D01*
G37*
G36*
X41861Y-34564D02*
X41722Y-34424D01*
X42390Y-33756D01*
X42529Y-33895D01*
X41861Y-34564D01*
X41861Y-34564D01*
G37*
G36*
X41638Y-34341D02*
X41499Y-34202D01*
X42167Y-33534D01*
X42306Y-33673D01*
X41638Y-34341D01*
X41638Y-34341D01*
G37*
G36*
X41416Y-34118D02*
X41276Y-33979D01*
X41945Y-33311D01*
X42084Y-33450D01*
X41416Y-34118D01*
X41416Y-34118D01*
G37*
G36*
X41193Y-33895D02*
X41054Y-33756D01*
X41722Y-33088D01*
X41861Y-33227D01*
X41193Y-33895D01*
X41193Y-33895D01*
G37*
G36*
X40970Y-33673D02*
X40831Y-33534D01*
X41499Y-32865D01*
X41638Y-33005D01*
X40970Y-33673D01*
X40970Y-33673D01*
G37*
G36*
X40747Y-33450D02*
X40608Y-33311D01*
X41276Y-32643D01*
X41416Y-32782D01*
X40747Y-33450D01*
X40747Y-33450D01*
G37*
G36*
X40052Y-33450D02*
X39383Y-32782D01*
X39523Y-32643D01*
X40191Y-33311D01*
X40052Y-33450D01*
X40052Y-33450D01*
G37*
G36*
X39829Y-33673D02*
X39161Y-33005D01*
X39300Y-32865D01*
X39968Y-33534D01*
X39829Y-33673D01*
X39829Y-33673D01*
G37*
G36*
X39606Y-33895D02*
X38938Y-33227D01*
X39077Y-33088D01*
X39745Y-33756D01*
X39606Y-33895D01*
X39606Y-33895D01*
G37*
G36*
X39383Y-34118D02*
X38715Y-33450D01*
X38854Y-33311D01*
X39523Y-33979D01*
X39383Y-34118D01*
X39383Y-34118D01*
G37*
G36*
X39161Y-34341D02*
X38493Y-33673D01*
X38632Y-33534D01*
X39300Y-34202D01*
X39161Y-34341D01*
X39161Y-34341D01*
G37*
G36*
X38938Y-34564D02*
X38270Y-33895D01*
X38409Y-33756D01*
X39077Y-34424D01*
X38938Y-34564D01*
X38938Y-34564D01*
G37*
G36*
X38715Y-34786D02*
X38047Y-34118D01*
X38186Y-33979D01*
X38854Y-34647D01*
X38715Y-34786D01*
X38715Y-34786D01*
G37*
G36*
X38493Y-35009D02*
X37824Y-34341D01*
X37964Y-34202D01*
X38632Y-34870D01*
X38493Y-35009D01*
X38493Y-35009D01*
G37*
G36*
X38270Y-35232D02*
X37602Y-34564D01*
X37741Y-34424D01*
X38409Y-35093D01*
X38270Y-35232D01*
X38270Y-35232D01*
G37*
G36*
X38047Y-35454D02*
X37379Y-34786D01*
X37518Y-34647D01*
X38186Y-35315D01*
X38047Y-35454D01*
X38047Y-35454D01*
G37*
G36*
X37824Y-35677D02*
X37156Y-35009D01*
X37295Y-34870D01*
X37964Y-35538D01*
X37824Y-35677D01*
X37824Y-35677D01*
G37*
G36*
X37602Y-35900D02*
X36934Y-35232D01*
X37073Y-35093D01*
X37741Y-35761D01*
X37602Y-35900D01*
X37602Y-35900D01*
G37*
G36*
X37379Y-36123D02*
X36711Y-35454D01*
X36850Y-35315D01*
X37518Y-35983D01*
X37379Y-36123D01*
X37379Y-36123D01*
G37*
G36*
X37156Y-36345D02*
X36488Y-35677D01*
X36627Y-35538D01*
X37295Y-36206D01*
X37156Y-36345D01*
X37156Y-36345D01*
G37*
G36*
X36934Y-36568D02*
X36265Y-35900D01*
X36405Y-35761D01*
X37073Y-36429D01*
X36934Y-36568D01*
X36934Y-36568D01*
G37*
G36*
X36711Y-36791D02*
X36043Y-36123D01*
X36182Y-35983D01*
X36850Y-36652D01*
X36711Y-36791D01*
X36711Y-36791D01*
G37*
G54D14*
X46200Y-13699D03*
X46200Y-14449D03*
X45400Y-15125D03*
X45400Y-15875D03*
X46200Y-15125D03*
X46200Y-15875D03*
G54D15*
X48325Y-16300D03*
X49075Y-16300D03*
G54D16*
X33280Y-26607D03*
X33280Y-26292D03*
X33280Y-25977D03*
X33280Y-25662D03*
X33280Y-25347D03*
X33280Y-25032D03*
X33280Y-24717D03*
X33280Y-24402D03*
X33280Y-24087D03*
X33280Y-23772D03*
X33280Y-23457D03*
X33280Y-23142D03*
X33280Y-22827D03*
X33280Y-22512D03*
X33280Y-22197D03*
X33280Y-21882D03*
X33280Y-21567D03*
X33280Y-21252D03*
X33280Y-20937D03*
X33280Y-20622D03*
X33280Y-20307D03*
X33280Y-19992D03*
X38319Y-19992D03*
X38319Y-20307D03*
X38319Y-20622D03*
X38319Y-20937D03*
X38319Y-21252D03*
X38319Y-21567D03*
X38319Y-21882D03*
X38319Y-22197D03*
X38319Y-22512D03*
X38319Y-22827D03*
X38319Y-23142D03*
X38319Y-23457D03*
X38319Y-23772D03*
X38319Y-24087D03*
X38319Y-24402D03*
X38319Y-24717D03*
X38319Y-25032D03*
X38319Y-25347D03*
X38319Y-25662D03*
X38319Y-25977D03*
X38319Y-26292D03*
X38319Y-26607D03*
X42480Y-26607D03*
X42480Y-26292D03*
X42480Y-25977D03*
X42480Y-25662D03*
X42480Y-25347D03*
X42480Y-25032D03*
X42480Y-24717D03*
X42480Y-24402D03*
X42480Y-24087D03*
X42480Y-23772D03*
X42480Y-23457D03*
X42480Y-23142D03*
X42480Y-22827D03*
X42480Y-22512D03*
X42480Y-22197D03*
X42480Y-21882D03*
X42480Y-21567D03*
X42480Y-21252D03*
X42480Y-20937D03*
X42480Y-20622D03*
X42480Y-20307D03*
X42480Y-19992D03*
X47519Y-19992D03*
X47519Y-20307D03*
X47519Y-20622D03*
X47519Y-20937D03*
X47519Y-21252D03*
X47519Y-21567D03*
X47519Y-21882D03*
X47519Y-22197D03*
X47519Y-22512D03*
X47519Y-22827D03*
X47519Y-23142D03*
X47519Y-23457D03*
X47519Y-23772D03*
X47519Y-24087D03*
X47519Y-24402D03*
X47519Y-24717D03*
X47519Y-25032D03*
X47519Y-25347D03*
X47519Y-25662D03*
X47519Y-25977D03*
X47519Y-26292D03*
X47519Y-26607D03*
G54D17*
X47486Y-14925D03*
X47486Y-15181D03*
X47486Y-15437D03*
X47486Y-15693D03*
X48313Y-15693D03*
X48313Y-15437D03*
X48313Y-15181D03*
X48313Y-14925D03*
G54D18*
X47900Y-15300D03*
G54D14*
X49200Y-14825D03*
X49200Y-15575D03*
G54D19*
X47559Y-18149D03*
X33307Y-40039D03*
X31850Y-30118D03*
X46653Y-23149D03*
X40944Y-23503D03*
X36259Y-23937D03*
X32125Y-23661D03*
X41929Y-35236D03*
X47000Y-15500D03*
X47800Y-16300D03*
X38070Y-37755D03*
G54D20*
X35511Y-35472D03*
X39212Y-39330D03*
X39527Y-39448D03*
X37519Y-37440D03*
X37637Y-37755D03*
X38779Y-38897D03*
X40118Y-40196D03*
X40000Y-39881D03*
X39645Y-39763D03*
X36220Y-36614D03*
X39094Y-39015D03*
X35787Y-35748D03*
X33976Y-25984D03*
X41692Y-25984D03*
X41141Y-39763D03*
X43385Y-37559D03*
X34055Y-20629D03*
X41692Y-20629D03*
X43543Y-37244D03*
X44566Y-37401D03*
X44645Y-36653D03*
X43661Y-36653D03*
X43346Y-36496D03*
X41692Y-29842D03*
X44960Y-32322D03*
X43228Y-36181D03*
X44606Y-32322D03*
X41023Y-29566D03*
X42874Y-36102D03*
X44251Y-32322D03*
X40590Y-29291D03*
X42755Y-35787D03*
X43897Y-32322D03*
X40118Y-29015D03*
X42440Y-35629D03*
X41574Y-25669D03*
X41259Y-39448D03*
X34094Y-25669D03*
X45590Y-29507D03*
X48405Y-29488D03*
X42322Y-35314D03*
X43267Y-32322D03*
X39645Y-28740D03*
X41850Y-34842D03*
X41535Y-34724D03*
X41417Y-34409D03*
X33976Y-25354D03*
X41574Y-39330D03*
X41692Y-25354D03*
X41968Y-38818D03*
X41574Y-25039D03*
X34055Y-25039D03*
X42086Y-38503D03*
X41692Y-24724D03*
X33976Y-24724D03*
X42440Y-38385D03*
X41692Y-21889D03*
X34015Y-21889D03*
X42598Y-38070D03*
X41574Y-21574D03*
X34133Y-21574D03*
X42952Y-37992D03*
X41692Y-21259D03*
X34015Y-21259D03*
X43070Y-37677D03*
X41614Y-20944D03*
X34133Y-20944D03*
X38070Y-38228D03*
X37637Y-36259D03*
X37952Y-36141D03*
X40196Y-33897D03*
X38543Y-27440D03*
X38543Y-30551D03*
X40039Y-32795D03*
X38937Y-27440D03*
X38937Y-30551D03*
X44133Y-27244D03*
X45236Y-23661D03*
X40551Y-33543D03*
X44566Y-27244D03*
X45314Y-24055D03*
X40590Y-33937D03*
X46653Y-24094D03*
X45000Y-27244D03*
X40944Y-33976D03*
X41102Y-34291D03*
X38070Y-35826D03*
X38385Y-35669D03*
X38543Y-35354D03*
X38976Y-34921D03*
X39291Y-34803D03*
X39409Y-34488D03*
X37755Y-27440D03*
X37755Y-30551D03*
X39763Y-34370D03*
X38149Y-27440D03*
X38149Y-30551D03*
X39881Y-34015D03*
X37204Y-37322D03*
X40708Y-40196D03*
X40748Y-41220D03*
X40039Y-41181D03*
X36181Y-37322D03*
X47598Y-31692D03*
X34094Y-24409D03*
X41614Y-24409D03*
X48228Y-24606D03*
X45472Y-27244D03*
G54D19*
X35866Y-16240D03*
X37814Y-16259D03*
X46200Y-16456D03*
X49045Y-18769D03*
X41259Y-36988D03*
X46653Y-23622D03*
X41338Y-23228D03*
X36771Y-23740D03*
X32125Y-22874D03*
X38543Y-38188D03*
G54D21*
X48325Y-17383D02*
X48325Y-16300D01*
X47559Y-18149D02*
X48325Y-17383D01*
X36896Y-23142D02*
X38319Y-23142D01*
X32952Y-39685D02*
X32165Y-39685D01*
X33307Y-40039D02*
X32952Y-39685D01*
X31889Y-39409D02*
X32165Y-39685D01*
X31889Y-30157D02*
X31889Y-39409D01*
X31850Y-30118D02*
X31889Y-30157D01*
X46660Y-23142D02*
X47519Y-23142D01*
X46653Y-23149D02*
X46660Y-23142D01*
X41700Y-23457D02*
X42480Y-23457D01*
X40944Y-23503D02*
X41024Y-23583D01*
X41024Y-23583D02*
X41574Y-23583D01*
X41574Y-23583D02*
X41700Y-23457D01*
X36413Y-23625D02*
X36896Y-23142D01*
X36413Y-23783D02*
X36413Y-23625D01*
X36259Y-23937D02*
X36413Y-23783D01*
X32329Y-23457D02*
X33280Y-23457D01*
X32125Y-23661D02*
X32329Y-23457D01*
X42559Y-34605D02*
X42571Y-34605D01*
X41929Y-35236D02*
X42559Y-34605D01*
X47486Y-15437D02*
X47062Y-15437D01*
X47062Y-15437D02*
X47000Y-15500D01*
X47800Y-16300D02*
X48325Y-16300D01*
X48313Y-15693D02*
X48313Y-16288D01*
X48313Y-16288D02*
X48325Y-16300D01*
X38070Y-37755D02*
X37337Y-38489D01*
X37337Y-38489D02*
X37337Y-38503D01*
G54D22*
X48400Y-36200D02*
X48051Y-36200D01*
X48051Y-36200D02*
X47322Y-36929D01*
X47322Y-36929D02*
X47322Y-40826D01*
X47322Y-40826D02*
X44291Y-43858D01*
X44291Y-43858D02*
X34921Y-43858D01*
X34921Y-43858D02*
X33579Y-45200D01*
X33579Y-45200D02*
X32400Y-45200D01*
G54D21*
X30728Y-44311D02*
X30728Y-18169D01*
X35629Y-13267D02*
X48543Y-13267D01*
X30728Y-18169D02*
X35629Y-13267D01*
X32400Y-45200D02*
X32207Y-45200D01*
X49200Y-13924D02*
X49200Y-14825D01*
X48543Y-13267D02*
X49200Y-13924D01*
X31122Y-44704D02*
X30728Y-44311D01*
X31712Y-44704D02*
X31122Y-44704D01*
X32207Y-45200D02*
X31712Y-44704D01*
X49200Y-14825D02*
X49200Y-14900D01*
X49200Y-14900D02*
X48918Y-15181D01*
X48918Y-15181D02*
X48313Y-15181D01*
G54D23*
X36892Y-35942D02*
X36887Y-35942D01*
X36887Y-35942D02*
X36417Y-35472D01*
X36417Y-35472D02*
X35511Y-35472D01*
X38673Y-39839D02*
X38703Y-39839D01*
X38703Y-39839D02*
X39212Y-39330D01*
X38896Y-40062D02*
X38914Y-40062D01*
X38914Y-40062D02*
X39527Y-39448D01*
X36892Y-38057D02*
X36902Y-38057D01*
X36902Y-38057D02*
X37519Y-37440D01*
X37115Y-38280D02*
X37115Y-38278D01*
X37115Y-38278D02*
X37637Y-37755D01*
X38228Y-39394D02*
X38283Y-39394D01*
X38283Y-39394D02*
X38779Y-38897D01*
X39564Y-40730D02*
X39584Y-40730D01*
X39584Y-40730D02*
X40118Y-40196D01*
X39342Y-40507D02*
X39374Y-40507D01*
X39374Y-40507D02*
X40000Y-39881D01*
X39119Y-40284D02*
X39124Y-40284D01*
X39124Y-40284D02*
X39645Y-39763D01*
X36446Y-36387D02*
X36446Y-36387D01*
X36446Y-36387D02*
X36220Y-36614D01*
X38451Y-39616D02*
X38493Y-39616D01*
X38493Y-39616D02*
X39094Y-39015D01*
X36669Y-36164D02*
X36669Y-36157D01*
X36259Y-35748D02*
X35787Y-35748D01*
X36669Y-36157D02*
X36259Y-35748D01*
X33280Y-25977D02*
X32726Y-25977D01*
X42480Y-25977D02*
X41700Y-25977D01*
X33969Y-25977D02*
X33280Y-25977D01*
X33976Y-25984D02*
X33969Y-25977D01*
X41700Y-25977D02*
X41692Y-25984D01*
X32726Y-25977D02*
X32637Y-26066D01*
X32637Y-26066D02*
X32637Y-27559D01*
X32637Y-27559D02*
X34744Y-29665D01*
X41680Y-40284D02*
X41662Y-40284D01*
X41662Y-40284D02*
X41141Y-39763D01*
X42125Y-40730D02*
X41680Y-40284D01*
X42125Y-41032D02*
X42125Y-40730D01*
X41387Y-41771D02*
X42125Y-41032D01*
X39566Y-41771D02*
X41387Y-41771D01*
X34744Y-36948D02*
X39566Y-41771D01*
X34744Y-29665D02*
X34744Y-36948D01*
X33149Y-37992D02*
X33149Y-30196D01*
X33149Y-30196D02*
X31043Y-28090D01*
X32605Y-20622D02*
X31043Y-22185D01*
X33280Y-20622D02*
X32605Y-20622D01*
X31043Y-22185D02*
X31043Y-28090D01*
X43907Y-38057D02*
X43884Y-38057D01*
X43884Y-38057D02*
X43385Y-37559D01*
X42480Y-20622D02*
X41700Y-20622D01*
X34048Y-20622D02*
X33280Y-20622D01*
X34055Y-20629D02*
X34048Y-20622D01*
X41700Y-20622D02*
X41692Y-20629D01*
X33149Y-37992D02*
X38503Y-43346D01*
X44330Y-38480D02*
X43907Y-38057D01*
X44330Y-40944D02*
X44330Y-38480D01*
X41929Y-43346D02*
X44330Y-40944D01*
X38503Y-43346D02*
X41929Y-43346D01*
X48221Y-20937D02*
X49507Y-22224D01*
X49507Y-22224D02*
X49507Y-27539D01*
X45452Y-38287D02*
X44582Y-38287D01*
X46456Y-37283D02*
X45452Y-38287D01*
X44130Y-37835D02*
X44582Y-38287D01*
X48221Y-20937D02*
X47519Y-20937D01*
X46456Y-30590D02*
X46456Y-37283D01*
X49507Y-27539D02*
X46456Y-30590D01*
X44130Y-37835D02*
X44130Y-37831D01*
X44130Y-37831D02*
X43543Y-37244D01*
X47519Y-20937D02*
X46843Y-20937D01*
X46843Y-20937D02*
X43818Y-17913D01*
X43818Y-17913D02*
X41299Y-17913D01*
X41299Y-17913D02*
X39409Y-19803D01*
X39409Y-19803D02*
X39409Y-20629D01*
X39409Y-20629D02*
X39101Y-20937D01*
X39101Y-20937D02*
X38319Y-20937D01*
X48257Y-21252D02*
X49330Y-22325D01*
X49330Y-22325D02*
X49330Y-27480D01*
X49330Y-27480D02*
X46279Y-30531D01*
X45393Y-38110D02*
X44850Y-38110D01*
X46279Y-37224D02*
X45393Y-38110D01*
X44353Y-37612D02*
X44850Y-38110D01*
X48257Y-21252D02*
X47519Y-21252D01*
X46279Y-30531D02*
X46279Y-37224D01*
X44353Y-37612D02*
X44356Y-37612D01*
X44356Y-37612D02*
X44566Y-37401D01*
X47519Y-21252D02*
X46922Y-21252D01*
X46922Y-21252D02*
X43759Y-18090D01*
X43759Y-18090D02*
X41358Y-18090D01*
X41358Y-18090D02*
X39586Y-19862D01*
X39586Y-19862D02*
X39586Y-20688D01*
X39586Y-20688D02*
X39022Y-21252D01*
X39022Y-21252D02*
X38319Y-21252D01*
X44353Y-36387D02*
X44380Y-36387D01*
X44380Y-36387D02*
X46102Y-34665D01*
X49153Y-27421D02*
X46102Y-30472D01*
X49153Y-22421D02*
X49153Y-27421D01*
X48300Y-21567D02*
X49153Y-22421D01*
X47519Y-21567D02*
X48300Y-21567D01*
X46102Y-30472D02*
X46102Y-34665D01*
X44353Y-36387D02*
X44379Y-36387D01*
X44379Y-36387D02*
X44645Y-36653D01*
X47519Y-21567D02*
X46961Y-21567D01*
X46961Y-21567D02*
X43661Y-18267D01*
X38944Y-21567D02*
X38319Y-21567D01*
X39763Y-20748D02*
X38944Y-21567D01*
X39763Y-19921D02*
X39763Y-20748D01*
X41417Y-18267D02*
X39763Y-19921D01*
X43661Y-18267D02*
X41417Y-18267D01*
X44150Y-36164D02*
X45925Y-34389D01*
X45925Y-34389D02*
X45925Y-30413D01*
X47519Y-21882D02*
X48300Y-21882D01*
X48300Y-21882D02*
X48976Y-22559D01*
X48976Y-22559D02*
X48976Y-27362D01*
X48976Y-27362D02*
X45925Y-30413D01*
X44150Y-36164D02*
X44130Y-36164D01*
X44130Y-36164D02*
X44130Y-36184D01*
X44130Y-36184D02*
X43661Y-36653D01*
X47519Y-21882D02*
X47040Y-21882D01*
X47040Y-21882D02*
X43602Y-18444D01*
X43602Y-18444D02*
X41476Y-18444D01*
X41476Y-18444D02*
X39960Y-19960D01*
X39960Y-19960D02*
X39960Y-20866D01*
X39960Y-20866D02*
X38944Y-21882D01*
X38944Y-21882D02*
X38319Y-21882D01*
X47519Y-22197D02*
X47059Y-22197D01*
X45122Y-20192D02*
X45118Y-20192D01*
X45122Y-20260D02*
X45122Y-20192D01*
X47059Y-22197D02*
X45122Y-20260D01*
X45748Y-34094D02*
X45748Y-30354D01*
X45748Y-30354D02*
X48799Y-27303D01*
X43907Y-35934D02*
X45748Y-34094D01*
X47519Y-22197D02*
X48296Y-22197D01*
X48296Y-22197D02*
X48799Y-22700D01*
X48799Y-22700D02*
X48799Y-27303D01*
X43907Y-35934D02*
X43907Y-35942D01*
X43907Y-35942D02*
X43900Y-35942D01*
X43900Y-35942D02*
X43346Y-36496D01*
X45118Y-20192D02*
X45118Y-20196D01*
X45118Y-20196D02*
X43543Y-18622D01*
X43543Y-18622D02*
X41535Y-18622D01*
X41535Y-18622D02*
X40137Y-20019D01*
X40137Y-20019D02*
X40137Y-21003D01*
X40137Y-21003D02*
X38944Y-22197D01*
X38944Y-22197D02*
X38319Y-22197D01*
X41692Y-29842D02*
X38543Y-29842D01*
X38319Y-24717D02*
X37487Y-24717D01*
X37487Y-24717D02*
X36692Y-25511D01*
X36692Y-25511D02*
X36692Y-27992D01*
X38543Y-29842D02*
X36692Y-27992D01*
X44960Y-34443D02*
X43684Y-35719D01*
X44960Y-32322D02*
X44960Y-34443D01*
X43684Y-35719D02*
X43684Y-35724D01*
X43684Y-35724D02*
X43228Y-36181D01*
X47519Y-24717D02*
X45347Y-24717D01*
X45347Y-24717D02*
X44606Y-23976D01*
X44606Y-23976D02*
X44606Y-20157D01*
X44606Y-20157D02*
X43425Y-18976D01*
X40492Y-20137D02*
X40492Y-21515D01*
X38983Y-24717D02*
X38319Y-24717D01*
X39330Y-24370D02*
X38983Y-24717D01*
X39330Y-22677D02*
X39330Y-24370D01*
X40492Y-21515D02*
X39330Y-22677D01*
X41653Y-18976D02*
X40492Y-20137D01*
X43425Y-18976D02*
X41653Y-18976D01*
X38319Y-25032D02*
X37566Y-25032D01*
X43462Y-35474D02*
X43462Y-35496D01*
X44606Y-34330D02*
X43462Y-35474D01*
X44606Y-32322D02*
X44606Y-34330D01*
X38503Y-29566D02*
X41023Y-29566D01*
X36870Y-27933D02*
X38503Y-29566D01*
X36870Y-25728D02*
X36870Y-27933D01*
X37566Y-25032D02*
X36870Y-25728D01*
X43462Y-35496D02*
X43462Y-35514D01*
X43462Y-35514D02*
X42874Y-36102D01*
X47519Y-25032D02*
X45425Y-25032D01*
X45425Y-25032D02*
X44429Y-24035D01*
X44429Y-24035D02*
X44429Y-20216D01*
X40669Y-20196D02*
X40669Y-21574D01*
X38983Y-25032D02*
X38319Y-25032D01*
X39566Y-24448D02*
X38983Y-25032D01*
X39566Y-22677D02*
X39566Y-24448D01*
X40669Y-21574D02*
X39566Y-22677D01*
X41712Y-19153D02*
X40669Y-20196D01*
X43366Y-19153D02*
X41712Y-19153D01*
X44429Y-20216D02*
X43366Y-19153D01*
X40590Y-29291D02*
X38464Y-29291D01*
X44251Y-32322D02*
X44251Y-34261D01*
X43239Y-35273D02*
X44251Y-34261D01*
X37625Y-25347D02*
X38319Y-25347D01*
X37625Y-25347D02*
X37047Y-25925D01*
X37047Y-27874D02*
X37047Y-25925D01*
X38464Y-29291D02*
X37047Y-27874D01*
X43239Y-35273D02*
X43239Y-35303D01*
X43239Y-35303D02*
X42755Y-35787D01*
X47519Y-25347D02*
X45504Y-25347D01*
X39022Y-25347D02*
X38319Y-25347D01*
X39803Y-22677D02*
X39803Y-24566D01*
X39803Y-24566D02*
X39022Y-25347D01*
X43267Y-19330D02*
X41771Y-19330D01*
X41771Y-19330D02*
X40849Y-20252D01*
X40849Y-21630D02*
X39803Y-22677D01*
X40849Y-20252D02*
X40849Y-21630D01*
X45504Y-25347D02*
X44251Y-24094D01*
X44251Y-24094D02*
X44251Y-20314D01*
X44251Y-20314D02*
X43267Y-19330D01*
X40118Y-29015D02*
X38425Y-29015D01*
X43897Y-34170D02*
X43897Y-32322D01*
X37605Y-25662D02*
X38319Y-25662D01*
X37224Y-26043D02*
X37224Y-27814D01*
X37605Y-25662D02*
X37224Y-26043D01*
X38425Y-29015D02*
X37224Y-27814D01*
X43897Y-34170D02*
X43016Y-35051D01*
X43016Y-35051D02*
X43016Y-35054D01*
X43016Y-35054D02*
X42440Y-35629D01*
X47519Y-25662D02*
X45583Y-25662D01*
X39022Y-25662D02*
X38319Y-25662D01*
X40000Y-22716D02*
X40000Y-24685D01*
X40000Y-24685D02*
X39022Y-25662D01*
X43169Y-19507D02*
X41830Y-19507D01*
X41830Y-19507D02*
X41023Y-20314D01*
X41023Y-21692D02*
X40000Y-22716D01*
X41023Y-20314D02*
X41023Y-21692D01*
X45583Y-25662D02*
X44074Y-24153D01*
X44074Y-24153D02*
X44074Y-20413D01*
X44074Y-20413D02*
X43169Y-19507D01*
X42480Y-25662D02*
X41581Y-25662D01*
X41581Y-25662D02*
X41574Y-25669D01*
X41903Y-40062D02*
X41873Y-40062D01*
X41873Y-40062D02*
X41259Y-39448D01*
X42322Y-40481D02*
X41903Y-40062D01*
X42322Y-41062D02*
X42322Y-40481D01*
X41452Y-41933D02*
X42322Y-41062D01*
X39453Y-41933D02*
X41452Y-41933D01*
X34566Y-37047D02*
X39453Y-41933D01*
X33280Y-25662D02*
X32566Y-25662D01*
X34087Y-25662D02*
X33280Y-25662D01*
X34094Y-25669D02*
X34087Y-25662D01*
X32566Y-25662D02*
X32460Y-25767D01*
X32460Y-25767D02*
X32460Y-27618D01*
X32460Y-27618D02*
X34566Y-29724D01*
X34566Y-29724D02*
X34566Y-37047D01*
X47519Y-20622D02*
X48142Y-20622D01*
X43582Y-34040D02*
X42794Y-34828D01*
X43582Y-32086D02*
X43582Y-34040D01*
X45216Y-30452D02*
X43582Y-32086D01*
X45216Y-29881D02*
X45216Y-30452D01*
X45590Y-29507D02*
X45216Y-29881D01*
X49685Y-28208D02*
X48405Y-29488D01*
X49685Y-22165D02*
X49685Y-28208D01*
X48142Y-20622D02*
X49685Y-22165D01*
X42794Y-34828D02*
X42794Y-34843D01*
X42794Y-34843D02*
X42322Y-35314D01*
X42794Y-34828D02*
X42809Y-34828D01*
X47519Y-20622D02*
X46764Y-20622D01*
X39180Y-20622D02*
X38319Y-20622D01*
X39232Y-20570D02*
X39180Y-20622D01*
X39232Y-19744D02*
X39232Y-20570D01*
X41240Y-17736D02*
X39232Y-19744D01*
X43877Y-17736D02*
X41240Y-17736D01*
X46764Y-20622D02*
X43877Y-17736D01*
X39645Y-28740D02*
X38385Y-28740D01*
X43267Y-33464D02*
X43267Y-32322D01*
X37401Y-26141D02*
X37401Y-27755D01*
X37566Y-25977D02*
X37401Y-26141D01*
X37566Y-25977D02*
X38319Y-25977D01*
X38385Y-28740D02*
X37401Y-27755D01*
X43267Y-33464D02*
X42348Y-34383D01*
X42348Y-34383D02*
X42309Y-34383D01*
X42309Y-34383D02*
X41850Y-34842D01*
X41200Y-20374D02*
X41200Y-21751D01*
X45662Y-25977D02*
X43897Y-24212D01*
X43897Y-24212D02*
X43897Y-20472D01*
X43897Y-20472D02*
X43110Y-19685D01*
X43110Y-19685D02*
X41889Y-19685D01*
X41889Y-19685D02*
X41200Y-20374D01*
X47519Y-25977D02*
X45662Y-25977D01*
X40196Y-24803D02*
X39022Y-25977D01*
X39022Y-25977D02*
X38319Y-25977D01*
X41200Y-21751D02*
X40196Y-22755D01*
X40196Y-22755D02*
X40196Y-24803D01*
X42126Y-34160D02*
X42099Y-34160D01*
X42099Y-34160D02*
X41535Y-34724D01*
X41903Y-33937D02*
X41889Y-33937D01*
X41889Y-33937D02*
X41417Y-34409D01*
X33969Y-25347D02*
X33280Y-25347D01*
X33976Y-25354D02*
X33969Y-25347D01*
X42126Y-39839D02*
X42083Y-39839D01*
X42083Y-39839D02*
X41574Y-39330D01*
X42637Y-40351D02*
X42126Y-39839D01*
X42637Y-40984D02*
X42637Y-40351D01*
X41515Y-42106D02*
X42637Y-40984D01*
X39311Y-42106D02*
X41515Y-42106D01*
X34389Y-37185D02*
X39311Y-42106D01*
X34389Y-29783D02*
X34389Y-37185D01*
X32283Y-27677D02*
X34389Y-29783D01*
X32283Y-25511D02*
X32283Y-27677D01*
X32448Y-25347D02*
X32283Y-25511D01*
X33280Y-25347D02*
X32448Y-25347D01*
X42480Y-25347D02*
X41700Y-25347D01*
X41700Y-25347D02*
X41692Y-25354D01*
X42571Y-39394D02*
X42543Y-39394D01*
X42543Y-39394D02*
X41968Y-38818D01*
X42952Y-39775D02*
X42571Y-39394D01*
X42952Y-40905D02*
X42952Y-39775D01*
X41574Y-42283D02*
X42952Y-40905D01*
X39212Y-42283D02*
X41574Y-42283D01*
X34212Y-37283D02*
X39212Y-42283D01*
X34212Y-29842D02*
X34212Y-37283D01*
X32106Y-27736D02*
X34212Y-29842D01*
X32106Y-25377D02*
X32106Y-27736D01*
X42480Y-25032D02*
X41581Y-25032D01*
X41581Y-25032D02*
X41574Y-25039D01*
X33280Y-25032D02*
X32451Y-25032D01*
X32451Y-25032D02*
X32106Y-25377D01*
X34048Y-25032D02*
X33280Y-25032D01*
X34055Y-25039D02*
X34048Y-25032D01*
X42754Y-39171D02*
X42794Y-39171D01*
X42754Y-39171D02*
X42086Y-38503D01*
X43129Y-39507D02*
X42794Y-39171D01*
X43129Y-40964D02*
X43129Y-39507D01*
X41633Y-42460D02*
X43129Y-40964D01*
X39114Y-42460D02*
X41633Y-42460D01*
X34035Y-37381D02*
X39114Y-42460D01*
X34035Y-29901D02*
X34035Y-37381D01*
X31929Y-27795D02*
X34035Y-29901D01*
X31929Y-25200D02*
X31929Y-27795D01*
X42480Y-24717D02*
X41700Y-24717D01*
X41700Y-24717D02*
X41692Y-24724D01*
X33280Y-24717D02*
X32411Y-24717D01*
X32411Y-24717D02*
X31929Y-25200D01*
X33969Y-24717D02*
X33280Y-24717D01*
X33976Y-24724D02*
X33969Y-24717D01*
X43016Y-38948D02*
X43003Y-38948D01*
X43003Y-38948D02*
X42440Y-38385D01*
X43425Y-39357D02*
X43016Y-38948D01*
X43425Y-40905D02*
X43425Y-39357D01*
X41692Y-42637D02*
X43425Y-40905D01*
X39015Y-42637D02*
X41692Y-42637D01*
X33858Y-37480D02*
X39015Y-42637D01*
X33858Y-29960D02*
X33858Y-37480D01*
X31751Y-27854D02*
X33858Y-29960D01*
X31751Y-22657D02*
X31751Y-27854D01*
X42480Y-21882D02*
X41700Y-21882D01*
X41700Y-21882D02*
X41692Y-21889D01*
X32526Y-21882D02*
X31751Y-22657D01*
X33280Y-21882D02*
X32526Y-21882D01*
X34008Y-21882D02*
X33280Y-21882D01*
X34015Y-21889D02*
X34008Y-21882D01*
X43661Y-40905D02*
X43661Y-39147D01*
X41751Y-42814D02*
X43661Y-40905D01*
X38917Y-42814D02*
X41751Y-42814D01*
X33681Y-37578D02*
X38917Y-42814D01*
X33681Y-30019D02*
X33681Y-37578D01*
X31574Y-27913D02*
X33681Y-30019D01*
X31574Y-22559D02*
X31574Y-27913D01*
X32566Y-21567D02*
X31574Y-22559D01*
X43239Y-38726D02*
X43239Y-38712D01*
X43239Y-38712D02*
X42598Y-38070D01*
X43661Y-39147D02*
X43239Y-38726D01*
X42480Y-21567D02*
X41581Y-21567D01*
X41581Y-21567D02*
X41574Y-21574D01*
X33280Y-21567D02*
X32566Y-21567D01*
X34126Y-21567D02*
X33280Y-21567D01*
X34133Y-21574D02*
X34126Y-21567D01*
X43462Y-38503D02*
X43462Y-38501D01*
X43462Y-38501D02*
X42952Y-37992D01*
X43877Y-38918D02*
X43462Y-38503D01*
X43877Y-40925D02*
X43877Y-38918D01*
X41811Y-42992D02*
X43877Y-40925D01*
X38779Y-42992D02*
X41811Y-42992D01*
X33503Y-37716D02*
X38779Y-42992D01*
X33503Y-30078D02*
X33503Y-37716D01*
X31397Y-27972D02*
X33503Y-30078D01*
X31397Y-22421D02*
X31397Y-27972D01*
X32566Y-21252D02*
X31397Y-22421D01*
X33280Y-21252D02*
X32566Y-21252D01*
X42480Y-21252D02*
X41700Y-21252D01*
X41700Y-21252D02*
X41692Y-21259D01*
X34008Y-21252D02*
X33280Y-21252D01*
X34015Y-21259D02*
X34008Y-21252D01*
X43684Y-38280D02*
X43674Y-38280D01*
X43674Y-38280D02*
X43070Y-37677D01*
X44114Y-38709D02*
X43684Y-38280D01*
X44114Y-40925D02*
X44114Y-38709D01*
X41870Y-43169D02*
X44114Y-40925D01*
X38641Y-43169D02*
X41870Y-43169D01*
X33326Y-37854D02*
X38641Y-43169D01*
X33326Y-30137D02*
X33326Y-37854D01*
X31220Y-28031D02*
X33326Y-30137D01*
X31220Y-22322D02*
X31220Y-28031D01*
X42480Y-20937D02*
X41621Y-20937D01*
X41621Y-20937D02*
X41614Y-20944D01*
X32605Y-20937D02*
X31220Y-22322D01*
X33280Y-20937D02*
X32605Y-20937D01*
X34126Y-20937D02*
X33280Y-20937D01*
X34133Y-20944D02*
X34126Y-20937D01*
X37560Y-38726D02*
X37573Y-38726D01*
X37573Y-38726D02*
X38070Y-38228D01*
X37115Y-35719D02*
X37115Y-35737D01*
X37115Y-35737D02*
X37637Y-36259D01*
X34921Y-33525D02*
X37115Y-35719D01*
X34921Y-24645D02*
X34921Y-33525D01*
X34362Y-24087D02*
X34921Y-24645D01*
X33280Y-24087D02*
X34362Y-24087D01*
X33280Y-23772D02*
X34284Y-23772D01*
X37337Y-35496D02*
X37337Y-35526D01*
X37337Y-35526D02*
X37952Y-36141D01*
X35098Y-33257D02*
X37337Y-35496D01*
X35098Y-24586D02*
X35098Y-33257D01*
X34284Y-23772D02*
X35098Y-24586D01*
X39568Y-33269D02*
X40196Y-33897D01*
X39564Y-33269D02*
X39568Y-33269D01*
X38543Y-30551D02*
X38543Y-32248D01*
X38543Y-32248D02*
X39564Y-33269D01*
X40590Y-23385D02*
X40590Y-26653D01*
X38818Y-27716D02*
X38543Y-27440D01*
X39527Y-27716D02*
X38818Y-27716D01*
X40590Y-26653D02*
X39527Y-27716D01*
X42480Y-22827D02*
X41148Y-22827D01*
X41148Y-22827D02*
X40590Y-23385D01*
X39787Y-33046D02*
X39787Y-33046D01*
X39787Y-33046D02*
X40039Y-32795D01*
X38937Y-30551D02*
X38937Y-32196D01*
X38937Y-32196D02*
X39787Y-33046D01*
X40393Y-23346D02*
X40393Y-26614D01*
X39566Y-27440D02*
X38937Y-27440D01*
X40393Y-26614D02*
X39566Y-27440D01*
X42480Y-22512D02*
X41227Y-22512D01*
X41227Y-22512D02*
X40393Y-23346D01*
X41889Y-32169D02*
X41889Y-32165D01*
X41889Y-32165D02*
X44133Y-29921D01*
X44133Y-27244D02*
X44133Y-29921D01*
X46385Y-22512D02*
X45236Y-23661D01*
X47519Y-22512D02*
X46385Y-22512D01*
X41889Y-32169D02*
X41012Y-33046D01*
X41012Y-33046D02*
X41012Y-33082D01*
X41012Y-33082D02*
X40551Y-33543D01*
X42007Y-32362D02*
X42007Y-32496D01*
X42007Y-32496D02*
X41235Y-33269D01*
X42007Y-32362D02*
X44330Y-30039D01*
X44566Y-27244D02*
X44566Y-27598D01*
X46542Y-22827D02*
X45314Y-24055D01*
X47519Y-22827D02*
X46542Y-22827D01*
X44566Y-27598D02*
X44330Y-27834D01*
X44330Y-27834D02*
X44330Y-30039D01*
X41235Y-33269D02*
X41235Y-33292D01*
X41235Y-33292D02*
X40590Y-33937D01*
X42204Y-32755D02*
X42204Y-32480D01*
X42204Y-32480D02*
X44527Y-30157D01*
X45000Y-27244D02*
X45000Y-27480D01*
X44527Y-27952D02*
X44527Y-30157D01*
X45000Y-27480D02*
X44527Y-27952D01*
X41457Y-33492D02*
X41468Y-33492D01*
X41468Y-33492D02*
X42204Y-32755D01*
X47519Y-23772D02*
X46975Y-23772D01*
X46975Y-23772D02*
X46653Y-24094D01*
X41457Y-33492D02*
X41428Y-33492D01*
X41428Y-33492D02*
X40944Y-33976D01*
X41680Y-33715D02*
X41680Y-33673D01*
X41680Y-33673D02*
X42401Y-32952D01*
X42401Y-32598D02*
X44724Y-30275D01*
X42401Y-32952D02*
X42401Y-32598D01*
X46988Y-28326D02*
X45925Y-28326D01*
X48622Y-26692D02*
X46988Y-28326D01*
X48622Y-24645D02*
X48622Y-26692D01*
X48063Y-24087D02*
X48622Y-24645D01*
X47519Y-24087D02*
X48063Y-24087D01*
X44724Y-29527D02*
X44724Y-30275D01*
X45925Y-28326D02*
X44724Y-29527D01*
X41680Y-33715D02*
X41678Y-33715D01*
X41678Y-33715D02*
X41102Y-34291D01*
X33280Y-22827D02*
X33772Y-22827D01*
X33772Y-22827D02*
X35275Y-24330D01*
X37560Y-35273D02*
X37560Y-35316D01*
X37560Y-35316D02*
X38070Y-35826D01*
X35275Y-32989D02*
X37560Y-35273D01*
X35275Y-24330D02*
X35275Y-32989D01*
X37783Y-35051D02*
X37783Y-35066D01*
X37783Y-35066D02*
X38385Y-35669D01*
X33280Y-22512D02*
X33890Y-22512D01*
X35472Y-32740D02*
X37783Y-35051D01*
X35472Y-24094D02*
X35472Y-32740D01*
X33890Y-22512D02*
X35472Y-24094D01*
X38005Y-34828D02*
X38017Y-34828D01*
X38017Y-34828D02*
X38543Y-35354D01*
X38319Y-22512D02*
X36739Y-22512D01*
X35669Y-32492D02*
X38005Y-34828D01*
X35669Y-23582D02*
X35669Y-32492D01*
X36739Y-22512D02*
X35669Y-23582D01*
X38319Y-22827D02*
X36700Y-22827D01*
X36700Y-22827D02*
X35866Y-23661D01*
X38451Y-34383D02*
X38451Y-34396D01*
X38451Y-34396D02*
X38976Y-34921D01*
X35866Y-31798D02*
X38451Y-34383D01*
X35866Y-23661D02*
X35866Y-31798D01*
X38319Y-23772D02*
X37211Y-23772D01*
X37211Y-23772D02*
X36062Y-24921D01*
X38673Y-34160D02*
X38673Y-34185D01*
X38673Y-34185D02*
X39291Y-34803D01*
X36062Y-31549D02*
X38673Y-34160D01*
X36062Y-24921D02*
X36062Y-31549D01*
X38896Y-33937D02*
X38896Y-33975D01*
X38896Y-33975D02*
X39409Y-34488D01*
X36262Y-31304D02*
X38896Y-33937D01*
X36262Y-25036D02*
X36262Y-31304D01*
X37211Y-24087D02*
X36262Y-25036D01*
X38319Y-24087D02*
X37211Y-24087D01*
X37755Y-30551D02*
X37755Y-32351D01*
X37755Y-32351D02*
X39119Y-33715D01*
X38425Y-28110D02*
X37755Y-27440D01*
X39606Y-28110D02*
X38425Y-28110D01*
X40984Y-26732D02*
X39606Y-28110D01*
X42480Y-24087D02*
X41424Y-24087D01*
X40984Y-24527D02*
X40984Y-26732D01*
X41424Y-24087D02*
X40984Y-24527D01*
X39119Y-33715D02*
X39119Y-33725D01*
X39119Y-33725D02*
X39763Y-34370D01*
X38149Y-30551D02*
X38149Y-32299D01*
X38149Y-32299D02*
X39342Y-33492D01*
X40787Y-24488D02*
X40787Y-26692D01*
X38622Y-27913D02*
X38149Y-27440D01*
X39566Y-27913D02*
X38622Y-27913D01*
X40787Y-26692D02*
X39566Y-27913D01*
X39342Y-33492D02*
X39358Y-33492D01*
X39358Y-33492D02*
X39881Y-34015D01*
X41503Y-23772D02*
X40787Y-24488D01*
X42480Y-23772D02*
X41503Y-23772D01*
X36669Y-37835D02*
X36692Y-37835D01*
X36692Y-37835D02*
X37204Y-37322D01*
X41235Y-40730D02*
X41235Y-40723D01*
X41235Y-40723D02*
X40708Y-40196D01*
X41012Y-40953D02*
X41012Y-40956D01*
X41012Y-40956D02*
X40748Y-41220D01*
X39787Y-40953D02*
X39811Y-40953D01*
X39811Y-40953D02*
X40039Y-41181D01*
X36446Y-37612D02*
X36446Y-37588D01*
X36446Y-37588D02*
X36181Y-37322D01*
X49400Y-32200D02*
X49089Y-32200D01*
X48582Y-31692D02*
X47598Y-31692D01*
X49089Y-32200D02*
X48582Y-31692D01*
X42480Y-24402D02*
X41621Y-24402D01*
X34087Y-24402D02*
X33280Y-24402D01*
X34094Y-24409D02*
X34087Y-24402D01*
X41621Y-24402D02*
X41614Y-24409D01*
X33280Y-22197D02*
X34692Y-22197D01*
X34692Y-22197D02*
X39330Y-17559D01*
X49862Y-30737D02*
X49400Y-31200D01*
X49862Y-21437D02*
X49862Y-30737D01*
X45984Y-17559D02*
X49862Y-21437D01*
X39330Y-17559D02*
X45984Y-17559D01*
X47519Y-24402D02*
X48024Y-24402D01*
X48024Y-24402D02*
X48228Y-24606D01*
X40314Y-20078D02*
X40314Y-21456D01*
X38983Y-24402D02*
X38319Y-24402D01*
X39133Y-24251D02*
X38983Y-24402D01*
X39133Y-22637D02*
X39133Y-24251D01*
X40314Y-21456D02*
X39133Y-22637D01*
X47519Y-24402D02*
X45268Y-24402D01*
X41594Y-18799D02*
X40314Y-20078D01*
X43484Y-18799D02*
X41594Y-18799D01*
X44783Y-20098D02*
X43484Y-18799D01*
X44783Y-23917D02*
X44783Y-20098D01*
X45268Y-24402D02*
X44783Y-23917D01*
X42480Y-22197D02*
X42945Y-22197D01*
X42945Y-22197D02*
X43700Y-22952D01*
X43700Y-25472D02*
X45472Y-27244D01*
X43700Y-22952D02*
X43700Y-25472D01*
G54D22*
X37795Y-16240D02*
X35866Y-16240D01*
X37814Y-16259D02*
X37795Y-16240D01*
X46200Y-15875D02*
X46200Y-16455D01*
X46200Y-16455D02*
X46200Y-16456D01*
X49075Y-16300D02*
X49075Y-18739D01*
X49075Y-18739D02*
X49045Y-18769D01*
X49200Y-15575D02*
X49200Y-16175D01*
X49200Y-16175D02*
X49075Y-16300D01*
X45400Y-15875D02*
X46200Y-15875D01*
G54D21*
X39360Y-37391D02*
X39350Y-37381D01*
X40856Y-37391D02*
X39360Y-37391D01*
X41259Y-36988D02*
X40856Y-37391D01*
X38228Y-34605D02*
X38228Y-34606D01*
X39350Y-37381D02*
X38543Y-38188D01*
X39350Y-35728D02*
X39350Y-37381D01*
X38228Y-34606D02*
X39350Y-35728D01*
X38543Y-38188D02*
X40920Y-38188D01*
X40920Y-38188D02*
X42348Y-39616D01*
X46818Y-23457D02*
X47519Y-23457D01*
X46653Y-23622D02*
X46818Y-23457D01*
X41424Y-23142D02*
X42480Y-23142D01*
X41338Y-23228D02*
X41424Y-23142D01*
X37054Y-23457D02*
X38319Y-23457D01*
X36771Y-23740D02*
X37054Y-23457D01*
X32394Y-23142D02*
X33280Y-23142D01*
X32125Y-22874D02*
X32394Y-23142D01*
X37783Y-38948D02*
X37783Y-38948D01*
X37783Y-38948D02*
X38543Y-38188D01*
X47486Y-15693D02*
X47406Y-15693D01*
X47406Y-15693D02*
X47225Y-15875D01*
X47225Y-15875D02*
X46200Y-15875D01*
X48313Y-15437D02*
X49062Y-15437D01*
X49062Y-15437D02*
X49200Y-15575D01*
G54D24*
X47900Y-15300D02*
X47900Y-15500D01*
X47900Y-15500D02*
X47706Y-15693D01*
X47706Y-15693D02*
X47486Y-15693D01*
X46200Y-13699D02*
X47144Y-13699D01*
X48313Y-14868D02*
X48313Y-14925D01*
X47144Y-13699D02*
X48313Y-14868D01*
G54D22*
X46200Y-14449D02*
X46200Y-15124D01*
X46200Y-15124D02*
X46200Y-15125D01*
X45400Y-15125D02*
X46200Y-15125D01*
G54D21*
X47486Y-15181D02*
X47181Y-15181D01*
X47125Y-15125D02*
X45400Y-15125D01*
X47181Y-15181D02*
X47125Y-15125D01*
G54D10*
G36*
X31476Y-36205D02*
X31405Y-36276D01*
X31400Y-36270D01*
X31394Y-36276D01*
X31323Y-36205D01*
X31329Y-36200D01*
X31323Y-36194D01*
X31394Y-36123D01*
X31400Y-36129D01*
X31405Y-36123D01*
X31476Y-36194D01*
X31470Y-36200D01*
X31476Y-36205D01*
X31476Y-36205D01*
G37*
G54D24*
X31476Y-36205D02*
X31405Y-36276D01*
X31400Y-36270D01*
X31394Y-36276D01*
X31323Y-36205D01*
X31329Y-36200D01*
X31323Y-36194D01*
X31394Y-36123D01*
X31400Y-36129D01*
X31405Y-36123D01*
X31476Y-36194D01*
X31470Y-36200D01*
X31476Y-36205D01*
G54D10*
G36*
X32169Y-45699D02*
X32088Y-45733D01*
X31934Y-45888D01*
X31900Y-45969D01*
X31866Y-45888D01*
X31711Y-45734D01*
X31636Y-45702D01*
X31687Y-45681D01*
X31715Y-45585D01*
X31400Y-45270D01*
X31084Y-45585D01*
X31112Y-45681D01*
X31167Y-45700D01*
X31088Y-45733D01*
X30934Y-45888D01*
X30869Y-46042D01*
X30869Y-45369D01*
X30918Y-45487D01*
X31014Y-45515D01*
X31329Y-45200D01*
X31323Y-45194D01*
X31394Y-45123D01*
X31400Y-45129D01*
X31405Y-45123D01*
X31476Y-45194D01*
X31470Y-45200D01*
X31785Y-45515D01*
X31881Y-45487D01*
X31900Y-45432D01*
X31933Y-45511D01*
X32088Y-45665D01*
X32169Y-45699D01*
X32169Y-45699D01*
G37*
G54D24*
X32169Y-45699D02*
X32088Y-45733D01*
X31934Y-45888D01*
X31900Y-45969D01*
X31866Y-45888D01*
X31711Y-45734D01*
X31636Y-45702D01*
X31687Y-45681D01*
X31715Y-45585D01*
X31400Y-45270D01*
X31084Y-45585D01*
X31112Y-45681D01*
X31167Y-45700D01*
X31088Y-45733D01*
X30934Y-45888D01*
X30869Y-46042D01*
X30869Y-45369D01*
X30918Y-45487D01*
X31014Y-45515D01*
X31329Y-45200D01*
X31323Y-45194D01*
X31394Y-45123D01*
X31400Y-45129D01*
X31405Y-45123D01*
X31476Y-45194D01*
X31470Y-45200D01*
X31785Y-45515D01*
X31881Y-45487D01*
X31900Y-45432D01*
X31933Y-45511D01*
X32088Y-45665D01*
X32169Y-45699D01*
G54D10*
G36*
X32599Y-23092D02*
X32538Y-23092D01*
X32538Y-23138D01*
X32329Y-23138D01*
X32207Y-23162D01*
X32156Y-23197D01*
X32104Y-23231D01*
X32100Y-23236D01*
X32042Y-23236D01*
X32042Y-22777D01*
X32538Y-22281D01*
X32538Y-22345D01*
X32542Y-22355D01*
X32538Y-22364D01*
X32538Y-22463D01*
X32538Y-22660D01*
X32542Y-22669D01*
X32538Y-22679D01*
X32538Y-22778D01*
X32538Y-22975D01*
X32542Y-22985D01*
X32538Y-22994D01*
X32538Y-23030D01*
X32599Y-23092D01*
X32599Y-23092D01*
G37*
G54D24*
X32599Y-23092D02*
X32538Y-23092D01*
X32538Y-23138D01*
X32329Y-23138D01*
X32207Y-23162D01*
X32156Y-23197D01*
X32104Y-23231D01*
X32100Y-23236D01*
X32042Y-23236D01*
X32042Y-22777D01*
X32538Y-22281D01*
X32538Y-22345D01*
X32542Y-22355D01*
X32538Y-22364D01*
X32538Y-22463D01*
X32538Y-22660D01*
X32542Y-22669D01*
X32538Y-22679D01*
X32538Y-22778D01*
X32538Y-22975D01*
X32542Y-22985D01*
X32538Y-22994D01*
X32538Y-23030D01*
X32599Y-23092D01*
G54D10*
G36*
X37577Y-23482D02*
X37211Y-23482D01*
X37100Y-23504D01*
X37006Y-23567D01*
X36717Y-23856D01*
X36732Y-23783D01*
X36732Y-23783D01*
X36732Y-23758D01*
X37028Y-23461D01*
X37577Y-23461D01*
X37577Y-23482D01*
X37577Y-23482D01*
G37*
G54D24*
X37577Y-23482D02*
X37211Y-23482D01*
X37100Y-23504D01*
X37006Y-23567D01*
X36717Y-23856D01*
X36732Y-23783D01*
X36732Y-23783D01*
X36732Y-23758D01*
X37028Y-23461D01*
X37577Y-23461D01*
X37577Y-23482D01*
G54D10*
G36*
X41738Y-23138D02*
X41700Y-23138D01*
X41577Y-23162D01*
X41526Y-23197D01*
X41474Y-23231D01*
X41442Y-23264D01*
X41305Y-23264D01*
X41305Y-23263D01*
X41214Y-23172D01*
X41269Y-23117D01*
X41738Y-23117D01*
X41738Y-23138D01*
X41738Y-23138D01*
G37*
G54D24*
X41738Y-23138D02*
X41700Y-23138D01*
X41577Y-23162D01*
X41526Y-23197D01*
X41474Y-23231D01*
X41442Y-23264D01*
X41305Y-23264D01*
X41305Y-23263D01*
X41214Y-23172D01*
X41269Y-23117D01*
X41738Y-23117D01*
X41738Y-23138D01*
G54D10*
G36*
X43391Y-36906D02*
X43333Y-36930D01*
X43229Y-37034D01*
X43173Y-37170D01*
X43173Y-37248D01*
X43114Y-37307D01*
X42997Y-37307D01*
X42861Y-37363D01*
X42757Y-37467D01*
X42700Y-37603D01*
X42700Y-37712D01*
X42672Y-37700D01*
X42525Y-37700D01*
X42389Y-37756D01*
X42284Y-37860D01*
X42228Y-37996D01*
X42228Y-38075D01*
X42166Y-38136D01*
X42160Y-38133D01*
X42013Y-38133D01*
X41877Y-38190D01*
X41773Y-38294D01*
X41716Y-38430D01*
X41716Y-38547D01*
X41654Y-38608D01*
X41598Y-38744D01*
X41598Y-38892D01*
X41626Y-38960D01*
X41501Y-38960D01*
X41365Y-39016D01*
X41303Y-39078D01*
X41186Y-39078D01*
X41050Y-39134D01*
X40946Y-39238D01*
X40889Y-39374D01*
X40889Y-39492D01*
X40828Y-39553D01*
X40771Y-39689D01*
X40771Y-39826D01*
X40635Y-39826D01*
X40499Y-39882D01*
X40413Y-39968D01*
X40370Y-39925D01*
X40370Y-39808D01*
X40313Y-39672D01*
X40209Y-39568D01*
X40073Y-39511D01*
X39926Y-39511D01*
X39919Y-39514D01*
X39897Y-39492D01*
X39897Y-39375D01*
X39841Y-39239D01*
X39737Y-39135D01*
X39601Y-39078D01*
X39483Y-39078D01*
X39464Y-39059D01*
X39464Y-38942D01*
X39408Y-38806D01*
X39304Y-38702D01*
X39168Y-38645D01*
X39050Y-38645D01*
X38989Y-38584D01*
X38853Y-38527D01*
X38706Y-38527D01*
X38570Y-38583D01*
X38504Y-38648D01*
X38412Y-38555D01*
X38402Y-38552D01*
X38398Y-38542D01*
X38372Y-38516D01*
X38305Y-38516D01*
X38339Y-38483D01*
X38328Y-38472D01*
X38339Y-38483D01*
X38384Y-38438D01*
X38440Y-38302D01*
X38441Y-38155D01*
X38391Y-38036D01*
X38430Y-37996D01*
X38495Y-37840D01*
X38495Y-37671D01*
X38431Y-37515D01*
X38311Y-37395D01*
X38155Y-37330D01*
X37986Y-37330D01*
X37889Y-37370D01*
X37889Y-37367D01*
X37833Y-37231D01*
X37729Y-37127D01*
X37593Y-37070D01*
X37476Y-37070D01*
X37414Y-37009D01*
X37278Y-36952D01*
X37131Y-36952D01*
X36995Y-37008D01*
X36930Y-37073D01*
X36856Y-36999D01*
X36923Y-36933D01*
X37062Y-36793D01*
X37066Y-36784D01*
X37075Y-36780D01*
X37145Y-36710D01*
X37285Y-36571D01*
X37288Y-36561D01*
X37298Y-36557D01*
X37355Y-36500D01*
X37427Y-36573D01*
X37563Y-36629D01*
X37711Y-36629D01*
X37847Y-36573D01*
X37909Y-36511D01*
X38026Y-36511D01*
X38162Y-36455D01*
X38266Y-36351D01*
X38322Y-36215D01*
X38322Y-36098D01*
X38381Y-36039D01*
X38459Y-36039D01*
X38595Y-35983D01*
X38699Y-35879D01*
X38755Y-35743D01*
X38755Y-35665D01*
X38856Y-35564D01*
X38913Y-35428D01*
X38913Y-35291D01*
X39049Y-35291D01*
X39185Y-35235D01*
X39247Y-35173D01*
X39364Y-35173D01*
X39500Y-35117D01*
X39604Y-35013D01*
X39661Y-34877D01*
X39661Y-34759D01*
X39683Y-34737D01*
X39689Y-34740D01*
X39837Y-34740D01*
X39973Y-34683D01*
X40077Y-34579D01*
X40133Y-34444D01*
X40133Y-34296D01*
X40131Y-34289D01*
X40153Y-34267D01*
X40270Y-34267D01*
X40360Y-34230D01*
X40380Y-34250D01*
X40516Y-34307D01*
X40663Y-34307D01*
X40726Y-34281D01*
X40732Y-34287D01*
X40732Y-34364D01*
X40788Y-34500D01*
X40892Y-34604D01*
X41028Y-34661D01*
X41145Y-34661D01*
X41165Y-34680D01*
X41165Y-34797D01*
X41221Y-34933D01*
X41325Y-35037D01*
X41461Y-35094D01*
X41527Y-35094D01*
X41504Y-35151D01*
X41504Y-35320D01*
X41568Y-35476D01*
X41688Y-35596D01*
X41844Y-35661D01*
X42013Y-35661D01*
X42070Y-35637D01*
X42070Y-35703D01*
X42127Y-35839D01*
X42231Y-35943D01*
X42367Y-35999D01*
X42445Y-36000D01*
X42503Y-36058D01*
X42503Y-36175D01*
X42560Y-36311D01*
X42664Y-36415D01*
X42800Y-36472D01*
X42947Y-36472D01*
X42976Y-36460D01*
X42976Y-36569D01*
X43032Y-36705D01*
X43136Y-36809D01*
X43272Y-36866D01*
X43350Y-36866D01*
X43391Y-36906D01*
X43391Y-36906D01*
G37*
G54D24*
X43391Y-36906D02*
X43333Y-36930D01*
X43229Y-37034D01*
X43173Y-37170D01*
X43173Y-37248D01*
X43114Y-37307D01*
X42997Y-37307D01*
X42861Y-37363D01*
X42757Y-37467D01*
X42700Y-37603D01*
X42700Y-37712D01*
X42672Y-37700D01*
X42525Y-37700D01*
X42389Y-37756D01*
X42284Y-37860D01*
X42228Y-37996D01*
X42228Y-38075D01*
X42166Y-38136D01*
X42160Y-38133D01*
X42013Y-38133D01*
X41877Y-38190D01*
X41773Y-38294D01*
X41716Y-38430D01*
X41716Y-38547D01*
X41654Y-38608D01*
X41598Y-38744D01*
X41598Y-38892D01*
X41626Y-38960D01*
X41501Y-38960D01*
X41365Y-39016D01*
X41303Y-39078D01*
X41186Y-39078D01*
X41050Y-39134D01*
X40946Y-39238D01*
X40889Y-39374D01*
X40889Y-39492D01*
X40828Y-39553D01*
X40771Y-39689D01*
X40771Y-39826D01*
X40635Y-39826D01*
X40499Y-39882D01*
X40413Y-39968D01*
X40370Y-39925D01*
X40370Y-39808D01*
X40313Y-39672D01*
X40209Y-39568D01*
X40073Y-39511D01*
X39926Y-39511D01*
X39919Y-39514D01*
X39897Y-39492D01*
X39897Y-39375D01*
X39841Y-39239D01*
X39737Y-39135D01*
X39601Y-39078D01*
X39483Y-39078D01*
X39464Y-39059D01*
X39464Y-38942D01*
X39408Y-38806D01*
X39304Y-38702D01*
X39168Y-38645D01*
X39050Y-38645D01*
X38989Y-38584D01*
X38853Y-38527D01*
X38706Y-38527D01*
X38570Y-38583D01*
X38504Y-38648D01*
X38412Y-38555D01*
X38402Y-38552D01*
X38398Y-38542D01*
X38372Y-38516D01*
X38305Y-38516D01*
X38339Y-38483D01*
X38328Y-38472D01*
X38339Y-38483D01*
X38384Y-38438D01*
X38440Y-38302D01*
X38441Y-38155D01*
X38391Y-38036D01*
X38430Y-37996D01*
X38495Y-37840D01*
X38495Y-37671D01*
X38431Y-37515D01*
X38311Y-37395D01*
X38155Y-37330D01*
X37986Y-37330D01*
X37889Y-37370D01*
X37889Y-37367D01*
X37833Y-37231D01*
X37729Y-37127D01*
X37593Y-37070D01*
X37476Y-37070D01*
X37414Y-37009D01*
X37278Y-36952D01*
X37131Y-36952D01*
X36995Y-37008D01*
X36930Y-37073D01*
X36856Y-36999D01*
X36923Y-36933D01*
X37062Y-36793D01*
X37066Y-36784D01*
X37075Y-36780D01*
X37145Y-36710D01*
X37285Y-36571D01*
X37288Y-36561D01*
X37298Y-36557D01*
X37355Y-36500D01*
X37427Y-36573D01*
X37563Y-36629D01*
X37711Y-36629D01*
X37847Y-36573D01*
X37909Y-36511D01*
X38026Y-36511D01*
X38162Y-36455D01*
X38266Y-36351D01*
X38322Y-36215D01*
X38322Y-36098D01*
X38381Y-36039D01*
X38459Y-36039D01*
X38595Y-35983D01*
X38699Y-35879D01*
X38755Y-35743D01*
X38755Y-35665D01*
X38856Y-35564D01*
X38913Y-35428D01*
X38913Y-35291D01*
X39049Y-35291D01*
X39185Y-35235D01*
X39247Y-35173D01*
X39364Y-35173D01*
X39500Y-35117D01*
X39604Y-35013D01*
X39661Y-34877D01*
X39661Y-34759D01*
X39683Y-34737D01*
X39689Y-34740D01*
X39837Y-34740D01*
X39973Y-34683D01*
X40077Y-34579D01*
X40133Y-34444D01*
X40133Y-34296D01*
X40131Y-34289D01*
X40153Y-34267D01*
X40270Y-34267D01*
X40360Y-34230D01*
X40380Y-34250D01*
X40516Y-34307D01*
X40663Y-34307D01*
X40726Y-34281D01*
X40732Y-34287D01*
X40732Y-34364D01*
X40788Y-34500D01*
X40892Y-34604D01*
X41028Y-34661D01*
X41145Y-34661D01*
X41165Y-34680D01*
X41165Y-34797D01*
X41221Y-34933D01*
X41325Y-35037D01*
X41461Y-35094D01*
X41527Y-35094D01*
X41504Y-35151D01*
X41504Y-35320D01*
X41568Y-35476D01*
X41688Y-35596D01*
X41844Y-35661D01*
X42013Y-35661D01*
X42070Y-35637D01*
X42070Y-35703D01*
X42127Y-35839D01*
X42231Y-35943D01*
X42367Y-35999D01*
X42445Y-36000D01*
X42503Y-36058D01*
X42503Y-36175D01*
X42560Y-36311D01*
X42664Y-36415D01*
X42800Y-36472D01*
X42947Y-36472D01*
X42976Y-36460D01*
X42976Y-36569D01*
X43032Y-36705D01*
X43136Y-36809D01*
X43272Y-36866D01*
X43350Y-36866D01*
X43391Y-36906D01*
G54D10*
G36*
X45772Y-14074D02*
X45713Y-14133D01*
X45675Y-14224D01*
X45675Y-14324D01*
X45675Y-14674D01*
X45677Y-14678D01*
X45400Y-14678D01*
X45290Y-14699D01*
X45075Y-14699D01*
X44983Y-14737D01*
X44913Y-14808D01*
X44875Y-14900D01*
X44874Y-14999D01*
X44874Y-15087D01*
X41820Y-15087D01*
X41820Y-17268D01*
X39330Y-17268D01*
X39219Y-17290D01*
X39125Y-17353D01*
X34571Y-21907D01*
X34385Y-21907D01*
X34385Y-21846D01*
X34447Y-21784D01*
X34503Y-21648D01*
X34504Y-21501D01*
X34447Y-21365D01*
X34385Y-21303D01*
X34385Y-21216D01*
X34447Y-21154D01*
X34503Y-21018D01*
X34504Y-20871D01*
X34447Y-20735D01*
X34422Y-20710D01*
X34425Y-20703D01*
X34425Y-20556D01*
X34369Y-20420D01*
X34265Y-20316D01*
X34129Y-20259D01*
X34022Y-20259D01*
X34022Y-20159D01*
X34018Y-20150D01*
X34022Y-20141D01*
X34022Y-20041D01*
X34022Y-19844D01*
X33984Y-19753D01*
X33914Y-19682D01*
X33822Y-19644D01*
X33722Y-19644D01*
X32738Y-19644D01*
X32646Y-19682D01*
X32576Y-19752D01*
X32538Y-19844D01*
X32538Y-19943D01*
X32538Y-20140D01*
X32542Y-20150D01*
X32538Y-20159D01*
X32538Y-20258D01*
X32538Y-20346D01*
X32494Y-20354D01*
X32400Y-20417D01*
X32400Y-20417D01*
X31047Y-21770D01*
X31047Y-18301D01*
X35762Y-13586D01*
X45675Y-13586D01*
X45675Y-13924D01*
X45713Y-14016D01*
X45772Y-14074D01*
X45772Y-14074D01*
G37*
G54D24*
X45772Y-14074D02*
X45713Y-14133D01*
X45675Y-14224D01*
X45675Y-14324D01*
X45675Y-14674D01*
X45677Y-14678D01*
X45400Y-14678D01*
X45290Y-14699D01*
X45075Y-14699D01*
X44983Y-14737D01*
X44913Y-14808D01*
X44875Y-14900D01*
X44874Y-14999D01*
X44874Y-15087D01*
X41820Y-15087D01*
X41820Y-17268D01*
X39330Y-17268D01*
X39219Y-17290D01*
X39125Y-17353D01*
X34571Y-21907D01*
X34385Y-21907D01*
X34385Y-21846D01*
X34447Y-21784D01*
X34503Y-21648D01*
X34504Y-21501D01*
X34447Y-21365D01*
X34385Y-21303D01*
X34385Y-21216D01*
X34447Y-21154D01*
X34503Y-21018D01*
X34504Y-20871D01*
X34447Y-20735D01*
X34422Y-20710D01*
X34425Y-20703D01*
X34425Y-20556D01*
X34369Y-20420D01*
X34265Y-20316D01*
X34129Y-20259D01*
X34022Y-20259D01*
X34022Y-20159D01*
X34018Y-20150D01*
X34022Y-20141D01*
X34022Y-20041D01*
X34022Y-19844D01*
X33984Y-19753D01*
X33914Y-19682D01*
X33822Y-19644D01*
X33722Y-19644D01*
X32738Y-19644D01*
X32646Y-19682D01*
X32576Y-19752D01*
X32538Y-19844D01*
X32538Y-19943D01*
X32538Y-20140D01*
X32542Y-20150D01*
X32538Y-20159D01*
X32538Y-20258D01*
X32538Y-20346D01*
X32494Y-20354D01*
X32400Y-20417D01*
X32400Y-20417D01*
X31047Y-21770D01*
X31047Y-18301D01*
X35762Y-13586D01*
X45675Y-13586D01*
X45675Y-13924D01*
X45713Y-14016D01*
X45772Y-14074D01*
G54D10*
G36*
X46794Y-23551D02*
X46770Y-23567D01*
X46770Y-23567D01*
X46613Y-23724D01*
X46580Y-23724D01*
X46444Y-23780D01*
X46339Y-23884D01*
X46283Y-24020D01*
X46283Y-24112D01*
X45684Y-24112D01*
X45685Y-24095D01*
X46341Y-23438D01*
X46412Y-23509D01*
X46568Y-23574D01*
X46737Y-23574D01*
X46794Y-23551D01*
X46794Y-23551D01*
G37*
G54D24*
X46794Y-23551D02*
X46770Y-23567D01*
X46770Y-23567D01*
X46613Y-23724D01*
X46580Y-23724D01*
X46444Y-23780D01*
X46339Y-23884D01*
X46283Y-24020D01*
X46283Y-24112D01*
X45684Y-24112D01*
X45685Y-24095D01*
X46341Y-23438D01*
X46412Y-23509D01*
X46568Y-23574D01*
X46737Y-23574D01*
X46794Y-23551D01*
G54D10*
G36*
X47918Y-15357D02*
X47894Y-15357D01*
X47894Y-15329D01*
X47886Y-15309D01*
X47894Y-15290D01*
X47894Y-15242D01*
X47905Y-15242D01*
X47905Y-15290D01*
X47913Y-15309D01*
X47905Y-15328D01*
X47905Y-15345D01*
X47918Y-15357D01*
X47918Y-15357D01*
G37*
G54D24*
X47918Y-15357D02*
X47894Y-15357D01*
X47894Y-15329D01*
X47886Y-15309D01*
X47894Y-15290D01*
X47894Y-15242D01*
X47905Y-15242D01*
X47905Y-15290D01*
X47913Y-15309D01*
X47905Y-15328D01*
X47905Y-15345D01*
X47918Y-15357D01*
G54D10*
G36*
X49930Y-21094D02*
X49500Y-20664D01*
X49500Y-16525D01*
X49500Y-16412D01*
X49437Y-16350D01*
X49125Y-16350D01*
X49125Y-16762D01*
X49187Y-16825D01*
X49299Y-16825D01*
X49391Y-16787D01*
X49461Y-16716D01*
X49499Y-16624D01*
X49500Y-16525D01*
X49500Y-20664D01*
X47609Y-18773D01*
X47364Y-18529D01*
X47474Y-18574D01*
X47609Y-18574D01*
X47643Y-18574D01*
X47799Y-18510D01*
X47919Y-18390D01*
X47983Y-18234D01*
X47984Y-18175D01*
X48550Y-17609D01*
X48550Y-17609D01*
X48585Y-17557D01*
X48619Y-17505D01*
X48619Y-17505D01*
X48643Y-17383D01*
X48643Y-17383D01*
X48643Y-16784D01*
X48700Y-16728D01*
X48758Y-16787D01*
X48850Y-16825D01*
X48962Y-16825D01*
X49025Y-16762D01*
X49025Y-16350D01*
X49017Y-16350D01*
X49017Y-16250D01*
X49025Y-16250D01*
X49025Y-16242D01*
X49125Y-16242D01*
X49125Y-16250D01*
X49437Y-16250D01*
X49500Y-16187D01*
X49500Y-16074D01*
X49499Y-15999D01*
X49524Y-15999D01*
X49616Y-15961D01*
X49687Y-15891D01*
X49725Y-15799D01*
X49725Y-15687D01*
X49662Y-15625D01*
X49250Y-15625D01*
X49250Y-15632D01*
X49150Y-15632D01*
X49150Y-15625D01*
X49142Y-15625D01*
X49142Y-15525D01*
X49150Y-15525D01*
X49150Y-15517D01*
X49250Y-15517D01*
X49250Y-15525D01*
X49662Y-15525D01*
X49725Y-15462D01*
X49725Y-15350D01*
X49687Y-15258D01*
X49628Y-15199D01*
X49686Y-15141D01*
X49724Y-15049D01*
X49725Y-14950D01*
X49725Y-14600D01*
X49687Y-14508D01*
X49616Y-14438D01*
X49524Y-14400D01*
X49518Y-14400D01*
X49518Y-13924D01*
X49494Y-13802D01*
X49494Y-13802D01*
X49460Y-13750D01*
X49425Y-13698D01*
X49425Y-13698D01*
X48768Y-13042D01*
X48665Y-12973D01*
X48543Y-12948D01*
X35629Y-12948D01*
X35507Y-12973D01*
X35404Y-13042D01*
X30869Y-17576D01*
X30869Y-11969D01*
X49930Y-11969D01*
X49930Y-21094D01*
X49930Y-21094D01*
G37*
G54D24*
X49930Y-21094D02*
X49500Y-20664D01*
X49500Y-16525D01*
X49500Y-16412D01*
X49437Y-16350D01*
X49125Y-16350D01*
X49125Y-16762D01*
X49187Y-16825D01*
X49299Y-16825D01*
X49391Y-16787D01*
X49461Y-16716D01*
X49499Y-16624D01*
X49500Y-16525D01*
X49500Y-20664D01*
X47609Y-18773D01*
X47364Y-18529D01*
X47474Y-18574D01*
X47609Y-18574D01*
X47643Y-18574D01*
X47799Y-18510D01*
X47919Y-18390D01*
X47983Y-18234D01*
X47984Y-18175D01*
X48550Y-17609D01*
X48550Y-17609D01*
X48585Y-17557D01*
X48619Y-17505D01*
X48619Y-17505D01*
X48643Y-17383D01*
X48643Y-17383D01*
X48643Y-16784D01*
X48700Y-16728D01*
X48758Y-16787D01*
X48850Y-16825D01*
X48962Y-16825D01*
X49025Y-16762D01*
X49025Y-16350D01*
X49017Y-16350D01*
X49017Y-16250D01*
X49025Y-16250D01*
X49025Y-16242D01*
X49125Y-16242D01*
X49125Y-16250D01*
X49437Y-16250D01*
X49500Y-16187D01*
X49500Y-16074D01*
X49499Y-15999D01*
X49524Y-15999D01*
X49616Y-15961D01*
X49687Y-15891D01*
X49725Y-15799D01*
X49725Y-15687D01*
X49662Y-15625D01*
X49250Y-15625D01*
X49250Y-15632D01*
X49150Y-15632D01*
X49150Y-15625D01*
X49142Y-15625D01*
X49142Y-15525D01*
X49150Y-15525D01*
X49150Y-15517D01*
X49250Y-15517D01*
X49250Y-15525D01*
X49662Y-15525D01*
X49725Y-15462D01*
X49725Y-15350D01*
X49687Y-15258D01*
X49628Y-15199D01*
X49686Y-15141D01*
X49724Y-15049D01*
X49725Y-14950D01*
X49725Y-14600D01*
X49687Y-14508D01*
X49616Y-14438D01*
X49524Y-14400D01*
X49518Y-14400D01*
X49518Y-13924D01*
X49494Y-13802D01*
X49494Y-13802D01*
X49460Y-13750D01*
X49425Y-13698D01*
X49425Y-13698D01*
X48768Y-13042D01*
X48665Y-12973D01*
X48543Y-12948D01*
X35629Y-12948D01*
X35507Y-12973D01*
X35404Y-13042D01*
X30869Y-17576D01*
X30869Y-11969D01*
X49930Y-11969D01*
X49930Y-21094D01*
G54D10*
G36*
X49930Y-37043D02*
X49866Y-36888D01*
X49711Y-36734D01*
X49636Y-36702D01*
X49687Y-36681D01*
X49715Y-36585D01*
X49400Y-36270D01*
X49084Y-36585D01*
X49112Y-36681D01*
X49167Y-36700D01*
X49088Y-36733D01*
X48934Y-36888D01*
X48900Y-36969D01*
X48866Y-36888D01*
X48711Y-36734D01*
X48630Y-36700D01*
X48711Y-36666D01*
X48865Y-36511D01*
X48897Y-36436D01*
X48918Y-36487D01*
X49014Y-36515D01*
X49329Y-36200D01*
X49014Y-35884D01*
X48918Y-35912D01*
X48899Y-35967D01*
X48866Y-35888D01*
X48711Y-35734D01*
X48630Y-35700D01*
X48711Y-35666D01*
X48865Y-35511D01*
X48899Y-35430D01*
X48933Y-35511D01*
X49088Y-35665D01*
X49163Y-35697D01*
X49112Y-35718D01*
X49084Y-35814D01*
X49400Y-36129D01*
X49715Y-35814D01*
X49687Y-35718D01*
X49632Y-35699D01*
X49711Y-35666D01*
X49865Y-35511D01*
X49930Y-35357D01*
X49930Y-36030D01*
X49881Y-35912D01*
X49785Y-35884D01*
X49470Y-36200D01*
X49785Y-36515D01*
X49881Y-36487D01*
X49930Y-36350D01*
X49930Y-37043D01*
X49930Y-37043D01*
G37*
G54D24*
X49930Y-37043D02*
X49866Y-36888D01*
X49711Y-36734D01*
X49636Y-36702D01*
X49687Y-36681D01*
X49715Y-36585D01*
X49400Y-36270D01*
X49084Y-36585D01*
X49112Y-36681D01*
X49167Y-36700D01*
X49088Y-36733D01*
X48934Y-36888D01*
X48900Y-36969D01*
X48866Y-36888D01*
X48711Y-36734D01*
X48630Y-36700D01*
X48711Y-36666D01*
X48865Y-36511D01*
X48897Y-36436D01*
X48918Y-36487D01*
X49014Y-36515D01*
X49329Y-36200D01*
X49014Y-35884D01*
X48918Y-35912D01*
X48899Y-35967D01*
X48866Y-35888D01*
X48711Y-35734D01*
X48630Y-35700D01*
X48711Y-35666D01*
X48865Y-35511D01*
X48899Y-35430D01*
X48933Y-35511D01*
X49088Y-35665D01*
X49163Y-35697D01*
X49112Y-35718D01*
X49084Y-35814D01*
X49400Y-36129D01*
X49715Y-35814D01*
X49687Y-35718D01*
X49632Y-35699D01*
X49711Y-35666D01*
X49865Y-35511D01*
X49930Y-35357D01*
X49930Y-36030D01*
X49881Y-35912D01*
X49785Y-35884D01*
X49470Y-36200D01*
X49785Y-36515D01*
X49881Y-36487D01*
X49930Y-36350D01*
X49930Y-37043D01*
G54D10*
G36*
X49930Y-46043D02*
X49866Y-45888D01*
X49711Y-45734D01*
X49636Y-45702D01*
X49687Y-45681D01*
X49715Y-45585D01*
X49400Y-45270D01*
X49084Y-45585D01*
X49112Y-45681D01*
X49167Y-45700D01*
X49088Y-45733D01*
X48934Y-45888D01*
X48900Y-45969D01*
X48866Y-45888D01*
X48711Y-45734D01*
X48630Y-45700D01*
X48711Y-45666D01*
X48865Y-45511D01*
X48897Y-45436D01*
X48918Y-45487D01*
X49014Y-45515D01*
X49329Y-45200D01*
X49014Y-44884D01*
X48918Y-44912D01*
X48899Y-44967D01*
X48866Y-44888D01*
X48711Y-44734D01*
X48630Y-44700D01*
X48711Y-44666D01*
X48865Y-44511D01*
X48899Y-44430D01*
X48933Y-44511D01*
X49088Y-44665D01*
X49163Y-44697D01*
X49112Y-44718D01*
X49084Y-44814D01*
X49400Y-45129D01*
X49715Y-44814D01*
X49687Y-44718D01*
X49632Y-44699D01*
X49711Y-44666D01*
X49865Y-44511D01*
X49930Y-44357D01*
X49930Y-45030D01*
X49881Y-44912D01*
X49785Y-44884D01*
X49470Y-45200D01*
X49785Y-45515D01*
X49881Y-45487D01*
X49930Y-45350D01*
X49930Y-46043D01*
X49930Y-46043D01*
G37*
G54D24*
X49930Y-46043D02*
X49866Y-45888D01*
X49711Y-45734D01*
X49636Y-45702D01*
X49687Y-45681D01*
X49715Y-45585D01*
X49400Y-45270D01*
X49084Y-45585D01*
X49112Y-45681D01*
X49167Y-45700D01*
X49088Y-45733D01*
X48934Y-45888D01*
X48900Y-45969D01*
X48866Y-45888D01*
X48711Y-45734D01*
X48630Y-45700D01*
X48711Y-45666D01*
X48865Y-45511D01*
X48897Y-45436D01*
X48918Y-45487D01*
X49014Y-45515D01*
X49329Y-45200D01*
X49014Y-44884D01*
X48918Y-44912D01*
X48899Y-44967D01*
X48866Y-44888D01*
X48711Y-44734D01*
X48630Y-44700D01*
X48711Y-44666D01*
X48865Y-44511D01*
X48899Y-44430D01*
X48933Y-44511D01*
X49088Y-44665D01*
X49163Y-44697D01*
X49112Y-44718D01*
X49084Y-44814D01*
X49400Y-45129D01*
X49715Y-44814D01*
X49687Y-44718D01*
X49632Y-44699D01*
X49711Y-44666D01*
X49865Y-44511D01*
X49930Y-44357D01*
X49930Y-45030D01*
X49881Y-44912D01*
X49785Y-44884D01*
X49470Y-45200D01*
X49785Y-45515D01*
X49881Y-45487D01*
X49930Y-45350D01*
X49930Y-46043D01*
G54D10*
G36*
X47450Y-17194D02*
X41979Y-17194D01*
X41979Y-15246D01*
X44874Y-15246D01*
X44874Y-15349D01*
X44912Y-15441D01*
X44983Y-15511D01*
X45075Y-15549D01*
X45174Y-15550D01*
X45290Y-15550D01*
X45400Y-15571D01*
X46200Y-15571D01*
X46309Y-15550D01*
X46524Y-15550D01*
X46574Y-15529D01*
X46574Y-15584D01*
X46639Y-15740D01*
X46642Y-15743D01*
X46642Y-15857D01*
X46755Y-15857D01*
X46758Y-15860D01*
X46915Y-15924D01*
X47084Y-15925D01*
X47240Y-15860D01*
X47243Y-15857D01*
X47450Y-15857D01*
X47450Y-16048D01*
X47439Y-16058D01*
X47375Y-16215D01*
X47374Y-16384D01*
X47439Y-16540D01*
X47450Y-16550D01*
X47450Y-17194D01*
X47450Y-17194D01*
G37*
G54D24*
X47450Y-17194D02*
X41979Y-17194D01*
X41979Y-15246D01*
X44874Y-15246D01*
X44874Y-15349D01*
X44912Y-15441D01*
X44983Y-15511D01*
X45075Y-15549D01*
X45174Y-15550D01*
X45290Y-15550D01*
X45400Y-15571D01*
X46200Y-15571D01*
X46309Y-15550D01*
X46524Y-15550D01*
X46574Y-15529D01*
X46574Y-15584D01*
X46639Y-15740D01*
X46642Y-15743D01*
X46642Y-15857D01*
X46755Y-15857D01*
X46758Y-15860D01*
X46915Y-15924D01*
X47084Y-15925D01*
X47240Y-15860D01*
X47243Y-15857D01*
X47450Y-15857D01*
X47450Y-16048D01*
X47439Y-16058D01*
X47375Y-16215D01*
X47374Y-16384D01*
X47439Y-16540D01*
X47450Y-16550D01*
X47450Y-17194D01*
M02*
