<?xml version="1.0" standalone="no"?>
 <!DOCTYPE svg PUBLIC "-//W3C//DTD SVG 1.1//EN" 
 "http://www.w3.org/Graphics/SVG/1.1/DTD/svg11.dtd"> 
<svg xmlns="http://www.w3.org/2000/svg" version="1.1" 
    width="41.9989cm" height="29.7002cm" viewBox="0 0 165350 116930 ">
<title>SVG Picture created as olala-B_SilkS.svg date 2015/05/16 00:47:54 </title>
  <desc>Picture generated by PCBNEW </desc>
<g style="fill:#000000; fill-opacity:1;stroke:#000000; stroke-opacity:1;
stroke-linecap:round; stroke-linejoin:round; "
 transform="translate(0 0) scale(1 1)">
</g>
<g style="fill:#000000; fill-opacity:0.0; 
stroke:#000000; stroke-width:39.3701; stroke-opacity:1; 
stroke-linecap:round; stroke-linejoin:round;">
<path d="M30600 11700
L50200 11700
" />
<path d="M30600 51000
L35300 51000
" />
<path d="M45500 51000
L50200 51000
" />
<path d="M35300 44200
L45500 44200
" />
<path d="M35300 44200
L35300 51000
" />
<path d="M45500 44200
L45500 51000
" />
<path d="M30600 51000
L30600 11700
" />
<path d="M50200 51000
L50200 11700
" />
</g>
<g style="fill:#000000; fill-opacity:0.0; 
stroke:#000000; stroke-width:39; stroke-opacity:1; 
stroke-linecap:round; stroke-linejoin:round;">
<circle cx="34109.4" cy="23957.1" r="50" /> 
<path d="M34109 23507
L34109 23907
" />
<path d="M34109 23907
L34709 23907
" />
<path d="M34709 23907
L34709 23507
" />
<path d="M34709 23107
L34709 22707
" />
<path d="M34709 22707
L34109 22707
" />
<path d="M34109 22707
L34109 23107
" />
<circle cx="46166.1" cy="22696.5" r="50" /> 
<path d="M46166 23146
L46166 22746
" />
<path d="M46166 22746
L45566 22746
" />
<path d="M45566 22746
L45566 23146
" />
<path d="M45566 23546
L45566 23946
" />
<path d="M45566 23946
L46166 23946
" />
<path d="M46166 23946
L46166 23546
" />
<circle cx="38492.7" cy="36887.3" r="49.9996" /> 
<path d="M38810 37205
L38528 36922
" />
<path d="M38528 36922
L38103 37346
" />
<path d="M38103 37346
L38386 37629
" />
<path d="M38669 37912
L38952 38195
" />
<path d="M38952 38195
L39376 37771
" />
<path d="M39376 37771
L39093 37488
" />
<circle cx="41524.2" cy="35273.1" r="49.9996" /> 
<path d="M41842 35591
L41559 35308
" />
<path d="M41559 35308
L41135 35732
" />
<path d="M41135 35732
L41418 36015
" />
<path d="M41700 36298
L41983 36581
" />
<path d="M41983 36581
L42408 36157
" />
<path d="M42408 36157
L42125 35874
" />
<circle cx="40632.4" cy="37744.6" r="49.9996" /> 
<path d="M40314 38062
L40597 37779
" />
<path d="M40597 37779
L40172 37355
" />
<path d="M40172 37355
L39889 37638
" />
<path d="M39607 37921
L39324 38204
" />
<path d="M39324 38204
L39748 38628
" />
<path d="M39748 38628
L40031 38345
" />
<circle cx="41222.9" cy="38335.2" r="49.9996" /> 
<path d="M40904 38653
L41187 38370
" />
<path d="M41187 38370
L40763 37946
" />
<path d="M40763 37946
L40480 38229
" />
<path d="M40197 38511
L39914 38794
" />
<path d="M39914 38794
L40339 39219
" />
<path d="M40339 39219
L40621 38936
" />
</g>
<g style="fill:#000000; fill-opacity:0.0; 
stroke:#000000; stroke-width:43; stroke-opacity:1; 
stroke-linecap:round; stroke-linejoin:round;">
<path d="M34595 23274
L34604 23264
L34614 23236
L34614 23217
L34604 23189
L34586 23171
L34567 23161
L34529 23152
L34501 23152
L34464 23161
L34445 23171
L34426 23189
L34417 23217
L34417 23236
L34426 23264
L34435 23274
" />
<path d="M34482 23443
L34614 23443
" />
<path d="M34407 23396
L34548 23349
L34548 23471
" />
<path d="M34320 23368
L34329 23358
L34339 23330
L34339 23311
L34329 23283
L34311 23264
L34292 23255
L34254 23246
L34226 23246
L34189 23255
L34170 23264
L34151 23283
L34142 23311
L34142 23330
L34151 23358
L34160 23368
" />
<path d="M45802 23313
L45811 23304
L45820 23276
L45820 23257
L45811 23229
L45792 23210
L45773 23201
L45736 23191
L45708 23191
L45670 23201
L45652 23210
L45633 23229
L45623 23257
L45623 23276
L45633 23304
L45642 23313
" />
<path d="M45623 23491
L45623 23398
L45717 23388
L45708 23398
L45698 23416
L45698 23463
L45708 23482
L45717 23491
L45736 23501
L45783 23501
L45802 23491
L45811 23482
L45820 23463
L45820 23416
L45811 23398
L45802 23388
" />
<path d="M46077 23407
L46086 23398
L46095 23369
L46095 23351
L46086 23323
L46067 23304
L46048 23294
L46011 23285
L45983 23285
L45945 23294
L45927 23304
L45908 23323
L45898 23351
L45898 23369
L45908 23398
L45917 23407
" />
<path d="M38631 37713
L38631 37727
L38645 37753
L38658 37766
L38684 37780
L38711 37780
L38731 37773
L38764 37753
L38784 37733
L38804 37700
L38810 37680
L38810 37654
L38797 37627
L38784 37614
L38757 37601
L38744 37601
" />
<path d="M38711 37541
L38625 37455
L38618 37554
L38598 37534
L38578 37528
L38565 37528
L38545 37534
L38512 37567
L38505 37587
L38505 37601
L38512 37620
L38552 37660
L38572 37667
L38585 37667
" />
<path d="M38759 37452
L38759 37466
L38773 37492
L38786 37506
L38813 37519
L38839 37519
L38859 37512
L38892 37492
L38912 37472
L38932 37439
L38939 37419
L38939 37393
L38925 37366
L38912 37353
L38886 37340
L38872 37340
" />
<path d="M41663 36099
L41663 36112
L41676 36139
L41689 36152
L41716 36165
L41742 36165
L41762 36159
L41796 36139
L41815 36119
L41835 36086
L41842 36066
L41842 36039
L41829 36013
L41815 36000
L41789 35986
L41776 35986
" />
<path d="M41723 35933
L41723 35920
L41716 35900
L41683 35867
L41663 35860
L41650 35860
L41630 35867
L41616 35880
L41603 35907
L41603 36066
L41517 35980
" />
<path d="M41791 35838
L41791 35852
L41804 35878
L41818 35891
L41844 35905
L41871 35905
L41890 35898
L41924 35878
L41944 35858
L41963 35825
L41970 35805
L41970 35779
L41957 35752
L41944 35739
L41917 35726
L41904 35726
" />
<path d="M39951 37936
L39931 37824
" />
<path d="M40031 37857
L39892 37718
L39839 37771
L39832 37790
L39832 37804
L39839 37824
L39858 37844
L39878 37850
L39892 37850
L39912 37844
L39965 37790
" />
<path d="M39739 37963
L39832 38056
" />
<path d="M39719 37877
L39852 37943
L39766 38029
" />
<path d="M40079 38197
L40060 38084
" />
<path d="M40159 38118
L40020 37978
L39967 38031
L39960 38051
L39960 38065
L39967 38084
L39987 38104
L40006 38111
L40020 38111
L40040 38104
L40093 38051
" />
<path d="M40542 38527
L40522 38414
" />
<path d="M40621 38447
L40482 38308
L40429 38361
L40422 38381
L40422 38394
L40429 38414
L40449 38434
L40469 38441
L40482 38441
L40502 38434
L40555 38381
" />
<path d="M40356 38434
L40270 38520
L40369 38527
L40350 38547
L40343 38567
L40343 38580
L40350 38600
L40383 38633
L40403 38640
L40416 38640
L40436 38633
L40476 38593
L40482 38573
L40482 38560
" />
<path d="M40670 38788
L40650 38675
" />
<path d="M40750 38708
L40610 38569
L40557 38622
L40551 38642
L40551 38655
L40557 38675
L40577 38695
L40597 38702
L40610 38702
L40630 38695
L40683 38642
" />
</g> 
</svg>
