<?xml version="1.0" standalone="no"?>
 <!DOCTYPE svg PUBLIC "-//W3C//DTD SVG 1.1//EN" 
 "http://www.w3.org/Graphics/SVG/1.1/DTD/svg11.dtd"> 
<svg xmlns="http://www.w3.org/2000/svg" version="1.1" 
    width="41.9989cm" height="29.7002cm" viewBox="0 0 165350 116930 ">
<title>SVG Picture created as olala-B_Cu.svg date 2015/05/16 00:47:54 </title>
  <desc>Picture generated by PCBNEW </desc>
<g style="fill:#000000; fill-opacity:1;stroke:#000000; stroke-opacity:1;
stroke-linecap:round; stroke-linejoin:round; "
 transform="translate(0 0) scale(1 1)">
</g>
<g style="fill:#000000; fill-opacity:0.0; 
stroke:#000000; stroke-width:39.3701; stroke-opacity:1; 
stroke-linecap:round; stroke-linejoin:round;">
<path d="M30600 11700
L50200 11700
" />
<path d="M30600 51000
L35300 51000
" />
<path d="M45500 51000
L50200 51000
" />
<path d="M35300 44200
L45500 44200
" />
<path d="M35300 44200
L35300 51000
" />
<path d="M45500 44200
L45500 51000
" />
<path d="M30600 51000
L30600 11700
" />
<path d="M50200 51000
L50200 11700
" />
</g>
<g style="fill:#000000; fill-opacity:0.0; 
stroke:#000000; stroke-width:59.0551; stroke-opacity:1; 
stroke-linecap:round; stroke-linejoin:round;">
</g>
<g style="fill:#000000; fill-opacity:1.0; 
stroke:#000000; stroke-width:59.0551; stroke-opacity:1; 
stroke-linecap:round; stroke-linejoin:round;">
<polyline style="fill-rule:evenodd;"
points="48129,30929
48670,30929
48670,31470
48129,31470
48129,30929
" /> 
<circle cx="49400" cy="31200" r="270.472" /> 
<circle cx="48400" cy="36200" r="270.472" /> 
<circle cx="49400" cy="32200" r="270.472" /> 
<circle cx="48400" cy="37200" r="270.472" /> 
<circle cx="49400" cy="33200" r="270.472" /> 
<circle cx="48400" cy="38200" r="270.472" /> 
<circle cx="49400" cy="34200" r="270.472" /> 
<circle cx="48400" cy="39200" r="270.472" /> 
<circle cx="49400" cy="35200" r="270.472" /> 
<circle cx="48400" cy="40200" r="270.472" /> 
<circle cx="49400" cy="36200" r="270.472" /> 
<circle cx="48400" cy="41200" r="270.472" /> 
<circle cx="49400" cy="37200" r="270.472" /> 
<circle cx="48400" cy="42200" r="270.472" /> 
<circle cx="49400" cy="38200" r="270.472" /> 
<circle cx="48400" cy="43200" r="270.472" /> 
<circle cx="49400" cy="39200" r="270.472" /> 
<circle cx="48400" cy="44200" r="270.472" /> 
<circle cx="49400" cy="40200" r="270.472" /> 
<circle cx="48400" cy="45200" r="270.472" /> 
<circle cx="49400" cy="41200" r="270.472" /> 
<circle cx="48400" cy="46200" r="270.472" /> 
<circle cx="49400" cy="42200" r="270.472" /> 
<circle cx="49400" cy="43200" r="270.472" /> 
<circle cx="48400" cy="47200" r="270.472" /> 
<circle cx="49400" cy="44200" r="270.472" /> 
<circle cx="49400" cy="46200" r="270.472" /> 
<circle cx="49400" cy="47200" r="270.472" /> 
<circle cx="49400" cy="48200" r="270.472" /> 
<circle cx="49400" cy="49200" r="270.472" /> 
<circle cx="48400" cy="48200" r="270.472" /> 
<circle cx="48400" cy="49200" r="270.472" /> 
<circle cx="48400" cy="32200" r="270.472" /> 
<circle cx="48400" cy="33200" r="270.472" /> 
<circle cx="48400" cy="34200" r="270.472" /> 
<circle cx="48400" cy="35200" r="270.472" /> 
<circle cx="48400" cy="50200" r="270.472" /> 
<circle cx="49400" cy="50200" r="270.472" /> 
<circle cx="49400" cy="45200" r="270.472" /> 
<polyline style="fill-rule:evenodd;"
points="32670,50470
32129,50470
32129,49929
32670,49929
32670,50470
" /> 
<circle cx="31400" cy="50200" r="270.472" /> 
<circle cx="32400" cy="45200" r="270.472" /> 
<circle cx="31400" cy="49200" r="270.472" /> 
<circle cx="32400" cy="44200" r="270.472" /> 
<circle cx="31400" cy="48200" r="270.472" /> 
<circle cx="32400" cy="43200" r="270.472" /> 
<circle cx="31400" cy="47200" r="270.472" /> 
<circle cx="32400" cy="42200" r="270.472" /> 
<circle cx="31400" cy="46200" r="270.472" /> 
<circle cx="32400" cy="41200" r="270.472" /> 
<circle cx="31400" cy="45200" r="270.472" /> 
<circle cx="32400" cy="40200" r="270.472" /> 
<circle cx="31400" cy="44200" r="270.472" /> 
<circle cx="32400" cy="39200" r="270.472" /> 
<circle cx="31400" cy="43200" r="270.472" /> 
<circle cx="32400" cy="38200" r="270.472" /> 
<circle cx="31400" cy="42200" r="270.472" /> 
<circle cx="32400" cy="37200" r="270.472" /> 
<circle cx="31400" cy="41200" r="270.472" /> 
<circle cx="32400" cy="36200" r="270.472" /> 
<circle cx="31400" cy="40200" r="270.472" /> 
<circle cx="32400" cy="35200" r="270.472" /> 
<circle cx="31400" cy="39200" r="270.472" /> 
<circle cx="31400" cy="38200" r="270.472" /> 
<circle cx="32400" cy="34200" r="270.472" /> 
<circle cx="31400" cy="37200" r="270.472" /> 
<circle cx="31400" cy="35200" r="270.472" /> 
<circle cx="31400" cy="34200" r="270.472" /> 
<circle cx="31400" cy="33200" r="270.472" /> 
<circle cx="31400" cy="32200" r="270.472" /> 
<circle cx="32400" cy="33200" r="270.472" /> 
<circle cx="32400" cy="32200" r="270.472" /> 
<circle cx="32400" cy="49200" r="270.472" /> 
<circle cx="32400" cy="48200" r="270.472" /> 
<circle cx="32400" cy="47200" r="270.472" /> 
<circle cx="32400" cy="46200" r="270.472" /> 
<circle cx="32400" cy="31200" r="270.472" /> 
<circle cx="31400" cy="31200" r="270.472" /> 
<circle cx="31400" cy="36200" r="270.472" /> 
<polyline style="fill-rule:evenodd;"
points="34654,23827
34163,23827
34163,23536
34654,23536
34654,23827
" /> 
<polyline style="fill-rule:evenodd;"
points="34654,23077
34163,23077
34163,22786
34654,22786
34654,23077
" /> 
<polyline style="fill-rule:evenodd;"
points="45620,22825
46111,22825
46111,23116
45620,23116
45620,22825
" /> 
<polyline style="fill-rule:evenodd;"
points="45620,23575
46111,23575
46111,23866
45620,23866
45620,23575
" /> 
<polyline style="fill-rule:evenodd;"
points="38198,37364
38545,37017
38751,37223
38404,37570
38198,37364
" /> 
<polyline style="fill-rule:evenodd;"
points="38728,37894
39076,37547
39281,37753
38934,38100
38728,37894
" /> 
<polyline style="fill-rule:evenodd;"
points="41230,35750
41577,35403
41782,35609
41435,35956
41230,35750
" /> 
<polyline style="fill-rule:evenodd;"
points="41760,36280
42107,35933
42313,36139
41966,36486
41760,36280
" /> 
<polyline style="fill-rule:evenodd;"
points="40155,37450
40502,37797
40296,38003
39949,37656
40155,37450
" /> 
<polyline style="fill-rule:evenodd;"
points="39624,37980
39971,38328
39766,38533
39419,38186
39624,37980
" /> 
<polyline style="fill-rule:evenodd;"
points="40745,38041
41092,38388
40887,38593
40539,38246
40745,38041
" /> 
<polyline style="fill-rule:evenodd;"
points="40215,38571
40562,38918
40356,39124
40009,38777
40215,38571
" /> 
<circle cx="47559.1" cy="18149.6" r="145.472" /> 
<circle cx="33307.1" cy="40039.4" r="145.472" /> 
<circle cx="31850.4" cy="30118.1" r="145.472" /> 
<circle cx="46653.5" cy="23149.6" r="145.472" /> 
<circle cx="40944.9" cy="23503.9" r="145.472" /> 
<circle cx="36259.8" cy="23937" r="145.472" /> 
<circle cx="32126" cy="23661.4" r="145.472" /> 
<circle cx="41929.1" cy="35236.2" r="145.472" /> 
<circle cx="47000" cy="15500" r="145.472" /> 
<circle cx="47800" cy="16300" r="145.472" /> 
<circle cx="38070.9" cy="37755.9" r="145.472" /> 
<circle cx="35511.8" cy="35472.4" r="90.5512" /> 
<circle cx="39212.6" cy="39330.7" r="90.5512" /> 
<circle cx="39527.6" cy="39448.8" r="90.5512" /> 
<circle cx="37519.7" cy="37440.9" r="90.5512" /> 
<circle cx="37637.8" cy="37755.9" r="90.5512" /> 
<circle cx="38779.5" cy="38897.6" r="90.5512" /> 
<circle cx="40118.1" cy="40196.9" r="90.5512" /> 
<circle cx="40000" cy="39881.9" r="90.5512" /> 
<circle cx="39645.7" cy="39763.8" r="90.5512" /> 
<circle cx="36220.5" cy="36614.2" r="90.5512" /> 
<circle cx="39094.5" cy="39015.7" r="90.5512" /> 
<circle cx="35787.4" cy="35748" r="90.5512" /> 
<circle cx="33976.4" cy="25984.3" r="90.5512" /> 
<circle cx="41692.9" cy="25984.3" r="90.5512" /> 
<circle cx="41141.7" cy="39763.8" r="90.5512" /> 
<circle cx="43385.8" cy="37559.1" r="90.5512" /> 
<circle cx="34055.1" cy="20629.9" r="90.5512" /> 
<circle cx="41692.9" cy="20629.9" r="90.5512" /> 
<circle cx="43543.3" cy="37244.1" r="90.5512" /> 
<circle cx="44566.9" cy="37401.6" r="90.5512" /> 
<circle cx="44645.7" cy="36653.5" r="90.5512" /> 
<circle cx="43661.4" cy="36653.5" r="90.5512" /> 
<circle cx="43346.5" cy="36496.1" r="90.5512" /> 
<circle cx="41692.9" cy="29842.5" r="90.5512" /> 
<circle cx="44960.6" cy="32322.8" r="90.5512" /> 
<circle cx="43228.3" cy="36181.1" r="90.5512" /> 
<circle cx="44606.3" cy="32322.8" r="90.5512" /> 
<circle cx="41023.6" cy="29566.9" r="90.5512" /> 
<circle cx="42874" cy="36102.4" r="90.5512" /> 
<circle cx="44252" cy="32322.8" r="90.5512" /> 
<circle cx="40590.6" cy="29291.3" r="90.5512" /> 
<circle cx="42755.9" cy="35787.4" r="90.5512" /> 
<circle cx="43897.6" cy="32322.8" r="90.5512" /> 
<circle cx="40118.1" cy="29015.7" r="90.5512" /> 
<circle cx="42440.9" cy="35629.9" r="90.5512" /> 
<circle cx="41574.8" cy="25669.3" r="90.5512" /> 
<circle cx="41259.8" cy="39448.8" r="90.5512" /> 
<circle cx="34094.5" cy="25669.3" r="90.5512" /> 
<circle cx="45590.6" cy="29507.9" r="90.5512" /> 
<circle cx="48405.5" cy="29488.2" r="90.5512" /> 
<circle cx="42322.8" cy="35315" r="90.5512" /> 
<circle cx="43267.7" cy="32322.8" r="90.5512" /> 
<circle cx="39645.7" cy="28740.2" r="90.5512" /> 
<circle cx="41850.4" cy="34842.5" r="90.5512" /> 
<circle cx="41535.4" cy="34724.4" r="90.5512" /> 
<circle cx="41417.3" cy="34409.4" r="90.5512" /> 
<circle cx="33976.4" cy="25354.3" r="90.5512" /> 
<circle cx="41574.8" cy="39330.7" r="90.5512" /> 
<circle cx="41692.9" cy="25354.3" r="90.5512" /> 
<circle cx="41968.5" cy="38818.9" r="90.5512" /> 
<circle cx="41574.8" cy="25039.4" r="90.5512" /> 
<circle cx="34055.1" cy="25039.4" r="90.5512" /> 
<circle cx="42086.6" cy="38503.9" r="90.5512" /> 
<circle cx="41692.9" cy="24724.4" r="90.5512" /> 
<circle cx="33976.4" cy="24724.4" r="90.5512" /> 
<circle cx="42440.9" cy="38385.8" r="90.5512" /> 
<circle cx="41692.9" cy="21889.8" r="90.5512" /> 
<circle cx="34015.7" cy="21889.8" r="90.5512" /> 
<circle cx="42598.4" cy="38070.9" r="90.5512" /> 
<circle cx="41574.8" cy="21574.8" r="90.5512" /> 
<circle cx="34133.9" cy="21574.8" r="90.5512" /> 
<circle cx="42952.8" cy="37992.1" r="90.5512" /> 
<circle cx="41692.9" cy="21259.8" r="90.5512" /> 
<circle cx="34015.7" cy="21259.8" r="90.5512" /> 
<circle cx="43070.9" cy="37677.2" r="90.5512" /> 
<circle cx="41614.2" cy="20944.9" r="90.5512" /> 
<circle cx="34133.9" cy="20944.9" r="90.5512" /> 
<circle cx="38070.9" cy="38228.3" r="90.5512" /> 
<circle cx="37637.8" cy="36259.8" r="90.5512" /> 
<circle cx="37952.8" cy="36141.7" r="90.5512" /> 
<circle cx="40196.9" cy="33897.6" r="90.5512" /> 
<circle cx="38543.3" cy="27440.9" r="90.5512" /> 
<circle cx="38543.3" cy="30551.2" r="90.5512" /> 
<circle cx="40039.4" cy="32795.3" r="90.5512" /> 
<circle cx="38937" cy="27440.9" r="90.5512" /> 
<circle cx="38937" cy="30551.2" r="90.5512" /> 
<circle cx="44133.9" cy="27244.1" r="90.5512" /> 
<circle cx="45236.2" cy="23661.4" r="90.5512" /> 
<circle cx="40551.2" cy="33543.3" r="90.5512" /> 
<circle cx="44566.9" cy="27244.1" r="90.5512" /> 
<circle cx="45315" cy="24055.1" r="90.5512" /> 
<circle cx="40590.6" cy="33937" r="90.5512" /> 
<circle cx="46653.5" cy="24094.5" r="90.5512" /> 
<circle cx="45000" cy="27244.1" r="90.5512" /> 
<circle cx="40944.9" cy="33976.4" r="90.5512" /> 
<circle cx="41102.4" cy="34291.3" r="90.5512" /> 
<circle cx="38070.9" cy="35826.8" r="90.5512" /> 
<circle cx="38385.8" cy="35669.3" r="90.5512" /> 
<circle cx="38543.3" cy="35354.3" r="90.5512" /> 
<circle cx="38976.4" cy="34921.3" r="90.5512" /> 
<circle cx="39291.3" cy="34803.1" r="90.5512" /> 
<circle cx="39409.4" cy="34488.2" r="90.5512" /> 
<circle cx="37755.9" cy="27440.9" r="90.5512" /> 
<circle cx="37755.9" cy="30551.2" r="90.5512" /> 
<circle cx="39763.8" cy="34370.1" r="90.5512" /> 
<circle cx="38149.6" cy="27440.9" r="90.5512" /> 
<circle cx="38149.6" cy="30551.2" r="90.5512" /> 
<circle cx="39881.9" cy="34015.7" r="90.5512" /> 
<circle cx="37204.7" cy="37322.8" r="90.5512" /> 
<circle cx="40708.7" cy="40196.9" r="90.5512" /> 
<circle cx="40748" cy="41220.5" r="90.5512" /> 
<circle cx="40039.4" cy="41181.1" r="90.5512" /> 
<circle cx="36181.1" cy="37322.8" r="90.5512" /> 
<circle cx="47598.4" cy="31692.9" r="90.5512" /> 
<circle cx="34094.5" cy="24409.4" r="90.5512" /> 
<circle cx="41614.2" cy="24409.4" r="90.5512" /> 
<circle cx="48228.3" cy="24606.3" r="90.5512" /> 
<circle cx="45472.4" cy="27244.1" r="90.5512" /> 
<circle cx="35866.1" cy="16240.2" r="145.472" /> 
<circle cx="37815" cy="16259.8" r="145.472" /> 
<circle cx="46200.8" cy="16456.7" r="145.472" /> 
<circle cx="49045.3" cy="18769.7" r="145.472" /> 
<circle cx="41259.8" cy="36988.2" r="145.472" /> 
<circle cx="46653.5" cy="23622" r="145.472" /> 
<circle cx="41338.6" cy="23228.3" r="145.472" /> 
<circle cx="36771.7" cy="23740.2" r="145.472" /> 
<circle cx="32126" cy="22874" r="145.472" /> 
<circle cx="38543.3" cy="38189" r="145.472" /> 
</g>
<g style="fill:#000000; fill-opacity:1.0; 
stroke:#000000; stroke-width:137.795; stroke-opacity:1; 
stroke-linecap:round; stroke-linejoin:round;">
<path d="M38474 37293
L39792 37293
" />
<path d="M39792 37293
L40225 37726
" />
<path d="M41506 35679
L40089 35679
" />
<path d="M40089 35679
L38474 37293
" />
<path d="M46653 23149
L46653 19055
" />
<path d="M46653 19055
L47559 18149
" />
<path d="M40816 38317
L40225 37726
" />
<path d="M36259 23937
L36397 24074
" />
<path d="M40374 24074
L40944 23503
" />
<path d="M36397 24074
L40374 24074
" />
<path d="M34409 23682
L36004 23682
" />
<path d="M35866 39960
L33385 39960
" />
<path d="M33385 39960
L33307 40039
" />
<path d="M35866 39960
L38070 37755
" />
<path d="M32125 23661
L32125 29409
" />
<path d="M31850 29685
L31850 30118
" />
<path d="M32125 29409
L31850 29685
" />
<path d="M45866 22971
L44863 22971
" />
<path d="M41062 23503
L41338 23779
" />
<path d="M41338 23779
L44055 23779
" />
<path d="M40944 23503
L41062 23503
" />
<path d="M44863 22971
L44055 23779
" />
<path d="M45866 22971
L46475 22971
" />
<path d="M46475 22971
L46653 23149
" />
<path d="M36004 23682
L36259 23937
" />
<path d="M34409 23682
L32146 23682
" />
<path d="M32146 23682
L32125 23661
" />
<path d="M41506 35679
L41506 35658
" />
<path d="M41506 35658
L41929 35236
" />
<path d="M38474 37293
L38474 37351
" />
<path d="M38474 37351
L38070 37755
" />
<path d="M47000 15500
L47800 16300
" />
</g>
<g style="fill:#000000; fill-opacity:1.0; 
stroke:#000000; stroke-width:80.315; stroke-opacity:1; 
stroke-linecap:round; stroke-linejoin:round;">
<path d="M35511 35472
L34291 36692
" />
<path d="M31907 36692
L31400 37200
" />
<path d="M34291 36692
L31907 36692
" />
<path d="M33099 48200
L32400 48200
" />
<path d="M33976 47322
L33099 48200
" />
<path d="M33976 44055
L33976 47322
" />
<path d="M34940 43090
L33976 44055
" />
<path d="M35452 43090
L34940 43090
" />
<path d="M39212 39330
L35452 43090
" />
<path d="M31899 48700
L31400 49200
" />
<path d="M33031 48700
L31899 48700
" />
<path d="M34153 47578
L33031 48700
" />
<path d="M34153 44114
L34153 47578
" />
<path d="M35000 43267
L34153 44114
" />
<path d="M35708 43267
L35000 43267
" />
<path d="M39527 39448
L35708 43267
" />
<path d="M35760 39200
L32400 39200
" />
<path d="M37519 37440
L35760 39200
" />
<path d="M37637 37755
L35708 39685
" />
<path d="M35708 39685
L31914 39685
" />
<path d="M31914 39685
L31400 40200
" />
<path d="M39695 38257
L39419 38257
" />
<path d="M39419 38257
L38779 38897
" />
<path d="M33114 47200
L32400 47200
" />
<path d="M33622 46692
L33114 47200
" />
<path d="M33622 43937
L33622 46692
" />
<path d="M34822 42736
L33622 43937
" />
<path d="M34940 42736
L34822 42736
" />
<path d="M38779 38897
L34940 42736
" />
<path d="M34685 47914
L32400 50200
" />
<path d="M34685 44291
L34685 47914
" />
<path d="M35177 43799
L34685 44291
" />
<path d="M36515 43799
L35177 43799
" />
<path d="M40118 40196
L36515 43799
" />
<path d="M31875 49724
L31400 50200
" />
<path d="M32637 49724
L31875 49724
" />
<path d="M34507 47854
L32637 49724
" />
<path d="M34507 44232
L34507 47854
" />
<path d="M35118 43622
L34507 44232
" />
<path d="M36259 43622
L35118 43622
" />
<path d="M40000 39881
L36259 43622
" />
<path d="M32886 49200
L32400 49200
" />
<path d="M34330 47755
L32886 49200
" />
<path d="M34330 44173
L34330 47755
" />
<path d="M35059 43444
L34330 44173
" />
<path d="M35964 43444
L35059 43444
" />
<path d="M39645 39763
L35964 43444
" />
<path d="M31883 37716
L31400 38200
" />
<path d="M35118 37716
L31883 37716
" />
<path d="M36220 36614
L35118 37716
" />
<path d="M40286 38847
L39262 38847
" />
<path d="M39262 38847
L39094 39015
" />
<path d="M31883 47716
L31400 48200
" />
<path d="M32992 47716
L31883 47716
" />
<path d="M33799 46909
L32992 47716
" />
<path d="M33799 43996
L33799 46909
" />
<path d="M34881 42913
L33799 43996
" />
<path d="M35196 42913
L34881 42913
" />
<path d="M39094 39015
L35196 42913
" />
<path d="M34335 37200
L32400 37200
" />
<path d="M35787 35748
L34335 37200
" />
<path d="M48137 49200
L48400 49200
" />
<path d="M46515 47578
L48137 49200
" />
<path d="M46515 44232
L46515 47578
" />
<path d="M45492 43208
L46515 44232
" />
<path d="M44586 43208
L45492 43208
" />
<path d="M41692 25984
L33976 25984
" />
<path d="M41141 39763
L44586 43208
" />
<path d="M48899 43700
L49400 43200
" />
<path d="M48149 43700
L48899 43700
" />
<path d="M45984 41535
L48149 43700
" />
<path d="M45826 41535
L45984 41535
" />
<path d="M43582 39291
L45826 41535
" />
<path d="M43582 37755
L43582 39291
" />
<path d="M43385 37559
L43582 37755
" />
<path d="M41692 20629
L34055 20629
" />
<path d="M46538 41338
L48400 43200
" />
<path d="M45866 41338
L46538 41338
" />
<path d="M43779 39251
L45866 41338
" />
<path d="M43779 37480
L43779 39251
" />
<path d="M43543 37244
L43779 37480
" />
<path d="M48922 42677
L49400 42200
" />
<path d="M48149 42677
L48922 42677
" />
<path d="M46633 41161
L48149 42677
" />
<path d="M45916 41161
L46633 41161
" />
<path d="M43976 39221
L45916 41161
" />
<path d="M43976 37992
L43976 39221
" />
<path d="M44566 37401
L43976 37992
" />
<path d="M44645 36653
L45551 37559
" />
<path d="M45551 37559
L45551 39366
" />
<path d="M45551 39366
L47129 40944
" />
<path d="M47129 40944
L47144 40944
" />
<path d="M47144 40944
L48400 42200
" />
<path d="M43661 36653
L43937 36377
" />
<path d="M43937 36377
L44803 36377
" />
<path d="M44803 36377
L45748 37322
" />
<path d="M45748 37322
L45748 39291
" />
<path d="M45748 39291
L48149 41692
" />
<path d="M48149 41692
L48907 41692
" />
<path d="M48907 41692
L49400 41200
" />
<path d="M43346 36496
L43661 36181
" />
<path d="M43661 36181
L44842 36181
" />
<path d="M44842 36181
L45944 37283
" />
<path d="M45944 37283
L45944 38740
" />
<path d="M45944 38740
L47716 40511
" />
<path d="M47716 40511
L47711 40511
" />
<path d="M47711 40511
L48400 41200
" />
<path d="M42519 29842
L44960 32283
" />
<path d="M41692 29842
L42519 29842
" />
<path d="M44960 32283
L44960 32322
" />
<path d="M43228 36181
L43425 35984
" />
<path d="M43425 35984
L44881 35984
" />
<path d="M44881 35984
L46141 37244
" />
<path d="M46141 37244
L46141 38661
" />
<path d="M46141 38661
L48188 40708
" />
<path d="M48188 40708
L48891 40708
" />
<path d="M48891 40708
L49400 40200
" />
<path d="M44606 32165
L44606 32322
" />
<path d="M42814 30374
L44606 32165
" />
<path d="M41830 30374
L42814 30374
" />
<path d="M41023 29566
L41830 30374
" />
<path d="M42874 36102
L43188 35787
" />
<path d="M43188 35787
L44921 35787
" />
<path d="M44921 35787
L46338 37204
" />
<path d="M46338 37204
L46338 38346
" />
<path d="M46338 38346
L48070 40078
" />
<path d="M48070 40078
L48278 40078
" />
<path d="M48278 40078
L48400 40200
" />
<path d="M40590 29488
L41653 30551
" />
<path d="M41653 30551
L42755 30551
" />
<path d="M42755 30551
L44251 32047
" />
<path d="M44251 32047
L44251 32322
" />
<path d="M40590 29291
L40590 29488
" />
<path d="M42755 35787
L42952 35590
" />
<path d="M42952 35590
L44960 35590
" />
<path d="M44960 35590
L46535 37165
" />
<path d="M46535 37165
L46535 38228
" />
<path d="M46535 38228
L47992 39685
" />
<path d="M47992 39685
L48914 39685
" />
<path d="M48914 39685
L49400 39200
" />
<path d="M40118 29291
L41555 30728
" />
<path d="M41555 30728
L42696 30728
" />
<path d="M42696 30728
L43897 31929
" />
<path d="M43897 31929
L43897 32322
" />
<path d="M40118 29015
L40118 29291
" />
<path d="M46732 37125
L46732 37532
" />
<path d="M46732 37532
L48400 39200
" />
<path d="M42440 35629
L42677 35393
" />
<path d="M42677 35393
L45000 35393
" />
<path d="M45000 35393
L46732 37125
" />
<path d="M48977 48622
L49400 48200
" />
<path d="M47834 48622
L48977 48622
" />
<path d="M46692 47480
L47834 48622
" />
<path d="M46692 44173
L46692 47480
" />
<path d="M45551 43031
L46692 44173
" />
<path d="M44842 43031
L45551 43031
" />
<path d="M41259 39448
L44842 43031
" />
<path d="M41574 25669
L34094 25669
" />
<path d="M48385 29507
L45590 29507
" />
<path d="M48405 29488
L48385 29507
" />
<path d="M42322 35314
L42440 35196
" />
<path d="M42440 35196
L45039 35196
" />
<path d="M45039 35196
L46929 37086
" />
<path d="M46929 37086
L46929 37401
" />
<path d="M46929 37401
L48228 38700
" />
<path d="M48228 38700
L48899 38700
" />
<path d="M48899 38700
L49400 38200
" />
<path d="M39645 29094
L41456 30905
" />
<path d="M41456 30905
L42637 30905
" />
<path d="M42637 30905
L43267 31535
" />
<path d="M43267 31535
L43267 32322
" />
<path d="M39645 28740
L39645 29094
" />
<path d="M47125 36653
L47125 36925
" />
<path d="M47125 36925
L48400 38200
" />
<path d="M41850 34842
L42086 34606
" />
<path d="M42086 34606
L45078 34606
" />
<path d="M45078 34606
L47125 36653
" />
<path d="M48883 37716
L49400 37200
" />
<path d="M48267 37716
L48883 37716
" />
<path d="M47952 37401
L48267 37716
" />
<path d="M47952 37086
L47952 37401
" />
<path d="M45295 34429
L47952 37086
" />
<path d="M41830 34429
L45295 34429
" />
<path d="M41535 34724
L41830 34429
" />
<path d="M41574 34251
L45451 34251
" />
<path d="M45451 34251
L48400 37200
" />
<path d="M41417 34409
L41574 34251
" />
<path d="M41692 25354
L33976 25354
" />
<path d="M41574 39330
L45098 42854
" />
<path d="M45098 42854
L45610 42854
" />
<path d="M45610 42854
L46870 44114
" />
<path d="M47648 48200
L48400 48200
" />
<path d="M46870 47421
L47648 48200
" />
<path d="M46870 44114
L46870 47421
" />
<path d="M48962 47637
L49400 47200
" />
<path d="M47637 47637
L48962 47637
" />
<path d="M47047 47047
L47637 47637
" />
<path d="M47047 44046
L47047 47047
" />
<path d="M45678 42677
L47047 44046
" />
<path d="M45472 42677
L45678 42677
" />
<path d="M42007 39212
L45472 42677
" />
<path d="M42007 38858
L42007 39212
" />
<path d="M41968 38818
L42007 38858
" />
<path d="M41574 25039
L34055 25039
" />
<path d="M45728 42500
L45522 42500
" />
<path d="M42440 39418
L42440 38858
" />
<path d="M45522 42500
L42440 39418
" />
<path d="M42440 38858
L42086 38503
" />
<path d="M45728 42500
L47224 43996
" />
<path d="M47224 43996
L47224 46024
" />
<path d="M48400 47200
L47224 46024
" />
<path d="M41692 24724
L33976 24724
" />
<path d="M42677 38622
L42677 39409
" />
<path d="M45787 42322
L47401 43937
" />
<path d="M45590 42322
L45787 42322
" />
<path d="M42677 39409
L45590 42322
" />
<path d="M48946 46653
L49400 46200
" />
<path d="M48149 46653
L48946 46653
" />
<path d="M47401 45905
L48149 46653
" />
<path d="M47401 43937
L47401 45905
" />
<path d="M42440 38385
L42677 38622
" />
<path d="M41692 21889
L34015 21889
" />
<path d="M42913 38385
L42913 39409
" />
<path d="M45826 42125
L47578 43877
" />
<path d="M45629 42125
L45826 42125
" />
<path d="M42913 39409
L45629 42125
" />
<path d="M42598 38070
L42913 38385
" />
<path d="M47578 43877
L47578 45378
" />
<path d="M47578 45378
L48400 46200
" />
<path d="M41574 21574
L34133 21574
" />
<path d="M43188 38228
L43188 39409
" />
<path d="M45866 41929
L47755 43818
" />
<path d="M45708 41929
L45866 41929
" />
<path d="M43188 39409
L45708 41929
" />
<path d="M42952 37992
L43188 38228
" />
<path d="M47755 43818
L47755 44291
" />
<path d="M47755 44291
L48110 44645
" />
<path d="M48954 44645
L49400 44200
" />
<path d="M48110 44645
L48954 44645
" />
<path d="M41692 21259
L34015 21259
" />
<path d="M47952 43752
L48400 44200
" />
<path d="M47952 43779
L47952 43752
" />
<path d="M45905 41732
L47952 43779
" />
<path d="M45787 41732
L45905 41732
" />
<path d="M43385 39330
L45787 41732
" />
<path d="M43385 37992
L43385 39330
" />
<path d="M43070 37677
L43385 37992
" />
<path d="M41614 20944
L34133 20944
" />
<path d="M35941 40357
L35154 40357
" />
<path d="M32554 40354
L32400 40200
" />
<path d="M35157 40354
L32554 40354
" />
<path d="M35154 40357
L35157 40354
" />
<path d="M38070 38228
L35941 40357
" />
<path d="M37637 36259
L36377 35000
" />
<path d="M32600 35000
L32400 35200
" />
<path d="M36377 35000
L32600 35000
" />
<path d="M37952 36141
L36535 34724
" />
<path d="M36535 34724
L31875 34724
" />
<path d="M31875 34724
L31400 35200
" />
<path d="M40196 33897
L40196 33543
" />
<path d="M40540 33200
L48400 33200
" />
<path d="M40196 33543
L40540 33200
" />
<path d="M38543 27440
L38543 30551
" />
<path d="M48916 32716
L49400 33200
" />
<path d="M48267 32716
L48916 32716
" />
<path d="M47992 32992
L48267 32716
" />
<path d="M40236 32992
L47992 32992
" />
<path d="M40039 32795
L40236 32992
" />
<path d="M38937 27440
L38937 30551
" />
<path d="M45236 23700
L44133 24803
" />
<path d="M44133 24803
L44133 27244
" />
<path d="M45236 23661
L45236 23700
" />
<path d="M47546 34200
L48400 34200
" />
<path d="M46732 33385
L47546 34200
" />
<path d="M40708 33385
L46732 33385
" />
<path d="M40551 33543
L40708 33385
" />
<path d="M45314 24055
L44566 24803
" />
<path d="M44566 24803
L44566 27244
" />
<path d="M40590 33937
L40944 33582
" />
<path d="M40944 33582
L46574 33582
" />
<path d="M46574 33582
L47716 34724
" />
<path d="M47716 34724
L48875 34724
" />
<path d="M48875 34724
L49400 34200
" />
<path d="M46653 24094
L45000 25748
" />
<path d="M45000 25748
L45000 27244
" />
<path d="M47837 35200
L48400 35200
" />
<path d="M46417 33779
L47837 35200
" />
<path d="M41141 33779
L46417 33779
" />
<path d="M40944 33976
L41141 33779
" />
<path d="M48891 35708
L49400 35200
" />
<path d="M47480 35708
L48891 35708
" />
<path d="M45787 34015
L47480 35708
" />
<path d="M41377 34015
L45787 34015
" />
<path d="M41102 34291
L41377 34015
" />
<path d="M38070 35826
L36444 34200
" />
<path d="M36444 34200
L32400 34200
" />
<path d="M31899 33700
L31400 34200
" />
<path d="M36417 33700
L31899 33700
" />
<path d="M38385 35669
L36417 33700
" />
<path d="M36388 33200
L32400 33200
" />
<path d="M38543 35354
L36388 33200
" />
<path d="M31922 32677
L31400 33200
" />
<path d="M36732 32677
L31922 32677
" />
<path d="M38976 34921
L36732 32677
" />
<path d="M39291 34803
L36692 32204
" />
<path d="M32395 32204
L32400 32200
" />
<path d="M36692 32204
L32395 32204
" />
<path d="M39409 34488
L36614 31692
" />
<path d="M36614 31692
L31907 31692
" />
<path d="M31907 31692
L31400 32200
" />
<path d="M37755 27440
L37755 30551
" />
<path d="M36593 31200
L32400 31200
" />
<path d="M39763 34370
L36593 31200
" />
<path d="M38149 27440
L38149 30551
" />
<path d="M31970 30629
L31400 31200
" />
<path d="M36496 30629
L31970 30629
" />
<path d="M39881 34015
L36496 30629
" />
<path d="M31899 38700
L31400 39200
" />
<path d="M35826 38700
L31899 38700
" />
<path d="M37204 37322
L35826 38700
" />
<path d="M48954 49645
L49400 49200
" />
<path d="M48188 49645
L48954 49645
" />
<path d="M46338 47795
L48188 49645
" />
<path d="M46338 44291
L46338 47795
" />
<path d="M45433 43385
L46338 44291
" />
<path d="M43897 43385
L45433 43385
" />
<path d="M40708 40196
L43897 43385
" />
<path d="M48428 50200
L48400 50200
" />
<path d="M46161 47933
L48428 50200
" />
<path d="M46161 44350
L46161 47933
" />
<path d="M45374 43562
L46161 44350
" />
<path d="M43090 43562
L45374 43562
" />
<path d="M40748 41220
L43090 43562
" />
<path d="M48970 50629
L49400 50200
" />
<path d="M48228 50629
L48970 50629
" />
<path d="M45984 48385
L48228 50629
" />
<path d="M45984 44409
L45984 48385
" />
<path d="M45314 43740
L45984 44409
" />
<path d="M42598 43740
L45314 43740
" />
<path d="M40039 41181
L42598 43740
" />
<path d="M35303 38200
L32400 38200
" />
<path d="M36181 37322
L35303 38200
" />
<path d="M41929 24409
L41614 24409
" />
<path d="M42480 24960
L41929 24409
" />
<path d="M42480 27834
L42480 24960
" />
<path d="M45275 30629
L42480 27834
" />
<path d="M46535 30629
L45275 30629
" />
<path d="M47598 31692
L46535 30629
" />
<path d="M41614 24409
L34094 24409
" />
<path d="M48346 24724
L48346 27755
" />
<path d="M49251 28661
L49251 30098
" />
<path d="M48346 27755
L49251 28661
" />
<path d="M49251 30098
L48897 30452
" />
<path d="M48897 31702
L48400 32200
" />
<path d="M48897 30452
L48897 31702
" />
<path d="M48228 24606
L48346 24724
" />
<path d="M46259 28031
L48326 28031
" />
<path d="M49055 28759
L49055 29862
" />
<path d="M48326 28031
L49055 28759
" />
<path d="M49055 29862
L48400 30517
" />
<path d="M48400 30517
L48400 31200
" />
<path d="M45472 27244
L46259 28031
" />
</g>
<g style="fill:#000000; fill-opacity:1.0; 
stroke:#000000; stroke-width:393.701; stroke-opacity:1; 
stroke-linecap:round; stroke-linejoin:round;">
<path d="M37814 17559
L37814 16259
" />
<path d="M35866 16240
L35866 17559
" />
<path d="M46200 16456
L46200 17559
" />
<path d="M46200 17559
L46200 17519
" />
</g>
<g style="fill:#000000; fill-opacity:1.0; 
stroke:#000000; stroke-width:137.795; stroke-opacity:1; 
stroke-linecap:round; stroke-linejoin:round;">
<path d="M42036 36210
L42036 36211
" />
<path d="M42036 36211
L41259 36988
" />
<path d="M30826 35590
L30826 29960
" />
<path d="M31614 29173
L31614 23385
" />
<path d="M30826 29960
L31614 29173
" />
<path d="M31400 36200
L31400 36163
" />
<path d="M31614 23385
L32125 22874
" />
<path d="M31400 36163
L30826 35590
" />
<path d="M31400 45200
L31400 45179
" />
<path d="M30826 36773
L31400 36200
" />
<path d="M30826 44606
L30826 36773
" />
<path d="M31400 45179
L30826 44606
" />
<path d="M31889 44710
L31400 45200
" />
<path d="M31889 43937
L31889 44710
" />
<path d="M32125 43700
L31889 43937
" />
<path d="M33031 43700
L32125 43700
" />
<path d="M38543 38188
L33031 43700
" />
<path d="M34409 22932
L35963 22932
" />
<path d="M35963 22932
L36771 23740
" />
<path d="M46653 23622
L49960 23622
" />
<path d="M49960 23622
L50078 23740
" />
<path d="M45866 23721
L46554 23721
" />
<path d="M46554 23721
L46653 23622
" />
<path d="M34409 22932
L41042 22932
" />
<path d="M41042 22932
L41338 23228
" />
<path d="M34409 22932
L32184 22932
" />
<path d="M32184 22932
L32125 22874
" />
<path d="M32125 18976
L32125 22874
" />
<path d="M33543 17559
L32125 18976
" />
<path d="M46200 17559
L37814 17559
" />
<path d="M35866 17559
L33543 17559
" />
<path d="M49045 18769
L47834 17559
" />
<path d="M47834 17559
L46200 17559
" />
<path d="M50078 19803
L49045 18769
" />
<path d="M50078 23740
L50078 19803
" />
<path d="M50078 35551
L50078 23740
" />
<path d="M49429 36200
L50078 35551
" />
<path d="M49400 36200
L49429 36200
" />
<path d="M49400 36200
L49400 36211
" />
<path d="M49400 36211
L49960 36771
" />
<path d="M49960 36771
L49960 44639
" />
<path d="M49960 44639
L49400 45200
" />
<path d="M38908 37824
L39005 37824
" />
<path d="M38543 38188
L38908 37824
" />
</g>
<g style="fill:#000000; fill-opacity:1.0; 
stroke:#000000; stroke-width:59.0551; stroke-opacity:1; 
stroke-linecap:round; stroke-linejoin:round;">
<polyline style="fill-rule:evenodd;"
points="32169,35699
32088,35733
31934,35888
31902,35963
31881,35912
31785,35884
31470,36200
31476,36205
31405,36276
31400,36270
31084,36585
31112,36681
31167,36700
31088,36733
30934,36888
30869,37042
30869,36369
30918,36487
31014,36515
31329,36200
31014,35884
30918,35912
30869,36049
30869,35356
30933,35511
31088,35665
31163,35697
31112,35718
31084,35814
31400,36129
31715,35814
31687,35718
31632,35699
31711,35666
31865,35511
31899,35430
31933,35511
32088,35665
32169,35699
" /> 
</g>
<g style="fill:#000000; fill-opacity:0.0; 
stroke:#000000; stroke-width:100; stroke-opacity:1; 
stroke-linecap:round; stroke-linejoin:round;">
<polyline fill="none;"
points="32169,35699
32088,35733
31934,35888
31902,35963
31881,35912
31785,35884
31470,36200
31476,36205
31405,36276
31400,36270
31084,36585
31112,36681
31167,36700
31088,36733
30934,36888
30869,37042
30869,36369
30918,36487
31014,36515
31329,36200
31014,35884
30918,35912
30869,36049
30869,35356
30933,35511
31088,35665
31163,35697
31112,35718
31084,35814
31400,36129
31715,35814
31687,35718
31632,35699
31711,35666
31865,35511
31899,35430
31933,35511
32088,35665
32169,35699
" /> 
</g>
<g style="fill:#000000; fill-opacity:1.0; 
stroke:#000000; stroke-width:59.0551; stroke-opacity:1; 
stroke-linecap:round; stroke-linejoin:round;">
<polyline style="fill-rule:evenodd;"
points="32169,43699
32088,43733
31934,43888
31900,43969
31866,43888
31711,43734
31630,43700
31711,43666
31865,43511
31899,43430
31933,43511
32088,43665
32169,43699
" /> 
</g>
<g style="fill:#000000; fill-opacity:0.0; 
stroke:#000000; stroke-width:100; stroke-opacity:1; 
stroke-linecap:round; stroke-linejoin:round;">
<polyline fill="none;"
points="32169,43699
32088,43733
31934,43888
31900,43969
31866,43888
31711,43734
31630,43700
31711,43666
31865,43511
31899,43430
31933,43511
32088,43665
32169,43699
" /> 
</g>
<g style="fill:#000000; fill-opacity:1.0; 
stroke:#000000; stroke-width:59.0551; stroke-opacity:1; 
stroke-linecap:round; stroke-linejoin:round;">
<polyline style="fill-rule:evenodd;"
points="32169,45699
32088,45733
31934,45888
31900,45969
31866,45888
31711,45734
31636,45702
31687,45681
31715,45585
31400,45270
31084,45585
31112,45681
31167,45700
31088,45733
30934,45888
30869,46042
30869,45369
30918,45487
31014,45515
31329,45200
31014,44884
30918,44912
30869,45049
30869,44356
30933,44511
31088,44665
31163,44697
31112,44718
31084,44814
31400,45129
31715,44814
31687,44718
31632,44699
31711,44666
31865,44511
31899,44430
31933,44511
32088,44665
32169,44699
32088,44733
31934,44888
31902,44963
31881,44912
31785,44884
31470,45200
31785,45515
31881,45487
31900,45432
31933,45511
32088,45665
32169,45699
" /> 
</g>
<g style="fill:#000000; fill-opacity:0.0; 
stroke:#000000; stroke-width:100; stroke-opacity:1; 
stroke-linecap:round; stroke-linejoin:round;">
<polyline fill="none;"
points="32169,45699
32088,45733
31934,45888
31900,45969
31866,45888
31711,45734
31636,45702
31687,45681
31715,45585
31400,45270
31084,45585
31112,45681
31167,45700
31088,45733
30934,45888
30869,46042
30869,45369
30918,45487
31014,45515
31329,45200
31014,44884
30918,44912
30869,45049
30869,44356
30933,44511
31088,44665
31163,44697
31112,44718
31084,44814
31400,45129
31715,44814
31687,44718
31632,44699
31711,44666
31865,44511
31899,44430
31933,44511
32088,44665
32169,44699
32088,44733
31934,44888
31902,44963
31881,44912
31785,44884
31470,45200
31785,45515
31881,45487
31900,45432
31933,45511
32088,45665
32169,45699
" /> 
</g>
<g style="fill:#000000; fill-opacity:1.0; 
stroke:#000000; stroke-width:59.0551; stroke-opacity:1; 
stroke-linecap:round; stroke-linejoin:round;">
<polyline style="fill-rule:evenodd;"
points="39081,37829
39010,37900
39005,37894
38713,38186
38713,38275
38792,38354
38877,38389
38739,38527
38706,38527
38570,38583
38465,38687
38409,38823
38409,38857
34820,42446
34711,42468
34617,42531
34617,42531
33416,43731
33353,43825
33331,43937
33331,46572
32994,46909
32875,46909
32866,46888
32711,46734
32630,46700
32711,46666
32865,46511
32949,46309
32950,46091
32866,45888
32711,45734
32630,45700
32711,45666
32865,45511
32949,45309
32950,45091
32866,44888
32711,44734
32630,44700
32711,44666
32865,44511
32949,44309
32950,44091
32866,43888
32711,43734
32630,43700
32711,43666
32865,43511
32949,43309
32950,43091
32866,42888
32711,42734
32630,42700
32711,42666
32865,42511
32949,42309
32950,42091
32866,41888
32711,41734
32630,41700
32711,41666
32865,41511
32949,41309
32950,41091
32866,40888
32711,40734
32630,40700
32711,40666
32733,40644
35138,40644
35154,40647
35941,40647
36052,40625
36052,40625
36146,40562
38111,38598
38144,38598
38280,38542
38384,38438
38440,38302
38441,38155
38391,38036
38430,37996
38444,37963
38475,38036
38554,38115
38642,38115
38934,37824
38929,37818
38999,37747
39005,37753
39010,37747
39081,37818
39076,37824
39081,37829
" /> 
</g>
<g style="fill:#000000; fill-opacity:0.0; 
stroke:#000000; stroke-width:100; stroke-opacity:1; 
stroke-linecap:round; stroke-linejoin:round;">
<polyline fill="none;"
points="39081,37829
39010,37900
39005,37894
38713,38186
38713,38275
38792,38354
38877,38389
38739,38527
38706,38527
38570,38583
38465,38687
38409,38823
38409,38857
34820,42446
34711,42468
34617,42531
34617,42531
33416,43731
33353,43825
33331,43937
33331,46572
32994,46909
32875,46909
32866,46888
32711,46734
32630,46700
32711,46666
32865,46511
32949,46309
32950,46091
32866,45888
32711,45734
32630,45700
32711,45666
32865,45511
32949,45309
32950,45091
32866,44888
32711,44734
32630,44700
32711,44666
32865,44511
32949,44309
32950,44091
32866,43888
32711,43734
32630,43700
32711,43666
32865,43511
32949,43309
32950,43091
32866,42888
32711,42734
32630,42700
32711,42666
32865,42511
32949,42309
32950,42091
32866,41888
32711,41734
32630,41700
32711,41666
32865,41511
32949,41309
32950,41091
32866,40888
32711,40734
32630,40700
32711,40666
32733,40644
35138,40644
35154,40647
35941,40647
36052,40625
36052,40625
36146,40562
38111,38598
38144,38598
38280,38542
38384,38438
38440,38302
38441,38155
38391,38036
38430,37996
38444,37963
38475,38036
38554,38115
38642,38115
38934,37824
38929,37818
38999,37747
39005,37753
39010,37747
39081,37818
39076,37824
39081,37829
" /> 
</g>
<g style="fill:#000000; fill-opacity:1.0; 
stroke:#000000; stroke-width:59.0551; stroke-opacity:1; 
stroke-linecap:round; stroke-linejoin:round;">
<polyline style="fill-rule:evenodd;"
points="43391,36906
43333,36930
43229,37034
43173,37170
43173,37248
43114,37307
42997,37307
42861,37363
42757,37467
42700,37603
42700,37712
42672,37700
42525,37700
42389,37756
42284,37860
42257,37926
42257,36590
42257,36501
42036,36280
41745,36572
41745,36660
41824,36740
41916,36778
42015,36778
42107,36740
42177,36670
42257,36590
42257,37926
42228,37996
42228,38075
42166,38136
42160,38133
42013,38133
41877,38190
41773,38294
41716,38430
41716,38547
41654,38608
41598,38744
41598,38892
41626,38960
41501,38960
41365,39016
41303,39078
41186,39078
41050,39134
40946,39238
40889,39374
40889,39492
40828,39553
40771,39689
40771,39826
40635,39826
40499,39882
40413,39968
40370,39925
40370,39808
40313,39672
40209,39568
40073,39511
39926,39511
39919,39514
39897,39492
39897,39375
39841,39239
39740,39137
39975,39137
40214,39377
40306,39415
40406,39416
40498,39378
40568,39307
40816,39060
40854,38968
40854,38885
40936,38885
41028,38847
41098,38777
41346,38530
41384,38438
41384,38338
41346,38246
41276,38176
40887,37787
40795,37749
40794,37749
40794,37748
40756,37656
40685,37585
40296,37196
40205,37158
40108,37158
40018,37068
39914,36999
39792,36974
39244,36974
40221,35998
41082,35998
41293,36209
41385,36247
41468,36247
41468,36330
41506,36422
41586,36501
41674,36501
41966,36210
41960,36204
42031,36133
42036,36139
42042,36133
42113,36204
42107,36210
42328,36431
42416,36431
42496,36351
42553,36294
42560,36311
42664,36415
42800,36472
42947,36472
42976,36460
42976,36569
43032,36705
43136,36809
43272,36866
43350,36866
43391,36906
" /> 
</g>
<g style="fill:#000000; fill-opacity:0.0; 
stroke:#000000; stroke-width:100; stroke-opacity:1; 
stroke-linecap:round; stroke-linejoin:round;">
<polyline fill="none;"
points="43391,36906
43333,36930
43229,37034
43173,37170
43173,37248
43114,37307
42997,37307
42861,37363
42757,37467
42700,37603
42700,37712
42672,37700
42525,37700
42389,37756
42284,37860
42257,37926
42257,36590
42257,36501
42036,36280
41745,36572
41745,36660
41824,36740
41916,36778
42015,36778
42107,36740
42177,36670
42257,36590
42257,37926
42228,37996
42228,38075
42166,38136
42160,38133
42013,38133
41877,38190
41773,38294
41716,38430
41716,38547
41654,38608
41598,38744
41598,38892
41626,38960
41501,38960
41365,39016
41303,39078
41186,39078
41050,39134
40946,39238
40889,39374
40889,39492
40828,39553
40771,39689
40771,39826
40635,39826
40499,39882
40413,39968
40370,39925
40370,39808
40313,39672
40209,39568
40073,39511
39926,39511
39919,39514
39897,39492
39897,39375
39841,39239
39740,39137
39975,39137
40214,39377
40306,39415
40406,39416
40498,39378
40568,39307
40816,39060
40854,38968
40854,38885
40936,38885
41028,38847
41098,38777
41346,38530
41384,38438
41384,38338
41346,38246
41276,38176
40887,37787
40795,37749
40794,37749
40794,37748
40756,37656
40685,37585
40296,37196
40205,37158
40108,37158
40018,37068
39914,36999
39792,36974
39244,36974
40221,35998
41082,35998
41293,36209
41385,36247
41468,36247
41468,36330
41506,36422
41586,36501
41674,36501
41966,36210
41960,36204
42031,36133
42036,36139
42042,36133
42113,36204
42107,36210
42328,36431
42416,36431
42496,36351
42553,36294
42560,36311
42664,36415
42800,36472
42947,36472
42976,36460
42976,36569
43032,36705
43136,36809
43272,36866
43350,36866
43391,36906
" /> 
</g>
<g style="fill:#000000; fill-opacity:1.0; 
stroke:#000000; stroke-width:59.0551; stroke-opacity:1; 
stroke-linecap:round; stroke-linejoin:round;">
<polyline style="fill-rule:evenodd;"
points="49930,31043
49866,30888
49711,30734
49509,30650
49291,30649
49187,30692
49187,30572
49457,30303
49520,30209
49520,30209
49542,30098
49542,28661
49520,28550
49520,28550
49457,28456
48636,27635
48636,24724
48614,24613
48614,24613
48598,24589
48598,24589
48598,24533
48542,24396
48438,24292
48302,24236
48225,24236
48225,16215
48160,16059
48041,15939
47884,15875
47826,15875
47425,15474
47425,15415
47360,15259
47241,15139
47084,15075
46915,15074
46759,15139
46639,15258
46575,15415
46574,15584
46639,15740
46758,15860
46915,15924
46973,15924
47374,16325
47374,16384
47439,16540
47558,16660
47715,16724
47884,16725
48040,16660
48160,16541
48224,16384
48225,16215
48225,24236
48155,24236
48018,24292
47914,24396
47858,24532
47858,24679
47914,24815
48018,24919
48056,24935
48056,27741
46380,27741
45842,27203
45842,27170
45786,27034
45682,26930
45546,26874
45399,26873
45290,26918
45290,25868
46693,24464
46726,24464
46862,24408
46967,24304
47023,24168
47023,24021
46967,23885
46863,23780
46727,23724
46580,23724
46444,23780
46390,23833
46328,23771
45916,23771
45916,24083
45978,24146
46091,24146
46191,24146
46191,24146
44857,25480
44857,24923
45355,24425
45388,24425
45524,24369
45628,24265
45677,24146
45753,24146
45816,24083
45816,23771
45808,23771
45808,23671
45816,23671
45816,23663
45916,23663
45916,23671
46328,23671
46391,23608
46391,23496
46385,23482
46412,23509
46568,23574
46737,23574
46893,23510
47013,23390
47078,23234
47078,23065
47014,22909
46972,22867
46972,19187
47585,18574
47643,18574
47799,18510
47919,18390
47983,18234
47984,18065
47919,17909
47800,17789
47643,17724
47474,17724
47318,17789
47198,17908
47134,18064
47134,18123
46428,18829
46358,18933
46334,19055
46334,22636
46282,22584
46191,22546
46091,22546
45541,22546
45449,22584
45381,22652
44863,22652
44741,22676
44689,22711
44637,22745
43923,23460
42063,23460
42063,21816
42006,21680
41944,21618
41944,21531
42006,21469
42062,21333
42063,21186
42006,21050
41981,21025
41984,21018
41984,20871
41981,20864
42006,20839
42062,20703
42063,20556
42006,20420
41902,20316
41766,20259
41619,20259
41483,20316
41459,20339
34288,20339
34265,20316
34129,20259
33981,20259
33845,20316
33741,20420
33685,20555
33684,20703
33741,20839
33766,20864
33763,20870
33763,20988
33702,21049
33645,21185
33645,21333
33701,21469
33763,21531
33763,21618
33702,21679
33645,21815
33645,21963
33701,22099
33805,22203
33941,22259
34089,22259
34225,22203
34248,22179
41459,22179
41483,22203
41618,22259
41766,22259
41902,22203
42006,22099
42062,21963
42063,21816
42063,23460
41470,23460
41327,23317
41305,23263
41185,23143
41029,23079
40860,23078
40704,23143
40584,23262
40519,23419
40519,23477
40241,23755
36644,23755
36620,23696
36500,23576
36344,23512
36285,23512
36230,23456
36126,23387
36004,23363
34894,23363
34838,23307
34896,23248
34934,23156
34934,22707
34896,22615
34826,22545
34734,22507
34634,22507
34521,22507
34459,22569
34459,22882
34871,22882
34934,22819
34934,22707
34934,23156
34934,23044
34871,22982
34459,22982
34459,22989
34359,22989
34359,22982
34359,22882
34359,22569
34296,22507
34183,22507
34084,22507
33992,22545
33922,22615
33884,22707
33884,22819
33946,22882
34359,22882
34359,22982
33946,22982
33884,23044
33884,23156
33922,23248
33980,23307
33924,23363
32428,23363
32367,23301
32210,23236
32041,23236
31885,23300
31765,23420
31701,23576
31700,23745
31765,23901
31807,23943
31807,29277
31624,29459
31555,29563
31531,29685
31531,29835
31490,29877
31425,30033
31425,30202
31489,30358
31609,30478
31681,30508
31530,30658
31509,30650
31291,30649
31088,30733
30934,30888
30869,31042
30869,11969
49930,11969
49930,31043
" /> 
</g>
<g style="fill:#000000; fill-opacity:0.0; 
stroke:#000000; stroke-width:100; stroke-opacity:1; 
stroke-linecap:round; stroke-linejoin:round;">
<polyline fill="none;"
points="49930,31043
49866,30888
49711,30734
49509,30650
49291,30649
49187,30692
49187,30572
49457,30303
49520,30209
49520,30209
49542,30098
49542,28661
49520,28550
49520,28550
49457,28456
48636,27635
48636,24724
48614,24613
48614,24613
48598,24589
48598,24589
48598,24533
48542,24396
48438,24292
48302,24236
48225,24236
48225,16215
48160,16059
48041,15939
47884,15875
47826,15875
47425,15474
47425,15415
47360,15259
47241,15139
47084,15075
46915,15074
46759,15139
46639,15258
46575,15415
46574,15584
46639,15740
46758,15860
46915,15924
46973,15924
47374,16325
47374,16384
47439,16540
47558,16660
47715,16724
47884,16725
48040,16660
48160,16541
48224,16384
48225,16215
48225,24236
48155,24236
48018,24292
47914,24396
47858,24532
47858,24679
47914,24815
48018,24919
48056,24935
48056,27741
46380,27741
45842,27203
45842,27170
45786,27034
45682,26930
45546,26874
45399,26873
45290,26918
45290,25868
46693,24464
46726,24464
46862,24408
46967,24304
47023,24168
47023,24021
46967,23885
46863,23780
46727,23724
46580,23724
46444,23780
46390,23833
46328,23771
45916,23771
45916,24083
45978,24146
46091,24146
46191,24146
46191,24146
44857,25480
44857,24923
45355,24425
45388,24425
45524,24369
45628,24265
45677,24146
45753,24146
45816,24083
45816,23771
45808,23771
45808,23671
45816,23671
45816,23663
45916,23663
45916,23671
46328,23671
46391,23608
46391,23496
46385,23482
46412,23509
46568,23574
46737,23574
46893,23510
47013,23390
47078,23234
47078,23065
47014,22909
46972,22867
46972,19187
47585,18574
47643,18574
47799,18510
47919,18390
47983,18234
47984,18065
47919,17909
47800,17789
47643,17724
47474,17724
47318,17789
47198,17908
47134,18064
47134,18123
46428,18829
46358,18933
46334,19055
46334,22636
46282,22584
46191,22546
46091,22546
45541,22546
45449,22584
45381,22652
44863,22652
44741,22676
44689,22711
44637,22745
43923,23460
42063,23460
42063,21816
42006,21680
41944,21618
41944,21531
42006,21469
42062,21333
42063,21186
42006,21050
41981,21025
41984,21018
41984,20871
41981,20864
42006,20839
42062,20703
42063,20556
42006,20420
41902,20316
41766,20259
41619,20259
41483,20316
41459,20339
34288,20339
34265,20316
34129,20259
33981,20259
33845,20316
33741,20420
33685,20555
33684,20703
33741,20839
33766,20864
33763,20870
33763,20988
33702,21049
33645,21185
33645,21333
33701,21469
33763,21531
33763,21618
33702,21679
33645,21815
33645,21963
33701,22099
33805,22203
33941,22259
34089,22259
34225,22203
34248,22179
41459,22179
41483,22203
41618,22259
41766,22259
41902,22203
42006,22099
42062,21963
42063,21816
42063,23460
41470,23460
41327,23317
41305,23263
41185,23143
41029,23079
40860,23078
40704,23143
40584,23262
40519,23419
40519,23477
40241,23755
36644,23755
36620,23696
36500,23576
36344,23512
36285,23512
36230,23456
36126,23387
36004,23363
34894,23363
34838,23307
34896,23248
34934,23156
34934,22707
34896,22615
34826,22545
34734,22507
34634,22507
34521,22507
34459,22569
34459,22882
34871,22882
34934,22819
34934,22707
34934,23156
34934,23044
34871,22982
34459,22982
34459,22989
34359,22989
34359,22982
34359,22882
34359,22569
34296,22507
34183,22507
34084,22507
33992,22545
33922,22615
33884,22707
33884,22819
33946,22882
34359,22882
34359,22982
33946,22982
33884,23044
33884,23156
33922,23248
33980,23307
33924,23363
32428,23363
32367,23301
32210,23236
32041,23236
31885,23300
31765,23420
31701,23576
31700,23745
31765,23901
31807,23943
31807,29277
31624,29459
31555,29563
31531,29685
31531,29835
31490,29877
31425,30033
31425,30202
31489,30358
31609,30478
31681,30508
31530,30658
31509,30650
31291,30649
31088,30733
30934,30888
30869,31042
30869,11969
49930,11969
49930,31043
" /> 
</g>
<g style="fill:#000000; fill-opacity:1.0; 
stroke:#000000; stroke-width:59.0551; stroke-opacity:1; 
stroke-linecap:round; stroke-linejoin:round;">
<polyline style="fill-rule:evenodd;"
points="49930,37043
49866,36888
49711,36734
49636,36702
49687,36681
49715,36585
49400,36270
49084,36585
49112,36681
49167,36700
49088,36733
48934,36888
48900,36969
48866,36888
48711,36734
48630,36700
48711,36666
48865,36511
48897,36436
48918,36487
49014,36515
49329,36200
49323,36194
49394,36123
49400,36129
49715,35814
49687,35718
49632,35699
49711,35666
49865,35511
49930,35357
49930,36030
49881,35912
49785,35884
49470,36200
49785,36515
49881,36487
49930,36350
49930,37043
" /> 
</g>
<g style="fill:#000000; fill-opacity:0.0; 
stroke:#000000; stroke-width:100; stroke-opacity:1; 
stroke-linecap:round; stroke-linejoin:round;">
<polyline fill="none;"
points="49930,37043
49866,36888
49711,36734
49636,36702
49687,36681
49715,36585
49400,36270
49084,36585
49112,36681
49167,36700
49088,36733
48934,36888
48900,36969
48866,36888
48711,36734
48630,36700
48711,36666
48865,36511
48897,36436
48918,36487
49014,36515
49329,36200
49323,36194
49394,36123
49400,36129
49715,35814
49687,35718
49632,35699
49711,35666
49865,35511
49930,35357
49930,36030
49881,35912
49785,35884
49470,36200
49785,36515
49881,36487
49930,36350
49930,37043
" /> 
</g>
<g style="fill:#000000; fill-opacity:1.0; 
stroke:#000000; stroke-width:59.0551; stroke-opacity:1; 
stroke-linecap:round; stroke-linejoin:round;">
<polyline style="fill-rule:evenodd;"
points="49930,46043
49866,45888
49711,45734
49636,45702
49687,45681
49715,45585
49400,45270
49084,45585
49112,45681
49167,45700
49088,45733
48934,45888
48900,45969
48866,45888
48711,45734
48630,45700
48711,45666
48865,45511
48897,45436
48918,45487
49014,45515
49329,45200
49323,45194
49394,45123
49400,45129
49715,44814
49687,44718
49632,44699
49711,44666
49865,44511
49930,44357
49930,45030
49881,44912
49785,44884
49470,45200
49785,45515
49881,45487
49930,45350
49930,46043
" /> 
</g>
<g style="fill:#000000; fill-opacity:0.0; 
stroke:#000000; stroke-width:100; stroke-opacity:1; 
stroke-linecap:round; stroke-linejoin:round;">
<polyline fill="none;"
points="49930,46043
49866,45888
49711,45734
49636,45702
49687,45681
49715,45585
49400,45270
49084,45585
49112,45681
49167,45700
49088,45733
48934,45888
48900,45969
48866,45888
48711,45734
48630,45700
48711,45666
48865,45511
48897,45436
48918,45487
49014,45515
49329,45200
49323,45194
49394,45123
49400,45129
49715,44814
49687,44718
49632,44699
49711,44666
49865,44511
49930,44357
49930,45030
49881,44912
49785,44884
49470,45200
49785,45515
49881,45487
49930,45350
49930,46043
" /> 
</g> 
</svg>
