<?xml version="1.0" standalone="no"?>
 <!DOCTYPE svg PUBLIC "-//W3C//DTD SVG 1.1//EN" 
 "http://www.w3.org/Graphics/SVG/1.1/DTD/svg11.dtd"> 
<svg xmlns="http://www.w3.org/2000/svg" version="1.1" 
    width="41.9989cm" height="29.7002cm" viewBox="0 0 165350 116930 ">
<title>SVG Picture created as olala-F_SilkS.svg date 2015/05/16 00:47:54 </title>
  <desc>Picture generated by PCBNEW </desc>
<g style="fill:#000000; fill-opacity:1;stroke:#000000; stroke-opacity:1;
stroke-linecap:round; stroke-linejoin:round; "
 transform="translate(0 0) scale(1 1)">
</g>
<g style="fill:#000000; fill-opacity:0.0; 
stroke:#000000; stroke-width:118.11; stroke-opacity:1; 
stroke-linecap:round; stroke-linejoin:round;">
<path d="M31704 12561
L31816 12561
L31872 12589
L31929 12646
L31957 12758
L31957 12955
L31929 13068
L31872 13124
L31816 13152
L31704 13152
L31647 13124
L31591 13068
L31563 12955
L31563 12758
L31591 12646
L31647 12589
L31704 12561
" />
<path d="M32491 13152
L32210 13152
L32210 12561
" />
<path d="M32660 12983
L32941 12983
" />
<path d="M32604 13152
L32800 12561
L32997 13152
" />
<path d="M33475 13152
L33194 13152
L33194 12561
" />
<path d="M33644 12983
L33925 12983
" />
<path d="M33588 13152
L33785 12561
L33982 13152
" />
<path d="M34628 12927
L35078 12927
" />
<path d="M36147 13152
L35950 12871
" />
<path d="M35809 13152
L35809 12561
L36034 12561
L36091 12589
L36119 12618
L36147 12674
L36147 12758
L36119 12814
L36091 12843
L36034 12871
L35809 12871
" />
<path d="M36625 13124
L36569 13152
L36456 13152
L36400 13124
L36372 13068
L36372 12843
L36400 12786
L36456 12758
L36569 12758
L36625 12786
L36653 12843
L36653 12899
L36372 12955
" />
<path d="M36850 12758
L36991 13152
L37131 12758
" />
<path d="M37919 12561
L37975 12561
L38031 12589
L38059 12618
L38087 12674
L38115 12786
L38115 12927
L38087 13039
L38059 13096
L38031 13124
L37975 13152
L37919 13152
L37862 13124
L37834 13096
L37806 13039
L37778 12927
L37778 12786
L37806 12674
L37834 12618
L37862 12589
L37919 12561
" />
<path d="M39071 13152
L39071 12561
" />
<path d="M39071 13124
L39015 13152
L38903 13152
L38847 13124
L38818 13096
L38790 13039
L38790 12871
L38818 12814
L38847 12786
L38903 12758
L39015 12758
L39071 12786
" />
<path d="M39606 12758
L39606 13236
L39578 13293
L39550 13321
L39493 13349
L39409 13349
L39353 13321
" />
<path d="M39606 13124
L39550 13152
L39437 13152
L39381 13124
L39353 13096
L39325 13039
L39325 12871
L39353 12814
L39381 12786
L39437 12758
L39550 12758
L39606 12786
" />
<path d="M39887 12758
L39887 13349
" />
<path d="M39887 12786
L39943 12758
L40056 12758
L40112 12786
L40140 12814
L40168 12871
L40168 13039
L40140 13096
L40112 13124
L40056 13152
L39943 13152
L39887 13124
" />
<path d="M38678 12381
L40281 12381
" />
</g>
<g style="fill:#000000; fill-opacity:0.0; 
stroke:#000000; stroke-width:39.3701; stroke-opacity:1; 
stroke-linecap:round; stroke-linejoin:round;">
<path d="M30600 11700
L50200 11700
" />
<path d="M30600 51000
L35300 51000
" />
<path d="M45500 51000
L50200 51000
" />
<path d="M35300 44200
L45500 44200
" />
<path d="M35300 44200
L35300 51000
" />
<path d="M45500 44200
L45500 51000
" />
<path d="M30600 51000
L30600 11700
" />
<path d="M50200 51000
L50200 11700
" />
</g>
<g style="fill:#000000; fill-opacity:0.0; 
stroke:#000000; stroke-width:120; stroke-opacity:1; 
stroke-linecap:round; stroke-linejoin:round;">
<path d="M47900 50700
L47900 30700
" />
<path d="M49900 50700
L49900 30700
" />
<path d="M49900 50700
L47900 50700
" />
<path d="M49900 30700
L47900 30700
" />
<path d="M32900 30700
L32900 50700
" />
<path d="M30900 30700
L30900 50700
" />
<path d="M30900 30700
L32900 30700
" />
<path d="M30900 50700
L32900 50700
" />
</g>
<g style="fill:#000000; fill-opacity:0.0; 
stroke:#000000; stroke-width:59.0551; stroke-opacity:1; 
stroke-linecap:round; stroke-linejoin:round;">
<path d="M37031 36693
L37031 37306
" />
<path d="M37031 36693
L40400 33325
" />
<path d="M40400 33325
L44074 37000
" />
<path d="M44074 37000
L40400 40674
" />
<path d="M40400 40674
L37031 37306
" />
</g>
<g style="fill:#000000; fill-opacity:0.0; 
stroke:#000000; stroke-width:39; stroke-opacity:1; 
stroke-linecap:round; stroke-linejoin:round;">
<circle cx="45900.8" cy="13424.8" r="50" /> 
<path d="M45900 13874
L45900 13474
" />
<path d="M45900 13474
L46500 13474
" />
<path d="M46500 13474
L46500 13874
" />
<path d="M46500 14274
L46500 14674
" />
<path d="M46500 14674
L45900 14674
" />
<path d="M45900 14674
L45900 14274
" />
<circle cx="45100" cy="14850" r="50" /> 
<path d="M45100 15300
L45100 14900
" />
<path d="M45100 14900
L45700 14900
" />
<path d="M45700 14900
L45700 15300
" />
<path d="M45700 15700
L45700 16100
" />
<path d="M45700 16100
L45100 16100
" />
<path d="M45100 16100
L45100 15700
" />
<circle cx="45900" cy="14850" r="50" /> 
<path d="M45900 15300
L45900 14900
" />
<path d="M45900 14900
L46500 14900
" />
<path d="M46500 14900
L46500 15300
" />
<path d="M46500 15700
L46500 16100
" />
<path d="M46500 16100
L45900 16100
" />
<path d="M45900 16100
L45900 15700
" />
<circle cx="48050" cy="16600" r="50" /> 
<path d="M48500 16600
L48100 16600
" />
<path d="M48100 16600
L48100 16000
" />
<path d="M48100 16000
L48500 16000
" />
<path d="M48900 16000
L49300 16000
" />
<path d="M49300 16000
L49300 16600
" />
<path d="M49300 16600
L48900 16600
" />
</g>
<g style="fill:#000000; fill-opacity:0.0; 
stroke:#000000; stroke-width:59.0551; stroke-opacity:1; 
stroke-linecap:round; stroke-linejoin:round;">
<circle cx="34146.5" cy="26607.1" r="141.951" /> 
<path d="M37768 26922
L33831 26922
" />
<path d="M33831 26922
L33831 19677
" />
<path d="M33831 19677
L37768 19677
" />
<path d="M37768 19677
L37768 26922
" />
<circle cx="43346.5" cy="26607.1" r="141.951" /> 
<path d="M46968 26922
L43031 26922
" />
<path d="M43031 26922
L43031 19677
" />
<path d="M43031 19677
L46968 19677
" />
<path d="M46968 19677
L46968 26922
" />
<circle cx="47112.6" cy="14630.7" r="70.9752" /> 
</g>
<g style="fill:#000000; fill-opacity:0.0; 
stroke:#000000; stroke-width:39; stroke-opacity:1; 
stroke-linecap:round; stroke-linejoin:round;">
<circle cx="48900" cy="14550" r="50" /> 
<path d="M48900 15000
L48900 14600
" />
<path d="M48900 14600
L49500 14600
" />
<path d="M49500 14600
L49500 15000
" />
<path d="M49500 15400
L49500 15800
" />
<path d="M49500 15800
L48900 15800
" />
<path d="M48900 15800
L48900 15400
" />
</g>
<g style="fill:#000000; fill-opacity:0.0; 
stroke:#000000; stroke-width:108; stroke-opacity:1; 
stroke-linecap:round; stroke-linejoin:round;">
</g>
<g style="fill:#000000; fill-opacity:0.0; 
stroke:#000000; stroke-width:100; stroke-opacity:1; 
stroke-linecap:round; stroke-linejoin:round;">
<path d="M49161 30495
L48761 30495
L48761 30342
L48780 30304
L48800 30285
L48838 30266
L48895 30266
L48933 30285
L48952 30304
L48971 30342
L48971 30495
" />
<path d="M49161 29885
L49161 30114
" />
<path d="M49161 29999
L48761 29999
L48819 30038
L48857 30076
L48876 30114
" />
</g>
<g style="fill:#000000; fill-opacity:0.0; 
stroke:#000000; stroke-width:108; stroke-opacity:1; 
stroke-linecap:round; stroke-linejoin:round;">
</g>
<g style="fill:#000000; fill-opacity:0.0; 
stroke:#000000; stroke-width:100; stroke-opacity:1; 
stroke-linecap:round; stroke-linejoin:round;">
<path d="M32061 30495
L31661 30495
L31661 30342
L31680 30304
L31700 30285
L31738 30266
L31795 30266
L31833 30285
L31852 30304
L31871 30342
L31871 30495
" />
<path d="M31700 30114
L31680 30095
L31661 30057
L31661 29961
L31680 29923
L31700 29904
L31738 29885
L31776 29885
L31833 29904
L32061 30133
L32061 29885
" />
</g>
<g style="fill:#000000; fill-opacity:0.0; 
stroke:#000000; stroke-width:108; stroke-opacity:1; 
stroke-linecap:round; stroke-linejoin:round;">
</g>
<g style="fill:#000000; fill-opacity:0.0; 
stroke:#000000; stroke-width:59.0551; stroke-opacity:1; 
stroke-linecap:round; stroke-linejoin:round;">
<path d="M40022 37046
L40247 37271
L40287 37285
L40313 37285
L40353 37271
L40406 37218
L40419 37178
L40419 37152
L40406 37112
L40181 36887
" />
<path d="M40738 36887
L40578 37046
" />
<path d="M40658 36966
L40380 36688
L40393 36754
L40393 36807
L40380 36847
" />
<path d="M39763 38112
L39709 38165
L39696 38205
L39696 38232
L39709 38298
L39749 38364
L39855 38470
L39895 38484
L39922 38484
L39961 38470
L40014 38417
L40028 38378
L40028 38351
L40014 38311
L39948 38245
L39908 38232
L39882 38232
L39842 38245
L39789 38298
L39776 38338
L39776 38364
L39789 38404
" />
<path d="M40067 38046
L40028 38059
L40001 38059
L39961 38046
L39948 38033
L39935 37993
L39935 37967
L39948 37927
L40001 37874
L40041 37861
L40067 37861
L40107 37874
L40120 37887
L40134 37927
L40134 37953
L40120 37993
L40067 38046
L40054 38086
L40054 38112
L40067 38152
L40120 38205
L40160 38218
L40187 38218
L40227 38205
L40280 38152
L40293 38112
L40293 38086
L40280 38046
L40227 37993
L40187 37980
L40160 37980
L40120 37993
" />
<path d="M40425 37980
L40478 37953
L40545 37887
L40558 37847
L40558 37821
L40545 37781
L40518 37754
L40478 37741
L40452 37741
L40412 37754
L40346 37794
L40306 37807
L40280 37807
L40240 37794
L40213 37768
L40200 37728
L40200 37701
L40213 37662
L40280 37595
L40333 37569
" />
<path d="M40571 37569
L40664 37476
" />
<path d="M40850 37582
L40717 37715
L40439 37436
L40571 37304
" />
<path d="M41101 37277
L41101 37304
L41075 37357
L41048 37383
L40995 37410
L40942 37410
L40903 37397
L40836 37357
L40797 37317
L40757 37251
L40744 37211
L40744 37158
L40770 37105
L40797 37078
L40850 37052
L40876 37052
" />
<path d="M41022 36853
L41048 36827
L41088 36813
L41115 36813
L41154 36827
L41221 36866
L41287 36933
L41327 36999
L41340 37039
L41340 37065
L41327 37105
L41300 37131
L41261 37145
L41234 37145
L41194 37131
L41128 37092
L41062 37025
L41022 36959
L41009 36919
L41009 36893
L41022 36853
" />
<path d="M41287 36588
L41314 36561
L41353 36548
L41380 36548
L41420 36561
L41486 36601
L41552 36667
L41592 36734
L41605 36773
L41605 36800
L41592 36840
L41565 36866
L41526 36880
L41499 36880
L41459 36866
L41393 36827
L41327 36760
L41287 36694
L41274 36654
L41274 36628
L41287 36588
" />
<path d="M41552 36323
L41579 36296
L41618 36283
L41645 36283
L41685 36296
L41751 36336
L41817 36402
L41857 36469
L41870 36508
L41870 36535
L41857 36575
L41831 36601
L41791 36614
L41764 36614
L41724 36601
L41658 36561
L41592 36495
L41552 36429
L41539 36389
L41539 36363
L41552 36323
" />
</g>
<g style="fill:#000000; fill-opacity:0.0; 
stroke:#000000; stroke-width:43; stroke-opacity:1; 
stroke-linecap:round; stroke-linejoin:round;">
<path d="M46405 14107
L46311 14173
" />
<path d="M46405 14220
L46208 14220
L46208 14145
L46217 14126
L46227 14117
L46246 14107
L46274 14107
L46292 14117
L46302 14126
L46311 14145
L46311 14220
" />
<path d="M46405 13920
L46405 14032
" />
<path d="M46405 13976
L46208 13976
L46236 13995
L46255 14013
L46264 14032
" />
<path d="M46130 14013
L46036 14079
" />
<path d="M46130 14126
L45933 14126
L45933 14051
L45942 14032
L45952 14023
L45971 14013
L45999 14013
L46017 14023
L46027 14032
L46036 14051
L46036 14126
" />
<path d="M45604 15532
L45510 15598
" />
<path d="M45604 15645
L45407 15645
L45407 15570
L45417 15551
L45426 15542
L45445 15532
L45473 15532
L45492 15542
L45501 15551
L45510 15570
L45510 15645
" />
<path d="M45426 15457
L45417 15448
L45407 15429
L45407 15382
L45417 15363
L45426 15354
L45445 15345
L45464 15345
L45492 15354
L45604 15467
L45604 15345
" />
<path d="M45329 15439
L45235 15504
" />
<path d="M45329 15551
L45132 15551
L45132 15476
L45142 15457
L45151 15448
L45170 15439
L45198 15439
L45217 15448
L45226 15457
L45235 15476
L45235 15551
" />
<path d="M46385 15532
L46395 15542
L46404 15570
L46404 15589
L46395 15617
L46376 15636
L46357 15645
L46320 15654
L46292 15654
L46254 15645
L46235 15636
L46217 15617
L46207 15589
L46207 15570
L46217 15542
L46226 15532
" />
<path d="M46404 15345
L46404 15457
" />
<path d="M46404 15401
L46207 15401
L46235 15420
L46254 15439
L46264 15457
" />
<path d="M46110 15439
L46120 15448
L46129 15476
L46129 15495
L46120 15523
L46101 15542
L46082 15551
L46045 15560
L46017 15560
L45979 15551
L45960 15542
L45942 15523
L45932 15495
L45932 15476
L45942 15448
L45951 15439
" />
<path d="M48667 16235
L48657 16245
L48629 16254
L48610 16254
L48582 16245
L48563 16226
L48554 16207
L48545 16170
L48545 16142
L48554 16104
L48563 16085
L48582 16067
L48610 16057
L48629 16057
L48657 16067
L48667 16076
" />
<path d="M48836 16057
L48798 16057
L48779 16067
L48770 16076
L48751 16104
L48742 16142
L48742 16217
L48751 16235
L48760 16245
L48779 16254
L48817 16254
L48836 16245
L48845 16235
L48854 16217
L48854 16170
L48845 16151
L48836 16142
L48817 16132
L48779 16132
L48760 16142
L48751 16151
L48742 16170
" />
<path d="M48760 16510
L48751 16520
L48723 16529
L48704 16529
L48676 16520
L48657 16501
L48648 16482
L48639 16445
L48639 16417
L48648 16379
L48657 16360
L48676 16342
L48704 16332
L48723 16332
L48751 16342
L48760 16351
" />
</g>
<g style="fill:#000000; fill-opacity:0.0; 
stroke:#000000; stroke-width:59.0551; stroke-opacity:1; 
stroke-linecap:round; stroke-linejoin:round;">
<path d="M35565 23599
L35884 23599
L35921 23581
L35940 23562
L35959 23524
L35959 23449
L35940 23412
L35921 23393
L35884 23374
L35565 23374
" />
<path d="M35603 23206
L35584 23187
L35565 23150
L35565 23056
L35584 23018
L35603 23000
L35640 22981
L35678 22981
L35734 23000
L35959 23225
L35959 22981
" />
<path d="M36311 24376
L36293 24357
L36274 24319
L36274 24226
L36293 24188
L36311 24169
L36349 24151
L36386 24151
L36443 24169
L36668 24394
L36668 24151
" />
<path d="M36668 23982
L36274 23982
L36555 23851
L36274 23719
L36668 23719
" />
<path d="M36649 23551
L36668 23494
L36668 23401
L36649 23363
L36630 23344
L36593 23326
L36555 23326
L36518 23344
L36499 23363
L36480 23401
L36461 23476
L36443 23513
L36424 23532
L36386 23551
L36349 23551
L36311 23532
L36293 23513
L36274 23476
L36274 23382
L36293 23326
" />
<path d="M36668 22932
L36480 23063
" />
<path d="M36668 23157
L36274 23157
L36274 23007
L36293 22970
L36311 22951
L36349 22932
L36405 22932
L36443 22951
L36461 22970
L36480 23007
L36480 23157
" />
<path d="M36555 22782
L36555 22595
" />
<path d="M36668 22820
L36274 22688
L36668 22557
" />
<path d="M36668 22426
L36274 22426
L36555 22295
L36274 22163
L36668 22163
" />
<path d="M44765 23599
L45084 23599
L45121 23581
L45140 23562
L45159 23524
L45159 23449
L45140 23412
L45121 23393
L45084 23374
L44765 23374
" />
<path d="M44765 23225
L44765 22981
L44915 23112
L44915 23056
L44934 23018
L44953 23000
L44990 22981
L45084 22981
L45121 23000
L45140 23018
L45159 23056
L45159 23168
L45140 23206
L45121 23225
" />
<path d="M45511 24376
L45493 24357
L45474 24319
L45474 24226
L45493 24188
L45511 24169
L45549 24151
L45586 24151
L45643 24169
L45868 24394
L45868 24151
" />
<path d="M45868 23982
L45474 23982
L45755 23851
L45474 23719
L45868 23719
" />
<path d="M45849 23551
L45868 23494
L45868 23401
L45849 23363
L45830 23344
L45793 23326
L45755 23326
L45718 23344
L45699 23363
L45680 23401
L45661 23476
L45643 23513
L45624 23532
L45586 23551
L45549 23551
L45511 23532
L45493 23513
L45474 23476
L45474 23382
L45493 23326
" />
<path d="M45868 22932
L45680 23063
" />
<path d="M45868 23157
L45474 23157
L45474 23007
L45493 22970
L45511 22951
L45549 22932
L45605 22932
L45643 22951
L45661 22970
L45680 23007
L45680 23157
" />
<path d="M45755 22782
L45755 22595
" />
<path d="M45868 22820
L45474 22688
L45868 22557
" />
<path d="M45868 22426
L45474 22426
L45755 22295
L45474 22163
L45868 22163
" />
<path d="M47700 16665
L47700 16984
L47718 17021
L47737 17040
L47775 17059
L47850 17059
L47887 17040
L47906 17021
L47925 16984
L47925 16665
" />
<path d="M48281 16796
L48281 17059
" />
<path d="M48187 16646
L48093 16928
L48337 16928
" />
</g>
<g style="fill:#000000; fill-opacity:0.0; 
stroke:#000000; stroke-width:43; stroke-opacity:1; 
stroke-linecap:round; stroke-linejoin:round;">
<path d="M49385 15232
L49395 15242
L49404 15270
L49404 15289
L49395 15317
L49376 15336
L49357 15345
L49320 15354
L49292 15354
L49254 15345
L49235 15336
L49217 15317
L49207 15289
L49207 15270
L49217 15242
L49226 15232
" />
<path d="M49207 15167
L49207 15035
L49404 15120
" />
<path d="M49110 15139
L49120 15148
L49129 15176
L49129 15195
L49120 15223
L49101 15242
L49082 15251
L49045 15260
L49017 15260
L48979 15251
L48960 15242
L48942 15223
L48932 15195
L48932 15176
L48942 15148
L48951 15139
" />
</g> 
</svg>
