G04 (created by PCBNEW (25-Oct-2014 BZR 4029)-stable) date Fri 12 Jun 2015 01:26:50 JST*
%MOIN*%
G04 Gerber Fmt 3.4, Leading zero omitted, Abs format*
%FSLAX34Y34*%
G01*
G70*
G90*
G04 APERTURE LIST*
%ADD10C,0.00590551*%
%ADD11C,0.011811*%
%ADD12C,0.00393701*%
%ADD13C,0.012*%
%ADD14C,0.0039*%
%ADD15C,0.01*%
%ADD16C,0.0108*%
%ADD17C,0.0043*%
G04 APERTURE END LIST*
G54D10*
G54D11*
X31704Y-12561D02*
X31816Y-12561D01*
X31872Y-12589D01*
X31929Y-12646D01*
X31957Y-12758D01*
X31957Y-12955D01*
X31929Y-13068D01*
X31872Y-13124D01*
X31816Y-13152D01*
X31704Y-13152D01*
X31647Y-13124D01*
X31591Y-13068D01*
X31563Y-12955D01*
X31563Y-12758D01*
X31591Y-12646D01*
X31647Y-12589D01*
X31704Y-12561D01*
X32491Y-13152D02*
X32210Y-13152D01*
X32210Y-12561D01*
X32660Y-12983D02*
X32941Y-12983D01*
X32604Y-13152D02*
X32800Y-12561D01*
X32997Y-13152D01*
X33475Y-13152D02*
X33194Y-13152D01*
X33194Y-12561D01*
X33644Y-12983D02*
X33925Y-12983D01*
X33588Y-13152D02*
X33785Y-12561D01*
X33982Y-13152D01*
X34628Y-12927D02*
X35078Y-12927D01*
X36147Y-13152D02*
X35950Y-12871D01*
X35809Y-13152D02*
X35809Y-12561D01*
X36034Y-12561D01*
X36091Y-12589D01*
X36119Y-12618D01*
X36147Y-12674D01*
X36147Y-12758D01*
X36119Y-12814D01*
X36091Y-12843D01*
X36034Y-12871D01*
X35809Y-12871D01*
X36625Y-13124D02*
X36569Y-13152D01*
X36456Y-13152D01*
X36400Y-13124D01*
X36372Y-13068D01*
X36372Y-12843D01*
X36400Y-12786D01*
X36456Y-12758D01*
X36569Y-12758D01*
X36625Y-12786D01*
X36653Y-12843D01*
X36653Y-12899D01*
X36372Y-12955D01*
X36850Y-12758D02*
X36991Y-13152D01*
X37131Y-12758D01*
X38115Y-13152D02*
X37778Y-13152D01*
X37947Y-13152D02*
X37947Y-12561D01*
X37890Y-12646D01*
X37834Y-12702D01*
X37778Y-12730D01*
X39071Y-13152D02*
X39071Y-12561D01*
X39071Y-13124D02*
X39015Y-13152D01*
X38903Y-13152D01*
X38847Y-13124D01*
X38818Y-13096D01*
X38790Y-13039D01*
X38790Y-12871D01*
X38818Y-12814D01*
X38847Y-12786D01*
X38903Y-12758D01*
X39015Y-12758D01*
X39071Y-12786D01*
X39606Y-12758D02*
X39606Y-13236D01*
X39578Y-13293D01*
X39550Y-13321D01*
X39493Y-13349D01*
X39409Y-13349D01*
X39353Y-13321D01*
X39606Y-13124D02*
X39550Y-13152D01*
X39437Y-13152D01*
X39381Y-13124D01*
X39353Y-13096D01*
X39325Y-13039D01*
X39325Y-12871D01*
X39353Y-12814D01*
X39381Y-12786D01*
X39437Y-12758D01*
X39550Y-12758D01*
X39606Y-12786D01*
X39887Y-12758D02*
X39887Y-13349D01*
X39887Y-12786D02*
X39943Y-12758D01*
X40056Y-12758D01*
X40112Y-12786D01*
X40140Y-12814D01*
X40168Y-12871D01*
X40168Y-13039D01*
X40140Y-13096D01*
X40112Y-13124D01*
X40056Y-13152D01*
X39943Y-13152D01*
X39887Y-13124D01*
X38678Y-12381D02*
X40281Y-12381D01*
G54D12*
X30600Y-11700D02*
X50200Y-11700D01*
X30600Y-51000D02*
X35300Y-51000D01*
X45500Y-51000D02*
X50200Y-51000D01*
X35300Y-44200D02*
X45500Y-44200D01*
X35300Y-44200D02*
X35300Y-51000D01*
X45500Y-44200D02*
X45500Y-51000D01*
X30600Y-51000D02*
X30600Y-11700D01*
X50200Y-51000D02*
X50200Y-11700D01*
G54D13*
X47900Y-50700D02*
X47900Y-30700D01*
X49900Y-50700D02*
X49900Y-30700D01*
X49900Y-50700D02*
X47900Y-50700D01*
X49900Y-30700D02*
X47900Y-30700D01*
X32900Y-30700D02*
X32900Y-50700D01*
X30900Y-30700D02*
X30900Y-50700D01*
X30900Y-30700D02*
X32900Y-30700D01*
X30900Y-50700D02*
X32900Y-50700D01*
G54D10*
X37031Y-36693D02*
X37031Y-37306D01*
X37031Y-36693D02*
X40400Y-33325D01*
X40400Y-33325D02*
X44074Y-37000D01*
X44074Y-37000D02*
X40400Y-40674D01*
X40400Y-40674D02*
X37031Y-37306D01*
G54D14*
X32427Y-22460D02*
G75*
G03X32427Y-22460I-50J0D01*
G74*
G01*
X32377Y-22910D02*
X32377Y-22510D01*
X32377Y-22510D02*
X32977Y-22510D01*
X32977Y-22510D02*
X32977Y-22910D01*
X32977Y-23310D02*
X32977Y-23710D01*
X32977Y-23710D02*
X32377Y-23710D01*
X32377Y-23710D02*
X32377Y-23310D01*
X48775Y-24075D02*
G75*
G03X48775Y-24075I-50J0D01*
G74*
G01*
X48725Y-23625D02*
X48725Y-24025D01*
X48725Y-24025D02*
X48125Y-24025D01*
X48125Y-24025D02*
X48125Y-23625D01*
X48125Y-23225D02*
X48125Y-22825D01*
X48125Y-22825D02*
X48725Y-22825D01*
X48725Y-22825D02*
X48725Y-23225D01*
X45950Y-13424D02*
G75*
G03X45950Y-13424I-50J0D01*
G74*
G01*
X45900Y-13874D02*
X45900Y-13474D01*
X45900Y-13474D02*
X46500Y-13474D01*
X46500Y-13474D02*
X46500Y-13874D01*
X46500Y-14274D02*
X46500Y-14674D01*
X46500Y-14674D02*
X45900Y-14674D01*
X45900Y-14674D02*
X45900Y-14274D01*
X45150Y-14850D02*
G75*
G03X45150Y-14850I-50J0D01*
G74*
G01*
X45100Y-15300D02*
X45100Y-14900D01*
X45100Y-14900D02*
X45700Y-14900D01*
X45700Y-14900D02*
X45700Y-15300D01*
X45700Y-15700D02*
X45700Y-16100D01*
X45700Y-16100D02*
X45100Y-16100D01*
X45100Y-16100D02*
X45100Y-15700D01*
X45950Y-14850D02*
G75*
G03X45950Y-14850I-50J0D01*
G74*
G01*
X45900Y-15300D02*
X45900Y-14900D01*
X45900Y-14900D02*
X46500Y-14900D01*
X46500Y-14900D02*
X46500Y-15300D01*
X46500Y-15700D02*
X46500Y-16100D01*
X46500Y-16100D02*
X45900Y-16100D01*
X45900Y-16100D02*
X45900Y-15700D01*
X48100Y-16600D02*
G75*
G03X48100Y-16600I-50J0D01*
G74*
G01*
X48500Y-16600D02*
X48100Y-16600D01*
X48100Y-16600D02*
X48100Y-16000D01*
X48100Y-16000D02*
X48500Y-16000D01*
X48900Y-16000D02*
X49300Y-16000D01*
X49300Y-16000D02*
X49300Y-16600D01*
X49300Y-16600D02*
X48900Y-16600D01*
G54D10*
X47183Y-14630D02*
G75*
G03X47183Y-14630I-70J0D01*
G74*
G01*
G54D14*
X48950Y-14550D02*
G75*
G03X48950Y-14550I-50J0D01*
G74*
G01*
X48900Y-15000D02*
X48900Y-14600D01*
X48900Y-14600D02*
X49500Y-14600D01*
X49500Y-14600D02*
X49500Y-15000D01*
X49500Y-15400D02*
X49500Y-15800D01*
X49500Y-15800D02*
X48900Y-15800D01*
X48900Y-15800D02*
X48900Y-15400D01*
G54D10*
X43267Y-19677D02*
X46732Y-19677D01*
X43267Y-26922D02*
X46732Y-26922D01*
X46732Y-26922D02*
X46732Y-19677D01*
X43267Y-19677D02*
X43267Y-26922D01*
X46488Y-26607D02*
G75*
G03X46488Y-26607I-141J0D01*
G74*
G01*
X34067Y-19677D02*
X37532Y-19677D01*
X34067Y-26922D02*
X37532Y-26922D01*
X37532Y-26922D02*
X37532Y-19677D01*
X34067Y-19677D02*
X34067Y-26922D01*
X37288Y-26607D02*
G75*
G03X37288Y-26607I-141J0D01*
G74*
G01*
G54D15*
X49161Y-30495D02*
X48761Y-30495D01*
X48761Y-30342D01*
X48780Y-30304D01*
X48800Y-30285D01*
X48838Y-30266D01*
X48895Y-30266D01*
X48933Y-30285D01*
X48952Y-30304D01*
X48971Y-30342D01*
X48971Y-30495D01*
X49161Y-29885D02*
X49161Y-30114D01*
X49161Y-29999D02*
X48761Y-29999D01*
X48819Y-30038D01*
X48857Y-30076D01*
X48876Y-30114D01*
G54D16*
G54D15*
X32061Y-30495D02*
X31661Y-30495D01*
X31661Y-30342D01*
X31680Y-30304D01*
X31700Y-30285D01*
X31738Y-30266D01*
X31795Y-30266D01*
X31833Y-30285D01*
X31852Y-30304D01*
X31871Y-30342D01*
X31871Y-30495D01*
X31700Y-30114D02*
X31680Y-30095D01*
X31661Y-30057D01*
X31661Y-29961D01*
X31680Y-29923D01*
X31700Y-29904D01*
X31738Y-29885D01*
X31776Y-29885D01*
X31833Y-29904D01*
X32061Y-30133D01*
X32061Y-29885D01*
G54D16*
G54D10*
X40022Y-37046D02*
X40247Y-37271D01*
X40287Y-37285D01*
X40313Y-37285D01*
X40353Y-37271D01*
X40406Y-37218D01*
X40419Y-37178D01*
X40419Y-37152D01*
X40406Y-37112D01*
X40181Y-36887D01*
X40738Y-36887D02*
X40578Y-37046D01*
X40658Y-36966D02*
X40380Y-36688D01*
X40393Y-36754D01*
X40393Y-36807D01*
X40380Y-36847D01*
X39763Y-38112D02*
X39709Y-38165D01*
X39696Y-38205D01*
X39696Y-38232D01*
X39709Y-38298D01*
X39749Y-38364D01*
X39855Y-38470D01*
X39895Y-38484D01*
X39922Y-38484D01*
X39961Y-38470D01*
X40014Y-38417D01*
X40028Y-38378D01*
X40028Y-38351D01*
X40014Y-38311D01*
X39948Y-38245D01*
X39908Y-38232D01*
X39882Y-38232D01*
X39842Y-38245D01*
X39789Y-38298D01*
X39776Y-38338D01*
X39776Y-38364D01*
X39789Y-38404D01*
X40067Y-38046D02*
X40028Y-38059D01*
X40001Y-38059D01*
X39961Y-38046D01*
X39948Y-38033D01*
X39935Y-37993D01*
X39935Y-37967D01*
X39948Y-37927D01*
X40001Y-37874D01*
X40041Y-37861D01*
X40067Y-37861D01*
X40107Y-37874D01*
X40120Y-37887D01*
X40134Y-37927D01*
X40134Y-37953D01*
X40120Y-37993D01*
X40067Y-38046D01*
X40054Y-38086D01*
X40054Y-38112D01*
X40067Y-38152D01*
X40120Y-38205D01*
X40160Y-38218D01*
X40187Y-38218D01*
X40227Y-38205D01*
X40280Y-38152D01*
X40293Y-38112D01*
X40293Y-38086D01*
X40280Y-38046D01*
X40227Y-37993D01*
X40187Y-37980D01*
X40160Y-37980D01*
X40120Y-37993D01*
X40425Y-37980D02*
X40478Y-37953D01*
X40545Y-37887D01*
X40558Y-37847D01*
X40558Y-37821D01*
X40545Y-37781D01*
X40518Y-37754D01*
X40478Y-37741D01*
X40452Y-37741D01*
X40412Y-37754D01*
X40346Y-37794D01*
X40306Y-37807D01*
X40280Y-37807D01*
X40240Y-37794D01*
X40213Y-37768D01*
X40200Y-37728D01*
X40200Y-37701D01*
X40213Y-37662D01*
X40280Y-37595D01*
X40333Y-37569D01*
X40571Y-37569D02*
X40664Y-37476D01*
X40850Y-37582D02*
X40717Y-37715D01*
X40439Y-37436D01*
X40571Y-37304D01*
X41101Y-37277D02*
X41101Y-37304D01*
X41075Y-37357D01*
X41048Y-37383D01*
X40995Y-37410D01*
X40942Y-37410D01*
X40903Y-37397D01*
X40836Y-37357D01*
X40797Y-37317D01*
X40757Y-37251D01*
X40744Y-37211D01*
X40744Y-37158D01*
X40770Y-37105D01*
X40797Y-37078D01*
X40850Y-37052D01*
X40876Y-37052D01*
X41022Y-36853D02*
X41048Y-36827D01*
X41088Y-36813D01*
X41115Y-36813D01*
X41154Y-36827D01*
X41221Y-36866D01*
X41287Y-36933D01*
X41327Y-36999D01*
X41340Y-37039D01*
X41340Y-37065D01*
X41327Y-37105D01*
X41300Y-37131D01*
X41261Y-37145D01*
X41234Y-37145D01*
X41194Y-37131D01*
X41128Y-37092D01*
X41062Y-37025D01*
X41022Y-36959D01*
X41009Y-36919D01*
X41009Y-36893D01*
X41022Y-36853D01*
X41287Y-36588D02*
X41314Y-36561D01*
X41353Y-36548D01*
X41380Y-36548D01*
X41420Y-36561D01*
X41486Y-36601D01*
X41552Y-36667D01*
X41592Y-36734D01*
X41605Y-36773D01*
X41605Y-36800D01*
X41592Y-36840D01*
X41565Y-36866D01*
X41526Y-36880D01*
X41499Y-36880D01*
X41459Y-36866D01*
X41393Y-36827D01*
X41327Y-36760D01*
X41287Y-36694D01*
X41274Y-36654D01*
X41274Y-36628D01*
X41287Y-36588D01*
X41552Y-36323D02*
X41579Y-36296D01*
X41618Y-36283D01*
X41645Y-36283D01*
X41685Y-36296D01*
X41751Y-36336D01*
X41817Y-36402D01*
X41857Y-36469D01*
X41870Y-36508D01*
X41870Y-36535D01*
X41857Y-36575D01*
X41831Y-36601D01*
X41791Y-36614D01*
X41764Y-36614D01*
X41724Y-36601D01*
X41658Y-36561D01*
X41592Y-36495D01*
X41552Y-36429D01*
X41539Y-36389D01*
X41539Y-36363D01*
X41552Y-36323D01*
G54D17*
X32863Y-23143D02*
X32872Y-23152D01*
X32881Y-23180D01*
X32881Y-23199D01*
X32872Y-23227D01*
X32853Y-23246D01*
X32834Y-23255D01*
X32797Y-23265D01*
X32769Y-23265D01*
X32731Y-23255D01*
X32713Y-23246D01*
X32694Y-23227D01*
X32684Y-23199D01*
X32684Y-23180D01*
X32694Y-23152D01*
X32703Y-23143D01*
X32750Y-22974D02*
X32881Y-22974D01*
X32675Y-23021D02*
X32816Y-23068D01*
X32816Y-22946D01*
X32588Y-23049D02*
X32597Y-23058D01*
X32606Y-23086D01*
X32606Y-23105D01*
X32597Y-23133D01*
X32578Y-23152D01*
X32559Y-23161D01*
X32522Y-23171D01*
X32494Y-23171D01*
X32456Y-23161D01*
X32438Y-23152D01*
X32419Y-23133D01*
X32409Y-23105D01*
X32409Y-23086D01*
X32419Y-23058D01*
X32428Y-23049D01*
X48361Y-23458D02*
X48370Y-23467D01*
X48379Y-23495D01*
X48379Y-23514D01*
X48370Y-23542D01*
X48351Y-23561D01*
X48333Y-23570D01*
X48295Y-23579D01*
X48267Y-23579D01*
X48229Y-23570D01*
X48211Y-23561D01*
X48192Y-23542D01*
X48182Y-23514D01*
X48182Y-23495D01*
X48192Y-23467D01*
X48201Y-23458D01*
X48182Y-23279D02*
X48182Y-23373D01*
X48276Y-23382D01*
X48267Y-23373D01*
X48257Y-23354D01*
X48257Y-23307D01*
X48267Y-23289D01*
X48276Y-23279D01*
X48295Y-23270D01*
X48342Y-23270D01*
X48361Y-23279D01*
X48370Y-23289D01*
X48379Y-23307D01*
X48379Y-23354D01*
X48370Y-23373D01*
X48361Y-23382D01*
X48636Y-23364D02*
X48645Y-23373D01*
X48654Y-23401D01*
X48654Y-23420D01*
X48645Y-23448D01*
X48626Y-23467D01*
X48608Y-23476D01*
X48570Y-23486D01*
X48542Y-23486D01*
X48504Y-23476D01*
X48486Y-23467D01*
X48467Y-23448D01*
X48457Y-23420D01*
X48457Y-23401D01*
X48467Y-23373D01*
X48476Y-23364D01*
X46405Y-14107D02*
X46311Y-14173D01*
X46405Y-14220D02*
X46208Y-14220D01*
X46208Y-14145D01*
X46217Y-14126D01*
X46227Y-14117D01*
X46246Y-14107D01*
X46274Y-14107D01*
X46292Y-14117D01*
X46302Y-14126D01*
X46311Y-14145D01*
X46311Y-14220D01*
X46405Y-13920D02*
X46405Y-14032D01*
X46405Y-13976D02*
X46208Y-13976D01*
X46236Y-13995D01*
X46255Y-14013D01*
X46264Y-14032D01*
X46130Y-14013D02*
X46036Y-14079D01*
X46130Y-14126D02*
X45933Y-14126D01*
X45933Y-14051D01*
X45942Y-14032D01*
X45952Y-14023D01*
X45971Y-14013D01*
X45999Y-14013D01*
X46017Y-14023D01*
X46027Y-14032D01*
X46036Y-14051D01*
X46036Y-14126D01*
X45604Y-15532D02*
X45510Y-15598D01*
X45604Y-15645D02*
X45407Y-15645D01*
X45407Y-15570D01*
X45417Y-15551D01*
X45426Y-15542D01*
X45445Y-15532D01*
X45473Y-15532D01*
X45492Y-15542D01*
X45501Y-15551D01*
X45510Y-15570D01*
X45510Y-15645D01*
X45426Y-15457D02*
X45417Y-15448D01*
X45407Y-15429D01*
X45407Y-15382D01*
X45417Y-15363D01*
X45426Y-15354D01*
X45445Y-15345D01*
X45464Y-15345D01*
X45492Y-15354D01*
X45604Y-15467D01*
X45604Y-15345D01*
X45329Y-15439D02*
X45235Y-15504D01*
X45329Y-15551D02*
X45132Y-15551D01*
X45132Y-15476D01*
X45142Y-15457D01*
X45151Y-15448D01*
X45170Y-15439D01*
X45198Y-15439D01*
X45217Y-15448D01*
X45226Y-15457D01*
X45235Y-15476D01*
X45235Y-15551D01*
X46385Y-15532D02*
X46395Y-15542D01*
X46404Y-15570D01*
X46404Y-15589D01*
X46395Y-15617D01*
X46376Y-15636D01*
X46357Y-15645D01*
X46320Y-15654D01*
X46292Y-15654D01*
X46254Y-15645D01*
X46235Y-15636D01*
X46217Y-15617D01*
X46207Y-15589D01*
X46207Y-15570D01*
X46217Y-15542D01*
X46226Y-15532D01*
X46404Y-15345D02*
X46404Y-15457D01*
X46404Y-15401D02*
X46207Y-15401D01*
X46235Y-15420D01*
X46254Y-15439D01*
X46264Y-15457D01*
X46110Y-15439D02*
X46120Y-15448D01*
X46129Y-15476D01*
X46129Y-15495D01*
X46120Y-15523D01*
X46101Y-15542D01*
X46082Y-15551D01*
X46045Y-15560D01*
X46017Y-15560D01*
X45979Y-15551D01*
X45960Y-15542D01*
X45942Y-15523D01*
X45932Y-15495D01*
X45932Y-15476D01*
X45942Y-15448D01*
X45951Y-15439D01*
X48667Y-16235D02*
X48657Y-16245D01*
X48629Y-16254D01*
X48610Y-16254D01*
X48582Y-16245D01*
X48563Y-16226D01*
X48554Y-16207D01*
X48545Y-16170D01*
X48545Y-16142D01*
X48554Y-16104D01*
X48563Y-16085D01*
X48582Y-16067D01*
X48610Y-16057D01*
X48629Y-16057D01*
X48657Y-16067D01*
X48667Y-16076D01*
X48836Y-16057D02*
X48798Y-16057D01*
X48779Y-16067D01*
X48770Y-16076D01*
X48751Y-16104D01*
X48742Y-16142D01*
X48742Y-16217D01*
X48751Y-16235D01*
X48760Y-16245D01*
X48779Y-16254D01*
X48817Y-16254D01*
X48836Y-16245D01*
X48845Y-16235D01*
X48854Y-16217D01*
X48854Y-16170D01*
X48845Y-16151D01*
X48836Y-16142D01*
X48817Y-16132D01*
X48779Y-16132D01*
X48760Y-16142D01*
X48751Y-16151D01*
X48742Y-16170D01*
X48760Y-16510D02*
X48751Y-16520D01*
X48723Y-16529D01*
X48704Y-16529D01*
X48676Y-16520D01*
X48657Y-16501D01*
X48648Y-16482D01*
X48639Y-16445D01*
X48639Y-16417D01*
X48648Y-16379D01*
X48657Y-16360D01*
X48676Y-16342D01*
X48704Y-16332D01*
X48723Y-16332D01*
X48751Y-16342D01*
X48760Y-16351D01*
G54D10*
X47700Y-16665D02*
X47700Y-16984D01*
X47718Y-17021D01*
X47737Y-17040D01*
X47775Y-17059D01*
X47850Y-17059D01*
X47887Y-17040D01*
X47906Y-17021D01*
X47925Y-16984D01*
X47925Y-16665D01*
X48281Y-16796D02*
X48281Y-17059D01*
X48187Y-16646D02*
X48093Y-16928D01*
X48337Y-16928D01*
G54D17*
X49385Y-15232D02*
X49395Y-15242D01*
X49404Y-15270D01*
X49404Y-15289D01*
X49395Y-15317D01*
X49376Y-15336D01*
X49357Y-15345D01*
X49320Y-15354D01*
X49292Y-15354D01*
X49254Y-15345D01*
X49235Y-15336D01*
X49217Y-15317D01*
X49207Y-15289D01*
X49207Y-15270D01*
X49217Y-15242D01*
X49226Y-15232D01*
X49207Y-15167D02*
X49207Y-15035D01*
X49404Y-15120D01*
X49110Y-15139D02*
X49120Y-15148D01*
X49129Y-15176D01*
X49129Y-15195D01*
X49120Y-15223D01*
X49101Y-15242D01*
X49082Y-15251D01*
X49045Y-15260D01*
X49017Y-15260D01*
X48979Y-15251D01*
X48960Y-15242D01*
X48942Y-15223D01*
X48932Y-15195D01*
X48932Y-15176D01*
X48942Y-15148D01*
X48951Y-15139D01*
G54D10*
X44765Y-23599D02*
X45084Y-23599D01*
X45121Y-23581D01*
X45140Y-23562D01*
X45159Y-23524D01*
X45159Y-23449D01*
X45140Y-23412D01*
X45121Y-23393D01*
X45084Y-23374D01*
X44765Y-23374D01*
X44765Y-23225D02*
X44765Y-22981D01*
X44915Y-23112D01*
X44915Y-23056D01*
X44934Y-23018D01*
X44953Y-23000D01*
X44990Y-22981D01*
X45084Y-22981D01*
X45121Y-23000D01*
X45140Y-23018D01*
X45159Y-23056D01*
X45159Y-23168D01*
X45140Y-23206D01*
X45121Y-23225D01*
X45511Y-24376D02*
X45493Y-24357D01*
X45474Y-24319D01*
X45474Y-24226D01*
X45493Y-24188D01*
X45511Y-24169D01*
X45549Y-24151D01*
X45586Y-24151D01*
X45643Y-24169D01*
X45868Y-24394D01*
X45868Y-24151D01*
X45868Y-23982D02*
X45474Y-23982D01*
X45755Y-23851D01*
X45474Y-23719D01*
X45868Y-23719D01*
X45849Y-23551D02*
X45868Y-23494D01*
X45868Y-23401D01*
X45849Y-23363D01*
X45830Y-23344D01*
X45793Y-23326D01*
X45755Y-23326D01*
X45718Y-23344D01*
X45699Y-23363D01*
X45680Y-23401D01*
X45661Y-23476D01*
X45643Y-23513D01*
X45624Y-23532D01*
X45586Y-23551D01*
X45549Y-23551D01*
X45511Y-23532D01*
X45493Y-23513D01*
X45474Y-23476D01*
X45474Y-23382D01*
X45493Y-23326D01*
X45868Y-22932D02*
X45680Y-23063D01*
X45868Y-23157D02*
X45474Y-23157D01*
X45474Y-23007D01*
X45493Y-22970D01*
X45511Y-22951D01*
X45549Y-22932D01*
X45605Y-22932D01*
X45643Y-22951D01*
X45661Y-22970D01*
X45680Y-23007D01*
X45680Y-23157D01*
X45755Y-22782D02*
X45755Y-22595D01*
X45868Y-22820D02*
X45474Y-22688D01*
X45868Y-22557D01*
X45868Y-22426D02*
X45474Y-22426D01*
X45755Y-22295D01*
X45474Y-22163D01*
X45868Y-22163D01*
X35565Y-23599D02*
X35884Y-23599D01*
X35921Y-23581D01*
X35940Y-23562D01*
X35959Y-23524D01*
X35959Y-23449D01*
X35940Y-23412D01*
X35921Y-23393D01*
X35884Y-23374D01*
X35565Y-23374D01*
X35603Y-23206D02*
X35584Y-23187D01*
X35565Y-23150D01*
X35565Y-23056D01*
X35584Y-23018D01*
X35603Y-23000D01*
X35640Y-22981D01*
X35678Y-22981D01*
X35734Y-23000D01*
X35959Y-23225D01*
X35959Y-22981D01*
X36311Y-24376D02*
X36293Y-24357D01*
X36274Y-24319D01*
X36274Y-24226D01*
X36293Y-24188D01*
X36311Y-24169D01*
X36349Y-24151D01*
X36386Y-24151D01*
X36443Y-24169D01*
X36668Y-24394D01*
X36668Y-24151D01*
X36668Y-23982D02*
X36274Y-23982D01*
X36555Y-23851D01*
X36274Y-23719D01*
X36668Y-23719D01*
X36649Y-23551D02*
X36668Y-23494D01*
X36668Y-23401D01*
X36649Y-23363D01*
X36630Y-23344D01*
X36593Y-23326D01*
X36555Y-23326D01*
X36518Y-23344D01*
X36499Y-23363D01*
X36480Y-23401D01*
X36461Y-23476D01*
X36443Y-23513D01*
X36424Y-23532D01*
X36386Y-23551D01*
X36349Y-23551D01*
X36311Y-23532D01*
X36293Y-23513D01*
X36274Y-23476D01*
X36274Y-23382D01*
X36293Y-23326D01*
X36668Y-22932D02*
X36480Y-23063D01*
X36668Y-23157D02*
X36274Y-23157D01*
X36274Y-23007D01*
X36293Y-22970D01*
X36311Y-22951D01*
X36349Y-22932D01*
X36405Y-22932D01*
X36443Y-22951D01*
X36461Y-22970D01*
X36480Y-23007D01*
X36480Y-23157D01*
X36555Y-22782D02*
X36555Y-22595D01*
X36668Y-22820D02*
X36274Y-22688D01*
X36668Y-22557D01*
X36668Y-22426D02*
X36274Y-22426D01*
X36555Y-22295D01*
X36274Y-22163D01*
X36668Y-22163D01*
M02*
