M48
;DRILL file {Pcbnew (25-Oct-2014 BZR 4029)-stable} date Fri 12 Jun 2015 01:26:52 JST
;FORMAT={-:-/ absolute / inch / decimal}
FMAT,2
INCH,TZ
T1C0.012
T2C0.025
T3C0.040
%
G90
G05
M72
T1
X3.3031Y-2.0945
X3.3031Y-2.1575
X3.3031Y-2.2205
X3.311Y-2.063
X3.311Y-2.126
X3.311Y-2.189
X3.4173Y-2.4409
X3.4173Y-2.5039
X3.4173Y-2.5669
X3.4252Y-2.4724
X3.4252Y-2.5354
X3.5512Y-3.5945
X3.5709Y-3.6299
X3.6181Y-3.7323
X3.622Y-3.6614
X3.7205Y-3.7323
X3.7362Y-2.0945
X3.7362Y-2.1575
X3.7362Y-2.4409
X3.7362Y-2.5039
X3.7362Y-2.5669
X3.7441Y-2.063
X3.7441Y-2.126
X3.7441Y-2.189
X3.7441Y-2.4724
X3.7441Y-2.5354
X3.7441Y-2.5984
X3.752Y-3.7441
X3.7638Y-3.626
X3.7638Y-3.7756
X3.7953Y-3.6142
X3.8071Y-3.5827
X3.8071Y-3.8228
X3.8386Y-3.5669
X3.8543Y-3.5354
X3.878Y-3.8898
X3.8976Y-3.4921
X3.9094Y-3.9016
X3.9213Y-3.9331
X3.9291Y-3.4803
X3.9409Y-3.4488
X3.9528Y-3.9449
X3.9646Y-3.9764
X3.9764Y-2.7402
X3.9764Y-2.7756
X3.9764Y-2.811
X3.9764Y-2.8465
X3.9764Y-3.437
X3.9882Y-3.4016
X3.9961Y-2.2205
X4.Y-3.9882
X4.0039Y-3.2795
X4.0039Y-4.1181
X4.0118Y-4.0197
X4.0512Y-3.2992
X4.0551Y-3.3543
X4.0591Y-3.3937
X4.0709Y-4.0197
X4.0748Y-4.122
X4.0945Y-3.3976
X4.1102Y-3.4291
X4.1142Y-3.9764
X4.126Y-3.9449
X4.1417Y-3.4409
X4.1535Y-3.4724
X4.1575Y-3.9331
X4.185Y-3.4843
X4.1969Y-3.8819
X4.2087Y-3.8504
X4.2323Y-3.5315
X4.2441Y-3.563
X4.2441Y-3.8386
X4.2598Y-3.8071
X4.2756Y-3.5787
X4.2874Y-3.6102
X4.2953Y-3.7992
X4.3071Y-3.7677
X4.3228Y-3.6181
X4.3346Y-3.6496
X4.3386Y-3.7559
X4.3543Y-2.4134
X4.3543Y-3.7244
X4.3661Y-3.6654
X4.3898Y-3.2126
X4.4173Y-3.0472
X4.4449Y-3.0197
X4.4567Y-3.7402
X4.4646Y-3.6654
X4.4724Y-2.9921
X4.5Y-2.9646
X4.5315Y-3.0748
X4.5591Y-3.1024
X4.5866Y-3.1299
X4.6142Y-3.185
X4.6417Y-3.1575
X4.6575Y-2.0945
X4.6575Y-2.1575
X4.6575Y-2.4409
X4.6575Y-2.5039
X4.6575Y-2.5669
X4.6654Y-2.063
X4.6654Y-2.126
X4.6654Y-2.189
X4.6654Y-2.4724
X4.6654Y-2.5354
X4.6654Y-2.5984
X4.8307Y-2.4921
X4.8661Y-2.4921
X4.9016Y-2.4921
X4.937Y-2.4921
X4.9646Y-2.378
T2
X3.248Y-2.9213
X3.4567Y-2.315
X3.4567Y-2.3661
X3.4567Y-4.1811
X3.685Y-2.3031
X3.7165Y-4.2913
X3.8071Y-3.7756
X3.8543Y-3.8189
X3.8661Y-2.315
X3.935Y-3.5728
X4.126Y-3.6988
X4.1929Y-3.5236
X4.2126Y-2.3504
X4.3346Y-4.2953
X4.3819Y-2.2598
X4.5984Y-2.2992
X4.6201Y-1.6457
X4.6417Y-2.315
X4.7Y-1.55
X4.78Y-1.63
X4.9045Y-1.877
T3
X3.14Y-3.12
X3.14Y-3.22
X3.14Y-3.32
X3.14Y-3.42
X3.14Y-3.52
X3.14Y-3.62
X3.14Y-3.72
X3.14Y-3.82
X3.14Y-3.92
X3.14Y-4.02
X3.14Y-4.12
X3.14Y-4.22
X3.14Y-4.32
X3.14Y-4.42
X3.14Y-4.52
X3.14Y-4.62
X3.14Y-4.72
X3.14Y-4.82
X3.14Y-4.92
X3.14Y-5.02
X3.24Y-3.12
X3.24Y-3.22
X3.24Y-3.32
X3.24Y-3.42
X3.24Y-3.52
X3.24Y-3.62
X3.24Y-3.72
X3.24Y-3.82
X3.24Y-3.92
X3.24Y-4.02
X3.24Y-4.12
X3.24Y-4.22
X3.24Y-4.32
X3.24Y-4.42
X3.24Y-4.52
X3.24Y-4.62
X3.24Y-4.72
X3.24Y-4.82
X3.24Y-4.92
X3.24Y-5.02
X4.84Y-3.12
X4.84Y-3.22
X4.84Y-3.32
X4.84Y-3.42
X4.84Y-3.52
X4.84Y-3.62
X4.84Y-3.72
X4.84Y-3.82
X4.84Y-3.92
X4.84Y-4.02
X4.84Y-4.12
X4.84Y-4.22
X4.84Y-4.32
X4.84Y-4.42
X4.84Y-4.52
X4.84Y-4.62
X4.84Y-4.72
X4.84Y-4.82
X4.84Y-4.92
X4.84Y-5.02
X4.94Y-3.12
X4.94Y-3.22
X4.94Y-3.32
X4.94Y-3.42
X4.94Y-3.52
X4.94Y-3.62
X4.94Y-3.72
X4.94Y-3.82
X4.94Y-3.92
X4.94Y-4.02
X4.94Y-4.12
X4.94Y-4.22
X4.94Y-4.32
X4.94Y-4.42
X4.94Y-4.52
X4.94Y-4.62
X4.94Y-4.72
X4.94Y-4.82
X4.94Y-4.92
X4.94Y-5.02
T0
M30
