G04 (created by PCBNEW (25-Oct-2014 BZR 4029)-stable) date Fri 12 Jun 2015 01:26:50 JST*
%MOIN*%
G04 Gerber Fmt 3.4, Leading zero omitted, Abs format*
%FSLAX34Y34*%
G01*
G70*
G90*
G04 APERTURE LIST*
%ADD10C,0.00590551*%
%ADD11C,0.00393701*%
%ADD12R,0.06X0.06*%
%ADD13C,0.06*%
%ADD14C,0.035*%
%ADD15C,0.0240157*%
%ADD16C,0.0137795*%
%ADD17C,0.0080315*%
%ADD18C,0.0393701*%
%ADD19C,0.01*%
G04 APERTURE END LIST*
G54D10*
G54D11*
X30600Y-11700D02*
X50200Y-11700D01*
X30600Y-51000D02*
X35300Y-51000D01*
X45500Y-51000D02*
X50200Y-51000D01*
X35300Y-44200D02*
X45500Y-44200D01*
X35300Y-44200D02*
X35300Y-51000D01*
X45500Y-44200D02*
X45500Y-51000D01*
X30600Y-51000D02*
X30600Y-11700D01*
X50200Y-51000D02*
X50200Y-11700D01*
G54D12*
X48400Y-31200D03*
G54D13*
X49400Y-31200D03*
X48400Y-36200D03*
X49400Y-32200D03*
X48400Y-37200D03*
X49400Y-33200D03*
X48400Y-38200D03*
X49400Y-34200D03*
X48400Y-39200D03*
X49400Y-35200D03*
X48400Y-40200D03*
X49400Y-36200D03*
X48400Y-41200D03*
X49400Y-37200D03*
X48400Y-42200D03*
X49400Y-38200D03*
X48400Y-43200D03*
X49400Y-39200D03*
X48400Y-44200D03*
X49400Y-40200D03*
X48400Y-45200D03*
X49400Y-41200D03*
X48400Y-46200D03*
X49400Y-42200D03*
X49400Y-43200D03*
X48400Y-47200D03*
X49400Y-44200D03*
X49400Y-46200D03*
X49400Y-47200D03*
X49400Y-48200D03*
X49400Y-49200D03*
X48400Y-48200D03*
X48400Y-49200D03*
X48400Y-32200D03*
X48400Y-33200D03*
X48400Y-34200D03*
X48400Y-35200D03*
X48400Y-50200D03*
X49400Y-50200D03*
X49400Y-45200D03*
G54D12*
X32400Y-50200D03*
G54D13*
X31400Y-50200D03*
X32400Y-45200D03*
X31400Y-49200D03*
X32400Y-44200D03*
X31400Y-48200D03*
X32400Y-43200D03*
X31400Y-47200D03*
X32400Y-42200D03*
X31400Y-46200D03*
X32400Y-41200D03*
X31400Y-45200D03*
X32400Y-40200D03*
X31400Y-44200D03*
X32400Y-39200D03*
X31400Y-43200D03*
X32400Y-38200D03*
X31400Y-42200D03*
X32400Y-37200D03*
X31400Y-41200D03*
X32400Y-36200D03*
X31400Y-40200D03*
X32400Y-35200D03*
X31400Y-39200D03*
X31400Y-38200D03*
X32400Y-34200D03*
X31400Y-37200D03*
X31400Y-35200D03*
X31400Y-34200D03*
X31400Y-33200D03*
X31400Y-32200D03*
X32400Y-33200D03*
X32400Y-32200D03*
X32400Y-49200D03*
X32400Y-48200D03*
X32400Y-47200D03*
X32400Y-46200D03*
X32400Y-31200D03*
X31400Y-31200D03*
X31400Y-36200D03*
G54D10*
G36*
X38156Y-37364D02*
X38545Y-36975D01*
X38793Y-37223D01*
X38404Y-37612D01*
X38156Y-37364D01*
X38156Y-37364D01*
G37*
G36*
X38687Y-37894D02*
X39076Y-37506D01*
X39323Y-37753D01*
X38934Y-38142D01*
X38687Y-37894D01*
X38687Y-37894D01*
G37*
G36*
X41188Y-35750D02*
X41577Y-35361D01*
X41824Y-35609D01*
X41435Y-35997D01*
X41188Y-35750D01*
X41188Y-35750D01*
G37*
G36*
X41718Y-36280D02*
X42107Y-35891D01*
X42355Y-36139D01*
X41966Y-36528D01*
X41718Y-36280D01*
X41718Y-36280D01*
G37*
G36*
X40155Y-37408D02*
X40543Y-37797D01*
X40296Y-38045D01*
X39907Y-37656D01*
X40155Y-37408D01*
X40155Y-37408D01*
G37*
G36*
X39624Y-37939D02*
X40013Y-38328D01*
X39766Y-38575D01*
X39377Y-38186D01*
X39624Y-37939D01*
X39624Y-37939D01*
G37*
G36*
X40745Y-37999D02*
X41134Y-38388D01*
X40887Y-38635D01*
X40498Y-38246D01*
X40745Y-37999D01*
X40745Y-37999D01*
G37*
G36*
X40215Y-38529D02*
X40604Y-38918D01*
X40356Y-39166D01*
X39967Y-38777D01*
X40215Y-38529D01*
X40215Y-38529D01*
G37*
G54D14*
X45984Y-22992D03*
X43818Y-22598D03*
X36850Y-23031D03*
X34566Y-23149D03*
X41929Y-35236D03*
X47000Y-15500D03*
X47800Y-16300D03*
X38070Y-37755D03*
G54D15*
X35511Y-35944D03*
X39212Y-39330D03*
X39527Y-39448D03*
X37519Y-37440D03*
X37637Y-37755D03*
X38779Y-38897D03*
X40118Y-40196D03*
X40000Y-39881D03*
X39645Y-39763D03*
X36220Y-36614D03*
X39094Y-39015D03*
X35708Y-36299D03*
X46653Y-25984D03*
X37440Y-25984D03*
X41141Y-39763D03*
X46653Y-20629D03*
X37440Y-20629D03*
X43385Y-37559D03*
X46141Y-31850D03*
X33031Y-20944D03*
X43543Y-37244D03*
X33110Y-21259D03*
X46417Y-31574D03*
X44566Y-37401D03*
X33031Y-21574D03*
X45866Y-31299D03*
X44645Y-36653D03*
X45590Y-31023D03*
X33110Y-21889D03*
X43661Y-36653D03*
X45314Y-30748D03*
X33031Y-22204D03*
X43346Y-36496D03*
X45000Y-29645D03*
X34251Y-24724D03*
X43228Y-36181D03*
X44724Y-29921D03*
X34173Y-25039D03*
X42874Y-36102D03*
X44448Y-30196D03*
X34251Y-25354D03*
X42755Y-35787D03*
X44173Y-30472D03*
X34173Y-25669D03*
X42440Y-35629D03*
X46574Y-25669D03*
X37362Y-25669D03*
X41259Y-39448D03*
X33110Y-20629D03*
X43897Y-32125D03*
X42322Y-35314D03*
X41850Y-34842D03*
X41535Y-34724D03*
X41417Y-34409D03*
X41574Y-39330D03*
X37440Y-25354D03*
X46653Y-25354D03*
X41968Y-38818D03*
X46574Y-25039D03*
X37362Y-25039D03*
X42086Y-38503D03*
X37440Y-24724D03*
X46653Y-24724D03*
X46653Y-21889D03*
X37440Y-21889D03*
X42440Y-38385D03*
X37362Y-21574D03*
X42598Y-38070D03*
X46574Y-21574D03*
X46653Y-21259D03*
X37440Y-21259D03*
X42952Y-37992D03*
X46574Y-20944D03*
X37362Y-20944D03*
X43070Y-37677D03*
X38070Y-38228D03*
X37637Y-36259D03*
X37952Y-36141D03*
X40511Y-32992D03*
X49015Y-24921D03*
X39763Y-28110D03*
X49370Y-24921D03*
X39763Y-28464D03*
X40039Y-32795D03*
X40551Y-33543D03*
X40590Y-33937D03*
X40944Y-33976D03*
X41102Y-34291D03*
X38070Y-35826D03*
X38385Y-35669D03*
X38543Y-35354D03*
X38976Y-34921D03*
X39291Y-34803D03*
X39409Y-34488D03*
X48307Y-24921D03*
X39763Y-27401D03*
X39763Y-34370D03*
X48661Y-24921D03*
X39763Y-27755D03*
X39881Y-34015D03*
X37204Y-37322D03*
X40708Y-40196D03*
X40748Y-41220D03*
X40039Y-41181D03*
X36181Y-37322D03*
X46574Y-24409D03*
X37362Y-24409D03*
X49645Y-23779D03*
X39960Y-22204D03*
X43543Y-24133D03*
X34173Y-24409D03*
G54D14*
X39350Y-35728D03*
X32480Y-29212D03*
X34566Y-41811D03*
X43346Y-42952D03*
X37165Y-42913D03*
X46417Y-23149D03*
X42125Y-23503D03*
X38661Y-23149D03*
X34566Y-23661D03*
X49045Y-18769D03*
X46200Y-16456D03*
X41259Y-36988D03*
X38543Y-38188D03*
G54D16*
X35748Y-21968D02*
X35748Y-20708D01*
X45838Y-15500D02*
X47000Y-15500D01*
X43070Y-18267D02*
X45838Y-15500D01*
X38188Y-18267D02*
X43070Y-18267D01*
X35748Y-20708D02*
X38188Y-18267D01*
X43818Y-22598D02*
X37283Y-22598D01*
X37283Y-22598D02*
X36850Y-23031D01*
X34566Y-23149D02*
X36732Y-23149D01*
X36732Y-23149D02*
X36850Y-23031D01*
X34566Y-23149D02*
X34566Y-21220D01*
X32716Y-20196D02*
X30905Y-22007D01*
X33543Y-20196D02*
X32716Y-20196D01*
X34566Y-21220D02*
X33543Y-20196D01*
X45590Y-22598D02*
X43818Y-22598D01*
X45984Y-22992D02*
X45590Y-22598D01*
X35748Y-21968D02*
X34566Y-23149D01*
X38474Y-37293D02*
X37845Y-37293D01*
X37845Y-37293D02*
X36102Y-35551D01*
X36102Y-35551D02*
X32834Y-35551D01*
X32834Y-35551D02*
X32677Y-35708D01*
X32677Y-35708D02*
X31062Y-35708D01*
X31062Y-35708D02*
X30905Y-35551D01*
X30905Y-35551D02*
X30905Y-22007D01*
X38474Y-37293D02*
X39792Y-37293D01*
X39792Y-37293D02*
X40225Y-37726D01*
X41506Y-35679D02*
X40089Y-35679D01*
X40089Y-35679D02*
X38474Y-37293D01*
X40816Y-38317D02*
X40225Y-37726D01*
X41506Y-35679D02*
X41506Y-35658D01*
X41506Y-35658D02*
X41929Y-35236D01*
X38474Y-37293D02*
X38474Y-37351D01*
X38474Y-37351D02*
X38070Y-37755D01*
X47000Y-15500D02*
X47800Y-16300D01*
G54D17*
X35511Y-35944D02*
X34759Y-36696D01*
X34759Y-36696D02*
X31903Y-36696D01*
X31903Y-36696D02*
X31400Y-37200D01*
X32583Y-48200D02*
X32400Y-48200D01*
X33503Y-47279D02*
X32583Y-48200D01*
X33503Y-44251D02*
X33503Y-47279D01*
X38385Y-39370D02*
X33503Y-44251D01*
X39173Y-39370D02*
X38385Y-39370D01*
X39212Y-39330D02*
X39173Y-39370D01*
X31889Y-48710D02*
X31400Y-49200D01*
X32588Y-48710D02*
X31889Y-48710D01*
X33700Y-47598D02*
X32588Y-48710D01*
X33700Y-44287D02*
X33700Y-47598D01*
X38381Y-39606D02*
X33700Y-44287D01*
X39370Y-39606D02*
X38381Y-39606D01*
X39527Y-39448D02*
X39370Y-39606D01*
X35760Y-39200D02*
X32400Y-39200D01*
X37519Y-37440D02*
X35760Y-39200D01*
X37637Y-37755D02*
X35708Y-39685D01*
X35708Y-39685D02*
X31914Y-39685D01*
X31914Y-39685D02*
X31400Y-40200D01*
X39695Y-38257D02*
X39419Y-38257D01*
X39419Y-38257D02*
X38779Y-38897D01*
X32406Y-47200D02*
X32400Y-47200D01*
X33110Y-46496D02*
X32406Y-47200D01*
X33110Y-44181D02*
X33110Y-46496D01*
X38393Y-38897D02*
X33110Y-44181D01*
X38779Y-38897D02*
X38393Y-38897D01*
X34291Y-48308D02*
X32400Y-50200D01*
X34291Y-44409D02*
X34291Y-48308D01*
X38464Y-40236D02*
X34291Y-44409D01*
X40078Y-40236D02*
X38464Y-40236D01*
X40118Y-40196D02*
X40078Y-40236D01*
X31895Y-49704D02*
X31400Y-50200D01*
X32618Y-49704D02*
X31895Y-49704D01*
X34094Y-48228D02*
X32618Y-49704D01*
X34094Y-44370D02*
X34094Y-48228D01*
X38425Y-40039D02*
X34094Y-44370D01*
X39842Y-40039D02*
X38425Y-40039D01*
X40000Y-39881D02*
X39842Y-40039D01*
X32414Y-49200D02*
X32400Y-49200D01*
X33897Y-47716D02*
X32414Y-49200D01*
X33897Y-44320D02*
X33897Y-47716D01*
X38415Y-39803D02*
X33897Y-44320D01*
X39606Y-39803D02*
X38415Y-39803D01*
X39645Y-39763D02*
X39606Y-39803D01*
X31883Y-37716D02*
X31400Y-38200D01*
X35118Y-37716D02*
X31883Y-37716D01*
X36220Y-36614D02*
X35118Y-37716D01*
X40286Y-38847D02*
X39262Y-38847D01*
X39262Y-38847D02*
X39094Y-39015D01*
X31883Y-47716D02*
X31400Y-48200D01*
X32594Y-47716D02*
X31883Y-47716D01*
X33307Y-47003D02*
X32594Y-47716D01*
X33307Y-44220D02*
X33307Y-47003D01*
X38354Y-39173D02*
X33307Y-44220D01*
X38937Y-39173D02*
X38354Y-39173D01*
X39094Y-39015D02*
X38937Y-39173D01*
X32400Y-37200D02*
X34807Y-37200D01*
X34807Y-37200D02*
X35708Y-36299D01*
X37440Y-25984D02*
X46653Y-25984D01*
X48137Y-49200D02*
X48400Y-49200D01*
X46515Y-47578D02*
X48137Y-49200D01*
X46515Y-44183D02*
X46515Y-47578D01*
X42234Y-39901D02*
X46515Y-44183D01*
X41279Y-39901D02*
X42234Y-39901D01*
X41141Y-39763D02*
X41279Y-39901D01*
X37440Y-20629D02*
X46653Y-20629D01*
X43385Y-37559D02*
X43582Y-37755D01*
X43582Y-37755D02*
X43582Y-39133D01*
X43582Y-39133D02*
X48149Y-43700D01*
X48149Y-43700D02*
X48899Y-43700D01*
X48899Y-43700D02*
X49400Y-43200D01*
X38967Y-31850D02*
X38361Y-31244D01*
X38361Y-31235D02*
X38361Y-31244D01*
X46141Y-31850D02*
X38967Y-31850D01*
X32007Y-21968D02*
X32007Y-24881D01*
X33031Y-20944D02*
X32007Y-21968D01*
X32007Y-24881D02*
X38361Y-31235D01*
X46538Y-41338D02*
X48400Y-43200D01*
X46535Y-41338D02*
X46538Y-41338D01*
X43779Y-38582D02*
X46535Y-41338D01*
X43779Y-37480D02*
X43779Y-38582D01*
X43543Y-37244D02*
X43779Y-37480D01*
X46417Y-31574D02*
X38937Y-31574D01*
X38937Y-31574D02*
X32204Y-24842D01*
X33110Y-21259D02*
X32992Y-21259D01*
X32992Y-21259D02*
X32204Y-22047D01*
X32204Y-22047D02*
X32204Y-24842D01*
X48922Y-42677D02*
X49400Y-42200D01*
X44566Y-37401D02*
X44566Y-39103D01*
X44566Y-39103D02*
X46624Y-41161D01*
X46624Y-41161D02*
X46633Y-41161D01*
X46633Y-41161D02*
X48149Y-42677D01*
X48149Y-42677D02*
X48922Y-42677D01*
X48400Y-42200D02*
X48384Y-42200D01*
X48384Y-42200D02*
X46525Y-40341D01*
X45866Y-31299D02*
X38888Y-31299D01*
X37987Y-30398D02*
X37987Y-30389D01*
X38888Y-31299D02*
X37987Y-30398D01*
X33031Y-21574D02*
X32992Y-21574D01*
X32440Y-22125D02*
X32440Y-24842D01*
X32992Y-21574D02*
X32440Y-22125D01*
X32440Y-24842D02*
X37987Y-30389D01*
X46525Y-38533D02*
X46525Y-40341D01*
X44645Y-36653D02*
X46525Y-38533D01*
X45590Y-31023D02*
X38849Y-31023D01*
X32637Y-24803D02*
X38499Y-30664D01*
X32637Y-22244D02*
X32637Y-24803D01*
X32992Y-21889D02*
X32637Y-22244D01*
X33110Y-21889D02*
X32992Y-21889D01*
X38499Y-30673D02*
X38499Y-30664D01*
X38849Y-31023D02*
X38499Y-30673D01*
X48907Y-41692D02*
X49400Y-41200D01*
X48149Y-41692D02*
X48907Y-41692D01*
X46732Y-40275D02*
X48149Y-41692D01*
X46732Y-38307D02*
X46732Y-40275D01*
X44803Y-36377D02*
X46732Y-38307D01*
X43937Y-36377D02*
X44803Y-36377D01*
X43661Y-36653D02*
X43937Y-36377D01*
X45314Y-30748D02*
X38818Y-30748D01*
X38818Y-30748D02*
X32834Y-24763D01*
X32834Y-22401D02*
X32834Y-24763D01*
X33031Y-22204D02*
X32834Y-22401D01*
X47711Y-40511D02*
X48400Y-41200D01*
X47716Y-40511D02*
X47711Y-40511D01*
X46938Y-39734D02*
X47716Y-40511D01*
X46938Y-38277D02*
X46938Y-39734D01*
X44842Y-36181D02*
X46938Y-38277D01*
X43661Y-36181D02*
X44842Y-36181D01*
X43346Y-36496D02*
X43661Y-36181D01*
X34251Y-24724D02*
X34448Y-24724D01*
X38661Y-29645D02*
X45000Y-29645D01*
X35330Y-26314D02*
X38661Y-29645D01*
X35330Y-25605D02*
X35330Y-26314D01*
X34448Y-24724D02*
X35330Y-25605D01*
X48891Y-40708D02*
X49400Y-40200D01*
X48188Y-40708D02*
X48891Y-40708D01*
X47145Y-39665D02*
X48188Y-40708D01*
X47145Y-38248D02*
X47145Y-39665D01*
X44881Y-35984D02*
X47145Y-38248D01*
X43425Y-35984D02*
X44881Y-35984D01*
X43228Y-36181D02*
X43425Y-35984D01*
X34173Y-25039D02*
X34330Y-25039D01*
X38700Y-29921D02*
X44724Y-29921D01*
X35168Y-26388D02*
X38700Y-29921D01*
X35168Y-25876D02*
X35168Y-26388D01*
X34330Y-25039D02*
X35168Y-25876D01*
X48278Y-40078D02*
X48400Y-40200D01*
X48070Y-40078D02*
X48278Y-40078D01*
X47322Y-39330D02*
X48070Y-40078D01*
X47322Y-38188D02*
X47322Y-39330D01*
X44921Y-35787D02*
X47322Y-38188D01*
X43188Y-35787D02*
X44921Y-35787D01*
X42874Y-36102D02*
X43188Y-35787D01*
X34251Y-25354D02*
X35000Y-26102D01*
X38731Y-30196D02*
X44448Y-30196D01*
X35000Y-26465D02*
X38731Y-30196D01*
X35000Y-26102D02*
X35000Y-26465D01*
X48914Y-39685D02*
X49400Y-39200D01*
X47992Y-39685D02*
X48914Y-39685D01*
X47519Y-39212D02*
X47992Y-39685D01*
X47519Y-38149D02*
X47519Y-39212D01*
X44960Y-35590D02*
X47519Y-38149D01*
X42952Y-35590D02*
X44960Y-35590D01*
X42755Y-35787D02*
X42952Y-35590D01*
X34173Y-25669D02*
X34212Y-25669D01*
X34839Y-26296D02*
X34839Y-26532D01*
X34212Y-25669D02*
X34839Y-26296D01*
X38779Y-30472D02*
X44173Y-30472D01*
X34839Y-26532D02*
X38779Y-30472D01*
X47716Y-38110D02*
X47716Y-38516D01*
X45000Y-35393D02*
X47716Y-38110D01*
X42677Y-35393D02*
X45000Y-35393D01*
X42440Y-35629D02*
X42677Y-35393D01*
X47716Y-38516D02*
X48400Y-39200D01*
X37362Y-25669D02*
X46574Y-25669D01*
X48899Y-48700D02*
X49400Y-48200D01*
X41259Y-39448D02*
X41496Y-39685D01*
X41496Y-39685D02*
X42253Y-39685D01*
X42253Y-39685D02*
X46692Y-44124D01*
X46692Y-44124D02*
X46692Y-47480D01*
X46692Y-47480D02*
X47913Y-48700D01*
X47913Y-48700D02*
X48899Y-48700D01*
X43897Y-32125D02*
X39015Y-32125D01*
X39015Y-32125D02*
X31811Y-24921D01*
X33110Y-20629D02*
X32992Y-20629D01*
X32992Y-20629D02*
X31811Y-21811D01*
X31811Y-21811D02*
X31811Y-24921D01*
X48899Y-38700D02*
X49400Y-38200D01*
X48228Y-38700D02*
X48899Y-38700D01*
X47913Y-38385D02*
X48228Y-38700D01*
X47913Y-38070D02*
X47913Y-38385D01*
X45039Y-35196D02*
X47913Y-38070D01*
X42440Y-35196D02*
X45039Y-35196D01*
X42322Y-35314D02*
X42440Y-35196D01*
X41850Y-34842D02*
X45042Y-34842D01*
X45042Y-34842D02*
X48400Y-38200D01*
X48883Y-37716D02*
X49400Y-37200D01*
X48228Y-37716D02*
X48883Y-37716D01*
X45098Y-34586D02*
X48228Y-37716D01*
X41673Y-34586D02*
X45098Y-34586D01*
X41535Y-34724D02*
X41673Y-34586D01*
X41535Y-34291D02*
X45491Y-34291D01*
X45491Y-34291D02*
X48400Y-37200D01*
X41417Y-34409D02*
X41535Y-34291D01*
X46870Y-44064D02*
X42312Y-39507D01*
X41574Y-39330D02*
X41751Y-39507D01*
X41751Y-39507D02*
X42312Y-39507D01*
X48400Y-48200D02*
X48396Y-48200D01*
X46870Y-46673D02*
X48396Y-48200D01*
X46870Y-44064D02*
X46870Y-46673D01*
X37440Y-25354D02*
X46653Y-25354D01*
X41968Y-38818D02*
X41968Y-38937D01*
X41968Y-38937D02*
X42362Y-39330D01*
X47047Y-46535D02*
X47047Y-44006D01*
X47047Y-44006D02*
X42371Y-39330D01*
X42371Y-39330D02*
X42362Y-39330D01*
X49400Y-47200D02*
X48922Y-47677D01*
X48188Y-47677D02*
X48922Y-47677D01*
X47047Y-46535D02*
X48188Y-47677D01*
X37362Y-25039D02*
X46574Y-25039D01*
X47224Y-43956D02*
X42440Y-39173D01*
X42440Y-39173D02*
X42440Y-38858D01*
X42440Y-38858D02*
X42086Y-38503D01*
X47224Y-43956D02*
X47224Y-46024D01*
X47224Y-46024D02*
X48400Y-47200D01*
X37440Y-24724D02*
X46653Y-24724D01*
X37440Y-21889D02*
X46653Y-21889D01*
X42677Y-38622D02*
X42677Y-39173D01*
X42677Y-39173D02*
X47401Y-43897D01*
X48907Y-46692D02*
X49400Y-46200D01*
X48188Y-46692D02*
X48907Y-46692D01*
X47401Y-45905D02*
X48188Y-46692D01*
X47401Y-43897D02*
X47401Y-45905D01*
X42440Y-38385D02*
X42677Y-38622D01*
X42913Y-38385D02*
X42913Y-39173D01*
X42913Y-39173D02*
X47578Y-43838D01*
X42598Y-38070D02*
X42913Y-38385D01*
X47578Y-43838D02*
X47578Y-45378D01*
X47578Y-45378D02*
X48400Y-46200D01*
X37362Y-21574D02*
X46574Y-21574D01*
X37440Y-21259D02*
X46653Y-21259D01*
X43188Y-38228D02*
X43188Y-39212D01*
X48149Y-44685D02*
X48914Y-44685D01*
X48914Y-44685D02*
X49400Y-44200D01*
X47755Y-44291D02*
X48149Y-44685D01*
X47755Y-43779D02*
X47755Y-44291D01*
X42952Y-37992D02*
X43188Y-38228D01*
X43188Y-39212D02*
X47755Y-43779D01*
X37362Y-20944D02*
X46574Y-20944D01*
X43070Y-37677D02*
X43385Y-37992D01*
X43385Y-37992D02*
X43385Y-39173D01*
X43385Y-39173D02*
X47952Y-43740D01*
X47952Y-43740D02*
X47952Y-43752D01*
X47952Y-43752D02*
X48400Y-44200D01*
X32400Y-40200D02*
X36099Y-40200D01*
X36099Y-40200D02*
X38070Y-38228D01*
X32400Y-35200D02*
X36577Y-35200D01*
X36577Y-35200D02*
X37637Y-36259D01*
X37952Y-36141D02*
X36535Y-34724D01*
X36535Y-34724D02*
X31875Y-34724D01*
X31875Y-34724D02*
X31400Y-35200D01*
X40590Y-32913D02*
X40826Y-32913D01*
X40511Y-32992D02*
X40590Y-32913D01*
X39763Y-28110D02*
X45826Y-28110D01*
X45826Y-28110D02*
X49015Y-24921D01*
X48400Y-33200D02*
X48396Y-33200D01*
X48110Y-32913D02*
X40826Y-32913D01*
X48396Y-33200D02*
X48110Y-32913D01*
X49370Y-24921D02*
X45826Y-28464D01*
X45826Y-28464D02*
X39763Y-28464D01*
X49400Y-33200D02*
X48916Y-32716D01*
X40118Y-32716D02*
X40039Y-32795D01*
X48916Y-32716D02*
X40118Y-32716D01*
X40551Y-33543D02*
X40590Y-33503D01*
X40590Y-33503D02*
X47283Y-33503D01*
X47283Y-33503D02*
X47979Y-34200D01*
X47979Y-34200D02*
X48400Y-34200D01*
X48875Y-34724D02*
X49400Y-34200D01*
X48228Y-34724D02*
X48875Y-34724D01*
X47204Y-33700D02*
X48228Y-34724D01*
X40826Y-33700D02*
X47204Y-33700D01*
X40590Y-33937D02*
X40826Y-33700D01*
X48388Y-35200D02*
X48400Y-35200D01*
X47086Y-33897D02*
X48388Y-35200D01*
X41023Y-33897D02*
X47086Y-33897D01*
X40944Y-33976D02*
X41023Y-33897D01*
X48891Y-35708D02*
X49400Y-35200D01*
X48188Y-35708D02*
X48891Y-35708D01*
X46574Y-34094D02*
X48188Y-35708D01*
X41299Y-34094D02*
X46574Y-34094D01*
X41102Y-34291D02*
X41299Y-34094D01*
X38070Y-35826D02*
X36444Y-34200D01*
X36444Y-34200D02*
X32400Y-34200D01*
X31899Y-33700D02*
X31400Y-34200D01*
X36417Y-33700D02*
X31899Y-33700D01*
X38385Y-35669D02*
X36417Y-33700D01*
X36388Y-33200D02*
X32400Y-33200D01*
X38543Y-35354D02*
X36388Y-33200D01*
X36732Y-32677D02*
X31922Y-32677D01*
X38976Y-34921D02*
X36732Y-32677D01*
X31922Y-32677D02*
X31400Y-33200D01*
X39291Y-34803D02*
X36692Y-32204D01*
X32395Y-32204D02*
X32400Y-32200D01*
X36692Y-32204D02*
X32395Y-32204D01*
X39409Y-34488D02*
X36614Y-31692D01*
X36614Y-31692D02*
X31907Y-31692D01*
X31907Y-31692D02*
X31400Y-32200D01*
X39763Y-27401D02*
X45826Y-27401D01*
X48307Y-24921D02*
X45826Y-27401D01*
X36593Y-31200D02*
X32400Y-31200D01*
X39763Y-34370D02*
X36593Y-31200D01*
X39763Y-27755D02*
X45826Y-27755D01*
X45826Y-27755D02*
X48661Y-24921D01*
X31970Y-30629D02*
X31400Y-31200D01*
X36496Y-30629D02*
X31970Y-30629D01*
X39881Y-34015D02*
X36496Y-30629D01*
X31899Y-38700D02*
X31400Y-39200D01*
X35826Y-38700D02*
X31899Y-38700D01*
X37204Y-37322D02*
X35826Y-38700D01*
X48903Y-49696D02*
X49400Y-49200D01*
X48240Y-49696D02*
X48903Y-49696D01*
X46338Y-47795D02*
X48240Y-49696D01*
X46338Y-44251D02*
X46338Y-47795D01*
X42401Y-40314D02*
X46338Y-44251D01*
X40826Y-40314D02*
X42401Y-40314D01*
X40708Y-40196D02*
X40826Y-40314D01*
X48428Y-50200D02*
X48400Y-50200D01*
X46161Y-47933D02*
X48428Y-50200D01*
X46161Y-44311D02*
X46161Y-47933D01*
X43051Y-41200D02*
X46161Y-44311D01*
X40728Y-41200D02*
X43051Y-41200D01*
X40748Y-41220D02*
X40728Y-41200D01*
X48970Y-50629D02*
X49400Y-50200D01*
X48228Y-50629D02*
X48970Y-50629D01*
X45984Y-48385D02*
X48228Y-50629D01*
X45984Y-44370D02*
X45984Y-48385D01*
X43110Y-41496D02*
X45984Y-44370D01*
X40354Y-41496D02*
X43110Y-41496D01*
X40039Y-41181D02*
X40354Y-41496D01*
X35303Y-38200D02*
X32400Y-38200D01*
X36181Y-37322D02*
X35303Y-38200D01*
X46574Y-24409D02*
X37362Y-24409D01*
X48070Y-22204D02*
X49645Y-23779D01*
X39960Y-22204D02*
X48070Y-22204D01*
X48400Y-32200D02*
X48418Y-32200D01*
X49645Y-24842D02*
X49645Y-25574D01*
X48937Y-24133D02*
X49645Y-24842D01*
X43543Y-24133D02*
X48937Y-24133D01*
X48418Y-32200D02*
X48921Y-31696D01*
X48921Y-31696D02*
X48921Y-26299D01*
X48921Y-26299D02*
X49645Y-25574D01*
X34448Y-24133D02*
X43543Y-24133D01*
X34173Y-24409D02*
X34448Y-24133D01*
G54D16*
X35472Y-29212D02*
X32480Y-29212D01*
X40275Y-34015D02*
X35472Y-29212D01*
X40275Y-34803D02*
X40275Y-34015D01*
X40275Y-34803D02*
X39350Y-35728D01*
X37204Y-42952D02*
X43346Y-42952D01*
X37165Y-42913D02*
X37204Y-42952D01*
X49881Y-24488D02*
X49881Y-23937D01*
X49921Y-19645D02*
X49045Y-18769D01*
X49921Y-23897D02*
X49921Y-19645D01*
X49881Y-23937D02*
X49921Y-23897D01*
X49400Y-36200D02*
X49400Y-36190D01*
X49400Y-36190D02*
X49881Y-35708D01*
X49881Y-35708D02*
X49881Y-24488D01*
X49881Y-24488D02*
X49881Y-24448D01*
X46417Y-23149D02*
X48582Y-23149D01*
X48582Y-23149D02*
X49881Y-24448D01*
X46062Y-23503D02*
X42125Y-23503D01*
X46417Y-23149D02*
X46062Y-23503D01*
X41771Y-23149D02*
X38661Y-23149D01*
X42125Y-23503D02*
X41771Y-23149D01*
X38661Y-23149D02*
X38149Y-23661D01*
X38149Y-23661D02*
X34566Y-23661D01*
X32125Y-43700D02*
X32677Y-43700D01*
X35590Y-40787D02*
X35944Y-40787D01*
X32677Y-43700D02*
X34566Y-41811D01*
X34566Y-41811D02*
X35590Y-40787D01*
X31400Y-36200D02*
X31396Y-36200D01*
X49400Y-36200D02*
X49429Y-36200D01*
X49045Y-18769D02*
X47834Y-17559D01*
G54D18*
X46200Y-16456D02*
X46200Y-17559D01*
G54D16*
X47834Y-17559D02*
X46200Y-17559D01*
X42036Y-36210D02*
X42036Y-36211D01*
X42036Y-36211D02*
X41259Y-36988D01*
X31400Y-45200D02*
X31400Y-45179D01*
X30866Y-36733D02*
X31400Y-36200D01*
X30866Y-44645D02*
X30866Y-36733D01*
X31400Y-45179D02*
X30866Y-44645D01*
X31889Y-44710D02*
X31400Y-45200D01*
X31889Y-43937D02*
X31889Y-44710D01*
X32125Y-43700D02*
X31889Y-43937D01*
X38543Y-38188D02*
X35944Y-40787D01*
X49400Y-36200D02*
X49400Y-36211D01*
X49400Y-36211D02*
X49960Y-36771D01*
X49960Y-36771D02*
X49960Y-44639D01*
X49960Y-44639D02*
X49400Y-45200D01*
X38908Y-37824D02*
X39005Y-37824D01*
X38543Y-38188D02*
X38908Y-37824D01*
G54D10*
G36*
X31476Y-36205D02*
X31405Y-36276D01*
X31400Y-36270D01*
X31084Y-36585D01*
X31112Y-36681D01*
X31167Y-36700D01*
X31088Y-36733D01*
X30934Y-36888D01*
X30869Y-37042D01*
X30869Y-36369D01*
X30918Y-36487D01*
X31014Y-36515D01*
X31329Y-36200D01*
X31323Y-36194D01*
X31394Y-36123D01*
X31400Y-36129D01*
X31405Y-36123D01*
X31476Y-36194D01*
X31470Y-36200D01*
X31476Y-36205D01*
X31476Y-36205D01*
G37*
G54D19*
X31476Y-36205D02*
X31405Y-36276D01*
X31400Y-36270D01*
X31084Y-36585D01*
X31112Y-36681D01*
X31167Y-36700D01*
X31088Y-36733D01*
X30934Y-36888D01*
X30869Y-37042D01*
X30869Y-36369D01*
X30918Y-36487D01*
X31014Y-36515D01*
X31329Y-36200D01*
X31323Y-36194D01*
X31394Y-36123D01*
X31400Y-36129D01*
X31405Y-36123D01*
X31476Y-36194D01*
X31470Y-36200D01*
X31476Y-36205D01*
G54D10*
G36*
X32169Y-43699D02*
X32088Y-43733D01*
X31934Y-43888D01*
X31900Y-43969D01*
X31866Y-43888D01*
X31711Y-43734D01*
X31630Y-43700D01*
X31711Y-43666D01*
X31865Y-43511D01*
X31899Y-43430D01*
X31933Y-43511D01*
X32088Y-43665D01*
X32169Y-43699D01*
X32169Y-43699D01*
G37*
G54D19*
X32169Y-43699D02*
X32088Y-43733D01*
X31934Y-43888D01*
X31900Y-43969D01*
X31866Y-43888D01*
X31711Y-43734D01*
X31630Y-43700D01*
X31711Y-43666D01*
X31865Y-43511D01*
X31899Y-43430D01*
X31933Y-43511D01*
X32088Y-43665D01*
X32169Y-43699D01*
G54D10*
G36*
X32169Y-45699D02*
X32088Y-45733D01*
X31934Y-45888D01*
X31900Y-45969D01*
X31866Y-45888D01*
X31711Y-45734D01*
X31636Y-45702D01*
X31687Y-45681D01*
X31715Y-45585D01*
X31400Y-45270D01*
X31084Y-45585D01*
X31112Y-45681D01*
X31167Y-45700D01*
X31088Y-45733D01*
X30934Y-45888D01*
X30869Y-46042D01*
X30869Y-45369D01*
X30918Y-45487D01*
X31014Y-45515D01*
X31329Y-45200D01*
X31014Y-44884D01*
X30918Y-44912D01*
X30869Y-45049D01*
X30869Y-44356D01*
X30933Y-44511D01*
X31088Y-44665D01*
X31163Y-44697D01*
X31112Y-44718D01*
X31084Y-44814D01*
X31400Y-45129D01*
X31715Y-44814D01*
X31687Y-44718D01*
X31632Y-44699D01*
X31711Y-44666D01*
X31865Y-44511D01*
X31899Y-44430D01*
X31933Y-44511D01*
X32088Y-44665D01*
X32169Y-44699D01*
X32088Y-44733D01*
X31934Y-44888D01*
X31902Y-44963D01*
X31881Y-44912D01*
X31785Y-44884D01*
X31470Y-45200D01*
X31785Y-45515D01*
X31881Y-45487D01*
X31900Y-45432D01*
X31933Y-45511D01*
X32088Y-45665D01*
X32169Y-45699D01*
X32169Y-45699D01*
G37*
G54D19*
X32169Y-45699D02*
X32088Y-45733D01*
X31934Y-45888D01*
X31900Y-45969D01*
X31866Y-45888D01*
X31711Y-45734D01*
X31636Y-45702D01*
X31687Y-45681D01*
X31715Y-45585D01*
X31400Y-45270D01*
X31084Y-45585D01*
X31112Y-45681D01*
X31167Y-45700D01*
X31088Y-45733D01*
X30934Y-45888D01*
X30869Y-46042D01*
X30869Y-45369D01*
X30918Y-45487D01*
X31014Y-45515D01*
X31329Y-45200D01*
X31014Y-44884D01*
X30918Y-44912D01*
X30869Y-45049D01*
X30869Y-44356D01*
X30933Y-44511D01*
X31088Y-44665D01*
X31163Y-44697D01*
X31112Y-44718D01*
X31084Y-44814D01*
X31400Y-45129D01*
X31715Y-44814D01*
X31687Y-44718D01*
X31632Y-44699D01*
X31711Y-44666D01*
X31865Y-44511D01*
X31899Y-44430D01*
X31933Y-44511D01*
X32088Y-44665D01*
X32169Y-44699D01*
X32088Y-44733D01*
X31934Y-44888D01*
X31902Y-44963D01*
X31881Y-44912D01*
X31785Y-44884D01*
X31470Y-45200D01*
X31785Y-45515D01*
X31881Y-45487D01*
X31900Y-45432D01*
X31933Y-45511D01*
X32088Y-45665D01*
X32169Y-45699D01*
G54D10*
G36*
X39081Y-37829D02*
X39010Y-37900D01*
X39005Y-37894D01*
X38713Y-38186D01*
X38713Y-38275D01*
X38792Y-38354D01*
X38877Y-38389D01*
X38739Y-38527D01*
X38706Y-38527D01*
X38570Y-38583D01*
X38546Y-38607D01*
X38393Y-38607D01*
X38282Y-38629D01*
X38188Y-38692D01*
X32905Y-43975D01*
X32903Y-43978D01*
X32866Y-43888D01*
X32711Y-43734D01*
X32630Y-43700D01*
X32711Y-43666D01*
X32865Y-43511D01*
X32949Y-43309D01*
X32950Y-43091D01*
X32866Y-42888D01*
X32711Y-42734D01*
X32630Y-42700D01*
X32711Y-42666D01*
X32865Y-42511D01*
X32949Y-42309D01*
X32950Y-42091D01*
X32866Y-41888D01*
X32711Y-41734D01*
X32630Y-41700D01*
X32711Y-41666D01*
X32865Y-41511D01*
X32949Y-41309D01*
X32950Y-41091D01*
X32866Y-40888D01*
X32711Y-40734D01*
X32630Y-40700D01*
X32711Y-40666D01*
X32865Y-40511D01*
X32875Y-40490D01*
X36099Y-40490D01*
X36210Y-40468D01*
X36210Y-40468D01*
X36304Y-40405D01*
X38111Y-38598D01*
X38144Y-38598D01*
X38280Y-38542D01*
X38384Y-38438D01*
X38440Y-38302D01*
X38441Y-38155D01*
X38391Y-38036D01*
X38430Y-37996D01*
X38444Y-37963D01*
X38475Y-38036D01*
X38554Y-38115D01*
X38642Y-38115D01*
X38934Y-37824D01*
X38929Y-37818D01*
X38999Y-37747D01*
X39005Y-37753D01*
X39010Y-37747D01*
X39081Y-37818D01*
X39076Y-37824D01*
X39081Y-37829D01*
X39081Y-37829D01*
G37*
G54D19*
X39081Y-37829D02*
X39010Y-37900D01*
X39005Y-37894D01*
X38713Y-38186D01*
X38713Y-38275D01*
X38792Y-38354D01*
X38877Y-38389D01*
X38739Y-38527D01*
X38706Y-38527D01*
X38570Y-38583D01*
X38546Y-38607D01*
X38393Y-38607D01*
X38282Y-38629D01*
X38188Y-38692D01*
X32905Y-43975D01*
X32903Y-43978D01*
X32866Y-43888D01*
X32711Y-43734D01*
X32630Y-43700D01*
X32711Y-43666D01*
X32865Y-43511D01*
X32949Y-43309D01*
X32950Y-43091D01*
X32866Y-42888D01*
X32711Y-42734D01*
X32630Y-42700D01*
X32711Y-42666D01*
X32865Y-42511D01*
X32949Y-42309D01*
X32950Y-42091D01*
X32866Y-41888D01*
X32711Y-41734D01*
X32630Y-41700D01*
X32711Y-41666D01*
X32865Y-41511D01*
X32949Y-41309D01*
X32950Y-41091D01*
X32866Y-40888D01*
X32711Y-40734D01*
X32630Y-40700D01*
X32711Y-40666D01*
X32865Y-40511D01*
X32875Y-40490D01*
X36099Y-40490D01*
X36210Y-40468D01*
X36210Y-40468D01*
X36304Y-40405D01*
X38111Y-38598D01*
X38144Y-38598D01*
X38280Y-38542D01*
X38384Y-38438D01*
X38440Y-38302D01*
X38441Y-38155D01*
X38391Y-38036D01*
X38430Y-37996D01*
X38444Y-37963D01*
X38475Y-38036D01*
X38554Y-38115D01*
X38642Y-38115D01*
X38934Y-37824D01*
X38929Y-37818D01*
X38999Y-37747D01*
X39005Y-37753D01*
X39010Y-37747D01*
X39081Y-37818D01*
X39076Y-37824D01*
X39081Y-37829D01*
G54D10*
G36*
X41527Y-35094D02*
X41519Y-35114D01*
X41435Y-35149D01*
X41365Y-35219D01*
X41224Y-35360D01*
X40089Y-35360D01*
X39967Y-35385D01*
X39915Y-35419D01*
X39863Y-35454D01*
X38592Y-36725D01*
X38496Y-36725D01*
X38404Y-36763D01*
X38333Y-36833D01*
X38192Y-36974D01*
X37977Y-36974D01*
X37632Y-36629D01*
X37711Y-36629D01*
X37847Y-36573D01*
X37909Y-36511D01*
X38026Y-36511D01*
X38162Y-36455D01*
X38266Y-36351D01*
X38322Y-36215D01*
X38322Y-36098D01*
X38381Y-36039D01*
X38459Y-36039D01*
X38595Y-35983D01*
X38699Y-35879D01*
X38755Y-35743D01*
X38755Y-35665D01*
X38856Y-35564D01*
X38913Y-35428D01*
X38913Y-35291D01*
X39049Y-35291D01*
X39185Y-35235D01*
X39247Y-35173D01*
X39364Y-35173D01*
X39500Y-35117D01*
X39604Y-35013D01*
X39661Y-34877D01*
X39661Y-34759D01*
X39683Y-34737D01*
X39689Y-34740D01*
X39837Y-34740D01*
X39973Y-34683D01*
X40077Y-34579D01*
X40133Y-34444D01*
X40133Y-34296D01*
X40131Y-34289D01*
X40195Y-34225D01*
X40251Y-34089D01*
X40251Y-34086D01*
X40276Y-34146D01*
X40380Y-34250D01*
X40516Y-34307D01*
X40663Y-34307D01*
X40726Y-34281D01*
X40732Y-34287D01*
X40732Y-34364D01*
X40788Y-34500D01*
X40892Y-34604D01*
X41028Y-34661D01*
X41145Y-34661D01*
X41165Y-34680D01*
X41165Y-34797D01*
X41221Y-34933D01*
X41325Y-35037D01*
X41461Y-35094D01*
X41527Y-35094D01*
X41527Y-35094D01*
G37*
G54D19*
X41527Y-35094D02*
X41519Y-35114D01*
X41435Y-35149D01*
X41365Y-35219D01*
X41224Y-35360D01*
X40089Y-35360D01*
X39967Y-35385D01*
X39915Y-35419D01*
X39863Y-35454D01*
X38592Y-36725D01*
X38496Y-36725D01*
X38404Y-36763D01*
X38333Y-36833D01*
X38192Y-36974D01*
X37977Y-36974D01*
X37632Y-36629D01*
X37711Y-36629D01*
X37847Y-36573D01*
X37909Y-36511D01*
X38026Y-36511D01*
X38162Y-36455D01*
X38266Y-36351D01*
X38322Y-36215D01*
X38322Y-36098D01*
X38381Y-36039D01*
X38459Y-36039D01*
X38595Y-35983D01*
X38699Y-35879D01*
X38755Y-35743D01*
X38755Y-35665D01*
X38856Y-35564D01*
X38913Y-35428D01*
X38913Y-35291D01*
X39049Y-35291D01*
X39185Y-35235D01*
X39247Y-35173D01*
X39364Y-35173D01*
X39500Y-35117D01*
X39604Y-35013D01*
X39661Y-34877D01*
X39661Y-34759D01*
X39683Y-34737D01*
X39689Y-34740D01*
X39837Y-34740D01*
X39973Y-34683D01*
X40077Y-34579D01*
X40133Y-34444D01*
X40133Y-34296D01*
X40131Y-34289D01*
X40195Y-34225D01*
X40251Y-34089D01*
X40251Y-34086D01*
X40276Y-34146D01*
X40380Y-34250D01*
X40516Y-34307D01*
X40663Y-34307D01*
X40726Y-34281D01*
X40732Y-34287D01*
X40732Y-34364D01*
X40788Y-34500D01*
X40892Y-34604D01*
X41028Y-34661D01*
X41145Y-34661D01*
X41165Y-34680D01*
X41165Y-34797D01*
X41221Y-34933D01*
X41325Y-35037D01*
X41461Y-35094D01*
X41527Y-35094D01*
G54D10*
G36*
X43391Y-36906D02*
X43333Y-36930D01*
X43229Y-37034D01*
X43173Y-37170D01*
X43173Y-37248D01*
X43114Y-37307D01*
X42997Y-37307D01*
X42861Y-37363D01*
X42757Y-37467D01*
X42700Y-37603D01*
X42700Y-37712D01*
X42672Y-37700D01*
X42525Y-37700D01*
X42389Y-37756D01*
X42284Y-37860D01*
X42257Y-37926D01*
X42257Y-36590D01*
X42257Y-36501D01*
X42036Y-36280D01*
X41745Y-36572D01*
X41745Y-36660D01*
X41824Y-36740D01*
X41916Y-36778D01*
X42015Y-36778D01*
X42107Y-36740D01*
X42177Y-36670D01*
X42257Y-36590D01*
X42257Y-37926D01*
X42228Y-37996D01*
X42228Y-38075D01*
X42166Y-38136D01*
X42160Y-38133D01*
X42013Y-38133D01*
X41877Y-38190D01*
X41773Y-38294D01*
X41716Y-38430D01*
X41716Y-38547D01*
X41654Y-38608D01*
X41598Y-38744D01*
X41598Y-38892D01*
X41626Y-38960D01*
X41501Y-38960D01*
X41365Y-39016D01*
X41303Y-39078D01*
X41186Y-39078D01*
X41050Y-39134D01*
X40946Y-39238D01*
X40889Y-39374D01*
X40889Y-39492D01*
X40828Y-39553D01*
X40771Y-39689D01*
X40771Y-39826D01*
X40635Y-39826D01*
X40499Y-39882D01*
X40413Y-39968D01*
X40370Y-39925D01*
X40370Y-39808D01*
X40313Y-39672D01*
X40209Y-39568D01*
X40073Y-39511D01*
X39926Y-39511D01*
X39919Y-39514D01*
X39897Y-39492D01*
X39897Y-39375D01*
X39841Y-39239D01*
X39740Y-39137D01*
X39975Y-39137D01*
X40214Y-39377D01*
X40306Y-39415D01*
X40406Y-39416D01*
X40498Y-39378D01*
X40568Y-39307D01*
X40816Y-39060D01*
X40854Y-38968D01*
X40854Y-38885D01*
X40936Y-38885D01*
X41028Y-38847D01*
X41098Y-38777D01*
X41346Y-38530D01*
X41384Y-38438D01*
X41384Y-38338D01*
X41346Y-38246D01*
X41276Y-38176D01*
X40887Y-37787D01*
X40795Y-37749D01*
X40794Y-37749D01*
X40794Y-37748D01*
X40756Y-37656D01*
X40685Y-37585D01*
X40296Y-37196D01*
X40205Y-37158D01*
X40108Y-37158D01*
X40018Y-37068D01*
X39914Y-36999D01*
X39792Y-36974D01*
X39244Y-36974D01*
X40221Y-35998D01*
X41082Y-35998D01*
X41293Y-36209D01*
X41385Y-36247D01*
X41468Y-36247D01*
X41468Y-36330D01*
X41506Y-36422D01*
X41586Y-36501D01*
X41674Y-36501D01*
X41966Y-36210D01*
X41960Y-36204D01*
X42031Y-36133D01*
X42036Y-36139D01*
X42042Y-36133D01*
X42113Y-36204D01*
X42107Y-36210D01*
X42328Y-36431D01*
X42416Y-36431D01*
X42496Y-36351D01*
X42553Y-36294D01*
X42560Y-36311D01*
X42664Y-36415D01*
X42800Y-36472D01*
X42947Y-36472D01*
X42976Y-36460D01*
X42976Y-36569D01*
X43032Y-36705D01*
X43136Y-36809D01*
X43272Y-36866D01*
X43350Y-36866D01*
X43391Y-36906D01*
X43391Y-36906D01*
G37*
G54D19*
X43391Y-36906D02*
X43333Y-36930D01*
X43229Y-37034D01*
X43173Y-37170D01*
X43173Y-37248D01*
X43114Y-37307D01*
X42997Y-37307D01*
X42861Y-37363D01*
X42757Y-37467D01*
X42700Y-37603D01*
X42700Y-37712D01*
X42672Y-37700D01*
X42525Y-37700D01*
X42389Y-37756D01*
X42284Y-37860D01*
X42257Y-37926D01*
X42257Y-36590D01*
X42257Y-36501D01*
X42036Y-36280D01*
X41745Y-36572D01*
X41745Y-36660D01*
X41824Y-36740D01*
X41916Y-36778D01*
X42015Y-36778D01*
X42107Y-36740D01*
X42177Y-36670D01*
X42257Y-36590D01*
X42257Y-37926D01*
X42228Y-37996D01*
X42228Y-38075D01*
X42166Y-38136D01*
X42160Y-38133D01*
X42013Y-38133D01*
X41877Y-38190D01*
X41773Y-38294D01*
X41716Y-38430D01*
X41716Y-38547D01*
X41654Y-38608D01*
X41598Y-38744D01*
X41598Y-38892D01*
X41626Y-38960D01*
X41501Y-38960D01*
X41365Y-39016D01*
X41303Y-39078D01*
X41186Y-39078D01*
X41050Y-39134D01*
X40946Y-39238D01*
X40889Y-39374D01*
X40889Y-39492D01*
X40828Y-39553D01*
X40771Y-39689D01*
X40771Y-39826D01*
X40635Y-39826D01*
X40499Y-39882D01*
X40413Y-39968D01*
X40370Y-39925D01*
X40370Y-39808D01*
X40313Y-39672D01*
X40209Y-39568D01*
X40073Y-39511D01*
X39926Y-39511D01*
X39919Y-39514D01*
X39897Y-39492D01*
X39897Y-39375D01*
X39841Y-39239D01*
X39740Y-39137D01*
X39975Y-39137D01*
X40214Y-39377D01*
X40306Y-39415D01*
X40406Y-39416D01*
X40498Y-39378D01*
X40568Y-39307D01*
X40816Y-39060D01*
X40854Y-38968D01*
X40854Y-38885D01*
X40936Y-38885D01*
X41028Y-38847D01*
X41098Y-38777D01*
X41346Y-38530D01*
X41384Y-38438D01*
X41384Y-38338D01*
X41346Y-38246D01*
X41276Y-38176D01*
X40887Y-37787D01*
X40795Y-37749D01*
X40794Y-37749D01*
X40794Y-37748D01*
X40756Y-37656D01*
X40685Y-37585D01*
X40296Y-37196D01*
X40205Y-37158D01*
X40108Y-37158D01*
X40018Y-37068D01*
X39914Y-36999D01*
X39792Y-36974D01*
X39244Y-36974D01*
X40221Y-35998D01*
X41082Y-35998D01*
X41293Y-36209D01*
X41385Y-36247D01*
X41468Y-36247D01*
X41468Y-36330D01*
X41506Y-36422D01*
X41586Y-36501D01*
X41674Y-36501D01*
X41966Y-36210D01*
X41960Y-36204D01*
X42031Y-36133D01*
X42036Y-36139D01*
X42042Y-36133D01*
X42113Y-36204D01*
X42107Y-36210D01*
X42328Y-36431D01*
X42416Y-36431D01*
X42496Y-36351D01*
X42553Y-36294D01*
X42560Y-36311D01*
X42664Y-36415D01*
X42800Y-36472D01*
X42947Y-36472D01*
X42976Y-36460D01*
X42976Y-36569D01*
X43032Y-36705D01*
X43136Y-36809D01*
X43272Y-36866D01*
X43350Y-36866D01*
X43391Y-36906D01*
G54D10*
G36*
X43674Y-32426D02*
X40118Y-32426D01*
X40118Y-32426D01*
X40116Y-32426D01*
X40113Y-32425D01*
X39966Y-32425D01*
X39830Y-32481D01*
X39725Y-32585D01*
X39669Y-32721D01*
X39669Y-32868D01*
X39725Y-33004D01*
X39829Y-33108D01*
X39965Y-33165D01*
X40112Y-33165D01*
X40172Y-33140D01*
X40197Y-33201D01*
X40283Y-33287D01*
X40237Y-33333D01*
X40181Y-33469D01*
X40181Y-33616D01*
X40237Y-33752D01*
X40257Y-33773D01*
X40220Y-33863D01*
X40220Y-33866D01*
X40195Y-33806D01*
X40091Y-33702D01*
X39955Y-33645D01*
X39922Y-33645D01*
X36701Y-30424D01*
X36607Y-30361D01*
X36496Y-30339D01*
X31970Y-30339D01*
X31859Y-30361D01*
X31764Y-30424D01*
X31530Y-30658D01*
X31509Y-30650D01*
X31291Y-30649D01*
X31224Y-30677D01*
X31224Y-22139D01*
X31520Y-21843D01*
X31520Y-24921D01*
X31542Y-25032D01*
X31605Y-25126D01*
X38810Y-32331D01*
X38904Y-32394D01*
X38904Y-32394D01*
X39015Y-32416D01*
X43664Y-32416D01*
X43674Y-32426D01*
X43674Y-32426D01*
G37*
G54D19*
X43674Y-32426D02*
X40118Y-32426D01*
X40118Y-32426D01*
X40116Y-32426D01*
X40113Y-32425D01*
X39966Y-32425D01*
X39830Y-32481D01*
X39725Y-32585D01*
X39669Y-32721D01*
X39669Y-32868D01*
X39725Y-33004D01*
X39829Y-33108D01*
X39965Y-33165D01*
X40112Y-33165D01*
X40172Y-33140D01*
X40197Y-33201D01*
X40283Y-33287D01*
X40237Y-33333D01*
X40181Y-33469D01*
X40181Y-33616D01*
X40237Y-33752D01*
X40257Y-33773D01*
X40220Y-33863D01*
X40220Y-33866D01*
X40195Y-33806D01*
X40091Y-33702D01*
X39955Y-33645D01*
X39922Y-33645D01*
X36701Y-30424D01*
X36607Y-30361D01*
X36496Y-30339D01*
X31970Y-30339D01*
X31859Y-30361D01*
X31764Y-30424D01*
X31530Y-30658D01*
X31509Y-30650D01*
X31291Y-30649D01*
X31224Y-30677D01*
X31224Y-22139D01*
X31520Y-21843D01*
X31520Y-24921D01*
X31542Y-25032D01*
X31605Y-25126D01*
X38810Y-32331D01*
X38904Y-32394D01*
X38904Y-32394D01*
X39015Y-32416D01*
X43664Y-32416D01*
X43674Y-32426D01*
G54D10*
G36*
X45134Y-43930D02*
X35300Y-43930D01*
X35196Y-43950D01*
X35109Y-44009D01*
X35050Y-44096D01*
X35030Y-44200D01*
X35030Y-50730D01*
X32797Y-50730D01*
X32841Y-50712D01*
X32911Y-50641D01*
X32949Y-50549D01*
X32950Y-50450D01*
X32950Y-50060D01*
X34496Y-48513D01*
X34496Y-48513D01*
X34496Y-48513D01*
X34559Y-48419D01*
X34581Y-48308D01*
X34581Y-48308D01*
X34581Y-48308D01*
X34581Y-44529D01*
X38584Y-40526D01*
X39946Y-40526D01*
X40044Y-40566D01*
X40191Y-40566D01*
X40327Y-40510D01*
X40413Y-40424D01*
X40498Y-40510D01*
X40634Y-40566D01*
X40691Y-40566D01*
X40715Y-40583D01*
X40715Y-40583D01*
X40826Y-40605D01*
X42281Y-40605D01*
X42586Y-40910D01*
X40961Y-40910D01*
X40957Y-40906D01*
X40821Y-40850D01*
X40674Y-40850D01*
X40538Y-40906D01*
X40434Y-41010D01*
X40401Y-41089D01*
X40353Y-40971D01*
X40249Y-40867D01*
X40113Y-40811D01*
X39966Y-40810D01*
X39830Y-40867D01*
X39725Y-40971D01*
X39669Y-41107D01*
X39669Y-41254D01*
X39725Y-41390D01*
X39829Y-41494D01*
X39965Y-41551D01*
X39999Y-41551D01*
X40149Y-41701D01*
X40149Y-41701D01*
X40243Y-41764D01*
X40354Y-41786D01*
X40354Y-41786D01*
X40354Y-41786D01*
X42990Y-41786D01*
X45134Y-43930D01*
X45134Y-43930D01*
G37*
G54D19*
X45134Y-43930D02*
X35300Y-43930D01*
X35196Y-43950D01*
X35109Y-44009D01*
X35050Y-44096D01*
X35030Y-44200D01*
X35030Y-50730D01*
X32797Y-50730D01*
X32841Y-50712D01*
X32911Y-50641D01*
X32949Y-50549D01*
X32950Y-50450D01*
X32950Y-50060D01*
X34496Y-48513D01*
X34496Y-48513D01*
X34496Y-48513D01*
X34559Y-48419D01*
X34581Y-48308D01*
X34581Y-48308D01*
X34581Y-48308D01*
X34581Y-44529D01*
X38584Y-40526D01*
X39946Y-40526D01*
X40044Y-40566D01*
X40191Y-40566D01*
X40327Y-40510D01*
X40413Y-40424D01*
X40498Y-40510D01*
X40634Y-40566D01*
X40691Y-40566D01*
X40715Y-40583D01*
X40715Y-40583D01*
X40826Y-40605D01*
X42281Y-40605D01*
X42586Y-40910D01*
X40961Y-40910D01*
X40957Y-40906D01*
X40821Y-40850D01*
X40674Y-40850D01*
X40538Y-40906D01*
X40434Y-41010D01*
X40401Y-41089D01*
X40353Y-40971D01*
X40249Y-40867D01*
X40113Y-40811D01*
X39966Y-40810D01*
X39830Y-40867D01*
X39725Y-40971D01*
X39669Y-41107D01*
X39669Y-41254D01*
X39725Y-41390D01*
X39829Y-41494D01*
X39965Y-41551D01*
X39999Y-41551D01*
X40149Y-41701D01*
X40149Y-41701D01*
X40243Y-41764D01*
X40354Y-41786D01*
X40354Y-41786D01*
X40354Y-41786D01*
X42990Y-41786D01*
X45134Y-43930D01*
G54D10*
G36*
X49930Y-23540D02*
X49855Y-23465D01*
X49719Y-23409D01*
X49685Y-23409D01*
X48276Y-21999D01*
X48181Y-21936D01*
X48070Y-21914D01*
X47023Y-21914D01*
X47023Y-21816D01*
X46967Y-21680D01*
X46942Y-21655D01*
X46944Y-21648D01*
X46944Y-21501D01*
X46942Y-21494D01*
X46967Y-21469D01*
X47023Y-21333D01*
X47023Y-21186D01*
X46967Y-21050D01*
X46942Y-21025D01*
X46944Y-21018D01*
X46944Y-20871D01*
X46942Y-20864D01*
X46967Y-20839D01*
X47023Y-20703D01*
X47023Y-20556D01*
X46967Y-20420D01*
X46863Y-20316D01*
X46727Y-20259D01*
X46580Y-20259D01*
X46444Y-20316D01*
X46420Y-20339D01*
X37674Y-20339D01*
X37650Y-20316D01*
X37514Y-20259D01*
X37367Y-20259D01*
X37231Y-20316D01*
X37127Y-20420D01*
X37070Y-20555D01*
X37070Y-20703D01*
X37073Y-20710D01*
X37048Y-20734D01*
X36992Y-20870D01*
X36992Y-21018D01*
X37048Y-21154D01*
X37073Y-21179D01*
X37070Y-21185D01*
X37070Y-21333D01*
X37073Y-21339D01*
X37048Y-21364D01*
X36992Y-21500D01*
X36992Y-21648D01*
X37048Y-21784D01*
X37073Y-21809D01*
X37070Y-21815D01*
X37070Y-21963D01*
X37127Y-22099D01*
X37231Y-22203D01*
X37367Y-22259D01*
X37514Y-22259D01*
X37650Y-22203D01*
X37674Y-22179D01*
X39590Y-22179D01*
X39590Y-22278D01*
X39591Y-22279D01*
X37283Y-22279D01*
X37161Y-22303D01*
X37057Y-22372D01*
X36824Y-22606D01*
X36766Y-22606D01*
X36609Y-22670D01*
X36490Y-22790D01*
X36473Y-22830D01*
X35336Y-22830D01*
X35973Y-22193D01*
X35973Y-22193D01*
X36008Y-22142D01*
X36042Y-22090D01*
X36042Y-22090D01*
X36066Y-21968D01*
X36066Y-21968D01*
X36066Y-20840D01*
X38321Y-18586D01*
X43070Y-18586D01*
X43070Y-18586D01*
X43192Y-18562D01*
X43192Y-18562D01*
X43296Y-18493D01*
X45970Y-15818D01*
X46717Y-15818D01*
X46758Y-15860D01*
X46915Y-15924D01*
X46973Y-15924D01*
X47374Y-16325D01*
X47374Y-16384D01*
X47439Y-16540D01*
X47558Y-16660D01*
X47715Y-16724D01*
X47884Y-16725D01*
X48040Y-16660D01*
X48160Y-16541D01*
X48224Y-16384D01*
X48225Y-16215D01*
X48160Y-16059D01*
X48041Y-15939D01*
X47884Y-15875D01*
X47826Y-15875D01*
X47425Y-15474D01*
X47425Y-15415D01*
X47360Y-15259D01*
X47241Y-15139D01*
X47084Y-15075D01*
X46915Y-15074D01*
X46759Y-15139D01*
X46717Y-15181D01*
X45838Y-15181D01*
X45716Y-15205D01*
X45664Y-15239D01*
X45613Y-15274D01*
X42938Y-17948D01*
X38188Y-17948D01*
X38066Y-17973D01*
X38015Y-18007D01*
X37963Y-18042D01*
X35522Y-20483D01*
X35453Y-20586D01*
X35429Y-20708D01*
X35429Y-21836D01*
X34885Y-22379D01*
X34885Y-21220D01*
X34861Y-21098D01*
X34861Y-21098D01*
X34826Y-21046D01*
X34792Y-20994D01*
X34792Y-20994D01*
X33768Y-19971D01*
X33665Y-19902D01*
X33543Y-19877D01*
X32716Y-19877D01*
X32594Y-19902D01*
X32542Y-19936D01*
X32491Y-19971D01*
X30869Y-21592D01*
X30869Y-11969D01*
X49930Y-11969D01*
X49930Y-23540D01*
X49930Y-23540D01*
G37*
G54D19*
X49930Y-23540D02*
X49855Y-23465D01*
X49719Y-23409D01*
X49685Y-23409D01*
X48276Y-21999D01*
X48181Y-21936D01*
X48070Y-21914D01*
X47023Y-21914D01*
X47023Y-21816D01*
X46967Y-21680D01*
X46942Y-21655D01*
X46944Y-21648D01*
X46944Y-21501D01*
X46942Y-21494D01*
X46967Y-21469D01*
X47023Y-21333D01*
X47023Y-21186D01*
X46967Y-21050D01*
X46942Y-21025D01*
X46944Y-21018D01*
X46944Y-20871D01*
X46942Y-20864D01*
X46967Y-20839D01*
X47023Y-20703D01*
X47023Y-20556D01*
X46967Y-20420D01*
X46863Y-20316D01*
X46727Y-20259D01*
X46580Y-20259D01*
X46444Y-20316D01*
X46420Y-20339D01*
X37674Y-20339D01*
X37650Y-20316D01*
X37514Y-20259D01*
X37367Y-20259D01*
X37231Y-20316D01*
X37127Y-20420D01*
X37070Y-20555D01*
X37070Y-20703D01*
X37073Y-20710D01*
X37048Y-20734D01*
X36992Y-20870D01*
X36992Y-21018D01*
X37048Y-21154D01*
X37073Y-21179D01*
X37070Y-21185D01*
X37070Y-21333D01*
X37073Y-21339D01*
X37048Y-21364D01*
X36992Y-21500D01*
X36992Y-21648D01*
X37048Y-21784D01*
X37073Y-21809D01*
X37070Y-21815D01*
X37070Y-21963D01*
X37127Y-22099D01*
X37231Y-22203D01*
X37367Y-22259D01*
X37514Y-22259D01*
X37650Y-22203D01*
X37674Y-22179D01*
X39590Y-22179D01*
X39590Y-22278D01*
X39591Y-22279D01*
X37283Y-22279D01*
X37161Y-22303D01*
X37057Y-22372D01*
X36824Y-22606D01*
X36766Y-22606D01*
X36609Y-22670D01*
X36490Y-22790D01*
X36473Y-22830D01*
X35336Y-22830D01*
X35973Y-22193D01*
X35973Y-22193D01*
X36008Y-22142D01*
X36042Y-22090D01*
X36042Y-22090D01*
X36066Y-21968D01*
X36066Y-21968D01*
X36066Y-20840D01*
X38321Y-18586D01*
X43070Y-18586D01*
X43070Y-18586D01*
X43192Y-18562D01*
X43192Y-18562D01*
X43296Y-18493D01*
X45970Y-15818D01*
X46717Y-15818D01*
X46758Y-15860D01*
X46915Y-15924D01*
X46973Y-15924D01*
X47374Y-16325D01*
X47374Y-16384D01*
X47439Y-16540D01*
X47558Y-16660D01*
X47715Y-16724D01*
X47884Y-16725D01*
X48040Y-16660D01*
X48160Y-16541D01*
X48224Y-16384D01*
X48225Y-16215D01*
X48160Y-16059D01*
X48041Y-15939D01*
X47884Y-15875D01*
X47826Y-15875D01*
X47425Y-15474D01*
X47425Y-15415D01*
X47360Y-15259D01*
X47241Y-15139D01*
X47084Y-15075D01*
X46915Y-15074D01*
X46759Y-15139D01*
X46717Y-15181D01*
X45838Y-15181D01*
X45716Y-15205D01*
X45664Y-15239D01*
X45613Y-15274D01*
X42938Y-17948D01*
X38188Y-17948D01*
X38066Y-17973D01*
X38015Y-18007D01*
X37963Y-18042D01*
X35522Y-20483D01*
X35453Y-20586D01*
X35429Y-20708D01*
X35429Y-21836D01*
X34885Y-22379D01*
X34885Y-21220D01*
X34861Y-21098D01*
X34861Y-21098D01*
X34826Y-21046D01*
X34792Y-20994D01*
X34792Y-20994D01*
X33768Y-19971D01*
X33665Y-19902D01*
X33543Y-19877D01*
X32716Y-19877D01*
X32594Y-19902D01*
X32542Y-19936D01*
X32491Y-19971D01*
X30869Y-21592D01*
X30869Y-11969D01*
X49930Y-11969D01*
X49930Y-23540D01*
G54D10*
G36*
X49930Y-24814D02*
X49913Y-24731D01*
X49850Y-24637D01*
X49850Y-24637D01*
X49142Y-23928D01*
X49048Y-23865D01*
X48937Y-23843D01*
X43776Y-23843D01*
X43753Y-23820D01*
X43617Y-23763D01*
X43470Y-23763D01*
X43333Y-23819D01*
X43310Y-23843D01*
X34448Y-23843D01*
X34337Y-23865D01*
X34243Y-23928D01*
X34243Y-23928D01*
X34132Y-24039D01*
X34099Y-24039D01*
X33963Y-24095D01*
X33859Y-24199D01*
X33803Y-24335D01*
X33803Y-24482D01*
X33859Y-24618D01*
X33884Y-24644D01*
X33881Y-24650D01*
X33881Y-24797D01*
X33884Y-24804D01*
X33859Y-24829D01*
X33803Y-24965D01*
X33803Y-25112D01*
X33859Y-25248D01*
X33884Y-25274D01*
X33881Y-25280D01*
X33881Y-25400D01*
X33124Y-24643D01*
X33124Y-22566D01*
X33240Y-22518D01*
X33345Y-22414D01*
X33401Y-22278D01*
X33401Y-22131D01*
X33398Y-22124D01*
X33423Y-22099D01*
X33480Y-21963D01*
X33480Y-21816D01*
X33424Y-21680D01*
X33398Y-21655D01*
X33401Y-21648D01*
X33401Y-21501D01*
X33398Y-21494D01*
X33423Y-21469D01*
X33480Y-21333D01*
X33480Y-21186D01*
X33424Y-21050D01*
X33398Y-21025D01*
X33401Y-21018D01*
X33401Y-20871D01*
X33398Y-20864D01*
X33423Y-20839D01*
X33480Y-20703D01*
X33480Y-20584D01*
X34248Y-21352D01*
X34248Y-22867D01*
X34206Y-22908D01*
X34142Y-23064D01*
X34141Y-23233D01*
X34206Y-23390D01*
X34325Y-23509D01*
X34482Y-23574D01*
X34651Y-23574D01*
X34807Y-23510D01*
X34849Y-23468D01*
X36732Y-23468D01*
X36732Y-23468D01*
X36792Y-23456D01*
X36934Y-23456D01*
X37090Y-23392D01*
X37210Y-23272D01*
X37275Y-23116D01*
X37275Y-23057D01*
X37415Y-22917D01*
X43536Y-22917D01*
X43577Y-22958D01*
X43733Y-23023D01*
X43903Y-23023D01*
X44059Y-22958D01*
X44101Y-22917D01*
X45458Y-22917D01*
X45559Y-23018D01*
X45559Y-23076D01*
X45623Y-23232D01*
X45743Y-23352D01*
X45899Y-23417D01*
X46068Y-23417D01*
X46224Y-23352D01*
X46344Y-23233D01*
X46409Y-23077D01*
X46409Y-22907D01*
X46344Y-22751D01*
X46225Y-22632D01*
X46069Y-22567D01*
X46010Y-22567D01*
X45937Y-22494D01*
X47950Y-22494D01*
X49275Y-23819D01*
X49275Y-23852D01*
X49331Y-23988D01*
X49435Y-24093D01*
X49571Y-24149D01*
X49718Y-24149D01*
X49855Y-24093D01*
X49930Y-24018D01*
X49930Y-24814D01*
X49930Y-24814D01*
G37*
G54D19*
X49930Y-24814D02*
X49913Y-24731D01*
X49850Y-24637D01*
X49850Y-24637D01*
X49142Y-23928D01*
X49048Y-23865D01*
X48937Y-23843D01*
X43776Y-23843D01*
X43753Y-23820D01*
X43617Y-23763D01*
X43470Y-23763D01*
X43333Y-23819D01*
X43310Y-23843D01*
X34448Y-23843D01*
X34337Y-23865D01*
X34243Y-23928D01*
X34243Y-23928D01*
X34132Y-24039D01*
X34099Y-24039D01*
X33963Y-24095D01*
X33859Y-24199D01*
X33803Y-24335D01*
X33803Y-24482D01*
X33859Y-24618D01*
X33884Y-24644D01*
X33881Y-24650D01*
X33881Y-24797D01*
X33884Y-24804D01*
X33859Y-24829D01*
X33803Y-24965D01*
X33803Y-25112D01*
X33859Y-25248D01*
X33884Y-25274D01*
X33881Y-25280D01*
X33881Y-25400D01*
X33124Y-24643D01*
X33124Y-22566D01*
X33240Y-22518D01*
X33345Y-22414D01*
X33401Y-22278D01*
X33401Y-22131D01*
X33398Y-22124D01*
X33423Y-22099D01*
X33480Y-21963D01*
X33480Y-21816D01*
X33424Y-21680D01*
X33398Y-21655D01*
X33401Y-21648D01*
X33401Y-21501D01*
X33398Y-21494D01*
X33423Y-21469D01*
X33480Y-21333D01*
X33480Y-21186D01*
X33424Y-21050D01*
X33398Y-21025D01*
X33401Y-21018D01*
X33401Y-20871D01*
X33398Y-20864D01*
X33423Y-20839D01*
X33480Y-20703D01*
X33480Y-20584D01*
X34248Y-21352D01*
X34248Y-22867D01*
X34206Y-22908D01*
X34142Y-23064D01*
X34141Y-23233D01*
X34206Y-23390D01*
X34325Y-23509D01*
X34482Y-23574D01*
X34651Y-23574D01*
X34807Y-23510D01*
X34849Y-23468D01*
X36732Y-23468D01*
X36732Y-23468D01*
X36792Y-23456D01*
X36934Y-23456D01*
X37090Y-23392D01*
X37210Y-23272D01*
X37275Y-23116D01*
X37275Y-23057D01*
X37415Y-22917D01*
X43536Y-22917D01*
X43577Y-22958D01*
X43733Y-23023D01*
X43903Y-23023D01*
X44059Y-22958D01*
X44101Y-22917D01*
X45458Y-22917D01*
X45559Y-23018D01*
X45559Y-23076D01*
X45623Y-23232D01*
X45743Y-23352D01*
X45899Y-23417D01*
X46068Y-23417D01*
X46224Y-23352D01*
X46344Y-23233D01*
X46409Y-23077D01*
X46409Y-22907D01*
X46344Y-22751D01*
X46225Y-22632D01*
X46069Y-22567D01*
X46010Y-22567D01*
X45937Y-22494D01*
X47950Y-22494D01*
X49275Y-23819D01*
X49275Y-23852D01*
X49331Y-23988D01*
X49435Y-24093D01*
X49571Y-24149D01*
X49718Y-24149D01*
X49855Y-24093D01*
X49930Y-24018D01*
X49930Y-24814D01*
G54D10*
G36*
X49930Y-37043D02*
X49866Y-36888D01*
X49711Y-36734D01*
X49636Y-36702D01*
X49687Y-36681D01*
X49715Y-36585D01*
X49400Y-36270D01*
X49084Y-36585D01*
X49112Y-36681D01*
X49167Y-36700D01*
X49088Y-36733D01*
X48934Y-36888D01*
X48900Y-36969D01*
X48866Y-36888D01*
X48711Y-36734D01*
X48630Y-36700D01*
X48711Y-36666D01*
X48865Y-36511D01*
X48897Y-36436D01*
X48918Y-36487D01*
X49014Y-36515D01*
X49329Y-36200D01*
X49323Y-36194D01*
X49394Y-36123D01*
X49400Y-36129D01*
X49715Y-35814D01*
X49687Y-35718D01*
X49632Y-35699D01*
X49711Y-35666D01*
X49865Y-35511D01*
X49930Y-35357D01*
X49930Y-36030D01*
X49881Y-35912D01*
X49785Y-35884D01*
X49470Y-36200D01*
X49785Y-36515D01*
X49881Y-36487D01*
X49930Y-36350D01*
X49930Y-37043D01*
X49930Y-37043D01*
G37*
G54D19*
X49930Y-37043D02*
X49866Y-36888D01*
X49711Y-36734D01*
X49636Y-36702D01*
X49687Y-36681D01*
X49715Y-36585D01*
X49400Y-36270D01*
X49084Y-36585D01*
X49112Y-36681D01*
X49167Y-36700D01*
X49088Y-36733D01*
X48934Y-36888D01*
X48900Y-36969D01*
X48866Y-36888D01*
X48711Y-36734D01*
X48630Y-36700D01*
X48711Y-36666D01*
X48865Y-36511D01*
X48897Y-36436D01*
X48918Y-36487D01*
X49014Y-36515D01*
X49329Y-36200D01*
X49323Y-36194D01*
X49394Y-36123D01*
X49400Y-36129D01*
X49715Y-35814D01*
X49687Y-35718D01*
X49632Y-35699D01*
X49711Y-35666D01*
X49865Y-35511D01*
X49930Y-35357D01*
X49930Y-36030D01*
X49881Y-35912D01*
X49785Y-35884D01*
X49470Y-36200D01*
X49785Y-36515D01*
X49881Y-36487D01*
X49930Y-36350D01*
X49930Y-37043D01*
G54D10*
G36*
X49930Y-46043D02*
X49866Y-45888D01*
X49711Y-45734D01*
X49636Y-45702D01*
X49687Y-45681D01*
X49715Y-45585D01*
X49400Y-45270D01*
X49084Y-45585D01*
X49112Y-45681D01*
X49167Y-45700D01*
X49088Y-45733D01*
X48934Y-45888D01*
X48900Y-45969D01*
X48866Y-45888D01*
X48711Y-45734D01*
X48630Y-45700D01*
X48711Y-45666D01*
X48865Y-45511D01*
X48897Y-45436D01*
X48918Y-45487D01*
X49014Y-45515D01*
X49329Y-45200D01*
X49323Y-45194D01*
X49394Y-45123D01*
X49400Y-45129D01*
X49715Y-44814D01*
X49687Y-44718D01*
X49632Y-44699D01*
X49711Y-44666D01*
X49865Y-44511D01*
X49930Y-44357D01*
X49930Y-45030D01*
X49881Y-44912D01*
X49785Y-44884D01*
X49470Y-45200D01*
X49785Y-45515D01*
X49881Y-45487D01*
X49930Y-45350D01*
X49930Y-46043D01*
X49930Y-46043D01*
G37*
G54D19*
X49930Y-46043D02*
X49866Y-45888D01*
X49711Y-45734D01*
X49636Y-45702D01*
X49687Y-45681D01*
X49715Y-45585D01*
X49400Y-45270D01*
X49084Y-45585D01*
X49112Y-45681D01*
X49167Y-45700D01*
X49088Y-45733D01*
X48934Y-45888D01*
X48900Y-45969D01*
X48866Y-45888D01*
X48711Y-45734D01*
X48630Y-45700D01*
X48711Y-45666D01*
X48865Y-45511D01*
X48897Y-45436D01*
X48918Y-45487D01*
X49014Y-45515D01*
X49329Y-45200D01*
X49323Y-45194D01*
X49394Y-45123D01*
X49400Y-45129D01*
X49715Y-44814D01*
X49687Y-44718D01*
X49632Y-44699D01*
X49711Y-44666D01*
X49865Y-44511D01*
X49930Y-44357D01*
X49930Y-45030D01*
X49881Y-44912D01*
X49785Y-44884D01*
X49470Y-45200D01*
X49785Y-45515D01*
X49881Y-45487D01*
X49930Y-45350D01*
X49930Y-46043D01*
M02*
