G04 (created by PCBNEW (25-Oct-2014 BZR 4029)-stable) date Fri 12 Jun 2015 01:26:50 JST*
%MOIN*%
G04 Gerber Fmt 3.4, Leading zero omitted, Abs format*
%FSLAX34Y34*%
G01*
G70*
G90*
G04 APERTURE LIST*
%ADD10C,0.00590551*%
%ADD11C,0.00393701*%
%ADD12R,0.06X0.06*%
%ADD13C,0.06*%
%ADD14R,0.055X0.035*%
%ADD15R,0.035X0.055*%
%ADD16R,0.0314961X0.011811*%
%ADD17R,0.0314961X0.0885827*%
%ADD18R,0.0787402X0.019685*%
%ADD19C,0.035*%
%ADD20C,0.0240157*%
%ADD21C,0.0137795*%
%ADD22C,0.0393701*%
%ADD23C,0.0080315*%
%ADD24C,0.01*%
G04 APERTURE END LIST*
G54D10*
G54D11*
X30600Y-11700D02*
X50200Y-11700D01*
X30600Y-51000D02*
X35300Y-51000D01*
X45500Y-51000D02*
X50200Y-51000D01*
X35300Y-44200D02*
X45500Y-44200D01*
X35300Y-44200D02*
X35300Y-51000D01*
X45500Y-44200D02*
X45500Y-51000D01*
X30600Y-51000D02*
X30600Y-11700D01*
X50200Y-51000D02*
X50200Y-11700D01*
G54D12*
X48400Y-31200D03*
G54D13*
X49400Y-31200D03*
X48400Y-36200D03*
X49400Y-32200D03*
X48400Y-37200D03*
X49400Y-33200D03*
X48400Y-38200D03*
X49400Y-34200D03*
X48400Y-39200D03*
X49400Y-35200D03*
X48400Y-40200D03*
X49400Y-36200D03*
X48400Y-41200D03*
X49400Y-37200D03*
X48400Y-42200D03*
X49400Y-38200D03*
X48400Y-43200D03*
X49400Y-39200D03*
X48400Y-44200D03*
X49400Y-40200D03*
X48400Y-45200D03*
X49400Y-41200D03*
X48400Y-46200D03*
X49400Y-42200D03*
X49400Y-43200D03*
X48400Y-47200D03*
X49400Y-44200D03*
X49400Y-46200D03*
X49400Y-47200D03*
X49400Y-48200D03*
X49400Y-49200D03*
X48400Y-48200D03*
X48400Y-49200D03*
X48400Y-32200D03*
X48400Y-33200D03*
X48400Y-34200D03*
X48400Y-35200D03*
X48400Y-50200D03*
X49400Y-50200D03*
X49400Y-45200D03*
G54D12*
X32400Y-50200D03*
G54D13*
X31400Y-50200D03*
X32400Y-45200D03*
X31400Y-49200D03*
X32400Y-44200D03*
X31400Y-48200D03*
X32400Y-43200D03*
X31400Y-47200D03*
X32400Y-42200D03*
X31400Y-46200D03*
X32400Y-41200D03*
X31400Y-45200D03*
X32400Y-40200D03*
X31400Y-44200D03*
X32400Y-39200D03*
X31400Y-43200D03*
X32400Y-38200D03*
X31400Y-42200D03*
X32400Y-37200D03*
X31400Y-41200D03*
X32400Y-36200D03*
X31400Y-40200D03*
X32400Y-35200D03*
X31400Y-39200D03*
X31400Y-38200D03*
X32400Y-34200D03*
X31400Y-37200D03*
X31400Y-35200D03*
X31400Y-34200D03*
X31400Y-33200D03*
X31400Y-32200D03*
X32400Y-33200D03*
X32400Y-32200D03*
X32400Y-49200D03*
X32400Y-48200D03*
X32400Y-47200D03*
X32400Y-46200D03*
X32400Y-31200D03*
X31400Y-31200D03*
X31400Y-36200D03*
G54D10*
G36*
X36182Y-38016D02*
X36043Y-37876D01*
X36711Y-37208D01*
X36850Y-37347D01*
X36182Y-38016D01*
X36182Y-38016D01*
G37*
G36*
X36405Y-38238D02*
X36265Y-38099D01*
X36934Y-37431D01*
X37073Y-37570D01*
X36405Y-38238D01*
X36405Y-38238D01*
G37*
G36*
X36627Y-38461D02*
X36488Y-38322D01*
X37156Y-37654D01*
X37295Y-37793D01*
X36627Y-38461D01*
X36627Y-38461D01*
G37*
G36*
X36850Y-38684D02*
X36711Y-38545D01*
X37379Y-37876D01*
X37518Y-38016D01*
X36850Y-38684D01*
X36850Y-38684D01*
G37*
G36*
X37073Y-38906D02*
X36934Y-38767D01*
X37602Y-38099D01*
X37741Y-38238D01*
X37073Y-38906D01*
X37073Y-38906D01*
G37*
G36*
X37295Y-39129D02*
X37156Y-38990D01*
X37824Y-38322D01*
X37964Y-38461D01*
X37295Y-39129D01*
X37295Y-39129D01*
G37*
G36*
X37518Y-39352D02*
X37379Y-39213D01*
X38047Y-38545D01*
X38186Y-38684D01*
X37518Y-39352D01*
X37518Y-39352D01*
G37*
G36*
X37741Y-39575D02*
X37602Y-39435D01*
X38270Y-38767D01*
X38409Y-38906D01*
X37741Y-39575D01*
X37741Y-39575D01*
G37*
G36*
X37964Y-39797D02*
X37824Y-39658D01*
X38493Y-38990D01*
X38632Y-39129D01*
X37964Y-39797D01*
X37964Y-39797D01*
G37*
G36*
X38186Y-40020D02*
X38047Y-39881D01*
X38715Y-39213D01*
X38854Y-39352D01*
X38186Y-40020D01*
X38186Y-40020D01*
G37*
G36*
X38409Y-40243D02*
X38270Y-40104D01*
X38938Y-39435D01*
X39077Y-39575D01*
X38409Y-40243D01*
X38409Y-40243D01*
G37*
G36*
X38632Y-40465D02*
X38493Y-40326D01*
X39161Y-39658D01*
X39300Y-39797D01*
X38632Y-40465D01*
X38632Y-40465D01*
G37*
G36*
X38854Y-40688D02*
X38715Y-40549D01*
X39383Y-39881D01*
X39523Y-40020D01*
X38854Y-40688D01*
X38854Y-40688D01*
G37*
G36*
X39077Y-40911D02*
X38938Y-40772D01*
X39606Y-40104D01*
X39745Y-40243D01*
X39077Y-40911D01*
X39077Y-40911D01*
G37*
G36*
X39300Y-41134D02*
X39161Y-40994D01*
X39829Y-40326D01*
X39968Y-40465D01*
X39300Y-41134D01*
X39300Y-41134D01*
G37*
G36*
X39523Y-41356D02*
X39383Y-41217D01*
X40052Y-40549D01*
X40191Y-40688D01*
X39523Y-41356D01*
X39523Y-41356D01*
G37*
G36*
X41276Y-41356D02*
X40608Y-40688D01*
X40747Y-40549D01*
X41416Y-41217D01*
X41276Y-41356D01*
X41276Y-41356D01*
G37*
G36*
X41499Y-41134D02*
X40831Y-40465D01*
X40970Y-40326D01*
X41638Y-40994D01*
X41499Y-41134D01*
X41499Y-41134D01*
G37*
G36*
X41722Y-40911D02*
X41054Y-40243D01*
X41193Y-40104D01*
X41861Y-40772D01*
X41722Y-40911D01*
X41722Y-40911D01*
G37*
G36*
X41945Y-40688D02*
X41276Y-40020D01*
X41416Y-39881D01*
X42084Y-40549D01*
X41945Y-40688D01*
X41945Y-40688D01*
G37*
G36*
X42167Y-40465D02*
X41499Y-39797D01*
X41638Y-39658D01*
X42306Y-40326D01*
X42167Y-40465D01*
X42167Y-40465D01*
G37*
G36*
X42390Y-40243D02*
X41722Y-39575D01*
X41861Y-39435D01*
X42529Y-40104D01*
X42390Y-40243D01*
X42390Y-40243D01*
G37*
G36*
X42613Y-40020D02*
X41945Y-39352D01*
X42084Y-39213D01*
X42752Y-39881D01*
X42613Y-40020D01*
X42613Y-40020D01*
G37*
G36*
X42835Y-39797D02*
X42167Y-39129D01*
X42306Y-38990D01*
X42975Y-39658D01*
X42835Y-39797D01*
X42835Y-39797D01*
G37*
G36*
X43058Y-39575D02*
X42390Y-38906D01*
X42529Y-38767D01*
X43197Y-39435D01*
X43058Y-39575D01*
X43058Y-39575D01*
G37*
G36*
X43281Y-39352D02*
X42613Y-38684D01*
X42752Y-38545D01*
X43420Y-39213D01*
X43281Y-39352D01*
X43281Y-39352D01*
G37*
G36*
X43504Y-39129D02*
X42835Y-38461D01*
X42975Y-38322D01*
X43643Y-38990D01*
X43504Y-39129D01*
X43504Y-39129D01*
G37*
G36*
X43726Y-38906D02*
X43058Y-38238D01*
X43197Y-38099D01*
X43865Y-38767D01*
X43726Y-38906D01*
X43726Y-38906D01*
G37*
G36*
X43949Y-38684D02*
X43281Y-38016D01*
X43420Y-37876D01*
X44088Y-38545D01*
X43949Y-38684D01*
X43949Y-38684D01*
G37*
G36*
X44172Y-38461D02*
X43504Y-37793D01*
X43643Y-37654D01*
X44311Y-38322D01*
X44172Y-38461D01*
X44172Y-38461D01*
G37*
G36*
X44394Y-38238D02*
X43726Y-37570D01*
X43865Y-37431D01*
X44534Y-38099D01*
X44394Y-38238D01*
X44394Y-38238D01*
G37*
G36*
X44617Y-38016D02*
X43949Y-37347D01*
X44088Y-37208D01*
X44756Y-37876D01*
X44617Y-38016D01*
X44617Y-38016D01*
G37*
G36*
X44088Y-36791D02*
X43949Y-36652D01*
X44617Y-35983D01*
X44756Y-36123D01*
X44088Y-36791D01*
X44088Y-36791D01*
G37*
G36*
X43865Y-36568D02*
X43726Y-36429D01*
X44394Y-35761D01*
X44534Y-35900D01*
X43865Y-36568D01*
X43865Y-36568D01*
G37*
G36*
X43643Y-36345D02*
X43504Y-36206D01*
X44172Y-35538D01*
X44311Y-35677D01*
X43643Y-36345D01*
X43643Y-36345D01*
G37*
G36*
X43420Y-36123D02*
X43281Y-35983D01*
X43949Y-35315D01*
X44088Y-35454D01*
X43420Y-36123D01*
X43420Y-36123D01*
G37*
G36*
X43197Y-35900D02*
X43058Y-35761D01*
X43726Y-35093D01*
X43865Y-35232D01*
X43197Y-35900D01*
X43197Y-35900D01*
G37*
G36*
X42975Y-35677D02*
X42835Y-35538D01*
X43504Y-34870D01*
X43643Y-35009D01*
X42975Y-35677D01*
X42975Y-35677D01*
G37*
G36*
X42752Y-35454D02*
X42613Y-35315D01*
X43281Y-34647D01*
X43420Y-34786D01*
X42752Y-35454D01*
X42752Y-35454D01*
G37*
G36*
X42529Y-35232D02*
X42390Y-35093D01*
X43058Y-34424D01*
X43197Y-34564D01*
X42529Y-35232D01*
X42529Y-35232D01*
G37*
G36*
X42306Y-35009D02*
X42167Y-34870D01*
X42835Y-34202D01*
X42975Y-34341D01*
X42306Y-35009D01*
X42306Y-35009D01*
G37*
G36*
X42084Y-34786D02*
X41945Y-34647D01*
X42613Y-33979D01*
X42752Y-34118D01*
X42084Y-34786D01*
X42084Y-34786D01*
G37*
G36*
X41861Y-34564D02*
X41722Y-34424D01*
X42390Y-33756D01*
X42529Y-33895D01*
X41861Y-34564D01*
X41861Y-34564D01*
G37*
G36*
X41638Y-34341D02*
X41499Y-34202D01*
X42167Y-33534D01*
X42306Y-33673D01*
X41638Y-34341D01*
X41638Y-34341D01*
G37*
G36*
X41416Y-34118D02*
X41276Y-33979D01*
X41945Y-33311D01*
X42084Y-33450D01*
X41416Y-34118D01*
X41416Y-34118D01*
G37*
G36*
X41193Y-33895D02*
X41054Y-33756D01*
X41722Y-33088D01*
X41861Y-33227D01*
X41193Y-33895D01*
X41193Y-33895D01*
G37*
G36*
X40970Y-33673D02*
X40831Y-33534D01*
X41499Y-32865D01*
X41638Y-33005D01*
X40970Y-33673D01*
X40970Y-33673D01*
G37*
G36*
X40747Y-33450D02*
X40608Y-33311D01*
X41276Y-32643D01*
X41416Y-32782D01*
X40747Y-33450D01*
X40747Y-33450D01*
G37*
G36*
X40052Y-33450D02*
X39383Y-32782D01*
X39523Y-32643D01*
X40191Y-33311D01*
X40052Y-33450D01*
X40052Y-33450D01*
G37*
G36*
X39829Y-33673D02*
X39161Y-33005D01*
X39300Y-32865D01*
X39968Y-33534D01*
X39829Y-33673D01*
X39829Y-33673D01*
G37*
G36*
X39606Y-33895D02*
X38938Y-33227D01*
X39077Y-33088D01*
X39745Y-33756D01*
X39606Y-33895D01*
X39606Y-33895D01*
G37*
G36*
X39383Y-34118D02*
X38715Y-33450D01*
X38854Y-33311D01*
X39523Y-33979D01*
X39383Y-34118D01*
X39383Y-34118D01*
G37*
G36*
X39161Y-34341D02*
X38493Y-33673D01*
X38632Y-33534D01*
X39300Y-34202D01*
X39161Y-34341D01*
X39161Y-34341D01*
G37*
G36*
X38938Y-34564D02*
X38270Y-33895D01*
X38409Y-33756D01*
X39077Y-34424D01*
X38938Y-34564D01*
X38938Y-34564D01*
G37*
G36*
X38715Y-34786D02*
X38047Y-34118D01*
X38186Y-33979D01*
X38854Y-34647D01*
X38715Y-34786D01*
X38715Y-34786D01*
G37*
G36*
X38493Y-35009D02*
X37824Y-34341D01*
X37964Y-34202D01*
X38632Y-34870D01*
X38493Y-35009D01*
X38493Y-35009D01*
G37*
G36*
X38270Y-35232D02*
X37602Y-34564D01*
X37741Y-34424D01*
X38409Y-35093D01*
X38270Y-35232D01*
X38270Y-35232D01*
G37*
G36*
X38047Y-35454D02*
X37379Y-34786D01*
X37518Y-34647D01*
X38186Y-35315D01*
X38047Y-35454D01*
X38047Y-35454D01*
G37*
G36*
X37824Y-35677D02*
X37156Y-35009D01*
X37295Y-34870D01*
X37964Y-35538D01*
X37824Y-35677D01*
X37824Y-35677D01*
G37*
G36*
X37602Y-35900D02*
X36934Y-35232D01*
X37073Y-35093D01*
X37741Y-35761D01*
X37602Y-35900D01*
X37602Y-35900D01*
G37*
G36*
X37379Y-36123D02*
X36711Y-35454D01*
X36850Y-35315D01*
X37518Y-35983D01*
X37379Y-36123D01*
X37379Y-36123D01*
G37*
G36*
X37156Y-36345D02*
X36488Y-35677D01*
X36627Y-35538D01*
X37295Y-36206D01*
X37156Y-36345D01*
X37156Y-36345D01*
G37*
G36*
X36934Y-36568D02*
X36265Y-35900D01*
X36405Y-35761D01*
X37073Y-36429D01*
X36934Y-36568D01*
X36934Y-36568D01*
G37*
G36*
X36711Y-36791D02*
X36043Y-36123D01*
X36182Y-35983D01*
X36850Y-36652D01*
X36711Y-36791D01*
X36711Y-36791D01*
G37*
G54D14*
X32677Y-22735D03*
X32677Y-23485D03*
X48425Y-23800D03*
X48425Y-23050D03*
X46200Y-13699D03*
X46200Y-14449D03*
X45400Y-15125D03*
X45400Y-15875D03*
X46200Y-15125D03*
X46200Y-15875D03*
G54D15*
X48325Y-16300D03*
X49075Y-16300D03*
G54D16*
X47486Y-14925D03*
X47486Y-15181D03*
X47486Y-15437D03*
X47486Y-15693D03*
X48313Y-15693D03*
X48313Y-15437D03*
X48313Y-15181D03*
X48313Y-14925D03*
G54D17*
X47900Y-15300D03*
G54D14*
X49200Y-14825D03*
X49200Y-15575D03*
G54D18*
X47165Y-26607D03*
X47165Y-26292D03*
X47165Y-25977D03*
X47165Y-25662D03*
X47165Y-25347D03*
X47165Y-25032D03*
X47165Y-24717D03*
X47165Y-24402D03*
X47165Y-24087D03*
X47165Y-23772D03*
X47165Y-23457D03*
X47165Y-23142D03*
X47165Y-22827D03*
X47165Y-22512D03*
X47165Y-22197D03*
X47165Y-21882D03*
X47165Y-21567D03*
X47165Y-21252D03*
X47165Y-20937D03*
X47165Y-20622D03*
X47165Y-20307D03*
X47165Y-19992D03*
X42834Y-19992D03*
X42834Y-20307D03*
X42834Y-20622D03*
X42834Y-20937D03*
X42834Y-21252D03*
X42834Y-21567D03*
X42834Y-21882D03*
X42834Y-22197D03*
X42834Y-22512D03*
X42834Y-22827D03*
X42834Y-23142D03*
X42834Y-23457D03*
X42834Y-23772D03*
X42834Y-24087D03*
X42834Y-24402D03*
X42834Y-24717D03*
X42834Y-25032D03*
X42834Y-25347D03*
X42834Y-25662D03*
X42834Y-25977D03*
X42834Y-26292D03*
X42834Y-26607D03*
X37965Y-26607D03*
X37965Y-26292D03*
X37965Y-25977D03*
X37965Y-25662D03*
X37965Y-25347D03*
X37965Y-25032D03*
X37965Y-24717D03*
X37965Y-24402D03*
X37965Y-24087D03*
X37965Y-23772D03*
X37965Y-23457D03*
X37965Y-23142D03*
X37965Y-22827D03*
X37965Y-22512D03*
X37965Y-22197D03*
X37965Y-21882D03*
X37965Y-21567D03*
X37965Y-21252D03*
X37965Y-20937D03*
X37965Y-20622D03*
X37965Y-20307D03*
X37965Y-19992D03*
X33634Y-19992D03*
X33634Y-20307D03*
X33634Y-20622D03*
X33634Y-20937D03*
X33634Y-21252D03*
X33634Y-21567D03*
X33634Y-21882D03*
X33634Y-22197D03*
X33634Y-22512D03*
X33634Y-22827D03*
X33634Y-23142D03*
X33634Y-23457D03*
X33634Y-23772D03*
X33634Y-24087D03*
X33634Y-24402D03*
X33634Y-24717D03*
X33634Y-25032D03*
X33634Y-25347D03*
X33634Y-25662D03*
X33634Y-25977D03*
X33634Y-26292D03*
X33634Y-26607D03*
G54D19*
X45984Y-22992D03*
X43818Y-22598D03*
X36850Y-23031D03*
X34566Y-23149D03*
X41929Y-35236D03*
X47000Y-15500D03*
X47800Y-16300D03*
X38070Y-37755D03*
G54D20*
X35511Y-35944D03*
X39212Y-39330D03*
X39527Y-39448D03*
X37519Y-37440D03*
X37637Y-37755D03*
X38779Y-38897D03*
X40118Y-40196D03*
X40000Y-39881D03*
X39645Y-39763D03*
X36220Y-36614D03*
X39094Y-39015D03*
X35708Y-36299D03*
X46653Y-25984D03*
X37440Y-25984D03*
X41141Y-39763D03*
X46653Y-20629D03*
X37440Y-20629D03*
X43385Y-37559D03*
X46141Y-31850D03*
X33031Y-20944D03*
X43543Y-37244D03*
X33110Y-21259D03*
X46417Y-31574D03*
X44566Y-37401D03*
X33031Y-21574D03*
X45866Y-31299D03*
X44645Y-36653D03*
X45590Y-31023D03*
X33110Y-21889D03*
X43661Y-36653D03*
X45314Y-30748D03*
X33031Y-22204D03*
X43346Y-36496D03*
X45000Y-29645D03*
X34251Y-24724D03*
X43228Y-36181D03*
X44724Y-29921D03*
X34173Y-25039D03*
X42874Y-36102D03*
X44448Y-30196D03*
X34251Y-25354D03*
X42755Y-35787D03*
X44173Y-30472D03*
X34173Y-25669D03*
X42440Y-35629D03*
X46574Y-25669D03*
X37362Y-25669D03*
X41259Y-39448D03*
X33110Y-20629D03*
X43897Y-32125D03*
X42322Y-35314D03*
X41850Y-34842D03*
X41535Y-34724D03*
X41417Y-34409D03*
X41574Y-39330D03*
X37440Y-25354D03*
X46653Y-25354D03*
X41968Y-38818D03*
X46574Y-25039D03*
X37362Y-25039D03*
X42086Y-38503D03*
X37440Y-24724D03*
X46653Y-24724D03*
X46653Y-21889D03*
X37440Y-21889D03*
X42440Y-38385D03*
X37362Y-21574D03*
X42598Y-38070D03*
X46574Y-21574D03*
X46653Y-21259D03*
X37440Y-21259D03*
X42952Y-37992D03*
X46574Y-20944D03*
X37362Y-20944D03*
X43070Y-37677D03*
X38070Y-38228D03*
X37637Y-36259D03*
X37952Y-36141D03*
X40511Y-32992D03*
X49015Y-24921D03*
X39763Y-28110D03*
X49370Y-24921D03*
X39763Y-28464D03*
X40039Y-32795D03*
X40551Y-33543D03*
X40590Y-33937D03*
X40944Y-33976D03*
X41102Y-34291D03*
X38070Y-35826D03*
X38385Y-35669D03*
X38543Y-35354D03*
X38976Y-34921D03*
X39291Y-34803D03*
X39409Y-34488D03*
X48307Y-24921D03*
X39763Y-27401D03*
X39763Y-34370D03*
X48661Y-24921D03*
X39763Y-27755D03*
X39881Y-34015D03*
X37204Y-37322D03*
X40708Y-40196D03*
X40748Y-41220D03*
X40039Y-41181D03*
X36181Y-37322D03*
X46574Y-24409D03*
X37362Y-24409D03*
X49645Y-23779D03*
X39960Y-22204D03*
X43543Y-24133D03*
X34173Y-24409D03*
G54D19*
X39350Y-35728D03*
X32480Y-29212D03*
X34566Y-41811D03*
X43346Y-42952D03*
X37165Y-42913D03*
X46417Y-23149D03*
X42125Y-23503D03*
X38661Y-23149D03*
X34566Y-23661D03*
X49045Y-18769D03*
X46200Y-16456D03*
X41259Y-36988D03*
X38543Y-38188D03*
G54D21*
X45984Y-22992D02*
X45984Y-23385D01*
X46141Y-23543D02*
X46456Y-23543D01*
X45984Y-23385D02*
X46141Y-23543D01*
X47165Y-23457D02*
X46542Y-23457D01*
X46542Y-23457D02*
X46456Y-23543D01*
X47165Y-23457D02*
X48082Y-23457D01*
X48082Y-23457D02*
X48425Y-23800D01*
X42834Y-23142D02*
X43274Y-23142D01*
X43274Y-23142D02*
X43818Y-22598D01*
X37965Y-23457D02*
X37276Y-23457D01*
X37276Y-23457D02*
X36850Y-23031D01*
X33634Y-23142D02*
X34559Y-23142D01*
X34559Y-23142D02*
X34566Y-23149D01*
X33634Y-23142D02*
X33084Y-23142D01*
X33084Y-23142D02*
X32677Y-22735D01*
X42559Y-34605D02*
X42571Y-34605D01*
X41929Y-35236D02*
X42559Y-34605D01*
X47486Y-15437D02*
X47062Y-15437D01*
X47062Y-15437D02*
X47000Y-15500D01*
X47800Y-16300D02*
X48325Y-16300D01*
X48313Y-15693D02*
X48313Y-16288D01*
X48313Y-16288D02*
X48325Y-16300D01*
X38070Y-37755D02*
X37337Y-38489D01*
X37337Y-38489D02*
X37337Y-38503D01*
G54D22*
X48400Y-36200D02*
X48366Y-36200D01*
X48366Y-36200D02*
X46929Y-37637D01*
X46929Y-37637D02*
X46929Y-41220D01*
X46929Y-41220D02*
X44448Y-43700D01*
X44448Y-43700D02*
X33858Y-43700D01*
X33858Y-43700D02*
X32359Y-45200D01*
X32359Y-45200D02*
X32400Y-45200D01*
G54D21*
X30885Y-44468D02*
X30885Y-20177D01*
X37952Y-13110D02*
X47834Y-13110D01*
X30885Y-20177D02*
X37952Y-13110D01*
X32400Y-45200D02*
X32207Y-45200D01*
X49200Y-14475D02*
X49200Y-14825D01*
X47834Y-13110D02*
X49200Y-14475D01*
X31122Y-44704D02*
X30885Y-44468D01*
X31712Y-44704D02*
X31122Y-44704D01*
X32207Y-45200D02*
X31712Y-44704D01*
X49200Y-14825D02*
X49200Y-14900D01*
X49200Y-14900D02*
X48918Y-15181D01*
X48918Y-15181D02*
X48313Y-15181D01*
G54D23*
X36417Y-35472D02*
X35984Y-35472D01*
X35984Y-35472D02*
X35511Y-35944D01*
X36892Y-35942D02*
X36887Y-35942D01*
X36887Y-35942D02*
X36417Y-35472D01*
X38673Y-39839D02*
X38703Y-39839D01*
X38703Y-39839D02*
X39212Y-39330D01*
X38896Y-40062D02*
X38914Y-40062D01*
X38914Y-40062D02*
X39527Y-39448D01*
X36892Y-38057D02*
X36902Y-38057D01*
X36902Y-38057D02*
X37519Y-37440D01*
X37115Y-38280D02*
X37115Y-38278D01*
X37115Y-38278D02*
X37637Y-37755D01*
X38228Y-39394D02*
X38283Y-39394D01*
X38283Y-39394D02*
X38779Y-38897D01*
X39564Y-40730D02*
X39584Y-40730D01*
X39584Y-40730D02*
X40118Y-40196D01*
X39342Y-40507D02*
X39374Y-40507D01*
X39374Y-40507D02*
X40000Y-39881D01*
X39119Y-40284D02*
X39124Y-40284D01*
X39124Y-40284D02*
X39645Y-39763D01*
X36446Y-36387D02*
X36446Y-36387D01*
X36446Y-36387D02*
X36220Y-36614D01*
X38451Y-39616D02*
X38493Y-39616D01*
X38493Y-39616D02*
X39094Y-39015D01*
X35787Y-36102D02*
X36141Y-35748D01*
X35787Y-36220D02*
X35787Y-36102D01*
X35708Y-36299D02*
X35787Y-36220D01*
X36669Y-36164D02*
X36669Y-36157D01*
X36259Y-35748D02*
X36141Y-35748D01*
X36669Y-36157D02*
X36259Y-35748D01*
X37165Y-26220D02*
X37165Y-33110D01*
X37165Y-33110D02*
X35236Y-35039D01*
X37965Y-25977D02*
X37408Y-25977D01*
X42086Y-40691D02*
X41680Y-40284D01*
X42086Y-40866D02*
X42086Y-40691D01*
X41377Y-41574D02*
X42086Y-40866D01*
X39370Y-41574D02*
X41377Y-41574D01*
X35236Y-37440D02*
X39370Y-41574D01*
X35236Y-35039D02*
X35236Y-37440D01*
X37408Y-25977D02*
X37165Y-26220D01*
X46660Y-25977D02*
X47165Y-25977D01*
X46653Y-25984D02*
X46660Y-25977D01*
X37448Y-25977D02*
X37440Y-25984D01*
X37965Y-25977D02*
X37448Y-25977D01*
X41680Y-40284D02*
X41662Y-40284D01*
X41662Y-40284D02*
X41141Y-39763D01*
X37440Y-20629D02*
X37283Y-20629D01*
X44330Y-38480D02*
X43907Y-38057D01*
X44330Y-40748D02*
X44330Y-38480D01*
X41732Y-43346D02*
X44330Y-40748D01*
X39015Y-43346D02*
X41732Y-43346D01*
X33464Y-37795D02*
X39015Y-43346D01*
X33464Y-34685D02*
X33464Y-37795D01*
X35393Y-32755D02*
X33464Y-34685D01*
X35393Y-22519D02*
X35393Y-32755D01*
X37283Y-20629D02*
X35393Y-22519D01*
X37965Y-20622D02*
X37448Y-20622D01*
X46660Y-20622D02*
X47165Y-20622D01*
X46653Y-20629D02*
X46660Y-20622D01*
X37448Y-20622D02*
X37440Y-20629D01*
X43907Y-38057D02*
X43884Y-38057D01*
X43884Y-38057D02*
X43385Y-37559D01*
X46141Y-31850D02*
X46141Y-35629D01*
X46141Y-35629D02*
X44763Y-37007D01*
X33634Y-20937D02*
X34810Y-20937D01*
X34810Y-20937D02*
X36811Y-18937D01*
X43543Y-37244D02*
X43779Y-37007D01*
X43779Y-37007D02*
X44763Y-37007D01*
X33634Y-20937D02*
X33038Y-20937D01*
X33038Y-20937D02*
X33031Y-20944D01*
X40701Y-20937D02*
X42834Y-20937D01*
X38700Y-18937D02*
X40701Y-20937D01*
X36811Y-18937D02*
X38700Y-18937D01*
X44130Y-37835D02*
X44130Y-37831D01*
X44130Y-37831D02*
X43543Y-37244D01*
X46417Y-31574D02*
X46417Y-35590D01*
X46417Y-35590D02*
X44606Y-37401D01*
X33634Y-21252D02*
X34731Y-21252D01*
X34731Y-21252D02*
X36850Y-19133D01*
X44566Y-37401D02*
X44606Y-37401D01*
X33077Y-21252D02*
X33110Y-21259D01*
X33634Y-21252D02*
X33077Y-21252D01*
X40780Y-21252D02*
X42834Y-21252D01*
X38661Y-19133D02*
X40780Y-21252D01*
X36850Y-19133D02*
X38661Y-19133D01*
X44353Y-37612D02*
X44356Y-37612D01*
X44356Y-37612D02*
X44566Y-37401D01*
X45866Y-31299D02*
X45866Y-34874D01*
X45866Y-34874D02*
X44353Y-36387D01*
X33634Y-21567D02*
X34652Y-21567D01*
X34652Y-21567D02*
X36889Y-19330D01*
X40859Y-21567D02*
X42834Y-21567D01*
X38622Y-19330D02*
X40859Y-21567D01*
X36889Y-19330D02*
X38622Y-19330D01*
X33196Y-21567D02*
X33031Y-21574D01*
X33634Y-21567D02*
X33196Y-21567D01*
X44353Y-36387D02*
X44379Y-36387D01*
X44379Y-36387D02*
X44645Y-36653D01*
X45590Y-31023D02*
X45590Y-34704D01*
X33117Y-21882D02*
X33110Y-21889D01*
X33634Y-21882D02*
X33117Y-21882D01*
X45590Y-34704D02*
X44130Y-36164D01*
X33634Y-21882D02*
X34574Y-21882D01*
X34574Y-21882D02*
X36937Y-19519D01*
X40937Y-21882D02*
X42834Y-21882D01*
X38574Y-19519D02*
X40937Y-21882D01*
X36937Y-19519D02*
X38574Y-19519D01*
X44130Y-36164D02*
X44130Y-36184D01*
X44130Y-36184D02*
X43661Y-36653D01*
X45314Y-30748D02*
X45314Y-34534D01*
X45314Y-34534D02*
X43907Y-35942D01*
X33634Y-22197D02*
X34495Y-22197D01*
X34495Y-22197D02*
X36965Y-19727D01*
X33038Y-22197D02*
X33031Y-22204D01*
X33634Y-22197D02*
X33038Y-22197D01*
X41016Y-22197D02*
X42834Y-22197D01*
X38546Y-19727D02*
X41016Y-22197D01*
X36965Y-19727D02*
X38546Y-19727D01*
X43907Y-35942D02*
X43900Y-35942D01*
X43900Y-35942D02*
X43346Y-36496D01*
X45000Y-34404D02*
X43684Y-35719D01*
X45000Y-34404D02*
X45000Y-29645D01*
X34244Y-24717D02*
X34251Y-24724D01*
X33634Y-24717D02*
X34244Y-24717D01*
X42834Y-24717D02*
X43904Y-24717D01*
X33142Y-24717D02*
X33634Y-24717D01*
X32244Y-23818D02*
X33142Y-24717D01*
X32244Y-20590D02*
X32244Y-23818D01*
X34291Y-18543D02*
X32244Y-20590D01*
X42165Y-18543D02*
X34291Y-18543D01*
X44133Y-20511D02*
X42165Y-18543D01*
X44133Y-24488D02*
X44133Y-20511D01*
X43904Y-24717D02*
X44133Y-24488D01*
X43684Y-35719D02*
X43684Y-35724D01*
X43684Y-35724D02*
X43228Y-36181D01*
X44724Y-34234D02*
X43462Y-35496D01*
X44724Y-29921D02*
X44724Y-34234D01*
X33634Y-25032D02*
X34166Y-25032D01*
X34166Y-25032D02*
X34173Y-25039D01*
X33634Y-25032D02*
X33142Y-25032D01*
X43825Y-25032D02*
X42834Y-25032D01*
X44330Y-24527D02*
X43825Y-25032D01*
X44330Y-20433D02*
X44330Y-24527D01*
X42244Y-18346D02*
X44330Y-20433D01*
X34251Y-18346D02*
X42244Y-18346D01*
X32047Y-20551D02*
X34251Y-18346D01*
X32047Y-23937D02*
X32047Y-20551D01*
X33142Y-25032D02*
X32047Y-23937D01*
X43462Y-35474D02*
X43462Y-35496D01*
X43462Y-35496D02*
X43462Y-35514D01*
X43462Y-35514D02*
X42874Y-36102D01*
X44448Y-34064D02*
X43239Y-35273D01*
X44448Y-30196D02*
X44448Y-34064D01*
X33634Y-25347D02*
X34244Y-25347D01*
X34244Y-25347D02*
X34251Y-25354D01*
X33634Y-25347D02*
X33142Y-25347D01*
X43747Y-25347D02*
X42834Y-25347D01*
X44527Y-24566D02*
X43747Y-25347D01*
X44527Y-20314D02*
X44527Y-24566D01*
X42362Y-18149D02*
X44527Y-20314D01*
X34212Y-18149D02*
X42362Y-18149D01*
X31850Y-20511D02*
X34212Y-18149D01*
X31850Y-24055D02*
X31850Y-20511D01*
X33142Y-25347D02*
X31850Y-24055D01*
X43239Y-35273D02*
X43239Y-35303D01*
X43239Y-35303D02*
X42755Y-35787D01*
X44173Y-33894D02*
X43016Y-35051D01*
X44173Y-30472D02*
X44173Y-33894D01*
X33634Y-25662D02*
X34166Y-25662D01*
X34166Y-25662D02*
X34173Y-25669D01*
X42834Y-25662D02*
X43668Y-25662D01*
X33142Y-25662D02*
X33634Y-25662D01*
X31653Y-24173D02*
X33142Y-25662D01*
X31653Y-20472D02*
X31653Y-24173D01*
X34173Y-17952D02*
X31653Y-20472D01*
X42471Y-17952D02*
X34173Y-17952D01*
X44724Y-20205D02*
X42471Y-17952D01*
X44724Y-24606D02*
X44724Y-20205D01*
X43668Y-25662D02*
X44724Y-24606D01*
X43016Y-35054D02*
X42440Y-35629D01*
X43016Y-35051D02*
X43016Y-35054D01*
X36968Y-26062D02*
X36968Y-33070D01*
X36968Y-33070D02*
X35039Y-35000D01*
X42362Y-40521D02*
X41903Y-40062D01*
X42362Y-40826D02*
X42362Y-40521D01*
X41417Y-41771D02*
X42362Y-40826D01*
X39330Y-41771D02*
X41417Y-41771D01*
X35039Y-37480D02*
X39330Y-41771D01*
X35039Y-35000D02*
X35039Y-37480D01*
X37362Y-25669D02*
X36968Y-26062D01*
X37965Y-25662D02*
X37369Y-25662D01*
X46581Y-25662D02*
X47165Y-25662D01*
X46574Y-25669D02*
X46581Y-25662D01*
X37369Y-25662D02*
X37362Y-25669D01*
X41873Y-40062D02*
X41259Y-39448D01*
X41903Y-40062D02*
X41873Y-40062D01*
X43897Y-32125D02*
X43897Y-33725D01*
X43897Y-33725D02*
X42794Y-34828D01*
X33634Y-20622D02*
X34888Y-20622D01*
X34888Y-20622D02*
X36771Y-18740D01*
X33634Y-20622D02*
X33117Y-20622D01*
X33117Y-20622D02*
X33110Y-20629D01*
X40622Y-20622D02*
X42834Y-20622D01*
X38740Y-18740D02*
X40622Y-20622D01*
X36771Y-18740D02*
X38740Y-18740D01*
X42794Y-34828D02*
X42794Y-34843D01*
X42794Y-34843D02*
X42322Y-35314D01*
X42794Y-34828D02*
X42809Y-34828D01*
X43543Y-26023D02*
X43779Y-25787D01*
X42348Y-34383D02*
X42349Y-34383D01*
X43543Y-33188D02*
X43543Y-26023D01*
X42349Y-34383D02*
X43543Y-33188D01*
X33634Y-25977D02*
X33142Y-25977D01*
X44921Y-24645D02*
X43779Y-25787D01*
X44921Y-20118D02*
X44921Y-24645D01*
X42559Y-17755D02*
X44921Y-20118D01*
X34133Y-17755D02*
X42559Y-17755D01*
X31456Y-20433D02*
X34133Y-17755D01*
X31456Y-24291D02*
X31456Y-20433D01*
X33142Y-25977D02*
X31456Y-24291D01*
X43779Y-25787D02*
X43589Y-25977D01*
X43589Y-25977D02*
X42834Y-25977D01*
X42348Y-34383D02*
X42309Y-34383D01*
X42309Y-34383D02*
X41850Y-34842D01*
X42126Y-34160D02*
X42099Y-34160D01*
X42099Y-34160D02*
X41535Y-34724D01*
X41903Y-33937D02*
X41889Y-33937D01*
X41889Y-33937D02*
X41417Y-34409D01*
X42083Y-39839D02*
X41574Y-39330D01*
X42083Y-39839D02*
X42126Y-39839D01*
X36771Y-25905D02*
X36771Y-33031D01*
X36771Y-33031D02*
X34842Y-34960D01*
X37440Y-25354D02*
X37322Y-25354D01*
X42559Y-40272D02*
X42126Y-39839D01*
X42559Y-40866D02*
X42559Y-40272D01*
X41456Y-41968D02*
X42559Y-40866D01*
X39291Y-41968D02*
X41456Y-41968D01*
X34842Y-37519D02*
X39291Y-41968D01*
X34842Y-34960D02*
X34842Y-37519D01*
X37322Y-25354D02*
X36771Y-25905D01*
X37965Y-25347D02*
X37448Y-25347D01*
X37448Y-25347D02*
X37440Y-25354D01*
X46660Y-25347D02*
X47165Y-25347D01*
X46653Y-25354D02*
X46660Y-25347D01*
X42571Y-39394D02*
X42543Y-39394D01*
X42543Y-39394D02*
X41968Y-38818D01*
X36574Y-25787D02*
X36574Y-32992D01*
X36574Y-32992D02*
X34645Y-34921D01*
X37362Y-25039D02*
X37322Y-25039D01*
X42992Y-39814D02*
X42571Y-39394D01*
X42992Y-40669D02*
X42992Y-39814D01*
X41496Y-42165D02*
X42992Y-40669D01*
X39251Y-42165D02*
X41496Y-42165D01*
X34645Y-37559D02*
X39251Y-42165D01*
X34645Y-34921D02*
X34645Y-37559D01*
X37322Y-25039D02*
X36574Y-25787D01*
X46581Y-25032D02*
X47165Y-25032D01*
X46574Y-25039D02*
X46581Y-25032D01*
X37369Y-25032D02*
X37362Y-25039D01*
X37965Y-25032D02*
X37369Y-25032D01*
X42794Y-39171D02*
X42754Y-39171D01*
X42754Y-39171D02*
X42086Y-38503D01*
X36377Y-25669D02*
X36377Y-32952D01*
X36377Y-32952D02*
X34448Y-34881D01*
X37965Y-24717D02*
X37329Y-24717D01*
X43228Y-39605D02*
X42794Y-39171D01*
X43228Y-40669D02*
X43228Y-39605D01*
X41535Y-42362D02*
X43228Y-40669D01*
X39212Y-42362D02*
X41535Y-42362D01*
X34448Y-37598D02*
X39212Y-42362D01*
X34448Y-34881D02*
X34448Y-37598D01*
X37329Y-24717D02*
X36377Y-25669D01*
X37965Y-24717D02*
X37448Y-24717D01*
X37448Y-24717D02*
X37440Y-24724D01*
X46660Y-24717D02*
X47165Y-24717D01*
X46653Y-24724D02*
X46660Y-24717D01*
X37440Y-21889D02*
X37086Y-21889D01*
X43464Y-39396D02*
X43016Y-38948D01*
X43464Y-40669D02*
X43464Y-39396D01*
X41574Y-42559D02*
X43464Y-40669D01*
X39173Y-42559D02*
X41574Y-42559D01*
X34251Y-37637D02*
X39173Y-42559D01*
X34251Y-34842D02*
X34251Y-37637D01*
X36181Y-32913D02*
X34251Y-34842D01*
X36181Y-22795D02*
X36181Y-32913D01*
X37086Y-21889D02*
X36181Y-22795D01*
X46660Y-21882D02*
X47165Y-21882D01*
X46653Y-21889D02*
X46660Y-21882D01*
X37965Y-21882D02*
X37448Y-21882D01*
X37448Y-21882D02*
X37440Y-21889D01*
X43016Y-38948D02*
X43003Y-38948D01*
X43003Y-38948D02*
X42440Y-38385D01*
X37362Y-21574D02*
X37125Y-21574D01*
X43700Y-39187D02*
X43239Y-38726D01*
X43700Y-40678D02*
X43700Y-39187D01*
X41623Y-42755D02*
X43700Y-40678D01*
X39133Y-42755D02*
X41623Y-42755D01*
X34055Y-37677D02*
X39133Y-42755D01*
X34055Y-34803D02*
X34055Y-37677D01*
X35984Y-32874D02*
X34055Y-34803D01*
X35984Y-22716D02*
X35984Y-32874D01*
X37125Y-21574D02*
X35984Y-22716D01*
X37965Y-21567D02*
X37369Y-21567D01*
X37369Y-21567D02*
X37362Y-21574D01*
X43239Y-38726D02*
X43239Y-38712D01*
X43239Y-38712D02*
X42598Y-38070D01*
X46581Y-21567D02*
X47165Y-21567D01*
X46574Y-21574D02*
X46581Y-21567D01*
X37440Y-21259D02*
X37165Y-21259D01*
X43897Y-38938D02*
X43462Y-38503D01*
X43897Y-40708D02*
X43897Y-38938D01*
X41653Y-42952D02*
X43897Y-40708D01*
X39094Y-42952D02*
X41653Y-42952D01*
X33858Y-37716D02*
X39094Y-42952D01*
X33858Y-34763D02*
X33858Y-37716D01*
X35787Y-32834D02*
X33858Y-34763D01*
X35787Y-22637D02*
X35787Y-32834D01*
X37165Y-21259D02*
X35787Y-22637D01*
X46660Y-21252D02*
X47165Y-21252D01*
X46653Y-21259D02*
X46660Y-21252D01*
X37965Y-21252D02*
X37448Y-21252D01*
X37448Y-21252D02*
X37440Y-21259D01*
X43462Y-38501D02*
X42952Y-37992D01*
X43462Y-38503D02*
X43462Y-38501D01*
X37362Y-20944D02*
X37244Y-20944D01*
X44094Y-38690D02*
X43684Y-38280D01*
X44094Y-40748D02*
X44094Y-38690D01*
X41692Y-43149D02*
X44094Y-40748D01*
X39055Y-43149D02*
X41692Y-43149D01*
X33661Y-37755D02*
X39055Y-43149D01*
X33661Y-34724D02*
X33661Y-37755D01*
X35587Y-32798D02*
X33661Y-34724D01*
X35587Y-24963D02*
X35587Y-32798D01*
X35590Y-24960D02*
X35587Y-24963D01*
X35590Y-22598D02*
X35590Y-24960D01*
X37244Y-20944D02*
X35590Y-22598D01*
X37965Y-20937D02*
X37369Y-20937D01*
X46581Y-20937D02*
X47165Y-20937D01*
X46574Y-20944D02*
X46581Y-20937D01*
X37369Y-20937D02*
X37362Y-20944D01*
X43684Y-38280D02*
X43674Y-38280D01*
X43674Y-38280D02*
X43070Y-37677D01*
X37560Y-38726D02*
X37573Y-38726D01*
X37573Y-38726D02*
X38070Y-38228D01*
X37362Y-33149D02*
X37362Y-28018D01*
X37362Y-28018D02*
X38622Y-26759D01*
X37965Y-24087D02*
X38457Y-24087D01*
X38457Y-24087D02*
X38622Y-24251D01*
X38622Y-24251D02*
X38622Y-26759D01*
X36771Y-35376D02*
X37115Y-35719D01*
X36771Y-33740D02*
X36771Y-35376D01*
X37362Y-33149D02*
X36771Y-33740D01*
X37115Y-35719D02*
X37115Y-35737D01*
X37115Y-35737D02*
X37637Y-36259D01*
X37559Y-33188D02*
X37559Y-28070D01*
X37559Y-28070D02*
X38818Y-26811D01*
X37965Y-23772D02*
X38418Y-23772D01*
X38418Y-23772D02*
X38818Y-24173D01*
X38818Y-24173D02*
X38818Y-26811D01*
X36968Y-35127D02*
X37337Y-35496D01*
X36968Y-33779D02*
X36968Y-35127D01*
X37559Y-33188D02*
X36968Y-33779D01*
X37337Y-35496D02*
X37337Y-35526D01*
X37337Y-35526D02*
X37952Y-36141D01*
X39564Y-33269D02*
X39568Y-33269D01*
X39568Y-33269D02*
X39881Y-33582D01*
X40511Y-33188D02*
X40511Y-32992D01*
X40118Y-33582D02*
X40511Y-33188D01*
X39881Y-33582D02*
X40118Y-33582D01*
X47165Y-22827D02*
X47881Y-22827D01*
X47881Y-22827D02*
X48031Y-22677D01*
X48031Y-22677D02*
X48740Y-22677D01*
X49015Y-22952D02*
X49015Y-24921D01*
X48740Y-22677D02*
X49015Y-22952D01*
X39763Y-28110D02*
X39330Y-28110D01*
X38818Y-32523D02*
X39564Y-33269D01*
X38818Y-28622D02*
X38818Y-32523D01*
X39330Y-28110D02*
X38818Y-28622D01*
X47165Y-22512D02*
X48811Y-22512D01*
X48811Y-22512D02*
X49370Y-23070D01*
X49370Y-23070D02*
X49370Y-24921D01*
X39215Y-28464D02*
X39015Y-28664D01*
X39015Y-28664D02*
X39015Y-32275D01*
X39015Y-32275D02*
X39787Y-33046D01*
X39763Y-28464D02*
X39215Y-28464D01*
X39787Y-33046D02*
X40039Y-32795D01*
X39787Y-33046D02*
X39787Y-33046D01*
X42834Y-22512D02*
X42369Y-22512D01*
X42369Y-22512D02*
X41574Y-23307D01*
X41574Y-32484D02*
X41012Y-33046D01*
X41574Y-23307D02*
X41574Y-32484D01*
X41062Y-32996D02*
X41012Y-33046D01*
X41012Y-33046D02*
X41012Y-33082D01*
X41012Y-33082D02*
X40551Y-33543D01*
X42834Y-22827D02*
X42290Y-22827D01*
X42290Y-22827D02*
X41771Y-23346D01*
X41771Y-32733D02*
X41235Y-33269D01*
X41771Y-23346D02*
X41771Y-32733D01*
X49400Y-34200D02*
X49318Y-34200D01*
X41235Y-33269D02*
X41235Y-33292D01*
X41235Y-33292D02*
X40590Y-33937D01*
X42834Y-23772D02*
X42290Y-23772D01*
X41968Y-32981D02*
X41457Y-33492D01*
X41968Y-24094D02*
X41968Y-32981D01*
X42290Y-23772D02*
X41968Y-24094D01*
X41457Y-33492D02*
X41428Y-33492D01*
X41428Y-33492D02*
X40944Y-33976D01*
X42834Y-24087D02*
X42290Y-24087D01*
X42165Y-33230D02*
X41680Y-33715D01*
X42165Y-24212D02*
X42165Y-33230D01*
X42290Y-24087D02*
X42165Y-24212D01*
X41680Y-33715D02*
X41678Y-33715D01*
X41678Y-33715D02*
X41102Y-34291D01*
X37755Y-33228D02*
X37755Y-28110D01*
X37755Y-28110D02*
X39015Y-26850D01*
X37965Y-22827D02*
X38772Y-22827D01*
X38772Y-22827D02*
X39015Y-23070D01*
X39015Y-23070D02*
X39015Y-26850D01*
X37165Y-34878D02*
X37560Y-35273D01*
X37165Y-33818D02*
X37165Y-34878D01*
X37755Y-33228D02*
X37165Y-33818D01*
X37560Y-35273D02*
X37560Y-35316D01*
X37560Y-35316D02*
X38070Y-35826D01*
X37952Y-33267D02*
X37952Y-28149D01*
X37952Y-28149D02*
X39212Y-26889D01*
X37965Y-22512D02*
X38693Y-22512D01*
X38693Y-22512D02*
X39212Y-23031D01*
X39212Y-23031D02*
X39212Y-26889D01*
X37362Y-34630D02*
X37783Y-35051D01*
X37362Y-33858D02*
X37362Y-34630D01*
X37952Y-33267D02*
X37362Y-33858D01*
X37783Y-35051D02*
X37783Y-35066D01*
X37783Y-35066D02*
X38385Y-35669D01*
X33634Y-22512D02*
X34599Y-22512D01*
X33059Y-33200D02*
X32400Y-33200D01*
X35196Y-31062D02*
X33059Y-33200D01*
X35196Y-23110D02*
X35196Y-31062D01*
X34599Y-22512D02*
X35196Y-23110D01*
X38005Y-34828D02*
X38017Y-34828D01*
X38017Y-34828D02*
X38543Y-35354D01*
X31400Y-33200D02*
X31406Y-33200D01*
X34677Y-22827D02*
X33634Y-22827D01*
X35000Y-23149D02*
X34677Y-22827D01*
X35000Y-31023D02*
X35000Y-23149D01*
X33346Y-32677D02*
X35000Y-31023D01*
X31929Y-32677D02*
X33346Y-32677D01*
X31406Y-33200D02*
X31929Y-32677D01*
X33280Y-22827D02*
X33772Y-22827D01*
X38451Y-34383D02*
X38451Y-34396D01*
X38451Y-34396D02*
X38976Y-34921D01*
X33634Y-23772D02*
X34205Y-23772D01*
X33587Y-32200D02*
X32400Y-32200D01*
X34803Y-30984D02*
X33587Y-32200D01*
X34803Y-24370D02*
X34803Y-30984D01*
X34205Y-23772D02*
X34803Y-24370D01*
X38673Y-34160D02*
X38673Y-34185D01*
X38673Y-34185D02*
X39291Y-34803D01*
X33634Y-24087D02*
X34284Y-24087D01*
X31907Y-31692D02*
X31400Y-32200D01*
X33858Y-31692D02*
X31907Y-31692D01*
X34606Y-30944D02*
X33858Y-31692D01*
X34606Y-24409D02*
X34606Y-30944D01*
X34284Y-24087D02*
X34606Y-24409D01*
X38896Y-33937D02*
X38896Y-33975D01*
X38896Y-33975D02*
X39409Y-34488D01*
X39763Y-27401D02*
X39566Y-27401D01*
X47709Y-24087D02*
X48307Y-24685D01*
X48307Y-24685D02*
X48307Y-24921D01*
X47165Y-24087D02*
X47709Y-24087D01*
X38425Y-33020D02*
X39119Y-33715D01*
X38425Y-28543D02*
X38425Y-33020D01*
X39566Y-27401D02*
X38425Y-28543D01*
X39119Y-33715D02*
X39119Y-33646D01*
X39119Y-33715D02*
X39119Y-33725D01*
X39119Y-33725D02*
X39763Y-34370D01*
X39763Y-27755D02*
X39448Y-27755D01*
X38622Y-32772D02*
X39342Y-33492D01*
X38622Y-28582D02*
X38622Y-32772D01*
X39448Y-27755D02*
X38622Y-28582D01*
X47630Y-23772D02*
X48661Y-24803D01*
X48661Y-24803D02*
X48661Y-24921D01*
X47165Y-23772D02*
X47630Y-23772D01*
X39342Y-33492D02*
X39358Y-33492D01*
X39358Y-33492D02*
X39881Y-34015D01*
X36669Y-37835D02*
X36692Y-37835D01*
X36692Y-37835D02*
X37204Y-37322D01*
X41235Y-40730D02*
X41235Y-40723D01*
X41235Y-40723D02*
X40708Y-40196D01*
X41012Y-40953D02*
X41012Y-40956D01*
X41012Y-40956D02*
X40748Y-41220D01*
X39787Y-40953D02*
X39811Y-40953D01*
X39811Y-40953D02*
X40039Y-41181D01*
X36446Y-37612D02*
X36446Y-37588D01*
X36446Y-37588D02*
X36181Y-37322D01*
X49400Y-32200D02*
X49400Y-32155D01*
X49400Y-32155D02*
X48897Y-31653D01*
X47670Y-24402D02*
X47165Y-24402D01*
X47913Y-24645D02*
X47670Y-24402D01*
X47913Y-25314D02*
X47913Y-24645D01*
X48897Y-26299D02*
X47913Y-25314D01*
X48897Y-31653D02*
X48897Y-26299D01*
X47165Y-24402D02*
X46581Y-24402D01*
X46581Y-24402D02*
X46574Y-24409D01*
X37369Y-24402D02*
X37965Y-24402D01*
X37362Y-24409D02*
X37369Y-24402D01*
X49400Y-31200D02*
X49400Y-25285D01*
X49645Y-25039D02*
X49645Y-23779D01*
X49400Y-25285D02*
X49645Y-25039D01*
X39953Y-22197D02*
X39960Y-22204D01*
X37965Y-22197D02*
X39953Y-22197D01*
X42834Y-24402D02*
X43274Y-24402D01*
X43274Y-24402D02*
X43543Y-24133D01*
X33634Y-24402D02*
X34166Y-24402D01*
X34166Y-24402D02*
X34173Y-24409D01*
X45629Y-22716D02*
X45629Y-28429D01*
X45629Y-28429D02*
X48400Y-31200D01*
X46148Y-22197D02*
X47165Y-22197D01*
X45629Y-22716D02*
X46148Y-22197D01*
G54D21*
X49045Y-18769D02*
X46564Y-18769D01*
X45275Y-17480D02*
X46564Y-18769D01*
X34015Y-17480D02*
X45275Y-17480D01*
X31141Y-20354D02*
X34015Y-17480D01*
X31141Y-27874D02*
X31141Y-20354D01*
X32480Y-29212D02*
X31141Y-27874D01*
X34566Y-41811D02*
X36062Y-41811D01*
X48869Y-35669D02*
X49400Y-36200D01*
X47598Y-35669D02*
X48869Y-35669D01*
X45511Y-37755D02*
X47598Y-35669D01*
X45511Y-40787D02*
X45511Y-37755D01*
X43346Y-42952D02*
X45511Y-40787D01*
X36062Y-41811D02*
X37165Y-42913D01*
X47165Y-23142D02*
X46424Y-23142D01*
X46424Y-23142D02*
X46417Y-23149D01*
X47165Y-23142D02*
X48332Y-23142D01*
X48332Y-23142D02*
X48425Y-23050D01*
X42834Y-23457D02*
X42172Y-23457D01*
X42172Y-23457D02*
X42125Y-23503D01*
X37965Y-23142D02*
X38654Y-23142D01*
X38654Y-23142D02*
X38661Y-23149D01*
X34362Y-23457D02*
X33634Y-23457D01*
X34566Y-23661D02*
X34362Y-23457D01*
X33634Y-23457D02*
X32704Y-23457D01*
X32704Y-23457D02*
X32677Y-23485D01*
X31400Y-45200D02*
X31400Y-45218D01*
X48891Y-45708D02*
X49400Y-45200D01*
X48070Y-45708D02*
X48891Y-45708D01*
X46417Y-44055D02*
X48070Y-45708D01*
X34991Y-44055D02*
X46417Y-44055D01*
X33338Y-45708D02*
X34991Y-44055D01*
X31889Y-45708D02*
X33338Y-45708D01*
X31400Y-45218D02*
X31889Y-45708D01*
X42866Y-23425D02*
X42834Y-23457D01*
G54D22*
X49075Y-16300D02*
X49075Y-18739D01*
X49075Y-18739D02*
X49045Y-18769D01*
X46200Y-15875D02*
X46200Y-16455D01*
X46200Y-16455D02*
X46200Y-16456D01*
X49200Y-15575D02*
X49200Y-16175D01*
X49200Y-16175D02*
X49075Y-16300D01*
X45400Y-15875D02*
X46200Y-15875D01*
G54D21*
X39360Y-37391D02*
X39350Y-37381D01*
X40856Y-37391D02*
X39360Y-37391D01*
X41259Y-36988D02*
X40856Y-37391D01*
X38228Y-34605D02*
X38228Y-34606D01*
X38228Y-34606D02*
X39350Y-35728D01*
X39350Y-37381D02*
X38543Y-38188D01*
X39350Y-35728D02*
X39350Y-37381D01*
X38543Y-38188D02*
X40920Y-38188D01*
X40920Y-38188D02*
X42348Y-39616D01*
X37783Y-38948D02*
X37783Y-38948D01*
X37783Y-38948D02*
X38543Y-38188D01*
X47486Y-15693D02*
X47406Y-15693D01*
X47406Y-15693D02*
X47225Y-15875D01*
X47225Y-15875D02*
X46200Y-15875D01*
X48313Y-15437D02*
X49062Y-15437D01*
X49062Y-15437D02*
X49200Y-15575D01*
G54D24*
X47900Y-15300D02*
X47900Y-15500D01*
X47900Y-15500D02*
X47706Y-15693D01*
X47706Y-15693D02*
X47486Y-15693D01*
X46200Y-13699D02*
X47144Y-13699D01*
X48313Y-14868D02*
X48313Y-14925D01*
X47144Y-13699D02*
X48313Y-14868D01*
G54D22*
X46200Y-14449D02*
X46200Y-15124D01*
X46200Y-15124D02*
X46200Y-15125D01*
X45400Y-15125D02*
X46200Y-15125D01*
G54D21*
X47486Y-15181D02*
X47181Y-15181D01*
X47125Y-15125D02*
X45400Y-15125D01*
X47181Y-15181D02*
X47125Y-15125D01*
G54D10*
G36*
X32169Y-36699D02*
X32088Y-36733D01*
X31934Y-36888D01*
X31900Y-36969D01*
X31866Y-36888D01*
X31711Y-36734D01*
X31636Y-36702D01*
X31687Y-36681D01*
X31715Y-36585D01*
X31400Y-36270D01*
X31394Y-36276D01*
X31323Y-36205D01*
X31329Y-36200D01*
X31323Y-36194D01*
X31394Y-36123D01*
X31400Y-36129D01*
X31715Y-35814D01*
X31687Y-35718D01*
X31632Y-35699D01*
X31711Y-35666D01*
X31865Y-35511D01*
X31899Y-35430D01*
X31933Y-35511D01*
X32088Y-35665D01*
X32169Y-35699D01*
X32088Y-35733D01*
X31934Y-35888D01*
X31902Y-35963D01*
X31881Y-35912D01*
X31785Y-35884D01*
X31470Y-36200D01*
X31785Y-36515D01*
X31881Y-36487D01*
X31900Y-36432D01*
X31933Y-36511D01*
X32088Y-36665D01*
X32169Y-36699D01*
X32169Y-36699D01*
G37*
G54D24*
X32169Y-36699D02*
X32088Y-36733D01*
X31934Y-36888D01*
X31900Y-36969D01*
X31866Y-36888D01*
X31711Y-36734D01*
X31636Y-36702D01*
X31687Y-36681D01*
X31715Y-36585D01*
X31400Y-36270D01*
X31394Y-36276D01*
X31323Y-36205D01*
X31329Y-36200D01*
X31323Y-36194D01*
X31394Y-36123D01*
X31400Y-36129D01*
X31715Y-35814D01*
X31687Y-35718D01*
X31632Y-35699D01*
X31711Y-35666D01*
X31865Y-35511D01*
X31899Y-35430D01*
X31933Y-35511D01*
X32088Y-35665D01*
X32169Y-35699D01*
X32088Y-35733D01*
X31934Y-35888D01*
X31902Y-35963D01*
X31881Y-35912D01*
X31785Y-35884D01*
X31470Y-36200D01*
X31785Y-36515D01*
X31881Y-36487D01*
X31900Y-36432D01*
X31933Y-36511D01*
X32088Y-36665D01*
X32169Y-36699D01*
G54D10*
G36*
X32169Y-45699D02*
X32088Y-45733D01*
X31934Y-45888D01*
X31900Y-45969D01*
X31866Y-45888D01*
X31711Y-45734D01*
X31636Y-45702D01*
X31687Y-45681D01*
X31715Y-45585D01*
X31400Y-45270D01*
X31084Y-45585D01*
X31112Y-45681D01*
X31167Y-45700D01*
X31088Y-45733D01*
X30934Y-45888D01*
X30869Y-46042D01*
X30869Y-45369D01*
X30918Y-45487D01*
X31014Y-45515D01*
X31329Y-45200D01*
X31323Y-45194D01*
X31394Y-45123D01*
X31400Y-45129D01*
X31405Y-45123D01*
X31476Y-45194D01*
X31470Y-45200D01*
X31785Y-45515D01*
X31881Y-45487D01*
X31900Y-45432D01*
X31933Y-45511D01*
X32088Y-45665D01*
X32169Y-45699D01*
X32169Y-45699D01*
G37*
G54D24*
X32169Y-45699D02*
X32088Y-45733D01*
X31934Y-45888D01*
X31900Y-45969D01*
X31866Y-45888D01*
X31711Y-45734D01*
X31636Y-45702D01*
X31687Y-45681D01*
X31715Y-45585D01*
X31400Y-45270D01*
X31084Y-45585D01*
X31112Y-45681D01*
X31167Y-45700D01*
X31088Y-45733D01*
X30934Y-45888D01*
X30869Y-46042D01*
X30869Y-45369D01*
X30918Y-45487D01*
X31014Y-45515D01*
X31329Y-45200D01*
X31323Y-45194D01*
X31394Y-45123D01*
X31400Y-45129D01*
X31405Y-45123D01*
X31476Y-45194D01*
X31470Y-45200D01*
X31785Y-45515D01*
X31881Y-45487D01*
X31900Y-45432D01*
X31933Y-45511D01*
X32088Y-45665D01*
X32169Y-45699D01*
G54D10*
G36*
X32735Y-23535D02*
X32727Y-23535D01*
X32727Y-23543D01*
X32627Y-23543D01*
X32627Y-23535D01*
X32619Y-23535D01*
X32619Y-23435D01*
X32627Y-23435D01*
X32627Y-23427D01*
X32727Y-23427D01*
X32727Y-23435D01*
X32735Y-23435D01*
X32735Y-23535D01*
X32735Y-23535D01*
G37*
G54D24*
X32735Y-23535D02*
X32727Y-23535D01*
X32727Y-23543D01*
X32627Y-23543D01*
X32627Y-23535D01*
X32619Y-23535D01*
X32619Y-23435D01*
X32627Y-23435D01*
X32627Y-23427D01*
X32727Y-23427D01*
X32727Y-23435D01*
X32735Y-23435D01*
X32735Y-23535D01*
G54D10*
G36*
X34316Y-30824D02*
X33738Y-31402D01*
X32911Y-31402D01*
X32949Y-31309D01*
X32950Y-31091D01*
X32866Y-30888D01*
X32711Y-30734D01*
X32509Y-30650D01*
X32291Y-30649D01*
X32088Y-30733D01*
X31934Y-30888D01*
X31900Y-30969D01*
X31866Y-30888D01*
X31711Y-30734D01*
X31509Y-30650D01*
X31291Y-30649D01*
X31204Y-30685D01*
X31204Y-24426D01*
X31251Y-24496D01*
X32937Y-26182D01*
X32937Y-26182D01*
X32990Y-26218D01*
X32990Y-26243D01*
X32990Y-26440D01*
X32994Y-26449D01*
X32990Y-26458D01*
X32990Y-26558D01*
X32990Y-26755D01*
X33028Y-26846D01*
X33099Y-26917D01*
X33190Y-26955D01*
X33290Y-26955D01*
X34077Y-26955D01*
X34169Y-26917D01*
X34240Y-26847D01*
X34278Y-26755D01*
X34278Y-26656D01*
X34278Y-26459D01*
X34274Y-26449D01*
X34278Y-26440D01*
X34278Y-26341D01*
X34278Y-26144D01*
X34274Y-26134D01*
X34278Y-26125D01*
X34278Y-26026D01*
X34316Y-26010D01*
X34316Y-30824D01*
X34316Y-30824D01*
G37*
G54D24*
X34316Y-30824D02*
X33738Y-31402D01*
X32911Y-31402D01*
X32949Y-31309D01*
X32950Y-31091D01*
X32866Y-30888D01*
X32711Y-30734D01*
X32509Y-30650D01*
X32291Y-30649D01*
X32088Y-30733D01*
X31934Y-30888D01*
X31900Y-30969D01*
X31866Y-30888D01*
X31711Y-30734D01*
X31509Y-30650D01*
X31291Y-30649D01*
X31204Y-30685D01*
X31204Y-24426D01*
X31251Y-24496D01*
X32937Y-26182D01*
X32937Y-26182D01*
X32990Y-26218D01*
X32990Y-26243D01*
X32990Y-26440D01*
X32994Y-26449D01*
X32990Y-26458D01*
X32990Y-26558D01*
X32990Y-26755D01*
X33028Y-26846D01*
X33099Y-26917D01*
X33190Y-26955D01*
X33290Y-26955D01*
X34077Y-26955D01*
X34169Y-26917D01*
X34240Y-26847D01*
X34278Y-26755D01*
X34278Y-26656D01*
X34278Y-26459D01*
X34274Y-26449D01*
X34278Y-26440D01*
X34278Y-26341D01*
X34278Y-26144D01*
X34274Y-26134D01*
X34278Y-26125D01*
X34278Y-26026D01*
X34316Y-26010D01*
X34316Y-30824D01*
G54D10*
G36*
X34709Y-23866D02*
X34410Y-23567D01*
X34316Y-23504D01*
X34278Y-23496D01*
X34278Y-23462D01*
X34325Y-23509D01*
X34482Y-23574D01*
X34651Y-23574D01*
X34709Y-23550D01*
X34709Y-23866D01*
X34709Y-23866D01*
G37*
G54D24*
X34709Y-23866D02*
X34410Y-23567D01*
X34316Y-23504D01*
X34278Y-23496D01*
X34278Y-23462D01*
X34325Y-23509D01*
X34482Y-23574D01*
X34651Y-23574D01*
X34709Y-23550D01*
X34709Y-23866D01*
G54D10*
G36*
X35040Y-44147D02*
X35030Y-44200D01*
X35030Y-50730D01*
X32797Y-50730D01*
X32841Y-50712D01*
X32911Y-50641D01*
X32949Y-50549D01*
X32950Y-50450D01*
X32950Y-49850D01*
X32912Y-49758D01*
X32841Y-49688D01*
X32749Y-49650D01*
X32727Y-49650D01*
X32865Y-49511D01*
X32949Y-49309D01*
X32950Y-49091D01*
X32866Y-48888D01*
X32711Y-48734D01*
X32630Y-48700D01*
X32711Y-48666D01*
X32865Y-48511D01*
X32949Y-48309D01*
X32950Y-48091D01*
X32866Y-47888D01*
X32711Y-47734D01*
X32630Y-47700D01*
X32711Y-47666D01*
X32865Y-47511D01*
X32949Y-47309D01*
X32950Y-47091D01*
X32866Y-46888D01*
X32711Y-46734D01*
X32630Y-46700D01*
X32711Y-46666D01*
X32865Y-46511D01*
X32949Y-46309D01*
X32950Y-46091D01*
X32866Y-45888D01*
X32711Y-45734D01*
X32630Y-45700D01*
X32711Y-45666D01*
X32865Y-45511D01*
X32949Y-45309D01*
X32949Y-45241D01*
X34043Y-44147D01*
X35040Y-44147D01*
X35040Y-44147D01*
G37*
G54D24*
X35040Y-44147D02*
X35030Y-44200D01*
X35030Y-50730D01*
X32797Y-50730D01*
X32841Y-50712D01*
X32911Y-50641D01*
X32949Y-50549D01*
X32950Y-50450D01*
X32950Y-49850D01*
X32912Y-49758D01*
X32841Y-49688D01*
X32749Y-49650D01*
X32727Y-49650D01*
X32865Y-49511D01*
X32949Y-49309D01*
X32950Y-49091D01*
X32866Y-48888D01*
X32711Y-48734D01*
X32630Y-48700D01*
X32711Y-48666D01*
X32865Y-48511D01*
X32949Y-48309D01*
X32950Y-48091D01*
X32866Y-47888D01*
X32711Y-47734D01*
X32630Y-47700D01*
X32711Y-47666D01*
X32865Y-47511D01*
X32949Y-47309D01*
X32950Y-47091D01*
X32866Y-46888D01*
X32711Y-46734D01*
X32630Y-46700D01*
X32711Y-46666D01*
X32865Y-46511D01*
X32949Y-46309D01*
X32950Y-46091D01*
X32866Y-45888D01*
X32711Y-45734D01*
X32630Y-45700D01*
X32711Y-45666D01*
X32865Y-45511D01*
X32949Y-45309D01*
X32949Y-45241D01*
X34043Y-44147D01*
X35040Y-44147D01*
G54D10*
G36*
X38512Y-43253D02*
X33858Y-43253D01*
X33687Y-43287D01*
X33542Y-43384D01*
X32916Y-44010D01*
X32866Y-43888D01*
X32711Y-43734D01*
X32630Y-43700D01*
X32711Y-43666D01*
X32865Y-43511D01*
X32949Y-43309D01*
X32950Y-43091D01*
X32866Y-42888D01*
X32711Y-42734D01*
X32630Y-42700D01*
X32711Y-42666D01*
X32865Y-42511D01*
X32949Y-42309D01*
X32950Y-42091D01*
X32866Y-41888D01*
X32711Y-41734D01*
X32630Y-41700D01*
X32711Y-41666D01*
X32865Y-41511D01*
X32949Y-41309D01*
X32950Y-41091D01*
X32866Y-40888D01*
X32711Y-40734D01*
X32630Y-40700D01*
X32711Y-40666D01*
X32865Y-40511D01*
X32949Y-40309D01*
X32950Y-40091D01*
X32866Y-39888D01*
X32711Y-39734D01*
X32630Y-39700D01*
X32711Y-39666D01*
X32865Y-39511D01*
X32949Y-39309D01*
X32950Y-39091D01*
X32866Y-38888D01*
X32711Y-38734D01*
X32630Y-38700D01*
X32711Y-38666D01*
X32865Y-38511D01*
X32949Y-38309D01*
X32950Y-38091D01*
X32866Y-37888D01*
X32711Y-37734D01*
X32630Y-37700D01*
X32711Y-37666D01*
X32865Y-37511D01*
X32949Y-37309D01*
X32950Y-37091D01*
X32866Y-36888D01*
X32711Y-36734D01*
X32630Y-36700D01*
X32711Y-36666D01*
X32865Y-36511D01*
X32949Y-36309D01*
X32950Y-36091D01*
X32866Y-35888D01*
X32711Y-35734D01*
X32630Y-35700D01*
X32711Y-35666D01*
X32865Y-35511D01*
X32949Y-35309D01*
X32950Y-35091D01*
X32866Y-34888D01*
X32711Y-34734D01*
X32630Y-34700D01*
X32711Y-34666D01*
X32865Y-34511D01*
X32949Y-34309D01*
X32950Y-34091D01*
X32866Y-33888D01*
X32711Y-33734D01*
X32630Y-33700D01*
X32711Y-33666D01*
X32865Y-33511D01*
X32875Y-33490D01*
X33059Y-33490D01*
X33170Y-33468D01*
X33170Y-33468D01*
X33265Y-33405D01*
X35103Y-31566D01*
X35103Y-32635D01*
X33259Y-34479D01*
X33196Y-34574D01*
X33174Y-34685D01*
X33174Y-37795D01*
X33196Y-37906D01*
X33259Y-38000D01*
X38512Y-43253D01*
X38512Y-43253D01*
G37*
G54D24*
X38512Y-43253D02*
X33858Y-43253D01*
X33687Y-43287D01*
X33542Y-43384D01*
X32916Y-44010D01*
X32866Y-43888D01*
X32711Y-43734D01*
X32630Y-43700D01*
X32711Y-43666D01*
X32865Y-43511D01*
X32949Y-43309D01*
X32950Y-43091D01*
X32866Y-42888D01*
X32711Y-42734D01*
X32630Y-42700D01*
X32711Y-42666D01*
X32865Y-42511D01*
X32949Y-42309D01*
X32950Y-42091D01*
X32866Y-41888D01*
X32711Y-41734D01*
X32630Y-41700D01*
X32711Y-41666D01*
X32865Y-41511D01*
X32949Y-41309D01*
X32950Y-41091D01*
X32866Y-40888D01*
X32711Y-40734D01*
X32630Y-40700D01*
X32711Y-40666D01*
X32865Y-40511D01*
X32949Y-40309D01*
X32950Y-40091D01*
X32866Y-39888D01*
X32711Y-39734D01*
X32630Y-39700D01*
X32711Y-39666D01*
X32865Y-39511D01*
X32949Y-39309D01*
X32950Y-39091D01*
X32866Y-38888D01*
X32711Y-38734D01*
X32630Y-38700D01*
X32711Y-38666D01*
X32865Y-38511D01*
X32949Y-38309D01*
X32950Y-38091D01*
X32866Y-37888D01*
X32711Y-37734D01*
X32630Y-37700D01*
X32711Y-37666D01*
X32865Y-37511D01*
X32949Y-37309D01*
X32950Y-37091D01*
X32866Y-36888D01*
X32711Y-36734D01*
X32630Y-36700D01*
X32711Y-36666D01*
X32865Y-36511D01*
X32949Y-36309D01*
X32950Y-36091D01*
X32866Y-35888D01*
X32711Y-35734D01*
X32630Y-35700D01*
X32711Y-35666D01*
X32865Y-35511D01*
X32949Y-35309D01*
X32950Y-35091D01*
X32866Y-34888D01*
X32711Y-34734D01*
X32630Y-34700D01*
X32711Y-34666D01*
X32865Y-34511D01*
X32949Y-34309D01*
X32950Y-34091D01*
X32866Y-33888D01*
X32711Y-33734D01*
X32630Y-33700D01*
X32711Y-33666D01*
X32865Y-33511D01*
X32875Y-33490D01*
X33059Y-33490D01*
X33170Y-33468D01*
X33170Y-33468D01*
X33265Y-33405D01*
X35103Y-31566D01*
X35103Y-32635D01*
X33259Y-34479D01*
X33196Y-34574D01*
X33174Y-34685D01*
X33174Y-37795D01*
X33196Y-37906D01*
X33259Y-38000D01*
X38512Y-43253D01*
G54D10*
G36*
X38725Y-23669D02*
X38623Y-23567D01*
X38609Y-23557D01*
X38609Y-23506D01*
X38609Y-23309D01*
X38605Y-23300D01*
X38609Y-23290D01*
X38609Y-23254D01*
X38546Y-23191D01*
X38545Y-23191D01*
X38500Y-23147D01*
X38489Y-23142D01*
X38500Y-23138D01*
X38520Y-23117D01*
X38652Y-23117D01*
X38725Y-23191D01*
X38725Y-23669D01*
X38725Y-23669D01*
G37*
G54D24*
X38725Y-23669D02*
X38623Y-23567D01*
X38609Y-23557D01*
X38609Y-23506D01*
X38609Y-23309D01*
X38605Y-23300D01*
X38609Y-23290D01*
X38609Y-23254D01*
X38546Y-23191D01*
X38545Y-23191D01*
X38500Y-23147D01*
X38489Y-23142D01*
X38500Y-23138D01*
X38520Y-23117D01*
X38652Y-23117D01*
X38725Y-23191D01*
X38725Y-23669D01*
G54D10*
G36*
X42310Y-23457D02*
X42299Y-23461D01*
X42276Y-23485D01*
X42179Y-23504D01*
X42085Y-23567D01*
X42085Y-23567D01*
X42061Y-23590D01*
X42061Y-23466D01*
X42190Y-23337D01*
X42190Y-23345D01*
X42253Y-23408D01*
X42254Y-23408D01*
X42299Y-23452D01*
X42310Y-23457D01*
X42310Y-23457D01*
G37*
G54D24*
X42310Y-23457D02*
X42299Y-23461D01*
X42276Y-23485D01*
X42179Y-23504D01*
X42085Y-23567D01*
X42085Y-23567D01*
X42061Y-23590D01*
X42061Y-23466D01*
X42190Y-23337D01*
X42190Y-23345D01*
X42253Y-23408D01*
X42254Y-23408D01*
X42299Y-23452D01*
X42310Y-23457D01*
G54D10*
G36*
X43391Y-36906D02*
X43333Y-36930D01*
X43229Y-37034D01*
X43173Y-37170D01*
X43173Y-37248D01*
X43114Y-37307D01*
X42997Y-37307D01*
X42861Y-37363D01*
X42757Y-37467D01*
X42700Y-37603D01*
X42700Y-37712D01*
X42672Y-37700D01*
X42525Y-37700D01*
X42389Y-37756D01*
X42284Y-37860D01*
X42228Y-37996D01*
X42228Y-38075D01*
X42166Y-38136D01*
X42160Y-38133D01*
X42013Y-38133D01*
X41877Y-38190D01*
X41773Y-38294D01*
X41716Y-38430D01*
X41716Y-38547D01*
X41654Y-38608D01*
X41598Y-38744D01*
X41598Y-38892D01*
X41626Y-38960D01*
X41501Y-38960D01*
X41365Y-39016D01*
X41303Y-39078D01*
X41186Y-39078D01*
X41050Y-39134D01*
X40946Y-39238D01*
X40889Y-39374D01*
X40889Y-39492D01*
X40828Y-39553D01*
X40771Y-39689D01*
X40771Y-39826D01*
X40635Y-39826D01*
X40499Y-39882D01*
X40413Y-39968D01*
X40370Y-39925D01*
X40370Y-39808D01*
X40313Y-39672D01*
X40209Y-39568D01*
X40073Y-39511D01*
X39926Y-39511D01*
X39919Y-39514D01*
X39897Y-39492D01*
X39897Y-39375D01*
X39841Y-39239D01*
X39737Y-39135D01*
X39601Y-39078D01*
X39483Y-39078D01*
X39464Y-39059D01*
X39464Y-38942D01*
X39408Y-38806D01*
X39304Y-38702D01*
X39168Y-38645D01*
X39050Y-38645D01*
X38989Y-38584D01*
X38853Y-38527D01*
X38706Y-38527D01*
X38570Y-38583D01*
X38504Y-38648D01*
X38412Y-38555D01*
X38402Y-38552D01*
X38398Y-38542D01*
X38372Y-38516D01*
X38305Y-38516D01*
X38339Y-38483D01*
X38328Y-38472D01*
X38339Y-38483D01*
X38384Y-38438D01*
X38440Y-38302D01*
X38441Y-38155D01*
X38391Y-38036D01*
X38430Y-37996D01*
X38495Y-37840D01*
X38495Y-37671D01*
X38431Y-37515D01*
X38311Y-37395D01*
X38155Y-37330D01*
X37986Y-37330D01*
X37889Y-37370D01*
X37889Y-37367D01*
X37833Y-37231D01*
X37729Y-37127D01*
X37593Y-37070D01*
X37476Y-37070D01*
X37414Y-37009D01*
X37278Y-36952D01*
X37131Y-36952D01*
X36995Y-37008D01*
X36930Y-37073D01*
X36856Y-36999D01*
X36923Y-36933D01*
X37062Y-36793D01*
X37066Y-36784D01*
X37075Y-36780D01*
X37145Y-36710D01*
X37285Y-36571D01*
X37288Y-36561D01*
X37298Y-36557D01*
X37355Y-36500D01*
X37427Y-36573D01*
X37563Y-36629D01*
X37711Y-36629D01*
X37847Y-36573D01*
X37909Y-36511D01*
X38026Y-36511D01*
X38162Y-36455D01*
X38266Y-36351D01*
X38322Y-36215D01*
X38322Y-36098D01*
X38381Y-36039D01*
X38459Y-36039D01*
X38595Y-35983D01*
X38699Y-35879D01*
X38755Y-35743D01*
X38755Y-35665D01*
X38856Y-35564D01*
X38913Y-35428D01*
X38913Y-35291D01*
X39049Y-35291D01*
X39185Y-35235D01*
X39247Y-35173D01*
X39364Y-35173D01*
X39500Y-35117D01*
X39604Y-35013D01*
X39661Y-34877D01*
X39661Y-34759D01*
X39683Y-34737D01*
X39689Y-34740D01*
X39837Y-34740D01*
X39973Y-34683D01*
X40077Y-34579D01*
X40133Y-34444D01*
X40133Y-34296D01*
X40131Y-34289D01*
X40195Y-34225D01*
X40251Y-34089D01*
X40251Y-34086D01*
X40276Y-34146D01*
X40380Y-34250D01*
X40516Y-34307D01*
X40663Y-34307D01*
X40726Y-34281D01*
X40732Y-34287D01*
X40732Y-34364D01*
X40788Y-34500D01*
X40892Y-34604D01*
X41028Y-34661D01*
X41145Y-34661D01*
X41165Y-34680D01*
X41165Y-34797D01*
X41221Y-34933D01*
X41325Y-35037D01*
X41461Y-35094D01*
X41527Y-35094D01*
X41504Y-35151D01*
X41504Y-35320D01*
X41568Y-35476D01*
X41688Y-35596D01*
X41844Y-35661D01*
X42013Y-35661D01*
X42070Y-35637D01*
X42070Y-35703D01*
X42127Y-35839D01*
X42231Y-35943D01*
X42367Y-35999D01*
X42445Y-36000D01*
X42503Y-36058D01*
X42503Y-36175D01*
X42560Y-36311D01*
X42664Y-36415D01*
X42800Y-36472D01*
X42947Y-36472D01*
X42976Y-36460D01*
X42976Y-36569D01*
X43032Y-36705D01*
X43136Y-36809D01*
X43272Y-36866D01*
X43350Y-36866D01*
X43391Y-36906D01*
X43391Y-36906D01*
G37*
G54D24*
X43391Y-36906D02*
X43333Y-36930D01*
X43229Y-37034D01*
X43173Y-37170D01*
X43173Y-37248D01*
X43114Y-37307D01*
X42997Y-37307D01*
X42861Y-37363D01*
X42757Y-37467D01*
X42700Y-37603D01*
X42700Y-37712D01*
X42672Y-37700D01*
X42525Y-37700D01*
X42389Y-37756D01*
X42284Y-37860D01*
X42228Y-37996D01*
X42228Y-38075D01*
X42166Y-38136D01*
X42160Y-38133D01*
X42013Y-38133D01*
X41877Y-38190D01*
X41773Y-38294D01*
X41716Y-38430D01*
X41716Y-38547D01*
X41654Y-38608D01*
X41598Y-38744D01*
X41598Y-38892D01*
X41626Y-38960D01*
X41501Y-38960D01*
X41365Y-39016D01*
X41303Y-39078D01*
X41186Y-39078D01*
X41050Y-39134D01*
X40946Y-39238D01*
X40889Y-39374D01*
X40889Y-39492D01*
X40828Y-39553D01*
X40771Y-39689D01*
X40771Y-39826D01*
X40635Y-39826D01*
X40499Y-39882D01*
X40413Y-39968D01*
X40370Y-39925D01*
X40370Y-39808D01*
X40313Y-39672D01*
X40209Y-39568D01*
X40073Y-39511D01*
X39926Y-39511D01*
X39919Y-39514D01*
X39897Y-39492D01*
X39897Y-39375D01*
X39841Y-39239D01*
X39737Y-39135D01*
X39601Y-39078D01*
X39483Y-39078D01*
X39464Y-39059D01*
X39464Y-38942D01*
X39408Y-38806D01*
X39304Y-38702D01*
X39168Y-38645D01*
X39050Y-38645D01*
X38989Y-38584D01*
X38853Y-38527D01*
X38706Y-38527D01*
X38570Y-38583D01*
X38504Y-38648D01*
X38412Y-38555D01*
X38402Y-38552D01*
X38398Y-38542D01*
X38372Y-38516D01*
X38305Y-38516D01*
X38339Y-38483D01*
X38328Y-38472D01*
X38339Y-38483D01*
X38384Y-38438D01*
X38440Y-38302D01*
X38441Y-38155D01*
X38391Y-38036D01*
X38430Y-37996D01*
X38495Y-37840D01*
X38495Y-37671D01*
X38431Y-37515D01*
X38311Y-37395D01*
X38155Y-37330D01*
X37986Y-37330D01*
X37889Y-37370D01*
X37889Y-37367D01*
X37833Y-37231D01*
X37729Y-37127D01*
X37593Y-37070D01*
X37476Y-37070D01*
X37414Y-37009D01*
X37278Y-36952D01*
X37131Y-36952D01*
X36995Y-37008D01*
X36930Y-37073D01*
X36856Y-36999D01*
X36923Y-36933D01*
X37062Y-36793D01*
X37066Y-36784D01*
X37075Y-36780D01*
X37145Y-36710D01*
X37285Y-36571D01*
X37288Y-36561D01*
X37298Y-36557D01*
X37355Y-36500D01*
X37427Y-36573D01*
X37563Y-36629D01*
X37711Y-36629D01*
X37847Y-36573D01*
X37909Y-36511D01*
X38026Y-36511D01*
X38162Y-36455D01*
X38266Y-36351D01*
X38322Y-36215D01*
X38322Y-36098D01*
X38381Y-36039D01*
X38459Y-36039D01*
X38595Y-35983D01*
X38699Y-35879D01*
X38755Y-35743D01*
X38755Y-35665D01*
X38856Y-35564D01*
X38913Y-35428D01*
X38913Y-35291D01*
X39049Y-35291D01*
X39185Y-35235D01*
X39247Y-35173D01*
X39364Y-35173D01*
X39500Y-35117D01*
X39604Y-35013D01*
X39661Y-34877D01*
X39661Y-34759D01*
X39683Y-34737D01*
X39689Y-34740D01*
X39837Y-34740D01*
X39973Y-34683D01*
X40077Y-34579D01*
X40133Y-34444D01*
X40133Y-34296D01*
X40131Y-34289D01*
X40195Y-34225D01*
X40251Y-34089D01*
X40251Y-34086D01*
X40276Y-34146D01*
X40380Y-34250D01*
X40516Y-34307D01*
X40663Y-34307D01*
X40726Y-34281D01*
X40732Y-34287D01*
X40732Y-34364D01*
X40788Y-34500D01*
X40892Y-34604D01*
X41028Y-34661D01*
X41145Y-34661D01*
X41165Y-34680D01*
X41165Y-34797D01*
X41221Y-34933D01*
X41325Y-35037D01*
X41461Y-35094D01*
X41527Y-35094D01*
X41504Y-35151D01*
X41504Y-35320D01*
X41568Y-35476D01*
X41688Y-35596D01*
X41844Y-35661D01*
X42013Y-35661D01*
X42070Y-35637D01*
X42070Y-35703D01*
X42127Y-35839D01*
X42231Y-35943D01*
X42367Y-35999D01*
X42445Y-36000D01*
X42503Y-36058D01*
X42503Y-36175D01*
X42560Y-36311D01*
X42664Y-36415D01*
X42800Y-36472D01*
X42947Y-36472D01*
X42976Y-36460D01*
X42976Y-36569D01*
X43032Y-36705D01*
X43136Y-36809D01*
X43272Y-36866D01*
X43350Y-36866D01*
X43391Y-36906D01*
G54D10*
G36*
X46631Y-23138D02*
X46542Y-23138D01*
X46420Y-23162D01*
X46368Y-23197D01*
X46355Y-23206D01*
X46409Y-23077D01*
X46409Y-22907D01*
X46344Y-22751D01*
X46225Y-22632D01*
X46154Y-22602D01*
X46269Y-22487D01*
X46521Y-22487D01*
X46521Y-22660D01*
X46525Y-22669D01*
X46521Y-22679D01*
X46521Y-22778D01*
X46521Y-22975D01*
X46525Y-22985D01*
X46521Y-22994D01*
X46521Y-23030D01*
X46584Y-23093D01*
X46585Y-23093D01*
X46629Y-23137D01*
X46631Y-23138D01*
X46631Y-23138D01*
G37*
G54D24*
X46631Y-23138D02*
X46542Y-23138D01*
X46420Y-23162D01*
X46368Y-23197D01*
X46355Y-23206D01*
X46409Y-23077D01*
X46409Y-22907D01*
X46344Y-22751D01*
X46225Y-22632D01*
X46154Y-22602D01*
X46269Y-22487D01*
X46521Y-22487D01*
X46521Y-22660D01*
X46525Y-22669D01*
X46521Y-22679D01*
X46521Y-22778D01*
X46521Y-22975D01*
X46525Y-22985D01*
X46521Y-22994D01*
X46521Y-23030D01*
X46584Y-23093D01*
X46585Y-23093D01*
X46629Y-23137D01*
X46631Y-23138D01*
G54D10*
G36*
X47918Y-15357D02*
X47894Y-15357D01*
X47894Y-15329D01*
X47886Y-15309D01*
X47894Y-15290D01*
X47894Y-15242D01*
X47905Y-15242D01*
X47905Y-15290D01*
X47913Y-15309D01*
X47905Y-15328D01*
X47905Y-15345D01*
X47918Y-15357D01*
X47918Y-15357D01*
G37*
G54D24*
X47918Y-15357D02*
X47894Y-15357D01*
X47894Y-15329D01*
X47886Y-15309D01*
X47894Y-15290D01*
X47894Y-15242D01*
X47905Y-15242D01*
X47905Y-15290D01*
X47913Y-15309D01*
X47905Y-15328D01*
X47905Y-15345D01*
X47918Y-15357D01*
G54D10*
G36*
X48242Y-50730D02*
X47609Y-50730D01*
X45769Y-50730D01*
X45769Y-44200D01*
X45749Y-44096D01*
X45690Y-44009D01*
X45603Y-43950D01*
X45500Y-43930D01*
X44851Y-43930D01*
X47245Y-41536D01*
X47245Y-41536D01*
X47341Y-41391D01*
X47375Y-41220D01*
X47375Y-41220D01*
X47375Y-37822D01*
X47609Y-37589D01*
X47861Y-37337D01*
X47933Y-37511D01*
X48088Y-37665D01*
X48169Y-37699D01*
X48088Y-37733D01*
X47934Y-37888D01*
X47850Y-38090D01*
X47849Y-38308D01*
X47933Y-38511D01*
X48088Y-38665D01*
X48169Y-38699D01*
X48088Y-38733D01*
X47934Y-38888D01*
X47850Y-39090D01*
X47849Y-39308D01*
X47933Y-39511D01*
X48088Y-39665D01*
X48169Y-39699D01*
X48088Y-39733D01*
X47934Y-39888D01*
X47850Y-40090D01*
X47849Y-40308D01*
X47933Y-40511D01*
X48088Y-40665D01*
X48169Y-40699D01*
X48088Y-40733D01*
X47934Y-40888D01*
X47850Y-41090D01*
X47849Y-41308D01*
X47933Y-41511D01*
X48088Y-41665D01*
X48169Y-41699D01*
X48088Y-41733D01*
X47934Y-41888D01*
X47850Y-42090D01*
X47849Y-42308D01*
X47933Y-42511D01*
X48088Y-42665D01*
X48169Y-42699D01*
X48088Y-42733D01*
X47934Y-42888D01*
X47850Y-43090D01*
X47849Y-43308D01*
X47933Y-43511D01*
X48088Y-43665D01*
X48169Y-43699D01*
X48088Y-43733D01*
X47934Y-43888D01*
X47850Y-44090D01*
X47849Y-44308D01*
X47933Y-44511D01*
X48088Y-44665D01*
X48169Y-44699D01*
X48088Y-44733D01*
X47934Y-44888D01*
X47850Y-45090D01*
X47849Y-45308D01*
X47933Y-45511D01*
X48088Y-45665D01*
X48169Y-45699D01*
X48088Y-45733D01*
X47934Y-45888D01*
X47850Y-46090D01*
X47849Y-46308D01*
X47933Y-46511D01*
X48088Y-46665D01*
X48169Y-46699D01*
X48088Y-46733D01*
X47934Y-46888D01*
X47850Y-47090D01*
X47849Y-47308D01*
X47933Y-47511D01*
X48088Y-47665D01*
X48169Y-47699D01*
X48088Y-47733D01*
X47934Y-47888D01*
X47850Y-48090D01*
X47849Y-48308D01*
X47933Y-48511D01*
X48088Y-48665D01*
X48169Y-48699D01*
X48088Y-48733D01*
X47934Y-48888D01*
X47850Y-49090D01*
X47849Y-49308D01*
X47933Y-49511D01*
X48088Y-49665D01*
X48169Y-49699D01*
X48088Y-49733D01*
X47934Y-49888D01*
X47850Y-50090D01*
X47849Y-50308D01*
X47933Y-50511D01*
X48088Y-50665D01*
X48242Y-50730D01*
X48242Y-50730D01*
G37*
G54D24*
X48242Y-50730D02*
X47609Y-50730D01*
X45769Y-50730D01*
X45769Y-44200D01*
X45749Y-44096D01*
X45690Y-44009D01*
X45603Y-43950D01*
X45500Y-43930D01*
X44851Y-43930D01*
X47245Y-41536D01*
X47245Y-41536D01*
X47341Y-41391D01*
X47375Y-41220D01*
X47375Y-41220D01*
X47375Y-37822D01*
X47609Y-37589D01*
X47861Y-37337D01*
X47933Y-37511D01*
X48088Y-37665D01*
X48169Y-37699D01*
X48088Y-37733D01*
X47934Y-37888D01*
X47850Y-38090D01*
X47849Y-38308D01*
X47933Y-38511D01*
X48088Y-38665D01*
X48169Y-38699D01*
X48088Y-38733D01*
X47934Y-38888D01*
X47850Y-39090D01*
X47849Y-39308D01*
X47933Y-39511D01*
X48088Y-39665D01*
X48169Y-39699D01*
X48088Y-39733D01*
X47934Y-39888D01*
X47850Y-40090D01*
X47849Y-40308D01*
X47933Y-40511D01*
X48088Y-40665D01*
X48169Y-40699D01*
X48088Y-40733D01*
X47934Y-40888D01*
X47850Y-41090D01*
X47849Y-41308D01*
X47933Y-41511D01*
X48088Y-41665D01*
X48169Y-41699D01*
X48088Y-41733D01*
X47934Y-41888D01*
X47850Y-42090D01*
X47849Y-42308D01*
X47933Y-42511D01*
X48088Y-42665D01*
X48169Y-42699D01*
X48088Y-42733D01*
X47934Y-42888D01*
X47850Y-43090D01*
X47849Y-43308D01*
X47933Y-43511D01*
X48088Y-43665D01*
X48169Y-43699D01*
X48088Y-43733D01*
X47934Y-43888D01*
X47850Y-44090D01*
X47849Y-44308D01*
X47933Y-44511D01*
X48088Y-44665D01*
X48169Y-44699D01*
X48088Y-44733D01*
X47934Y-44888D01*
X47850Y-45090D01*
X47849Y-45308D01*
X47933Y-45511D01*
X48088Y-45665D01*
X48169Y-45699D01*
X48088Y-45733D01*
X47934Y-45888D01*
X47850Y-46090D01*
X47849Y-46308D01*
X47933Y-46511D01*
X48088Y-46665D01*
X48169Y-46699D01*
X48088Y-46733D01*
X47934Y-46888D01*
X47850Y-47090D01*
X47849Y-47308D01*
X47933Y-47511D01*
X48088Y-47665D01*
X48169Y-47699D01*
X48088Y-47733D01*
X47934Y-47888D01*
X47850Y-48090D01*
X47849Y-48308D01*
X47933Y-48511D01*
X48088Y-48665D01*
X48169Y-48699D01*
X48088Y-48733D01*
X47934Y-48888D01*
X47850Y-49090D01*
X47849Y-49308D01*
X47933Y-49511D01*
X48088Y-49665D01*
X48169Y-49699D01*
X48088Y-49733D01*
X47934Y-49888D01*
X47850Y-50090D01*
X47849Y-50308D01*
X47933Y-50511D01*
X48088Y-50665D01*
X48242Y-50730D01*
G54D10*
G36*
X48483Y-23100D02*
X48475Y-23100D01*
X48475Y-23108D01*
X48375Y-23108D01*
X48375Y-23100D01*
X48367Y-23100D01*
X48367Y-23000D01*
X48375Y-23000D01*
X48375Y-22992D01*
X48475Y-22992D01*
X48475Y-23000D01*
X48483Y-23000D01*
X48483Y-23100D01*
X48483Y-23100D01*
G37*
G54D24*
X48483Y-23100D02*
X48475Y-23100D01*
X48475Y-23108D01*
X48375Y-23108D01*
X48375Y-23100D01*
X48367Y-23100D01*
X48367Y-23000D01*
X48375Y-23000D01*
X48375Y-22992D01*
X48475Y-22992D01*
X48475Y-23000D01*
X48483Y-23000D01*
X48483Y-23100D01*
G54D10*
G36*
X49930Y-23540D02*
X49855Y-23465D01*
X49719Y-23409D01*
X49660Y-23409D01*
X49660Y-23070D01*
X49660Y-23070D01*
X49660Y-23070D01*
X49638Y-22959D01*
X49575Y-22865D01*
X49575Y-22865D01*
X49500Y-22790D01*
X49500Y-16525D01*
X49500Y-16412D01*
X49437Y-16350D01*
X49125Y-16350D01*
X49125Y-16762D01*
X49187Y-16825D01*
X49299Y-16825D01*
X49391Y-16787D01*
X49461Y-16716D01*
X49499Y-16624D01*
X49500Y-16525D01*
X49500Y-22790D01*
X49016Y-22307D01*
X48922Y-22244D01*
X48811Y-22222D01*
X47809Y-22222D01*
X47809Y-22049D01*
X47805Y-22040D01*
X47809Y-22031D01*
X47809Y-21931D01*
X47809Y-21734D01*
X47805Y-21725D01*
X47809Y-21716D01*
X47809Y-21616D01*
X47809Y-21419D01*
X47805Y-21410D01*
X47809Y-21401D01*
X47809Y-21301D01*
X47809Y-21104D01*
X47805Y-21095D01*
X47809Y-21086D01*
X47809Y-20986D01*
X47809Y-20789D01*
X47805Y-20780D01*
X47809Y-20771D01*
X47809Y-20671D01*
X47809Y-20474D01*
X47805Y-20465D01*
X47809Y-20456D01*
X47809Y-20356D01*
X47809Y-20159D01*
X47805Y-20150D01*
X47809Y-20141D01*
X47809Y-20041D01*
X47809Y-19844D01*
X47771Y-19753D01*
X47700Y-19682D01*
X47609Y-19644D01*
X47609Y-19644D01*
X47509Y-19644D01*
X46722Y-19644D01*
X46630Y-19682D01*
X46559Y-19752D01*
X46521Y-19844D01*
X46521Y-19943D01*
X46521Y-20140D01*
X46525Y-20150D01*
X46521Y-20159D01*
X46521Y-20258D01*
X46521Y-20284D01*
X46444Y-20316D01*
X46339Y-20420D01*
X46283Y-20555D01*
X46283Y-20703D01*
X46286Y-20710D01*
X46261Y-20734D01*
X46204Y-20870D01*
X46204Y-21018D01*
X46260Y-21154D01*
X46286Y-21179D01*
X46283Y-21185D01*
X46283Y-21333D01*
X46286Y-21339D01*
X46261Y-21364D01*
X46204Y-21500D01*
X46204Y-21648D01*
X46260Y-21784D01*
X46286Y-21809D01*
X46283Y-21815D01*
X46283Y-21907D01*
X46148Y-21907D01*
X46037Y-21929D01*
X45943Y-21992D01*
X45943Y-21992D01*
X45424Y-22511D01*
X45361Y-22605D01*
X45339Y-22716D01*
X45339Y-28429D01*
X45361Y-28540D01*
X45424Y-28635D01*
X47609Y-30819D01*
X47849Y-31060D01*
X47849Y-31549D01*
X47887Y-31641D01*
X47958Y-31711D01*
X48050Y-31749D01*
X48072Y-31749D01*
X47934Y-31888D01*
X47850Y-32090D01*
X47849Y-32308D01*
X47933Y-32511D01*
X48088Y-32665D01*
X48169Y-32699D01*
X48088Y-32733D01*
X47934Y-32888D01*
X47850Y-33090D01*
X47849Y-33308D01*
X47933Y-33511D01*
X48088Y-33665D01*
X48169Y-33699D01*
X48088Y-33733D01*
X47934Y-33888D01*
X47850Y-34090D01*
X47849Y-34308D01*
X47933Y-34511D01*
X48088Y-34665D01*
X48169Y-34699D01*
X48088Y-34733D01*
X47934Y-34888D01*
X47850Y-35090D01*
X47849Y-35308D01*
X47933Y-35511D01*
X48088Y-35665D01*
X48169Y-35699D01*
X48088Y-35733D01*
X47934Y-35888D01*
X47853Y-36081D01*
X47609Y-36325D01*
X46613Y-37321D01*
X46516Y-37466D01*
X46482Y-37637D01*
X46482Y-41035D01*
X44263Y-43253D01*
X42235Y-43253D01*
X44535Y-40953D01*
X44535Y-40953D01*
X44535Y-40953D01*
X44598Y-40859D01*
X44620Y-40748D01*
X44620Y-38480D01*
X44620Y-38480D01*
X44620Y-38480D01*
X44601Y-38385D01*
X44606Y-38380D01*
X44745Y-38241D01*
X44749Y-38231D01*
X44759Y-38228D01*
X44829Y-38157D01*
X44968Y-38018D01*
X45006Y-37926D01*
X45006Y-37827D01*
X44968Y-37735D01*
X44898Y-37665D01*
X44862Y-37629D01*
X44880Y-37611D01*
X44932Y-37485D01*
X46622Y-35795D01*
X46622Y-35795D01*
X46622Y-35795D01*
X46685Y-35701D01*
X46707Y-35590D01*
X46707Y-31808D01*
X46730Y-31784D01*
X46787Y-31648D01*
X46787Y-31501D01*
X46731Y-31365D01*
X46627Y-31261D01*
X46491Y-31204D01*
X46344Y-31204D01*
X46236Y-31249D01*
X46236Y-31225D01*
X46180Y-31089D01*
X46076Y-30985D01*
X45954Y-30935D01*
X45904Y-30814D01*
X45800Y-30710D01*
X45678Y-30659D01*
X45628Y-30538D01*
X45524Y-30434D01*
X45388Y-30378D01*
X45290Y-30377D01*
X45290Y-29878D01*
X45313Y-29855D01*
X45370Y-29719D01*
X45370Y-29572D01*
X45313Y-29436D01*
X45209Y-29332D01*
X45073Y-29275D01*
X44926Y-29275D01*
X44790Y-29331D01*
X44686Y-29435D01*
X44635Y-29557D01*
X44515Y-29607D01*
X44410Y-29711D01*
X44360Y-29832D01*
X44239Y-29882D01*
X44135Y-29986D01*
X44084Y-30108D01*
X43963Y-30158D01*
X43859Y-30262D01*
X43833Y-30325D01*
X43833Y-26143D01*
X43833Y-26143D01*
X43984Y-25992D01*
X43984Y-25992D01*
X45126Y-24850D01*
X45126Y-24850D01*
X45126Y-24850D01*
X45189Y-24756D01*
X45211Y-24645D01*
X45211Y-20118D01*
X45189Y-20007D01*
X45126Y-19912D01*
X45126Y-19912D01*
X42764Y-17550D01*
X42670Y-17487D01*
X42559Y-17465D01*
X34133Y-17465D01*
X34026Y-17487D01*
X38084Y-13429D01*
X45694Y-13429D01*
X45675Y-13474D01*
X45675Y-13574D01*
X45675Y-13924D01*
X45713Y-14016D01*
X45772Y-14074D01*
X45713Y-14133D01*
X45675Y-14224D01*
X45675Y-14324D01*
X45675Y-14674D01*
X45677Y-14678D01*
X45400Y-14678D01*
X45290Y-14699D01*
X45075Y-14699D01*
X44983Y-14737D01*
X44913Y-14808D01*
X44875Y-14900D01*
X44874Y-14999D01*
X44874Y-15087D01*
X41820Y-15087D01*
X41820Y-17353D01*
X47609Y-17353D01*
X47609Y-16680D01*
X47715Y-16724D01*
X47884Y-16725D01*
X47933Y-16704D01*
X47937Y-16716D01*
X48008Y-16786D01*
X48100Y-16824D01*
X48199Y-16825D01*
X48549Y-16825D01*
X48641Y-16787D01*
X48700Y-16728D01*
X48758Y-16787D01*
X48850Y-16825D01*
X48962Y-16825D01*
X49025Y-16762D01*
X49025Y-16350D01*
X49017Y-16350D01*
X49017Y-16250D01*
X49025Y-16250D01*
X49025Y-16242D01*
X49125Y-16242D01*
X49125Y-16250D01*
X49437Y-16250D01*
X49500Y-16187D01*
X49500Y-16074D01*
X49499Y-15999D01*
X49524Y-15999D01*
X49616Y-15961D01*
X49687Y-15891D01*
X49725Y-15799D01*
X49725Y-15687D01*
X49662Y-15625D01*
X49250Y-15625D01*
X49250Y-15632D01*
X49150Y-15632D01*
X49150Y-15625D01*
X49142Y-15625D01*
X49142Y-15525D01*
X49150Y-15525D01*
X49150Y-15517D01*
X49250Y-15517D01*
X49250Y-15525D01*
X49662Y-15525D01*
X49725Y-15462D01*
X49725Y-15350D01*
X49687Y-15258D01*
X49628Y-15199D01*
X49686Y-15141D01*
X49724Y-15049D01*
X49725Y-14950D01*
X49725Y-14600D01*
X49687Y-14508D01*
X49616Y-14438D01*
X49524Y-14400D01*
X49503Y-14400D01*
X49494Y-14353D01*
X49494Y-14353D01*
X49460Y-14301D01*
X49425Y-14250D01*
X49425Y-14250D01*
X48060Y-12884D01*
X47956Y-12815D01*
X47834Y-12791D01*
X37952Y-12791D01*
X37830Y-12815D01*
X37778Y-12850D01*
X37727Y-12884D01*
X30869Y-19742D01*
X30869Y-11969D01*
X49930Y-11969D01*
X49930Y-23540D01*
X49930Y-23540D01*
G37*
G54D24*
X49930Y-23540D02*
X49855Y-23465D01*
X49719Y-23409D01*
X49660Y-23409D01*
X49660Y-23070D01*
X49660Y-23070D01*
X49660Y-23070D01*
X49638Y-22959D01*
X49575Y-22865D01*
X49575Y-22865D01*
X49500Y-22790D01*
X49500Y-16525D01*
X49500Y-16412D01*
X49437Y-16350D01*
X49125Y-16350D01*
X49125Y-16762D01*
X49187Y-16825D01*
X49299Y-16825D01*
X49391Y-16787D01*
X49461Y-16716D01*
X49499Y-16624D01*
X49500Y-16525D01*
X49500Y-22790D01*
X49016Y-22307D01*
X48922Y-22244D01*
X48811Y-22222D01*
X47809Y-22222D01*
X47809Y-22049D01*
X47805Y-22040D01*
X47809Y-22031D01*
X47809Y-21931D01*
X47809Y-21734D01*
X47805Y-21725D01*
X47809Y-21716D01*
X47809Y-21616D01*
X47809Y-21419D01*
X47805Y-21410D01*
X47809Y-21401D01*
X47809Y-21301D01*
X47809Y-21104D01*
X47805Y-21095D01*
X47809Y-21086D01*
X47809Y-20986D01*
X47809Y-20789D01*
X47805Y-20780D01*
X47809Y-20771D01*
X47809Y-20671D01*
X47809Y-20474D01*
X47805Y-20465D01*
X47809Y-20456D01*
X47809Y-20356D01*
X47809Y-20159D01*
X47805Y-20150D01*
X47809Y-20141D01*
X47809Y-20041D01*
X47809Y-19844D01*
X47771Y-19753D01*
X47700Y-19682D01*
X47609Y-19644D01*
X47609Y-19644D01*
X47509Y-19644D01*
X46722Y-19644D01*
X46630Y-19682D01*
X46559Y-19752D01*
X46521Y-19844D01*
X46521Y-19943D01*
X46521Y-20140D01*
X46525Y-20150D01*
X46521Y-20159D01*
X46521Y-20258D01*
X46521Y-20284D01*
X46444Y-20316D01*
X46339Y-20420D01*
X46283Y-20555D01*
X46283Y-20703D01*
X46286Y-20710D01*
X46261Y-20734D01*
X46204Y-20870D01*
X46204Y-21018D01*
X46260Y-21154D01*
X46286Y-21179D01*
X46283Y-21185D01*
X46283Y-21333D01*
X46286Y-21339D01*
X46261Y-21364D01*
X46204Y-21500D01*
X46204Y-21648D01*
X46260Y-21784D01*
X46286Y-21809D01*
X46283Y-21815D01*
X46283Y-21907D01*
X46148Y-21907D01*
X46037Y-21929D01*
X45943Y-21992D01*
X45943Y-21992D01*
X45424Y-22511D01*
X45361Y-22605D01*
X45339Y-22716D01*
X45339Y-28429D01*
X45361Y-28540D01*
X45424Y-28635D01*
X47609Y-30819D01*
X47849Y-31060D01*
X47849Y-31549D01*
X47887Y-31641D01*
X47958Y-31711D01*
X48050Y-31749D01*
X48072Y-31749D01*
X47934Y-31888D01*
X47850Y-32090D01*
X47849Y-32308D01*
X47933Y-32511D01*
X48088Y-32665D01*
X48169Y-32699D01*
X48088Y-32733D01*
X47934Y-32888D01*
X47850Y-33090D01*
X47849Y-33308D01*
X47933Y-33511D01*
X48088Y-33665D01*
X48169Y-33699D01*
X48088Y-33733D01*
X47934Y-33888D01*
X47850Y-34090D01*
X47849Y-34308D01*
X47933Y-34511D01*
X48088Y-34665D01*
X48169Y-34699D01*
X48088Y-34733D01*
X47934Y-34888D01*
X47850Y-35090D01*
X47849Y-35308D01*
X47933Y-35511D01*
X48088Y-35665D01*
X48169Y-35699D01*
X48088Y-35733D01*
X47934Y-35888D01*
X47853Y-36081D01*
X47609Y-36325D01*
X46613Y-37321D01*
X46516Y-37466D01*
X46482Y-37637D01*
X46482Y-41035D01*
X44263Y-43253D01*
X42235Y-43253D01*
X44535Y-40953D01*
X44535Y-40953D01*
X44535Y-40953D01*
X44598Y-40859D01*
X44620Y-40748D01*
X44620Y-38480D01*
X44620Y-38480D01*
X44620Y-38480D01*
X44601Y-38385D01*
X44606Y-38380D01*
X44745Y-38241D01*
X44749Y-38231D01*
X44759Y-38228D01*
X44829Y-38157D01*
X44968Y-38018D01*
X45006Y-37926D01*
X45006Y-37827D01*
X44968Y-37735D01*
X44898Y-37665D01*
X44862Y-37629D01*
X44880Y-37611D01*
X44932Y-37485D01*
X46622Y-35795D01*
X46622Y-35795D01*
X46622Y-35795D01*
X46685Y-35701D01*
X46707Y-35590D01*
X46707Y-31808D01*
X46730Y-31784D01*
X46787Y-31648D01*
X46787Y-31501D01*
X46731Y-31365D01*
X46627Y-31261D01*
X46491Y-31204D01*
X46344Y-31204D01*
X46236Y-31249D01*
X46236Y-31225D01*
X46180Y-31089D01*
X46076Y-30985D01*
X45954Y-30935D01*
X45904Y-30814D01*
X45800Y-30710D01*
X45678Y-30659D01*
X45628Y-30538D01*
X45524Y-30434D01*
X45388Y-30378D01*
X45290Y-30377D01*
X45290Y-29878D01*
X45313Y-29855D01*
X45370Y-29719D01*
X45370Y-29572D01*
X45313Y-29436D01*
X45209Y-29332D01*
X45073Y-29275D01*
X44926Y-29275D01*
X44790Y-29331D01*
X44686Y-29435D01*
X44635Y-29557D01*
X44515Y-29607D01*
X44410Y-29711D01*
X44360Y-29832D01*
X44239Y-29882D01*
X44135Y-29986D01*
X44084Y-30108D01*
X43963Y-30158D01*
X43859Y-30262D01*
X43833Y-30325D01*
X43833Y-26143D01*
X43833Y-26143D01*
X43984Y-25992D01*
X43984Y-25992D01*
X45126Y-24850D01*
X45126Y-24850D01*
X45126Y-24850D01*
X45189Y-24756D01*
X45211Y-24645D01*
X45211Y-20118D01*
X45189Y-20007D01*
X45126Y-19912D01*
X45126Y-19912D01*
X42764Y-17550D01*
X42670Y-17487D01*
X42559Y-17465D01*
X34133Y-17465D01*
X34026Y-17487D01*
X38084Y-13429D01*
X45694Y-13429D01*
X45675Y-13474D01*
X45675Y-13574D01*
X45675Y-13924D01*
X45713Y-14016D01*
X45772Y-14074D01*
X45713Y-14133D01*
X45675Y-14224D01*
X45675Y-14324D01*
X45675Y-14674D01*
X45677Y-14678D01*
X45400Y-14678D01*
X45290Y-14699D01*
X45075Y-14699D01*
X44983Y-14737D01*
X44913Y-14808D01*
X44875Y-14900D01*
X44874Y-14999D01*
X44874Y-15087D01*
X41820Y-15087D01*
X41820Y-17353D01*
X47609Y-17353D01*
X47609Y-16680D01*
X47715Y-16724D01*
X47884Y-16725D01*
X47933Y-16704D01*
X47937Y-16716D01*
X48008Y-16786D01*
X48100Y-16824D01*
X48199Y-16825D01*
X48549Y-16825D01*
X48641Y-16787D01*
X48700Y-16728D01*
X48758Y-16787D01*
X48850Y-16825D01*
X48962Y-16825D01*
X49025Y-16762D01*
X49025Y-16350D01*
X49017Y-16350D01*
X49017Y-16250D01*
X49025Y-16250D01*
X49025Y-16242D01*
X49125Y-16242D01*
X49125Y-16250D01*
X49437Y-16250D01*
X49500Y-16187D01*
X49500Y-16074D01*
X49499Y-15999D01*
X49524Y-15999D01*
X49616Y-15961D01*
X49687Y-15891D01*
X49725Y-15799D01*
X49725Y-15687D01*
X49662Y-15625D01*
X49250Y-15625D01*
X49250Y-15632D01*
X49150Y-15632D01*
X49150Y-15625D01*
X49142Y-15625D01*
X49142Y-15525D01*
X49150Y-15525D01*
X49150Y-15517D01*
X49250Y-15517D01*
X49250Y-15525D01*
X49662Y-15525D01*
X49725Y-15462D01*
X49725Y-15350D01*
X49687Y-15258D01*
X49628Y-15199D01*
X49686Y-15141D01*
X49724Y-15049D01*
X49725Y-14950D01*
X49725Y-14600D01*
X49687Y-14508D01*
X49616Y-14438D01*
X49524Y-14400D01*
X49503Y-14400D01*
X49494Y-14353D01*
X49494Y-14353D01*
X49460Y-14301D01*
X49425Y-14250D01*
X49425Y-14250D01*
X48060Y-12884D01*
X47956Y-12815D01*
X47834Y-12791D01*
X37952Y-12791D01*
X37830Y-12815D01*
X37778Y-12850D01*
X37727Y-12884D01*
X30869Y-19742D01*
X30869Y-11969D01*
X49930Y-11969D01*
X49930Y-23540D01*
G54D10*
G36*
X49930Y-37043D02*
X49866Y-36888D01*
X49711Y-36734D01*
X49636Y-36702D01*
X49687Y-36681D01*
X49715Y-36585D01*
X49400Y-36270D01*
X49084Y-36585D01*
X49112Y-36681D01*
X49167Y-36700D01*
X49088Y-36733D01*
X48934Y-36888D01*
X48900Y-36969D01*
X48866Y-36888D01*
X48711Y-36734D01*
X48630Y-36700D01*
X48711Y-36666D01*
X48865Y-36511D01*
X48897Y-36436D01*
X48918Y-36487D01*
X49014Y-36515D01*
X49329Y-36200D01*
X49014Y-35884D01*
X48918Y-35912D01*
X48899Y-35967D01*
X48866Y-35888D01*
X48711Y-35734D01*
X48630Y-35700D01*
X48711Y-35666D01*
X48865Y-35511D01*
X48899Y-35430D01*
X48933Y-35511D01*
X49088Y-35665D01*
X49163Y-35697D01*
X49112Y-35718D01*
X49084Y-35814D01*
X49400Y-36129D01*
X49715Y-35814D01*
X49687Y-35718D01*
X49632Y-35699D01*
X49711Y-35666D01*
X49865Y-35511D01*
X49930Y-35357D01*
X49930Y-36030D01*
X49881Y-35912D01*
X49785Y-35884D01*
X49470Y-36200D01*
X49785Y-36515D01*
X49881Y-36487D01*
X49930Y-36350D01*
X49930Y-37043D01*
X49930Y-37043D01*
G37*
G54D24*
X49930Y-37043D02*
X49866Y-36888D01*
X49711Y-36734D01*
X49636Y-36702D01*
X49687Y-36681D01*
X49715Y-36585D01*
X49400Y-36270D01*
X49084Y-36585D01*
X49112Y-36681D01*
X49167Y-36700D01*
X49088Y-36733D01*
X48934Y-36888D01*
X48900Y-36969D01*
X48866Y-36888D01*
X48711Y-36734D01*
X48630Y-36700D01*
X48711Y-36666D01*
X48865Y-36511D01*
X48897Y-36436D01*
X48918Y-36487D01*
X49014Y-36515D01*
X49329Y-36200D01*
X49014Y-35884D01*
X48918Y-35912D01*
X48899Y-35967D01*
X48866Y-35888D01*
X48711Y-35734D01*
X48630Y-35700D01*
X48711Y-35666D01*
X48865Y-35511D01*
X48899Y-35430D01*
X48933Y-35511D01*
X49088Y-35665D01*
X49163Y-35697D01*
X49112Y-35718D01*
X49084Y-35814D01*
X49400Y-36129D01*
X49715Y-35814D01*
X49687Y-35718D01*
X49632Y-35699D01*
X49711Y-35666D01*
X49865Y-35511D01*
X49930Y-35357D01*
X49930Y-36030D01*
X49881Y-35912D01*
X49785Y-35884D01*
X49470Y-36200D01*
X49785Y-36515D01*
X49881Y-36487D01*
X49930Y-36350D01*
X49930Y-37043D01*
G54D10*
G36*
X49930Y-46043D02*
X49866Y-45888D01*
X49711Y-45734D01*
X49636Y-45702D01*
X49687Y-45681D01*
X49715Y-45585D01*
X49400Y-45270D01*
X49084Y-45585D01*
X49112Y-45681D01*
X49167Y-45700D01*
X49088Y-45733D01*
X48934Y-45888D01*
X48900Y-45969D01*
X48866Y-45888D01*
X48711Y-45734D01*
X48630Y-45700D01*
X48711Y-45666D01*
X48865Y-45511D01*
X48897Y-45436D01*
X48918Y-45487D01*
X49014Y-45515D01*
X49329Y-45200D01*
X49014Y-44884D01*
X48918Y-44912D01*
X48899Y-44967D01*
X48866Y-44888D01*
X48711Y-44734D01*
X48630Y-44700D01*
X48711Y-44666D01*
X48865Y-44511D01*
X48899Y-44430D01*
X48933Y-44511D01*
X49088Y-44665D01*
X49163Y-44697D01*
X49112Y-44718D01*
X49084Y-44814D01*
X49400Y-45129D01*
X49715Y-44814D01*
X49687Y-44718D01*
X49632Y-44699D01*
X49711Y-44666D01*
X49865Y-44511D01*
X49930Y-44357D01*
X49930Y-45030D01*
X49881Y-44912D01*
X49785Y-44884D01*
X49470Y-45200D01*
X49785Y-45515D01*
X49881Y-45487D01*
X49930Y-45350D01*
X49930Y-46043D01*
X49930Y-46043D01*
G37*
G54D24*
X49930Y-46043D02*
X49866Y-45888D01*
X49711Y-45734D01*
X49636Y-45702D01*
X49687Y-45681D01*
X49715Y-45585D01*
X49400Y-45270D01*
X49084Y-45585D01*
X49112Y-45681D01*
X49167Y-45700D01*
X49088Y-45733D01*
X48934Y-45888D01*
X48900Y-45969D01*
X48866Y-45888D01*
X48711Y-45734D01*
X48630Y-45700D01*
X48711Y-45666D01*
X48865Y-45511D01*
X48897Y-45436D01*
X48918Y-45487D01*
X49014Y-45515D01*
X49329Y-45200D01*
X49014Y-44884D01*
X48918Y-44912D01*
X48899Y-44967D01*
X48866Y-44888D01*
X48711Y-44734D01*
X48630Y-44700D01*
X48711Y-44666D01*
X48865Y-44511D01*
X48899Y-44430D01*
X48933Y-44511D01*
X49088Y-44665D01*
X49163Y-44697D01*
X49112Y-44718D01*
X49084Y-44814D01*
X49400Y-45129D01*
X49715Y-44814D01*
X49687Y-44718D01*
X49632Y-44699D01*
X49711Y-44666D01*
X49865Y-44511D01*
X49930Y-44357D01*
X49930Y-45030D01*
X49881Y-44912D01*
X49785Y-44884D01*
X49470Y-45200D01*
X49785Y-45515D01*
X49881Y-45487D01*
X49930Y-45350D01*
X49930Y-46043D01*
G54D10*
G36*
X47450Y-17194D02*
X41979Y-17194D01*
X41979Y-15246D01*
X44874Y-15246D01*
X44874Y-15349D01*
X44912Y-15441D01*
X44983Y-15511D01*
X45075Y-15549D01*
X45174Y-15550D01*
X45290Y-15550D01*
X45400Y-15571D01*
X46200Y-15571D01*
X46309Y-15550D01*
X46524Y-15550D01*
X46574Y-15529D01*
X46574Y-15584D01*
X46639Y-15740D01*
X46642Y-15743D01*
X46642Y-15857D01*
X46755Y-15857D01*
X46758Y-15860D01*
X46915Y-15924D01*
X47084Y-15925D01*
X47240Y-15860D01*
X47243Y-15857D01*
X47450Y-15857D01*
X47450Y-16048D01*
X47439Y-16058D01*
X47375Y-16215D01*
X47374Y-16384D01*
X47439Y-16540D01*
X47450Y-16550D01*
X47450Y-17194D01*
X47450Y-17194D01*
G37*
G54D24*
X47450Y-17194D02*
X41979Y-17194D01*
X41979Y-15246D01*
X44874Y-15246D01*
X44874Y-15349D01*
X44912Y-15441D01*
X44983Y-15511D01*
X45075Y-15549D01*
X45174Y-15550D01*
X45290Y-15550D01*
X45400Y-15571D01*
X46200Y-15571D01*
X46309Y-15550D01*
X46524Y-15550D01*
X46574Y-15529D01*
X46574Y-15584D01*
X46639Y-15740D01*
X46642Y-15743D01*
X46642Y-15857D01*
X46755Y-15857D01*
X46758Y-15860D01*
X46915Y-15924D01*
X47084Y-15925D01*
X47240Y-15860D01*
X47243Y-15857D01*
X47450Y-15857D01*
X47450Y-16048D01*
X47439Y-16058D01*
X47375Y-16215D01*
X47374Y-16384D01*
X47439Y-16540D01*
X47450Y-16550D01*
X47450Y-17194D01*
M02*
